<?xml version="1.0" encoding="utf-8" standalone="no"?>
<!DOCTYPE svg PUBLIC "-//W3C//DTD SVG 1.1//EN"
  "http://www.w3.org/Graphics/SVG/1.1/DTD/svg11.dtd">
<svg xmlns:xlink="http://www.w3.org/1999/xlink" width="372.69pt" height="288pt" viewBox="0 0 372.69 288" xmlns="http://www.w3.org/2000/svg" version="1.1">
 <metadata>
  <rdf:RDF xmlns:dc="http://purl.org/dc/elements/1.1/" xmlns:cc="http://creativecommons.org/ns#" xmlns:rdf="http://www.w3.org/1999/02/22-rdf-syntax-ns#">
   <cc:Work>
    <dc:type rdf:resource="http://purl.org/dc/dcmitype/StillImage"/>
    <dc:date>2023-02-15T10:57:03.036539</dc:date>
    <dc:format>image/svg+xml</dc:format>
    <dc:creator>
     <cc:Agent>
      <dc:title>Matplotlib v3.6.3, https://matplotlib.org/</dc:title>
     </cc:Agent>
    </dc:creator>
   </cc:Work>
  </rdf:RDF>
 </metadata>
 <defs>
  <style type="text/css">*{stroke-linejoin: round; stroke-linecap: butt}</style>
 </defs>
 <g id="figure_1">
  <g id="patch_1">
   <path d="M 0 288 
L 372.69 288 
L 372.69 0 
L 0 0 
z
" style="fill: #ffffff"/>
  </g>
  <g id="axes_1">
   <g id="patch_2">
    <path d="M 60.32 246.04 
L 273.4731 246.04 
L 273.4731 10.8 
L 60.32 10.8 
z
" style="fill: #ffffff"/>
   </g>
   <g id="PathCollection_1">
    <path d="M 139.566451 179.005279 
C 140.892466 179.005279 142.16435 178.478448 143.101985 177.540813 
C 144.039619 176.603179 144.566451 175.331295 144.566451 174.005279 
C 144.566451 172.679264 144.039619 171.40738 143.101985 170.469746 
C 142.16435 169.532111 140.892466 169.005279 139.566451 169.005279 
C 138.240435 169.005279 136.968552 169.532111 136.030917 170.469746 
C 135.093282 171.40738 134.566451 172.679264 134.566451 174.005279 
C 134.566451 175.331295 135.093282 176.603179 136.030917 177.540813 
C 136.968552 178.478448 138.240435 179.005279 139.566451 179.005279 
z
" clip-path="url(#pef05e4ba12)" style="fill: #1f77b4; stroke: #ffffff; stroke-width: 0.8"/>
    <path d="M 155.573375 154.7055 
L 158.073375 152.2055 
L 160.573375 154.7055 
L 163.073375 152.2055 
L 160.573375 149.7055 
L 163.073375 147.2055 
L 160.573375 144.7055 
L 158.073375 147.2055 
L 155.573375 144.7055 
L 153.073375 147.2055 
L 155.573375 149.7055 
L 153.073375 152.2055 
z
" clip-path="url(#pef05e4ba12)" style="fill: #1f77b4; stroke: #ffffff; stroke-width: 0.8"/>
    <path d="M 83.966287 186.80656 
C 85.292303 186.80656 86.564187 186.279728 87.501821 185.342094 
C 88.439456 184.404459 88.966287 183.132575 88.966287 181.80656 
C 88.966287 180.480544 88.439456 179.20866 87.501821 178.271026 
C 86.564187 177.333391 85.292303 176.80656 83.966287 176.80656 
C 82.640272 176.80656 81.368388 177.333391 80.430754 178.271026 
C 79.493119 179.20866 78.966287 180.480544 78.966287 181.80656 
C 78.966287 183.132575 79.493119 184.404459 80.430754 185.342094 
C 81.368388 186.279728 82.640272 186.80656 83.966287 186.80656 
z
" clip-path="url(#pef05e4ba12)" style="fill: #ff7f0e; stroke: #ffffff; stroke-width: 0.8"/>
    <path d="M 67.508777 172.660124 
L 70.008777 170.160124 
L 72.508777 172.660124 
L 75.008777 170.160124 
L 72.508777 167.660124 
L 75.008777 165.160124 
L 72.508777 162.660124 
L 70.008777 165.160124 
L 67.508777 162.660124 
L 65.008777 165.160124 
L 67.508777 167.660124 
L 65.008777 170.160124 
z
" clip-path="url(#pef05e4ba12)" style="fill: #ff7f0e; stroke: #ffffff; stroke-width: 0.8"/>
    <path d="M 177.445653 149.99734 
C 178.771669 149.99734 180.043553 149.470509 180.981187 148.532874 
C 181.918822 147.59524 182.445653 146.323356 182.445653 144.99734 
C 182.445653 143.671325 181.918822 142.399441 180.981187 141.461806 
C 180.043553 140.524172 178.771669 139.99734 177.445653 139.99734 
C 176.119638 139.99734 174.847754 140.524172 173.91012 141.461806 
C 172.972485 142.399441 172.445653 143.671325 172.445653 144.99734 
C 172.445653 146.323356 172.972485 147.59524 173.91012 148.532874 
C 174.847754 149.470509 176.119638 149.99734 177.445653 149.99734 
z
" clip-path="url(#pef05e4ba12)" style="fill: #1f77b4; stroke: #ffffff; stroke-width: 0.8"/>
    <path d="M 225.695188 133.647652 
L 228.195188 131.147652 
L 230.695188 133.647652 
L 233.195188 131.147652 
L 230.695188 128.647652 
L 233.195188 126.147652 
L 230.695188 123.647652 
L 228.195188 126.147652 
L 225.695188 123.647652 
L 223.195188 126.147652 
L 225.695188 128.647652 
L 223.195188 131.147652 
z
" clip-path="url(#pef05e4ba12)" style="fill: #1f77b4; stroke: #ffffff; stroke-width: 0.8"/>
    <path d="M 110.976874 184.054614 
C 112.302889 184.054614 113.574773 183.527782 114.512408 182.590147 
C 115.450042 181.652513 115.976874 180.380629 115.976874 179.054614 
C 115.976874 177.728598 115.450042 176.456714 114.512408 175.51908 
C 113.574773 174.581445 112.302889 174.054614 110.976874 174.054614 
C 109.650858 174.054614 108.378975 174.581445 107.44134 175.51908 
C 106.503705 176.456714 105.976874 177.728598 105.976874 179.054614 
C 105.976874 180.380629 106.503705 181.652513 107.44134 182.590147 
C 108.378975 183.527782 109.650858 184.054614 110.976874 184.054614 
z
" clip-path="url(#pef05e4ba12)" style="fill: #ff7f0e; stroke: #ffffff; stroke-width: 0.8"/>
    <path d="M 136.024389 158.642919 
L 138.524389 156.142919 
L 141.024389 158.642919 
L 143.524389 156.142919 
L 141.024389 153.642919 
L 143.524389 151.142919 
L 141.024389 148.642919 
L 138.524389 151.142919 
L 136.024389 148.642919 
L 133.524389 151.142919 
L 136.024389 153.642919 
L 133.524389 156.142919 
z
" clip-path="url(#pef05e4ba12)" style="fill: #ff7f0e; stroke: #ffffff; stroke-width: 0.8"/>
    <path d="M 232.121463 99.725381 
C 233.447478 99.725381 234.719362 99.19855 235.656997 98.260915 
C 236.594631 97.323281 237.121463 96.051397 237.121463 94.725381 
C 237.121463 93.399366 236.594631 92.127482 235.656997 91.189847 
C 234.719362 90.252213 233.447478 89.725381 232.121463 89.725381 
C 230.795447 89.725381 229.523563 90.252213 228.585929 91.189847 
C 227.648294 92.127482 227.121463 93.399366 227.121463 94.725381 
C 227.121463 96.051397 227.648294 97.323281 228.585929 98.260915 
C 229.523563 99.19855 230.795447 99.725381 232.121463 99.725381 
z
" clip-path="url(#pef05e4ba12)" style="fill: #1f77b4; stroke: #ffffff; stroke-width: 0.8"/>
    <path d="M 261.284323 120.860159 
L 263.784323 118.360159 
L 266.284323 120.860159 
L 268.784323 118.360159 
L 266.284323 115.860159 
L 268.784323 113.360159 
L 266.284323 110.860159 
L 263.784323 113.360159 
L 261.284323 110.860159 
L 258.784323 113.360159 
L 261.284323 115.860159 
L 258.784323 118.360159 
z
" clip-path="url(#pef05e4ba12)" style="fill: #1f77b4; stroke: #ffffff; stroke-width: 0.8"/>
    <path d="M 180.686993 128.954404 
C 182.013008 128.954404 183.284892 128.427573 184.222527 127.489938 
C 185.160161 126.552304 185.686993 125.28042 185.686993 123.954404 
C 185.686993 122.628389 185.160161 121.356505 184.222527 120.418871 
C 183.284892 119.481236 182.013008 118.954404 180.686993 118.954404 
C 179.360977 118.954404 178.089094 119.481236 177.151459 120.418871 
C 176.213824 121.356505 175.686993 122.628389 175.686993 123.954404 
C 175.686993 125.28042 176.213824 126.552304 177.151459 127.489938 
C 178.089094 128.427573 179.360977 128.954404 180.686993 128.954404 
z
" clip-path="url(#pef05e4ba12)" style="fill: #ff7f0e; stroke: #ffffff; stroke-width: 0.8"/>
    <path d="M 171.596393 144.327467 
L 174.096393 141.827467 
L 176.596393 144.327467 
L 179.096393 141.827467 
L 176.596393 139.327467 
L 179.096393 136.827467 
L 176.596393 134.327467 
L 174.096393 136.827467 
L 171.596393 134.327467 
L 169.096393 136.827467 
L 171.596393 139.327467 
L 169.096393 141.827467 
z
" clip-path="url(#pef05e4ba12)" style="fill: #ff7f0e; stroke: #ffffff; stroke-width: 0.8"/>
   </g>
   <g id="PathCollection_2"/>
   <g id="PathCollection_3"/>
   <g id="PathCollection_4"/>
   <g id="PathCollection_5"/>
   <g id="PathCollection_6">
    <defs>
     <path id="mc852231d87" d="M 0 0 
C 0 0 0 0 0 0 
C 0 0 0 0 0 0 
C 0 0 0 0 0 0 
C 0 0 0 0 0 0 
C 0 0 0 0 0 0 
C 0 0 0 0 0 0 
C 0 0 0 0 0 0 
C 0 0 0 0 0 0 
z
" style="stroke: #1f77b4; stroke-opacity: 0.8"/>
    </defs>
    <g clip-path="url(#pef05e4ba12)">
     <use xlink:href="#mc852231d87" x="139.566451" y="174.005279" style="fill: #1f77b4; fill-opacity: 0.8; stroke: #1f77b4; stroke-opacity: 0.8"/>
     <use xlink:href="#mc852231d87" x="158.073375" y="149.7055" style="fill: #1f77b4; fill-opacity: 0.8; stroke: #1f77b4; stroke-opacity: 0.8"/>
     <use xlink:href="#mc852231d87" x="83.966287" y="181.80656" style="fill: #1f77b4; fill-opacity: 0.8; stroke: #1f77b4; stroke-opacity: 0.8"/>
     <use xlink:href="#mc852231d87" x="70.008777" y="167.660124" style="fill: #1f77b4; fill-opacity: 0.8; stroke: #1f77b4; stroke-opacity: 0.8"/>
     <use xlink:href="#mc852231d87" x="177.445653" y="144.99734" style="fill: #1f77b4; fill-opacity: 0.8; stroke: #1f77b4; stroke-opacity: 0.8"/>
     <use xlink:href="#mc852231d87" x="228.195188" y="128.647652" style="fill: #1f77b4; fill-opacity: 0.8; stroke: #1f77b4; stroke-opacity: 0.8"/>
     <use xlink:href="#mc852231d87" x="110.976874" y="179.054614" style="fill: #1f77b4; fill-opacity: 0.8; stroke: #1f77b4; stroke-opacity: 0.8"/>
     <use xlink:href="#mc852231d87" x="138.524389" y="153.642919" style="fill: #1f77b4; fill-opacity: 0.8; stroke: #1f77b4; stroke-opacity: 0.8"/>
     <use xlink:href="#mc852231d87" x="232.121463" y="94.725381" style="fill: #1f77b4; fill-opacity: 0.8; stroke: #1f77b4; stroke-opacity: 0.8"/>
     <use xlink:href="#mc852231d87" x="263.784323" y="115.860159" style="fill: #1f77b4; fill-opacity: 0.8; stroke: #1f77b4; stroke-opacity: 0.8"/>
     <use xlink:href="#mc852231d87" x="180.686993" y="123.954404" style="fill: #1f77b4; fill-opacity: 0.8; stroke: #1f77b4; stroke-opacity: 0.8"/>
     <use xlink:href="#mc852231d87" x="174.096393" y="139.327467" style="fill: #1f77b4; fill-opacity: 0.8; stroke: #1f77b4; stroke-opacity: 0.8"/>
    </g>
   </g>
   <g id="PolyCollection_1">
    <path d="M 70.008777 170.589721 
L 70.008777 200.08006 
L 71.966106 199.009373 
L 73.923435 197.948213 
L 75.880763 196.887053 
L 77.838092 195.839286 
L 79.795421 194.679628 
L 81.75275 193.501897 
L 83.710078 192.37378 
L 85.667407 191.36163 
L 87.624736 190.349044 
L 89.582065 189.293957 
L 91.539393 188.32854 
L 93.496722 187.31438 
L 95.454051 186.249358 
L 97.41138 185.183858 
L 99.368708 184.118357 
L 101.326037 183.052857 
L 103.283366 182.032273 
L 105.240695 181.039112 
L 107.198023 180.136558 
L 109.155352 179.145118 
L 111.112681 178.08649 
L 113.07001 177.026795 
L 115.027338 175.958142 
L 116.984667 174.991323 
L 118.941996 174.026603 
L 120.899325 173.02474 
L 122.856653 171.845287 
L 124.813982 170.915877 
L 126.771311 170.052971 
L 128.72864 169.013806 
L 130.685968 168.132553 
L 132.643297 167.124729 
L 134.600626 166.142662 
L 136.557954 165.071714 
L 138.515283 163.903326 
L 140.472612 163.066421 
L 142.429941 162.085594 
L 144.387269 161.120771 
L 146.344598 160.28636 
L 148.301927 159.443343 
L 150.259256 158.652818 
L 152.216584 157.910531 
L 154.173913 157.106504 
L 156.131242 156.311057 
L 158.088571 155.528596 
L 160.045899 154.741386 
L 162.003228 153.954945 
L 163.960557 153.184603 
L 165.917886 152.403518 
L 167.875214 151.597686 
L 169.832543 150.8327 
L 171.789872 150.059641 
L 173.747201 149.236823 
L 175.704529 148.512605 
L 177.661858 147.829952 
L 179.619187 147.110756 
L 181.576516 146.420807 
L 183.533844 145.7059 
L 185.491173 144.926518 
L 187.448502 144.180229 
L 189.405831 143.56092 
L 191.363159 142.902696 
L 193.320488 142.193039 
L 195.277817 141.497036 
L 197.235146 140.851689 
L 199.192474 140.153585 
L 201.149803 139.567273 
L 203.107132 138.75268 
L 205.06446 138.216485 
L 207.021789 137.469558 
L 208.979118 136.714696 
L 210.936447 136.119046 
L 212.893775 135.550347 
L 214.851104 134.963793 
L 216.808433 134.320286 
L 218.765762 133.614598 
L 220.72309 132.921152 
L 222.680419 132.326415 
L 224.637748 131.614229 
L 226.595077 130.907956 
L 228.552405 130.268954 
L 230.509734 129.641618 
L 232.467063 128.993858 
L 234.424392 128.412944 
L 236.38172 127.832707 
L 238.339049 127.209646 
L 240.296378 126.585658 
L 242.253707 125.974949 
L 244.211035 125.373119 
L 246.168364 124.779665 
L 248.125693 124.18838 
L 250.083022 123.597095 
L 252.04035 123.005811 
L 253.997679 122.414526 
L 255.955008 121.823241 
L 257.912337 121.218126 
L 259.869665 120.629133 
L 261.826994 120.035446 
L 263.784323 119.438568 
L 263.784323 84.667537 
L 263.784323 84.667537 
L 261.826994 85.696269 
L 259.869665 86.725001 
L 257.912337 87.753734 
L 255.955008 88.782466 
L 253.997679 89.832752 
L 252.04035 90.985484 
L 250.083022 92.139488 
L 248.125693 93.295592 
L 246.168364 94.451696 
L 244.211035 95.6078 
L 242.253707 96.763904 
L 240.296378 97.902813 
L 238.339049 99.037984 
L 236.38172 100.216628 
L 234.424392 101.383227 
L 232.467063 102.537253 
L 230.509734 103.691881 
L 228.552405 104.732868 
L 226.595077 105.825074 
L 224.637748 107.02597 
L 222.680419 108.134275 
L 220.72309 109.21511 
L 218.765762 110.507218 
L 216.808433 111.630332 
L 214.851104 112.614709 
L 212.893775 113.57505 
L 210.936447 114.538006 
L 208.979118 115.565257 
L 207.021789 116.53197 
L 205.06446 117.493206 
L 203.107132 118.540189 
L 201.149803 119.829281 
L 199.192474 120.947551 
L 197.235146 122.102339 
L 195.277817 123.170701 
L 193.320488 124.287478 
L 191.363159 125.435472 
L 189.405831 126.49683 
L 187.448502 127.451562 
L 185.491173 128.375097 
L 183.533844 129.289955 
L 181.576516 130.23399 
L 179.619187 131.143642 
L 177.661858 132.281867 
L 175.704529 133.29747 
L 173.747201 134.169717 
L 171.789872 135.060562 
L 169.832543 135.898323 
L 167.875214 136.852195 
L 165.917886 137.612669 
L 163.960557 138.562744 
L 162.003228 139.428117 
L 160.045899 140.355084 
L 158.088571 141.170899 
L 156.131242 141.999782 
L 154.173913 142.819356 
L 152.216584 143.547338 
L 150.259256 144.268206 
L 148.301927 145.188495 
L 146.344598 146.093199 
L 144.387269 146.940305 
L 142.429941 147.751125 
L 140.472612 148.288231 
L 138.515283 148.825337 
L 136.557954 149.410383 
L 134.600626 150.15859 
L 132.643297 150.847863 
L 130.685968 151.615753 
L 128.72864 152.232465 
L 126.771311 152.833641 
L 124.813982 153.522685 
L 122.856653 154.155592 
L 120.899325 154.753404 
L 118.941996 155.386833 
L 116.984667 156.050624 
L 115.027338 156.710501 
L 113.07001 157.335949 
L 111.112681 157.853247 
L 109.155352 158.413606 
L 107.198023 159.049015 
L 105.240695 159.690186 
L 103.283366 160.210721 
L 101.326037 160.811845 
L 99.368708 161.499146 
L 97.41138 162.187612 
L 95.454051 162.87848 
L 93.496722 163.569349 
L 91.539393 164.260218 
L 89.582065 164.823803 
L 87.624736 165.49917 
L 85.667407 166.210215 
L 83.710078 166.85621 
L 81.75275 167.381795 
L 79.795421 167.937658 
L 77.838092 168.503705 
L 75.880763 169.025209 
L 73.923435 169.546713 
L 71.966106 170.068217 
L 70.008777 170.589721 
z
" clip-path="url(#pef05e4ba12)" style="fill: #808080; fill-opacity: 0.15"/>
   </g>
   <g id="matplotlib.axis_1">
    <g id="xtick_1">
     <g id="line2d_1">
      <defs>
       <path id="m889c6448c6" d="M 0 0 
L 0 3.5 
" style="stroke: #000000; stroke-width: 0.8"/>
      </defs>
      <g>
       <use xlink:href="#m889c6448c6" x="99.088773" y="246.04" style="stroke: #000000; stroke-width: 0.8"/>
      </g>
     </g>
     <g id="text_1">
      <!-- 0.025 -->
      <g transform="translate(84.774711 260.638438) scale(0.1 -0.1)">
       <defs>
        <path id="DejaVuSans-30" d="M 2034 4250 
Q 1547 4250 1301 3770 
Q 1056 3291 1056 2328 
Q 1056 1369 1301 889 
Q 1547 409 2034 409 
Q 2525 409 2770 889 
Q 3016 1369 3016 2328 
Q 3016 3291 2770 3770 
Q 2525 4250 2034 4250 
z
M 2034 4750 
Q 2819 4750 3233 4129 
Q 3647 3509 3647 2328 
Q 3647 1150 3233 529 
Q 2819 -91 2034 -91 
Q 1250 -91 836 529 
Q 422 1150 422 2328 
Q 422 3509 836 4129 
Q 1250 4750 2034 4750 
z
" transform="scale(0.015625)"/>
        <path id="DejaVuSans-2e" d="M 684 794 
L 1344 794 
L 1344 0 
L 684 0 
L 684 794 
z
" transform="scale(0.015625)"/>
        <path id="DejaVuSans-32" d="M 1228 531 
L 3431 531 
L 3431 0 
L 469 0 
L 469 531 
Q 828 903 1448 1529 
Q 2069 2156 2228 2338 
Q 2531 2678 2651 2914 
Q 2772 3150 2772 3378 
Q 2772 3750 2511 3984 
Q 2250 4219 1831 4219 
Q 1534 4219 1204 4116 
Q 875 4013 500 3803 
L 500 4441 
Q 881 4594 1212 4672 
Q 1544 4750 1819 4750 
Q 2544 4750 2975 4387 
Q 3406 4025 3406 3419 
Q 3406 3131 3298 2873 
Q 3191 2616 2906 2266 
Q 2828 2175 2409 1742 
Q 1991 1309 1228 531 
z
" transform="scale(0.015625)"/>
        <path id="DejaVuSans-35" d="M 691 4666 
L 3169 4666 
L 3169 4134 
L 1269 4134 
L 1269 2991 
Q 1406 3038 1543 3061 
Q 1681 3084 1819 3084 
Q 2600 3084 3056 2656 
Q 3513 2228 3513 1497 
Q 3513 744 3044 326 
Q 2575 -91 1722 -91 
Q 1428 -91 1123 -41 
Q 819 9 494 109 
L 494 744 
Q 775 591 1075 516 
Q 1375 441 1709 441 
Q 2250 441 2565 725 
Q 2881 1009 2881 1497 
Q 2881 1984 2565 2268 
Q 2250 2553 1709 2553 
Q 1456 2553 1204 2497 
Q 953 2441 691 2322 
L 691 4666 
z
" transform="scale(0.015625)"/>
       </defs>
       <use xlink:href="#DejaVuSans-30"/>
       <use xlink:href="#DejaVuSans-2e" x="63.623047"/>
       <use xlink:href="#DejaVuSans-30" x="95.410156"/>
       <use xlink:href="#DejaVuSans-32" x="159.033203"/>
       <use xlink:href="#DejaVuSans-35" x="222.65625"/>
      </g>
     </g>
    </g>
    <g id="xtick_2">
     <g id="line2d_2">
      <g>
       <use xlink:href="#m889c6448c6" x="139.220767" y="246.04" style="stroke: #000000; stroke-width: 0.8"/>
      </g>
     </g>
     <g id="text_2">
      <!-- 0.030 -->
      <g transform="translate(124.906705 260.638438) scale(0.1 -0.1)">
       <defs>
        <path id="DejaVuSans-33" d="M 2597 2516 
Q 3050 2419 3304 2112 
Q 3559 1806 3559 1356 
Q 3559 666 3084 287 
Q 2609 -91 1734 -91 
Q 1441 -91 1130 -33 
Q 819 25 488 141 
L 488 750 
Q 750 597 1062 519 
Q 1375 441 1716 441 
Q 2309 441 2620 675 
Q 2931 909 2931 1356 
Q 2931 1769 2642 2001 
Q 2353 2234 1838 2234 
L 1294 2234 
L 1294 2753 
L 1863 2753 
Q 2328 2753 2575 2939 
Q 2822 3125 2822 3475 
Q 2822 3834 2567 4026 
Q 2313 4219 1838 4219 
Q 1578 4219 1281 4162 
Q 984 4106 628 3988 
L 628 4550 
Q 988 4650 1302 4700 
Q 1616 4750 1894 4750 
Q 2613 4750 3031 4423 
Q 3450 4097 3450 3541 
Q 3450 3153 3228 2886 
Q 3006 2619 2597 2516 
z
" transform="scale(0.015625)"/>
       </defs>
       <use xlink:href="#DejaVuSans-30"/>
       <use xlink:href="#DejaVuSans-2e" x="63.623047"/>
       <use xlink:href="#DejaVuSans-30" x="95.410156"/>
       <use xlink:href="#DejaVuSans-33" x="159.033203"/>
       <use xlink:href="#DejaVuSans-30" x="222.65625"/>
      </g>
     </g>
    </g>
    <g id="xtick_3">
     <g id="line2d_3">
      <g>
       <use xlink:href="#m889c6448c6" x="179.352761" y="246.04" style="stroke: #000000; stroke-width: 0.8"/>
      </g>
     </g>
     <g id="text_3">
      <!-- 0.035 -->
      <g transform="translate(165.038699 260.638438) scale(0.1 -0.1)">
       <use xlink:href="#DejaVuSans-30"/>
       <use xlink:href="#DejaVuSans-2e" x="63.623047"/>
       <use xlink:href="#DejaVuSans-30" x="95.410156"/>
       <use xlink:href="#DejaVuSans-33" x="159.033203"/>
       <use xlink:href="#DejaVuSans-35" x="222.65625"/>
      </g>
     </g>
    </g>
    <g id="xtick_4">
     <g id="line2d_4">
      <g>
       <use xlink:href="#m889c6448c6" x="219.484756" y="246.04" style="stroke: #000000; stroke-width: 0.8"/>
      </g>
     </g>
     <g id="text_4">
      <!-- 0.040 -->
      <g transform="translate(205.170693 260.638438) scale(0.1 -0.1)">
       <defs>
        <path id="DejaVuSans-34" d="M 2419 4116 
L 825 1625 
L 2419 1625 
L 2419 4116 
z
M 2253 4666 
L 3047 4666 
L 3047 1625 
L 3713 1625 
L 3713 1100 
L 3047 1100 
L 3047 0 
L 2419 0 
L 2419 1100 
L 313 1100 
L 313 1709 
L 2253 4666 
z
" transform="scale(0.015625)"/>
       </defs>
       <use xlink:href="#DejaVuSans-30"/>
       <use xlink:href="#DejaVuSans-2e" x="63.623047"/>
       <use xlink:href="#DejaVuSans-30" x="95.410156"/>
       <use xlink:href="#DejaVuSans-34" x="159.033203"/>
       <use xlink:href="#DejaVuSans-30" x="222.65625"/>
      </g>
     </g>
    </g>
    <g id="xtick_5">
     <g id="line2d_5">
      <g>
       <use xlink:href="#m889c6448c6" x="259.61675" y="246.04" style="stroke: #000000; stroke-width: 0.8"/>
      </g>
     </g>
     <g id="text_5">
      <!-- 0.045 -->
      <g transform="translate(245.302687 260.638438) scale(0.1 -0.1)">
       <use xlink:href="#DejaVuSans-30"/>
       <use xlink:href="#DejaVuSans-2e" x="63.623047"/>
       <use xlink:href="#DejaVuSans-30" x="95.410156"/>
       <use xlink:href="#DejaVuSans-34" x="159.033203"/>
       <use xlink:href="#DejaVuSans-35" x="222.65625"/>
      </g>
     </g>
    </g>
    <g id="text_6">
     <!-- Predicted Activation (a.u.) -->
     <g transform="translate(101.903581 274.316562) scale(0.1 -0.1)">
      <defs>
       <path id="DejaVuSans-50" d="M 1259 4147 
L 1259 2394 
L 2053 2394 
Q 2494 2394 2734 2622 
Q 2975 2850 2975 3272 
Q 2975 3691 2734 3919 
Q 2494 4147 2053 4147 
L 1259 4147 
z
M 628 4666 
L 2053 4666 
Q 2838 4666 3239 4311 
Q 3641 3956 3641 3272 
Q 3641 2581 3239 2228 
Q 2838 1875 2053 1875 
L 1259 1875 
L 1259 0 
L 628 0 
L 628 4666 
z
" transform="scale(0.015625)"/>
       <path id="DejaVuSans-72" d="M 2631 2963 
Q 2534 3019 2420 3045 
Q 2306 3072 2169 3072 
Q 1681 3072 1420 2755 
Q 1159 2438 1159 1844 
L 1159 0 
L 581 0 
L 581 3500 
L 1159 3500 
L 1159 2956 
Q 1341 3275 1631 3429 
Q 1922 3584 2338 3584 
Q 2397 3584 2469 3576 
Q 2541 3569 2628 3553 
L 2631 2963 
z
" transform="scale(0.015625)"/>
       <path id="DejaVuSans-65" d="M 3597 1894 
L 3597 1613 
L 953 1613 
Q 991 1019 1311 708 
Q 1631 397 2203 397 
Q 2534 397 2845 478 
Q 3156 559 3463 722 
L 3463 178 
Q 3153 47 2828 -22 
Q 2503 -91 2169 -91 
Q 1331 -91 842 396 
Q 353 884 353 1716 
Q 353 2575 817 3079 
Q 1281 3584 2069 3584 
Q 2775 3584 3186 3129 
Q 3597 2675 3597 1894 
z
M 3022 2063 
Q 3016 2534 2758 2815 
Q 2500 3097 2075 3097 
Q 1594 3097 1305 2825 
Q 1016 2553 972 2059 
L 3022 2063 
z
" transform="scale(0.015625)"/>
       <path id="DejaVuSans-64" d="M 2906 2969 
L 2906 4863 
L 3481 4863 
L 3481 0 
L 2906 0 
L 2906 525 
Q 2725 213 2448 61 
Q 2172 -91 1784 -91 
Q 1150 -91 751 415 
Q 353 922 353 1747 
Q 353 2572 751 3078 
Q 1150 3584 1784 3584 
Q 2172 3584 2448 3432 
Q 2725 3281 2906 2969 
z
M 947 1747 
Q 947 1113 1208 752 
Q 1469 391 1925 391 
Q 2381 391 2643 752 
Q 2906 1113 2906 1747 
Q 2906 2381 2643 2742 
Q 2381 3103 1925 3103 
Q 1469 3103 1208 2742 
Q 947 2381 947 1747 
z
" transform="scale(0.015625)"/>
       <path id="DejaVuSans-69" d="M 603 3500 
L 1178 3500 
L 1178 0 
L 603 0 
L 603 3500 
z
M 603 4863 
L 1178 4863 
L 1178 4134 
L 603 4134 
L 603 4863 
z
" transform="scale(0.015625)"/>
       <path id="DejaVuSans-63" d="M 3122 3366 
L 3122 2828 
Q 2878 2963 2633 3030 
Q 2388 3097 2138 3097 
Q 1578 3097 1268 2742 
Q 959 2388 959 1747 
Q 959 1106 1268 751 
Q 1578 397 2138 397 
Q 2388 397 2633 464 
Q 2878 531 3122 666 
L 3122 134 
Q 2881 22 2623 -34 
Q 2366 -91 2075 -91 
Q 1284 -91 818 406 
Q 353 903 353 1747 
Q 353 2603 823 3093 
Q 1294 3584 2113 3584 
Q 2378 3584 2631 3529 
Q 2884 3475 3122 3366 
z
" transform="scale(0.015625)"/>
       <path id="DejaVuSans-74" d="M 1172 4494 
L 1172 3500 
L 2356 3500 
L 2356 3053 
L 1172 3053 
L 1172 1153 
Q 1172 725 1289 603 
Q 1406 481 1766 481 
L 2356 481 
L 2356 0 
L 1766 0 
Q 1100 0 847 248 
Q 594 497 594 1153 
L 594 3053 
L 172 3053 
L 172 3500 
L 594 3500 
L 594 4494 
L 1172 4494 
z
" transform="scale(0.015625)"/>
       <path id="DejaVuSans-20" transform="scale(0.015625)"/>
       <path id="DejaVuSans-41" d="M 2188 4044 
L 1331 1722 
L 3047 1722 
L 2188 4044 
z
M 1831 4666 
L 2547 4666 
L 4325 0 
L 3669 0 
L 3244 1197 
L 1141 1197 
L 716 0 
L 50 0 
L 1831 4666 
z
" transform="scale(0.015625)"/>
       <path id="DejaVuSans-76" d="M 191 3500 
L 800 3500 
L 1894 563 
L 2988 3500 
L 3597 3500 
L 2284 0 
L 1503 0 
L 191 3500 
z
" transform="scale(0.015625)"/>
       <path id="DejaVuSans-61" d="M 2194 1759 
Q 1497 1759 1228 1600 
Q 959 1441 959 1056 
Q 959 750 1161 570 
Q 1363 391 1709 391 
Q 2188 391 2477 730 
Q 2766 1069 2766 1631 
L 2766 1759 
L 2194 1759 
z
M 3341 1997 
L 3341 0 
L 2766 0 
L 2766 531 
Q 2569 213 2275 61 
Q 1981 -91 1556 -91 
Q 1019 -91 701 211 
Q 384 513 384 1019 
Q 384 1609 779 1909 
Q 1175 2209 1959 2209 
L 2766 2209 
L 2766 2266 
Q 2766 2663 2505 2880 
Q 2244 3097 1772 3097 
Q 1472 3097 1187 3025 
Q 903 2953 641 2809 
L 641 3341 
Q 956 3463 1253 3523 
Q 1550 3584 1831 3584 
Q 2591 3584 2966 3190 
Q 3341 2797 3341 1997 
z
" transform="scale(0.015625)"/>
       <path id="DejaVuSans-6f" d="M 1959 3097 
Q 1497 3097 1228 2736 
Q 959 2375 959 1747 
Q 959 1119 1226 758 
Q 1494 397 1959 397 
Q 2419 397 2687 759 
Q 2956 1122 2956 1747 
Q 2956 2369 2687 2733 
Q 2419 3097 1959 3097 
z
M 1959 3584 
Q 2709 3584 3137 3096 
Q 3566 2609 3566 1747 
Q 3566 888 3137 398 
Q 2709 -91 1959 -91 
Q 1206 -91 779 398 
Q 353 888 353 1747 
Q 353 2609 779 3096 
Q 1206 3584 1959 3584 
z
" transform="scale(0.015625)"/>
       <path id="DejaVuSans-6e" d="M 3513 2113 
L 3513 0 
L 2938 0 
L 2938 2094 
Q 2938 2591 2744 2837 
Q 2550 3084 2163 3084 
Q 1697 3084 1428 2787 
Q 1159 2491 1159 1978 
L 1159 0 
L 581 0 
L 581 3500 
L 1159 3500 
L 1159 2956 
Q 1366 3272 1645 3428 
Q 1925 3584 2291 3584 
Q 2894 3584 3203 3211 
Q 3513 2838 3513 2113 
z
" transform="scale(0.015625)"/>
       <path id="DejaVuSans-28" d="M 1984 4856 
Q 1566 4138 1362 3434 
Q 1159 2731 1159 2009 
Q 1159 1288 1364 580 
Q 1569 -128 1984 -844 
L 1484 -844 
Q 1016 -109 783 600 
Q 550 1309 550 2009 
Q 550 2706 781 3412 
Q 1013 4119 1484 4856 
L 1984 4856 
z
" transform="scale(0.015625)"/>
       <path id="DejaVuSans-75" d="M 544 1381 
L 544 3500 
L 1119 3500 
L 1119 1403 
Q 1119 906 1312 657 
Q 1506 409 1894 409 
Q 2359 409 2629 706 
Q 2900 1003 2900 1516 
L 2900 3500 
L 3475 3500 
L 3475 0 
L 2900 0 
L 2900 538 
Q 2691 219 2414 64 
Q 2138 -91 1772 -91 
Q 1169 -91 856 284 
Q 544 659 544 1381 
z
M 1991 3584 
L 1991 3584 
z
" transform="scale(0.015625)"/>
       <path id="DejaVuSans-29" d="M 513 4856 
L 1013 4856 
Q 1481 4119 1714 3412 
Q 1947 2706 1947 2009 
Q 1947 1309 1714 600 
Q 1481 -109 1013 -844 
L 513 -844 
Q 928 -128 1133 580 
Q 1338 1288 1338 2009 
Q 1338 2731 1133 3434 
Q 928 4138 513 4856 
z
" transform="scale(0.015625)"/>
      </defs>
      <use xlink:href="#DejaVuSans-50"/>
      <use xlink:href="#DejaVuSans-72" x="58.552734"/>
      <use xlink:href="#DejaVuSans-65" x="97.416016"/>
      <use xlink:href="#DejaVuSans-64" x="158.939453"/>
      <use xlink:href="#DejaVuSans-69" x="222.416016"/>
      <use xlink:href="#DejaVuSans-63" x="250.199219"/>
      <use xlink:href="#DejaVuSans-74" x="305.179688"/>
      <use xlink:href="#DejaVuSans-65" x="344.388672"/>
      <use xlink:href="#DejaVuSans-64" x="405.912109"/>
      <use xlink:href="#DejaVuSans-20" x="469.388672"/>
      <use xlink:href="#DejaVuSans-41" x="501.175781"/>
      <use xlink:href="#DejaVuSans-63" x="567.833984"/>
      <use xlink:href="#DejaVuSans-74" x="622.814453"/>
      <use xlink:href="#DejaVuSans-69" x="662.023438"/>
      <use xlink:href="#DejaVuSans-76" x="689.806641"/>
      <use xlink:href="#DejaVuSans-61" x="748.986328"/>
      <use xlink:href="#DejaVuSans-74" x="810.265625"/>
      <use xlink:href="#DejaVuSans-69" x="849.474609"/>
      <use xlink:href="#DejaVuSans-6f" x="877.257812"/>
      <use xlink:href="#DejaVuSans-6e" x="938.439453"/>
      <use xlink:href="#DejaVuSans-20" x="1001.818359"/>
      <use xlink:href="#DejaVuSans-28" x="1033.605469"/>
      <use xlink:href="#DejaVuSans-61" x="1072.619141"/>
      <use xlink:href="#DejaVuSans-2e" x="1133.898438"/>
      <use xlink:href="#DejaVuSans-75" x="1165.685547"/>
      <use xlink:href="#DejaVuSans-2e" x="1229.064453"/>
      <use xlink:href="#DejaVuSans-29" x="1260.851562"/>
     </g>
    </g>
   </g>
   <g id="matplotlib.axis_2">
    <g id="ytick_1">
     <g id="line2d_6">
      <defs>
       <path id="m577aee92f9" d="M 0 0 
L -3.5 0 
" style="stroke: #000000; stroke-width: 0.8"/>
      </defs>
      <g>
       <use xlink:href="#m577aee92f9" x="60.32" y="224.019113" style="stroke: #000000; stroke-width: 0.8"/>
      </g>
     </g>
     <g id="text_7">
      <!-- 0.000 -->
      <g transform="translate(24.691875 227.818332) scale(0.1 -0.1)">
       <use xlink:href="#DejaVuSans-30"/>
       <use xlink:href="#DejaVuSans-2e" x="63.623047"/>
       <use xlink:href="#DejaVuSans-30" x="95.410156"/>
       <use xlink:href="#DejaVuSans-30" x="159.033203"/>
       <use xlink:href="#DejaVuSans-30" x="222.65625"/>
      </g>
     </g>
    </g>
    <g id="ytick_2">
     <g id="line2d_7">
      <g>
       <use xlink:href="#m577aee92f9" x="60.32" y="196.989879" style="stroke: #000000; stroke-width: 0.8"/>
      </g>
     </g>
     <g id="text_8">
      <!-- 0.025 -->
      <g transform="translate(24.691875 200.789098) scale(0.1 -0.1)">
       <use xlink:href="#DejaVuSans-30"/>
       <use xlink:href="#DejaVuSans-2e" x="63.623047"/>
       <use xlink:href="#DejaVuSans-30" x="95.410156"/>
       <use xlink:href="#DejaVuSans-32" x="159.033203"/>
       <use xlink:href="#DejaVuSans-35" x="222.65625"/>
      </g>
     </g>
    </g>
    <g id="ytick_3">
     <g id="line2d_8">
      <g>
       <use xlink:href="#m577aee92f9" x="60.32" y="169.960645" style="stroke: #000000; stroke-width: 0.8"/>
      </g>
     </g>
     <g id="text_9">
      <!-- 0.050 -->
      <g transform="translate(24.691875 173.759863) scale(0.1 -0.1)">
       <use xlink:href="#DejaVuSans-30"/>
       <use xlink:href="#DejaVuSans-2e" x="63.623047"/>
       <use xlink:href="#DejaVuSans-30" x="95.410156"/>
       <use xlink:href="#DejaVuSans-35" x="159.033203"/>
       <use xlink:href="#DejaVuSans-30" x="222.65625"/>
      </g>
     </g>
    </g>
    <g id="ytick_4">
     <g id="line2d_9">
      <g>
       <use xlink:href="#m577aee92f9" x="60.32" y="142.93141" style="stroke: #000000; stroke-width: 0.8"/>
      </g>
     </g>
     <g id="text_10">
      <!-- 0.075 -->
      <g transform="translate(24.691875 146.730629) scale(0.1 -0.1)">
       <defs>
        <path id="DejaVuSans-37" d="M 525 4666 
L 3525 4666 
L 3525 4397 
L 1831 0 
L 1172 0 
L 2766 4134 
L 525 4134 
L 525 4666 
z
" transform="scale(0.015625)"/>
       </defs>
       <use xlink:href="#DejaVuSans-30"/>
       <use xlink:href="#DejaVuSans-2e" x="63.623047"/>
       <use xlink:href="#DejaVuSans-30" x="95.410156"/>
       <use xlink:href="#DejaVuSans-37" x="159.033203"/>
       <use xlink:href="#DejaVuSans-35" x="222.65625"/>
      </g>
     </g>
    </g>
    <g id="ytick_5">
     <g id="line2d_10">
      <g>
       <use xlink:href="#m577aee92f9" x="60.32" y="115.902176" style="stroke: #000000; stroke-width: 0.8"/>
      </g>
     </g>
     <g id="text_11">
      <!-- 0.100 -->
      <g transform="translate(24.691875 119.701395) scale(0.1 -0.1)">
       <defs>
        <path id="DejaVuSans-31" d="M 794 531 
L 1825 531 
L 1825 4091 
L 703 3866 
L 703 4441 
L 1819 4666 
L 2450 4666 
L 2450 531 
L 3481 531 
L 3481 0 
L 794 0 
L 794 531 
z
" transform="scale(0.015625)"/>
       </defs>
       <use xlink:href="#DejaVuSans-30"/>
       <use xlink:href="#DejaVuSans-2e" x="63.623047"/>
       <use xlink:href="#DejaVuSans-31" x="95.410156"/>
       <use xlink:href="#DejaVuSans-30" x="159.033203"/>
       <use xlink:href="#DejaVuSans-30" x="222.65625"/>
      </g>
     </g>
    </g>
    <g id="ytick_6">
     <g id="line2d_11">
      <g>
       <use xlink:href="#m577aee92f9" x="60.32" y="88.872941" style="stroke: #000000; stroke-width: 0.8"/>
      </g>
     </g>
     <g id="text_12">
      <!-- 0.125 -->
      <g transform="translate(24.691875 92.67216) scale(0.1 -0.1)">
       <use xlink:href="#DejaVuSans-30"/>
       <use xlink:href="#DejaVuSans-2e" x="63.623047"/>
       <use xlink:href="#DejaVuSans-31" x="95.410156"/>
       <use xlink:href="#DejaVuSans-32" x="159.033203"/>
       <use xlink:href="#DejaVuSans-35" x="222.65625"/>
      </g>
     </g>
    </g>
    <g id="ytick_7">
     <g id="line2d_12">
      <g>
       <use xlink:href="#m577aee92f9" x="60.32" y="61.843707" style="stroke: #000000; stroke-width: 0.8"/>
      </g>
     </g>
     <g id="text_13">
      <!-- 0.150 -->
      <g transform="translate(24.691875 65.642926) scale(0.1 -0.1)">
       <use xlink:href="#DejaVuSans-30"/>
       <use xlink:href="#DejaVuSans-2e" x="63.623047"/>
       <use xlink:href="#DejaVuSans-31" x="95.410156"/>
       <use xlink:href="#DejaVuSans-35" x="159.033203"/>
       <use xlink:href="#DejaVuSans-30" x="222.65625"/>
      </g>
     </g>
    </g>
    <g id="ytick_8">
     <g id="line2d_13">
      <g>
       <use xlink:href="#m577aee92f9" x="60.32" y="34.814473" style="stroke: #000000; stroke-width: 0.8"/>
      </g>
     </g>
     <g id="text_14">
      <!-- 0.175 -->
      <g transform="translate(24.691875 38.613691) scale(0.1 -0.1)">
       <use xlink:href="#DejaVuSans-30"/>
       <use xlink:href="#DejaVuSans-2e" x="63.623047"/>
       <use xlink:href="#DejaVuSans-31" x="95.410156"/>
       <use xlink:href="#DejaVuSans-37" x="159.033203"/>
       <use xlink:href="#DejaVuSans-35" x="222.65625"/>
      </g>
     </g>
    </g>
    <g id="text_15">
     <!-- Cerebellar Activation (a.u.) -->
     <g transform="translate(18.612187 195.678594) rotate(-90) scale(0.1 -0.1)">
      <defs>
       <path id="DejaVuSans-43" d="M 4122 4306 
L 4122 3641 
Q 3803 3938 3442 4084 
Q 3081 4231 2675 4231 
Q 1875 4231 1450 3742 
Q 1025 3253 1025 2328 
Q 1025 1406 1450 917 
Q 1875 428 2675 428 
Q 3081 428 3442 575 
Q 3803 722 4122 1019 
L 4122 359 
Q 3791 134 3420 21 
Q 3050 -91 2638 -91 
Q 1578 -91 968 557 
Q 359 1206 359 2328 
Q 359 3453 968 4101 
Q 1578 4750 2638 4750 
Q 3056 4750 3426 4639 
Q 3797 4528 4122 4306 
z
" transform="scale(0.015625)"/>
       <path id="DejaVuSans-62" d="M 3116 1747 
Q 3116 2381 2855 2742 
Q 2594 3103 2138 3103 
Q 1681 3103 1420 2742 
Q 1159 2381 1159 1747 
Q 1159 1113 1420 752 
Q 1681 391 2138 391 
Q 2594 391 2855 752 
Q 3116 1113 3116 1747 
z
M 1159 2969 
Q 1341 3281 1617 3432 
Q 1894 3584 2278 3584 
Q 2916 3584 3314 3078 
Q 3713 2572 3713 1747 
Q 3713 922 3314 415 
Q 2916 -91 2278 -91 
Q 1894 -91 1617 61 
Q 1341 213 1159 525 
L 1159 0 
L 581 0 
L 581 4863 
L 1159 4863 
L 1159 2969 
z
" transform="scale(0.015625)"/>
       <path id="DejaVuSans-6c" d="M 603 4863 
L 1178 4863 
L 1178 0 
L 603 0 
L 603 4863 
z
" transform="scale(0.015625)"/>
      </defs>
      <use xlink:href="#DejaVuSans-43"/>
      <use xlink:href="#DejaVuSans-65" x="69.824219"/>
      <use xlink:href="#DejaVuSans-72" x="131.347656"/>
      <use xlink:href="#DejaVuSans-65" x="170.210938"/>
      <use xlink:href="#DejaVuSans-62" x="231.734375"/>
      <use xlink:href="#DejaVuSans-65" x="295.210938"/>
      <use xlink:href="#DejaVuSans-6c" x="356.734375"/>
      <use xlink:href="#DejaVuSans-6c" x="384.517578"/>
      <use xlink:href="#DejaVuSans-61" x="412.300781"/>
      <use xlink:href="#DejaVuSans-72" x="473.580078"/>
      <use xlink:href="#DejaVuSans-20" x="514.693359"/>
      <use xlink:href="#DejaVuSans-41" x="546.480469"/>
      <use xlink:href="#DejaVuSans-63" x="613.138672"/>
      <use xlink:href="#DejaVuSans-74" x="668.119141"/>
      <use xlink:href="#DejaVuSans-69" x="707.328125"/>
      <use xlink:href="#DejaVuSans-76" x="735.111328"/>
      <use xlink:href="#DejaVuSans-61" x="794.291016"/>
      <use xlink:href="#DejaVuSans-74" x="855.570312"/>
      <use xlink:href="#DejaVuSans-69" x="894.779297"/>
      <use xlink:href="#DejaVuSans-6f" x="922.5625"/>
      <use xlink:href="#DejaVuSans-6e" x="983.744141"/>
      <use xlink:href="#DejaVuSans-20" x="1047.123047"/>
      <use xlink:href="#DejaVuSans-28" x="1078.910156"/>
      <use xlink:href="#DejaVuSans-61" x="1117.923828"/>
      <use xlink:href="#DejaVuSans-2e" x="1179.203125"/>
      <use xlink:href="#DejaVuSans-75" x="1210.990234"/>
      <use xlink:href="#DejaVuSans-2e" x="1274.369141"/>
      <use xlink:href="#DejaVuSans-29" x="1306.15625"/>
     </g>
    </g>
   </g>
   <g id="line2d_14">
    <path d="M 70.008777 183.78469 
L 71.966106 182.992838 
L 73.923435 182.200985 
L 75.880763 181.409133 
L 77.838092 180.617281 
L 79.795421 179.825428 
L 81.75275 179.033576 
L 83.710078 178.241723 
L 85.667407 177.449871 
L 87.624736 176.658018 
L 89.582065 175.866166 
L 91.539393 175.074313 
L 93.496722 174.282461 
L 95.454051 173.490608 
L 97.41138 172.698756 
L 99.368708 171.906903 
L 101.326037 171.115051 
L 103.283366 170.323198 
L 105.240695 169.531346 
L 107.198023 168.739493 
L 109.155352 167.947641 
L 111.112681 167.155788 
L 113.07001 166.363936 
L 115.027338 165.572083 
L 116.984667 164.780231 
L 118.941996 163.988378 
L 120.899325 163.196526 
L 122.856653 162.404673 
L 124.813982 161.612821 
L 126.771311 160.820968 
L 128.72864 160.029116 
L 130.685968 159.237263 
L 132.643297 158.445411 
L 134.600626 157.653558 
L 136.557954 156.861706 
L 138.515283 156.069853 
L 140.472612 155.278001 
L 142.429941 154.486148 
L 144.387269 153.694296 
L 146.344598 152.902443 
L 148.301927 152.110591 
L 150.259256 151.318738 
L 152.216584 150.526886 
L 154.173913 149.735033 
L 156.131242 148.943181 
L 158.088571 148.151328 
L 160.045899 147.359476 
L 162.003228 146.567623 
L 163.960557 145.775771 
L 165.917886 144.983918 
L 167.875214 144.192066 
L 169.832543 143.400213 
L 171.789872 142.608361 
L 173.747201 141.816508 
L 175.704529 141.024656 
L 177.661858 140.232803 
L 179.619187 139.440951 
L 181.576516 138.649098 
L 183.533844 137.857246 
L 185.491173 137.065393 
L 187.448502 136.273541 
L 189.405831 135.481688 
L 191.363159 134.689836 
L 193.320488 133.897983 
L 195.277817 133.106131 
L 197.235146 132.314278 
L 199.192474 131.522426 
L 201.149803 130.730573 
L 203.107132 129.938721 
L 205.06446 129.146868 
L 207.021789 128.355016 
L 208.979118 127.563163 
L 210.936447 126.771311 
L 212.893775 125.979458 
L 214.851104 125.187606 
L 216.808433 124.395753 
L 218.765762 123.603901 
L 220.72309 122.812048 
L 222.680419 122.020196 
L 224.637748 121.228343 
L 226.595077 120.436491 
L 228.552405 119.644639 
L 230.509734 118.852786 
L 232.467063 118.060934 
L 234.424392 117.269081 
L 236.38172 116.477229 
L 238.339049 115.685376 
L 240.296378 114.893524 
L 242.253707 114.101671 
L 244.211035 113.309819 
L 246.168364 112.517966 
L 248.125693 111.726114 
L 250.083022 110.934261 
L 252.04035 110.142409 
L 253.997679 109.350556 
L 255.955008 108.558704 
L 257.912337 107.766851 
L 259.869665 106.974999 
L 261.826994 106.183146 
L 263.784323 105.391294 
" clip-path="url(#pef05e4ba12)" style="fill: none; stroke: #808080; stroke-width: 2.25; stroke-linecap: square"/>
   </g>
   <g id="LineCollection_1">
    <path d="M 139.566451 235.347273 
L 139.566451 112.663286 
" clip-path="url(#pef05e4ba12)" style="fill: none; stroke: #e6e6e6"/>
    <path d="M 158.073375 198.37445 
L 158.073375 101.03655 
" clip-path="url(#pef05e4ba12)" style="fill: none; stroke: #e6e6e6"/>
    <path d="M 83.966287 225.43552 
L 83.966287 138.177599 
" clip-path="url(#pef05e4ba12)" style="fill: none; stroke: #e6e6e6"/>
    <path d="M 70.008777 220.746988 
L 70.008777 114.573261 
" clip-path="url(#pef05e4ba12)" style="fill: none; stroke: #e6e6e6"/>
    <path d="M 177.445653 200.699927 
L 177.445653 89.294754 
" clip-path="url(#pef05e4ba12)" style="fill: none; stroke: #e6e6e6"/>
    <path d="M 228.195188 191.21336 
L 228.195188 66.081944 
" clip-path="url(#pef05e4ba12)" style="fill: none; stroke: #e6e6e6"/>
    <path d="M 110.976874 230.209573 
L 110.976874 127.899654 
" clip-path="url(#pef05e4ba12)" style="fill: none; stroke: #e6e6e6"/>
    <path d="M 138.524389 206.544902 
L 138.524389 100.740937 
" clip-path="url(#pef05e4ba12)" style="fill: none; stroke: #e6e6e6"/>
    <path d="M 232.121463 167.958035 
L 232.121463 21.492727 
" clip-path="url(#pef05e4ba12)" style="fill: none; stroke: #e6e6e6"/>
    <path d="M 263.784323 181.893092 
L 263.784323 49.827226 
" clip-path="url(#pef05e4ba12)" style="fill: none; stroke: #e6e6e6"/>
    <path d="M 180.686993 173.771032 
L 180.686993 74.137777 
" clip-path="url(#pef05e4ba12)" style="fill: none; stroke: #e6e6e6"/>
    <path d="M 174.096393 188.280729 
L 174.096393 90.374205 
" clip-path="url(#pef05e4ba12)" style="fill: none; stroke: #e6e6e6"/>
   </g>
   <g id="patch_3">
    <path d="M 60.32 246.04 
L 60.32 10.8 
" style="fill: none; stroke: #000000; stroke-width: 0.8; stroke-linejoin: miter; stroke-linecap: square"/>
   </g>
   <g id="patch_4">
    <path d="M 60.32 246.04 
L 273.4731 246.04 
" style="fill: none; stroke: #000000; stroke-width: 0.8; stroke-linejoin: miter; stroke-linecap: square"/>
   </g>
   <g id="text_16">
    <!-- load2 -->
    <g transform="translate(147.984644 171.36615) scale(0.0833 -0.0833)">
     <use xlink:href="#DejaVuSans-6c"/>
     <use xlink:href="#DejaVuSans-6f" x="27.783203"/>
     <use xlink:href="#DejaVuSans-61" x="88.964844"/>
     <use xlink:href="#DejaVuSans-64" x="150.244141"/>
     <use xlink:href="#DejaVuSans-32" x="213.720703"/>
    </g>
   </g>
   <g id="text_17">
    <!-- load2 -->
    <g transform="translate(154.547756 147.06637) scale(0.0833 -0.0833)">
     <use xlink:href="#DejaVuSans-6c"/>
     <use xlink:href="#DejaVuSans-6f" x="27.783203"/>
     <use xlink:href="#DejaVuSans-61" x="88.964844"/>
     <use xlink:href="#DejaVuSans-64" x="150.244141"/>
     <use xlink:href="#DejaVuSans-32" x="213.720703"/>
    </g>
   </g>
   <g id="text_18">
    <!-- load2 -->
    <g transform="translate(92.384481 179.16743) scale(0.0833 -0.0833)">
     <use xlink:href="#DejaVuSans-6c"/>
     <use xlink:href="#DejaVuSans-6f" x="27.783203"/>
     <use xlink:href="#DejaVuSans-61" x="88.964844"/>
     <use xlink:href="#DejaVuSans-64" x="150.244141"/>
     <use xlink:href="#DejaVuSans-32" x="213.720703"/>
    </g>
   </g>
   <g id="text_19">
    <!-- load2 -->
    <g transform="translate(78.426971 165.020995) scale(0.0833 -0.0833)">
     <use xlink:href="#DejaVuSans-6c"/>
     <use xlink:href="#DejaVuSans-6f" x="27.783203"/>
     <use xlink:href="#DejaVuSans-61" x="88.964844"/>
     <use xlink:href="#DejaVuSans-64" x="150.244141"/>
     <use xlink:href="#DejaVuSans-32" x="213.720703"/>
    </g>
   </g>
   <g id="text_20">
    <!-- load4 -->
    <g transform="translate(185.863847 152.233589) scale(0.0833 -0.0833)">
     <use xlink:href="#DejaVuSans-6c"/>
     <use xlink:href="#DejaVuSans-6f" x="27.783203"/>
     <use xlink:href="#DejaVuSans-61" x="88.964844"/>
     <use xlink:href="#DejaVuSans-64" x="150.244141"/>
     <use xlink:href="#DejaVuSans-34" x="213.720703"/>
    </g>
   </g>
   <g id="text_21">
    <!-- load4 -->
    <g transform="translate(236.613381 126.008523) scale(0.0833 -0.0833)">
     <use xlink:href="#DejaVuSans-6c"/>
     <use xlink:href="#DejaVuSans-6f" x="27.783203"/>
     <use xlink:href="#DejaVuSans-61" x="88.964844"/>
     <use xlink:href="#DejaVuSans-64" x="150.244141"/>
     <use xlink:href="#DejaVuSans-34" x="213.720703"/>
    </g>
   </g>
   <g id="text_22">
    <!-- load4 -->
    <g transform="translate(119.395067 176.415484) scale(0.0833 -0.0833)">
     <use xlink:href="#DejaVuSans-6c"/>
     <use xlink:href="#DejaVuSans-6f" x="27.783203"/>
     <use xlink:href="#DejaVuSans-61" x="88.964844"/>
     <use xlink:href="#DejaVuSans-64" x="150.244141"/>
     <use xlink:href="#DejaVuSans-34" x="213.720703"/>
    </g>
   </g>
   <g id="text_23">
    <!-- load4 -->
    <g transform="translate(123.054957 151.003789) scale(0.0833 -0.0833)">
     <use xlink:href="#DejaVuSans-6c"/>
     <use xlink:href="#DejaVuSans-6f" x="27.783203"/>
     <use xlink:href="#DejaVuSans-61" x="88.964844"/>
     <use xlink:href="#DejaVuSans-64" x="150.244141"/>
     <use xlink:href="#DejaVuSans-34" x="213.720703"/>
    </g>
   </g>
   <g id="text_24">
    <!-- load6 -->
    <g transform="translate(240.539656 92.086252) scale(0.0833 -0.0833)">
     <defs>
      <path id="DejaVuSans-36" d="M 2113 2584 
Q 1688 2584 1439 2293 
Q 1191 2003 1191 1497 
Q 1191 994 1439 701 
Q 1688 409 2113 409 
Q 2538 409 2786 701 
Q 3034 994 3034 1497 
Q 3034 2003 2786 2293 
Q 2538 2584 2113 2584 
z
M 3366 4563 
L 3366 3988 
Q 3128 4100 2886 4159 
Q 2644 4219 2406 4219 
Q 1781 4219 1451 3797 
Q 1122 3375 1075 2522 
Q 1259 2794 1537 2939 
Q 1816 3084 2150 3084 
Q 2853 3084 3261 2657 
Q 3669 2231 3669 1497 
Q 3669 778 3244 343 
Q 2819 -91 2113 -91 
Q 1303 -91 875 529 
Q 447 1150 447 2328 
Q 447 3434 972 4092 
Q 1497 4750 2381 4750 
Q 2619 4750 2861 4703 
Q 3103 4656 3366 4563 
z
" transform="scale(0.015625)"/>
     </defs>
     <use xlink:href="#DejaVuSans-6c"/>
     <use xlink:href="#DejaVuSans-6f" x="27.783203"/>
     <use xlink:href="#DejaVuSans-61" x="88.964844"/>
     <use xlink:href="#DejaVuSans-64" x="150.244141"/>
     <use xlink:href="#DejaVuSans-36" x="213.720703"/>
    </g>
   </g>
   <g id="text_25">
    <!-- load6 -->
    <g transform="translate(248.314891 113.22103) scale(0.0833 -0.0833)">
     <use xlink:href="#DejaVuSans-6c"/>
     <use xlink:href="#DejaVuSans-6f" x="27.783203"/>
     <use xlink:href="#DejaVuSans-61" x="88.964844"/>
     <use xlink:href="#DejaVuSans-64" x="150.244141"/>
     <use xlink:href="#DejaVuSans-36" x="213.720703"/>
    </g>
   </g>
   <g id="text_26">
    <!-- load6 -->
    <g transform="translate(189.105186 121.315275) scale(0.0833 -0.0833)">
     <use xlink:href="#DejaVuSans-6c"/>
     <use xlink:href="#DejaVuSans-6f" x="27.783203"/>
     <use xlink:href="#DejaVuSans-61" x="88.964844"/>
     <use xlink:href="#DejaVuSans-64" x="150.244141"/>
     <use xlink:href="#DejaVuSans-36" x="213.720703"/>
    </g>
   </g>
   <g id="text_27">
    <!-- load6 -->
    <g transform="translate(182.514586 136.688337) scale(0.0833 -0.0833)">
     <use xlink:href="#DejaVuSans-6c"/>
     <use xlink:href="#DejaVuSans-6f" x="27.783203"/>
     <use xlink:href="#DejaVuSans-61" x="88.964844"/>
     <use xlink:href="#DejaVuSans-64" x="150.244141"/>
     <use xlink:href="#DejaVuSans-36" x="213.720703"/>
    </g>
   </g>
  </g>
  <g id="legend_1">
   <g id="text_28">
    <!-- recall -->
    <g transform="translate(315.33375 110.064063) scale(0.1 -0.1)">
     <use xlink:href="#DejaVuSans-72"/>
     <use xlink:href="#DejaVuSans-65" x="38.863281"/>
     <use xlink:href="#DejaVuSans-63" x="100.386719"/>
     <use xlink:href="#DejaVuSans-61" x="155.367188"/>
     <use xlink:href="#DejaVuSans-6c" x="216.646484"/>
     <use xlink:href="#DejaVuSans-6c" x="244.429688"/>
    </g>
   </g>
   <g id="PathCollection_7">
    <defs>
     <path id="mcfbf031b66" d="M 0 3 
C 0.795609 3 1.55874 2.683901 2.12132 2.12132 
C 2.683901 1.55874 3 0.795609 3 0 
C 3 -0.795609 2.683901 -1.55874 2.12132 -2.12132 
C 1.55874 -2.683901 0.795609 -3 0 -3 
C -0.795609 -3 -1.55874 -2.683901 -2.12132 -2.12132 
C -2.683901 -1.55874 -3 -0.795609 -3 0 
C -3 0.795609 -2.683901 1.55874 -2.12132 2.12132 
C -1.55874 2.683901 -0.795609 3 0 3 
z
" style="stroke: #1f77b4"/>
    </defs>
    <g>
     <use xlink:href="#mcfbf031b66" x="297.33375" y="122.117188" style="fill: #1f77b4; stroke: #1f77b4"/>
    </g>
   </g>
   <g id="text_29">
    <!-- backward -->
    <g transform="translate(315.33375 124.742188) scale(0.1 -0.1)">
     <defs>
      <path id="DejaVuSans-6b" d="M 581 4863 
L 1159 4863 
L 1159 1991 
L 2875 3500 
L 3609 3500 
L 1753 1863 
L 3688 0 
L 2938 0 
L 1159 1709 
L 1159 0 
L 581 0 
L 581 4863 
z
" transform="scale(0.015625)"/>
      <path id="DejaVuSans-77" d="M 269 3500 
L 844 3500 
L 1563 769 
L 2278 3500 
L 2956 3500 
L 3675 769 
L 4391 3500 
L 4966 3500 
L 4050 0 
L 3372 0 
L 2619 2869 
L 1863 0 
L 1184 0 
L 269 3500 
z
" transform="scale(0.015625)"/>
     </defs>
     <use xlink:href="#DejaVuSans-62"/>
     <use xlink:href="#DejaVuSans-61" x="63.476562"/>
     <use xlink:href="#DejaVuSans-63" x="124.755859"/>
     <use xlink:href="#DejaVuSans-6b" x="179.736328"/>
     <use xlink:href="#DejaVuSans-77" x="237.646484"/>
     <use xlink:href="#DejaVuSans-61" x="319.433594"/>
     <use xlink:href="#DejaVuSans-72" x="380.712891"/>
     <use xlink:href="#DejaVuSans-64" x="420.076172"/>
    </g>
   </g>
   <g id="PathCollection_8">
    <defs>
     <path id="md2a61136d8" d="M 0 3 
C 0.795609 3 1.55874 2.683901 2.12132 2.12132 
C 2.683901 1.55874 3 0.795609 3 0 
C 3 -0.795609 2.683901 -1.55874 2.12132 -2.12132 
C 1.55874 -2.683901 0.795609 -3 0 -3 
C -0.795609 -3 -1.55874 -2.683901 -2.12132 -2.12132 
C -2.683901 -1.55874 -3 -0.795609 -3 0 
C -3 0.795609 -2.683901 1.55874 -2.12132 2.12132 
C -1.55874 2.683901 -0.795609 3 0 3 
z
" style="stroke: #ff7f0e"/>
    </defs>
    <g>
     <use xlink:href="#md2a61136d8" x="297.33375" y="136.795313" style="fill: #ff7f0e; stroke: #ff7f0e"/>
    </g>
   </g>
   <g id="text_30">
    <!-- forward -->
    <g transform="translate(315.33375 139.420313) scale(0.1 -0.1)">
     <defs>
      <path id="DejaVuSans-66" d="M 2375 4863 
L 2375 4384 
L 1825 4384 
Q 1516 4384 1395 4259 
Q 1275 4134 1275 3809 
L 1275 3500 
L 2222 3500 
L 2222 3053 
L 1275 3053 
L 1275 0 
L 697 0 
L 697 3053 
L 147 3053 
L 147 3500 
L 697 3500 
L 697 3744 
Q 697 4328 969 4595 
Q 1241 4863 1831 4863 
L 2375 4863 
z
" transform="scale(0.015625)"/>
     </defs>
     <use xlink:href="#DejaVuSans-66"/>
     <use xlink:href="#DejaVuSans-6f" x="35.205078"/>
     <use xlink:href="#DejaVuSans-72" x="96.386719"/>
     <use xlink:href="#DejaVuSans-77" x="137.5"/>
     <use xlink:href="#DejaVuSans-61" x="219.287109"/>
     <use xlink:href="#DejaVuSans-72" x="280.566406"/>
     <use xlink:href="#DejaVuSans-64" x="319.929688"/>
    </g>
   </g>
   <g id="text_31">
    <!-- phase -->
    <g transform="translate(315.33375 154.098438) scale(0.1 -0.1)">
     <defs>
      <path id="DejaVuSans-70" d="M 1159 525 
L 1159 -1331 
L 581 -1331 
L 581 3500 
L 1159 3500 
L 1159 2969 
Q 1341 3281 1617 3432 
Q 1894 3584 2278 3584 
Q 2916 3584 3314 3078 
Q 3713 2572 3713 1747 
Q 3713 922 3314 415 
Q 2916 -91 2278 -91 
Q 1894 -91 1617 61 
Q 1341 213 1159 525 
z
M 3116 1747 
Q 3116 2381 2855 2742 
Q 2594 3103 2138 3103 
Q 1681 3103 1420 2742 
Q 1159 2381 1159 1747 
Q 1159 1113 1420 752 
Q 1681 391 2138 391 
Q 2594 391 2855 752 
Q 3116 1113 3116 1747 
z
" transform="scale(0.015625)"/>
      <path id="DejaVuSans-68" d="M 3513 2113 
L 3513 0 
L 2938 0 
L 2938 2094 
Q 2938 2591 2744 2837 
Q 2550 3084 2163 3084 
Q 1697 3084 1428 2787 
Q 1159 2491 1159 1978 
L 1159 0 
L 581 0 
L 581 4863 
L 1159 4863 
L 1159 2956 
Q 1366 3272 1645 3428 
Q 1925 3584 2291 3584 
Q 2894 3584 3203 3211 
Q 3513 2838 3513 2113 
z
" transform="scale(0.015625)"/>
      <path id="DejaVuSans-73" d="M 2834 3397 
L 2834 2853 
Q 2591 2978 2328 3040 
Q 2066 3103 1784 3103 
Q 1356 3103 1142 2972 
Q 928 2841 928 2578 
Q 928 2378 1081 2264 
Q 1234 2150 1697 2047 
L 1894 2003 
Q 2506 1872 2764 1633 
Q 3022 1394 3022 966 
Q 3022 478 2636 193 
Q 2250 -91 1575 -91 
Q 1294 -91 989 -36 
Q 684 19 347 128 
L 347 722 
Q 666 556 975 473 
Q 1284 391 1588 391 
Q 1994 391 2212 530 
Q 2431 669 2431 922 
Q 2431 1156 2273 1281 
Q 2116 1406 1581 1522 
L 1381 1569 
Q 847 1681 609 1914 
Q 372 2147 372 2553 
Q 372 3047 722 3315 
Q 1072 3584 1716 3584 
Q 2034 3584 2315 3537 
Q 2597 3491 2834 3397 
z
" transform="scale(0.015625)"/>
     </defs>
     <use xlink:href="#DejaVuSans-70"/>
     <use xlink:href="#DejaVuSans-68" x="63.476562"/>
     <use xlink:href="#DejaVuSans-61" x="126.855469"/>
     <use xlink:href="#DejaVuSans-73" x="188.134766"/>
     <use xlink:href="#DejaVuSans-65" x="240.234375"/>
    </g>
   </g>
   <g id="PathCollection_9">
    <defs>
     <path id="md5018d41a6" d="M 0 3 
C 0.795609 3 1.55874 2.683901 2.12132 2.12132 
C 2.683901 1.55874 3 0.795609 3 0 
C 3 -0.795609 2.683901 -1.55874 2.12132 -2.12132 
C 1.55874 -2.683901 0.795609 -3 0 -3 
C -0.795609 -3 -1.55874 -2.683901 -2.12132 -2.12132 
C -2.683901 -1.55874 -3 -0.795609 -3 0 
C -3 0.795609 -2.683901 1.55874 -2.12132 2.12132 
C -1.55874 2.683901 -0.795609 3 0 3 
z
" style="stroke: #333333"/>
    </defs>
    <g>
     <use xlink:href="#md5018d41a6" x="297.33375" y="166.151563" style="fill: #333333; stroke: #333333"/>
    </g>
   </g>
   <g id="text_32">
    <!-- encode -->
    <g transform="translate(315.33375 168.776563) scale(0.1 -0.1)">
     <use xlink:href="#DejaVuSans-65"/>
     <use xlink:href="#DejaVuSans-6e" x="61.523438"/>
     <use xlink:href="#DejaVuSans-63" x="124.902344"/>
     <use xlink:href="#DejaVuSans-6f" x="179.882812"/>
     <use xlink:href="#DejaVuSans-64" x="241.064453"/>
     <use xlink:href="#DejaVuSans-65" x="304.541016"/>
    </g>
   </g>
   <g id="PathCollection_10">
    <defs>
     <path id="m2fe11c0978" d="M -1.5 3 
L 0 1.5 
L 1.5 3 
L 3 1.5 
L 1.5 0 
L 3 -1.5 
L 1.5 -3 
L 0 -1.5 
L -1.5 -3 
L -3 -1.5 
L -1.5 0 
L -3 1.5 
z
" style="stroke: #333333"/>
    </defs>
    <g>
     <use xlink:href="#m2fe11c0978" x="297.33375" y="180.829688" style="fill: #333333; stroke: #333333"/>
    </g>
   </g>
   <g id="text_33">
    <!-- retriev -->
    <g transform="translate(315.33375 183.454688) scale(0.1 -0.1)">
     <use xlink:href="#DejaVuSans-72"/>
     <use xlink:href="#DejaVuSans-65" x="38.863281"/>
     <use xlink:href="#DejaVuSans-74" x="100.386719"/>
     <use xlink:href="#DejaVuSans-72" x="139.595703"/>
     <use xlink:href="#DejaVuSans-69" x="180.708984"/>
     <use xlink:href="#DejaVuSans-65" x="208.492188"/>
     <use xlink:href="#DejaVuSans-76" x="270.015625"/>
    </g>
   </g>
  </g>
 </g>
 <defs>
  <clipPath id="pef05e4ba12">
   <rect x="60.32" y="10.8" width="213.1531" height="235.24"/>
  </clipPath>
 </defs>
</svg>
