<?xml version="1.0" encoding="utf-8" standalone="no"?>
<!DOCTYPE svg PUBLIC "-//W3C//DTD SVG 1.1//EN"
  "http://www.w3.org/Graphics/SVG/1.1/DTD/svg11.dtd">
<svg xmlns:xlink="http://www.w3.org/1999/xlink" width="372.69pt" height="288pt" viewBox="0 0 372.69 288" xmlns="http://www.w3.org/2000/svg" version="1.1">
 <metadata>
  <rdf:RDF xmlns:dc="http://purl.org/dc/elements/1.1/" xmlns:cc="http://creativecommons.org/ns#" xmlns:rdf="http://www.w3.org/1999/02/22-rdf-syntax-ns#">
   <cc:Work>
    <dc:type rdf:resource="http://purl.org/dc/dcmitype/StillImage"/>
    <dc:date>2023-02-15T10:56:30.384444</dc:date>
    <dc:format>image/svg+xml</dc:format>
    <dc:creator>
     <cc:Agent>
      <dc:title>Matplotlib v3.6.3, https://matplotlib.org/</dc:title>
     </cc:Agent>
    </dc:creator>
   </cc:Work>
  </rdf:RDF>
 </metadata>
 <defs>
  <style type="text/css">*{stroke-linejoin: round; stroke-linecap: butt}</style>
 </defs>
 <g id="figure_1">
  <g id="patch_1">
   <path d="M 0 288 
L 372.69 288 
L 372.69 0 
L 0 0 
z
" style="fill: #ffffff"/>
  </g>
  <g id="axes_1">
   <g id="patch_2">
    <path d="M 54.11 246.04 
L 273.4731 246.04 
L 273.4731 10.8 
L 54.11 10.8 
z
" style="fill: #ffffff"/>
   </g>
   <g id="PathCollection_1">
    <path d="M 104.354845 192.338714 
C 105.680861 192.338714 106.952745 191.811882 107.890379 190.874248 
C 108.828014 189.936613 109.354845 188.664729 109.354845 187.338714 
C 109.354845 186.012698 108.828014 184.740814 107.890379 183.80318 
C 106.952745 182.865545 105.680861 182.338714 104.354845 182.338714 
C 103.02883 182.338714 101.756946 182.865545 100.819312 183.80318 
C 99.881677 184.740814 99.354845 186.012698 99.354845 187.338714 
C 99.354845 188.664729 99.881677 189.936613 100.819312 190.874248 
C 101.756946 191.811882 103.02883 192.338714 104.354845 192.338714 
z
" clip-path="url(#p482cf8ceec)" style="fill: #1f77b4; stroke: #ffffff; stroke-width: 0.8"/>
    <path d="M 200.022885 158.633558 
L 202.522885 156.133558 
L 205.022885 158.633558 
L 207.522885 156.133558 
L 205.022885 153.633558 
L 207.522885 151.133558 
L 205.022885 148.633558 
L 202.522885 151.133558 
L 200.022885 148.633558 
L 197.522885 151.133558 
L 200.022885 153.633558 
L 197.522885 156.133558 
z
" clip-path="url(#p482cf8ceec)" style="fill: #1f77b4; stroke: #ffffff; stroke-width: 0.8"/>
    <path d="M 64.08105 203.159527 
C 65.407065 203.159527 66.678949 202.632695 67.616584 201.695061 
C 68.554218 200.757426 69.08105 199.485542 69.08105 198.159527 
C 69.08105 196.833511 68.554218 195.561627 67.616584 194.623993 
C 66.678949 193.686358 65.407065 193.159527 64.08105 193.159527 
C 62.755034 193.159527 61.483151 193.686358 60.545516 194.623993 
C 59.607882 195.561627 59.08105 196.833511 59.08105 198.159527 
C 59.08105 199.485542 59.607882 200.757426 60.545516 201.695061 
C 61.483151 202.632695 62.755034 203.159527 64.08105 203.159527 
z
" clip-path="url(#p482cf8ceec)" style="fill: #ff7f0e; stroke: #ffffff; stroke-width: 0.8"/>
    <path d="M 120.771327 183.537628 
L 123.271327 181.037628 
L 125.771327 183.537628 
L 128.271327 181.037628 
L 125.771327 178.537628 
L 128.271327 176.037628 
L 125.771327 173.537628 
L 123.271327 176.037628 
L 120.771327 173.537628 
L 118.271327 176.037628 
L 120.771327 178.537628 
L 118.271327 181.037628 
z
" clip-path="url(#p482cf8ceec)" style="fill: #ff7f0e; stroke: #ffffff; stroke-width: 0.8"/>
    <path d="M 176.304619 152.103077 
C 177.630634 152.103077 178.902518 151.576245 179.840153 150.638611 
C 180.777787 149.700976 181.304619 148.429092 181.304619 147.103077 
C 181.304619 145.777061 180.777787 144.505177 179.840153 143.567543 
C 178.902518 142.629908 177.630634 142.103077 176.304619 142.103077 
C 174.978603 142.103077 173.706719 142.629908 172.769085 143.567543 
C 171.83145 144.505177 171.304619 145.777061 171.304619 147.103077 
C 171.304619 148.429092 171.83145 149.700976 172.769085 150.638611 
C 173.706719 151.576245 174.978603 152.103077 176.304619 152.103077 
z
" clip-path="url(#p482cf8ceec)" style="fill: #1f77b4; stroke: #ffffff; stroke-width: 0.8"/>
    <path d="M 257.86066 129.425143 
L 260.36066 126.925143 
L 262.86066 129.425143 
L 265.36066 126.925143 
L 262.86066 124.425143 
L 265.36066 121.925143 
L 262.86066 119.425143 
L 260.36066 121.925143 
L 257.86066 119.425143 
L 255.36066 121.925143 
L 257.86066 124.425143 
L 255.36066 126.925143 
z
" clip-path="url(#p482cf8ceec)" style="fill: #1f77b4; stroke: #ffffff; stroke-width: 0.8"/>
    <path d="M 73.34678 199.342423 
C 74.672795 199.342423 75.944679 198.815592 76.882314 197.877957 
C 77.819948 196.940322 78.34678 195.668439 78.34678 194.342423 
C 78.34678 193.016408 77.819948 191.744524 76.882314 190.806889 
C 75.944679 189.869255 74.672795 189.342423 73.34678 189.342423 
C 72.020764 189.342423 70.74888 189.869255 69.811246 190.806889 
C 68.873611 191.744524 68.34678 193.016408 68.34678 194.342423 
C 68.34678 195.668439 68.873611 196.940322 69.811246 197.877957 
C 70.74888 198.815592 72.020764 199.342423 73.34678 199.342423 
z
" clip-path="url(#p482cf8ceec)" style="fill: #ff7f0e; stroke: #ffffff; stroke-width: 0.8"/>
    <path d="M 176.635185 164.094979 
L 179.135185 161.594979 
L 181.635185 164.094979 
L 184.135185 161.594979 
L 181.635185 159.094979 
L 184.135185 156.594979 
L 181.635185 154.094979 
L 179.135185 156.594979 
L 176.635185 154.094979 
L 174.135185 156.594979 
L 176.635185 159.094979 
L 174.135185 161.594979 
z
" clip-path="url(#p482cf8ceec)" style="fill: #ff7f0e; stroke: #ffffff; stroke-width: 0.8"/>
    <path d="M 263.50205 82.373052 
C 264.828065 82.373052 266.099949 81.846221 267.037584 80.908586 
C 267.975218 79.970952 268.50205 78.699068 268.50205 77.373052 
C 268.50205 76.047037 267.975218 74.775153 267.037584 73.837518 
C 266.099949 72.899884 264.828065 72.373052 263.50205 72.373052 
C 262.176034 72.373052 260.904151 72.899884 259.966516 73.837518 
C 259.028882 74.775153 258.50205 76.047037 258.50205 77.373052 
C 258.50205 78.699068 259.028882 79.970952 259.966516 80.908586 
C 260.904151 81.846221 262.176034 82.373052 263.50205 82.373052 
z
" clip-path="url(#p482cf8ceec)" style="fill: #1f77b4; stroke: #ffffff; stroke-width: 0.8"/>
    <path d="M 241.466556 111.688173 
L 243.966556 109.188173 
L 246.466556 111.688173 
L 248.966556 109.188173 
L 246.466556 106.688173 
L 248.966556 104.188173 
L 246.466556 101.688173 
L 243.966556 104.188173 
L 241.466556 101.688173 
L 238.966556 104.188173 
L 241.466556 106.688173 
L 238.966556 109.188173 
z
" clip-path="url(#p482cf8ceec)" style="fill: #1f77b4; stroke: #ffffff; stroke-width: 0.8"/>
    <path d="M 176.33504 122.915345 
C 177.661056 122.915345 178.932939 122.388514 179.870574 121.450879 
C 180.808209 120.513245 181.33504 119.241361 181.33504 117.915345 
C 181.33504 116.58933 180.808209 115.317446 179.870574 114.379811 
C 178.932939 113.442177 177.661056 112.915345 176.33504 112.915345 
C 175.009025 112.915345 173.737141 113.442177 172.799506 114.379811 
C 171.861872 115.317446 171.33504 116.58933 171.33504 117.915345 
C 171.33504 119.241361 171.861872 120.513245 172.799506 121.450879 
C 173.737141 122.388514 175.009025 122.915345 176.33504 122.915345 
z
" clip-path="url(#p482cf8ceec)" style="fill: #ff7f0e; stroke: #ffffff; stroke-width: 0.8"/>
    <path d="M 172.060632 144.238644 
L 174.560632 141.738644 
L 177.060632 144.238644 
L 179.560632 141.738644 
L 177.060632 139.238644 
L 179.560632 136.738644 
L 177.060632 134.238644 
L 174.560632 136.738644 
L 172.060632 134.238644 
L 169.560632 136.738644 
L 172.060632 139.238644 
L 169.560632 141.738644 
z
" clip-path="url(#p482cf8ceec)" style="fill: #ff7f0e; stroke: #ffffff; stroke-width: 0.8"/>
   </g>
   <g id="PathCollection_2"/>
   <g id="PathCollection_3"/>
   <g id="PathCollection_4"/>
   <g id="PathCollection_5"/>
   <g id="PathCollection_6">
    <defs>
     <path id="m9566e30808" d="M 0 0 
C 0 0 0 0 0 0 
C 0 0 0 0 0 0 
C 0 0 0 0 0 0 
C 0 0 0 0 0 0 
C 0 0 0 0 0 0 
C 0 0 0 0 0 0 
C 0 0 0 0 0 0 
C 0 0 0 0 0 0 
z
" style="stroke: #1f77b4; stroke-opacity: 0.8"/>
    </defs>
    <g clip-path="url(#p482cf8ceec)">
     <use xlink:href="#m9566e30808" x="104.354845" y="187.338714" style="fill: #1f77b4; fill-opacity: 0.8; stroke: #1f77b4; stroke-opacity: 0.8"/>
     <use xlink:href="#m9566e30808" x="202.522885" y="153.633558" style="fill: #1f77b4; fill-opacity: 0.8; stroke: #1f77b4; stroke-opacity: 0.8"/>
     <use xlink:href="#m9566e30808" x="64.08105" y="198.159527" style="fill: #1f77b4; fill-opacity: 0.8; stroke: #1f77b4; stroke-opacity: 0.8"/>
     <use xlink:href="#m9566e30808" x="123.271327" y="178.537628" style="fill: #1f77b4; fill-opacity: 0.8; stroke: #1f77b4; stroke-opacity: 0.8"/>
     <use xlink:href="#m9566e30808" x="176.304619" y="147.103077" style="fill: #1f77b4; fill-opacity: 0.8; stroke: #1f77b4; stroke-opacity: 0.8"/>
     <use xlink:href="#m9566e30808" x="260.36066" y="124.425143" style="fill: #1f77b4; fill-opacity: 0.8; stroke: #1f77b4; stroke-opacity: 0.8"/>
     <use xlink:href="#m9566e30808" x="73.34678" y="194.342423" style="fill: #1f77b4; fill-opacity: 0.8; stroke: #1f77b4; stroke-opacity: 0.8"/>
     <use xlink:href="#m9566e30808" x="179.135185" y="159.094979" style="fill: #1f77b4; fill-opacity: 0.8; stroke: #1f77b4; stroke-opacity: 0.8"/>
     <use xlink:href="#m9566e30808" x="263.50205" y="77.373052" style="fill: #1f77b4; fill-opacity: 0.8; stroke: #1f77b4; stroke-opacity: 0.8"/>
     <use xlink:href="#m9566e30808" x="243.966556" y="106.688173" style="fill: #1f77b4; fill-opacity: 0.8; stroke: #1f77b4; stroke-opacity: 0.8"/>
     <use xlink:href="#m9566e30808" x="176.33504" y="117.915345" style="fill: #1f77b4; fill-opacity: 0.8; stroke: #1f77b4; stroke-opacity: 0.8"/>
     <use xlink:href="#m9566e30808" x="174.560632" y="139.238644" style="fill: #1f77b4; fill-opacity: 0.8; stroke: #1f77b4; stroke-opacity: 0.8"/>
    </g>
   </g>
   <g id="PolyCollection_1">
    <path d="M 64.08105 191.221227 
L 64.08105 214.156591 
L 66.095404 212.939258 
L 68.109757 211.783156 
L 70.124111 210.577808 
L 72.138464 209.325999 
L 74.152818 208.149304 
L 76.167171 206.972609 
L 78.181525 205.795915 
L 80.195878 204.61922 
L 82.210232 203.442488 
L 84.224585 202.267239 
L 86.238939 201.145979 
L 88.253292 199.914188 
L 90.267646 198.731828 
L 92.281999 197.586481 
L 94.296353 196.472161 
L 96.310707 195.379313 
L 98.32506 194.290176 
L 100.339414 193.199438 
L 102.353767 192.01253 
L 104.368121 190.795984 
L 106.382474 189.488954 
L 108.396828 188.35402 
L 110.411181 187.219087 
L 112.425535 186.083893 
L 114.439888 184.947727 
L 116.454242 183.807976 
L 118.468595 182.660682 
L 120.482949 181.47565 
L 122.497303 180.290619 
L 124.511656 179.224991 
L 126.52601 178.061621 
L 128.540363 176.953102 
L 130.554717 175.879924 
L 132.56907 174.769821 
L 134.583424 173.80202 
L 136.597777 172.803432 
L 138.612131 171.69555 
L 140.626484 170.792466 
L 142.640838 169.780069 
L 144.655191 168.733095 
L 146.669545 167.604901 
L 148.683898 166.662068 
L 150.698252 165.836467 
L 152.712606 165.013276 
L 154.726959 164.148528 
L 156.741313 163.2576 
L 158.755666 162.255457 
L 160.77002 161.464668 
L 162.784373 160.664341 
L 164.798727 159.907173 
L 166.81308 158.999695 
L 168.827434 158.140459 
L 170.841787 157.249327 
L 172.856141 156.369112 
L 174.870494 155.513898 
L 176.884848 154.725815 
L 178.899202 153.947712 
L 180.913555 153.167018 
L 182.927909 152.364758 
L 184.942262 151.604858 
L 186.956616 150.830641 
L 188.970969 150.053634 
L 190.985323 149.274172 
L 192.999676 148.495369 
L 195.01403 147.714362 
L 197.028383 146.843924 
L 199.042737 145.956581 
L 201.05709 145.077412 
L 203.071444 144.229251 
L 205.085797 143.359125 
L 207.100151 142.506796 
L 209.114505 141.75706 
L 211.128858 141.007324 
L 213.143212 140.257588 
L 215.157565 139.459522 
L 217.171919 138.658224 
L 219.186272 137.856926 
L 221.200626 137.055628 
L 223.214979 136.25433 
L 225.229333 135.453033 
L 227.243686 134.651735 
L 229.25804 133.850437 
L 231.272393 133.048814 
L 233.286747 132.325049 
L 235.301101 131.903656 
L 237.315454 131.100764 
L 239.329808 130.297873 
L 241.344161 129.525845 
L 243.358515 128.827939 
L 245.372868 128.130034 
L 247.387222 127.332591 
L 249.401575 126.531838 
L 251.415929 125.730237 
L 253.430282 124.928635 
L 255.444636 124.127033 
L 257.458989 123.325432 
L 259.473343 122.52383 
L 261.487696 121.722228 
L 263.50205 120.920626 
L 263.50205 83.490373 
L 263.50205 83.490373 
L 261.487696 84.657117 
L 259.473343 85.879544 
L 257.458989 87.217031 
L 255.444636 88.535137 
L 253.430282 89.774308 
L 251.415929 90.979767 
L 249.401575 92.252183 
L 247.387222 93.488175 
L 245.372868 94.686305 
L 243.358515 95.846961 
L 241.344161 97.007702 
L 239.329808 98.168442 
L 237.315454 99.331278 
L 235.301101 100.610933 
L 233.286747 101.905962 
L 231.272393 103.175045 
L 229.25804 104.386507 
L 227.243686 105.56863 
L 225.229333 106.743854 
L 223.214979 107.983203 
L 221.200626 109.106204 
L 219.186272 110.271531 
L 217.171919 111.560933 
L 215.157565 112.850375 
L 213.143212 114.075756 
L 211.128858 115.345282 
L 209.114505 116.568669 
L 207.100151 117.779105 
L 205.085797 118.988746 
L 203.071444 120.19693 
L 201.05709 121.40635 
L 199.042737 122.55604 
L 197.028383 123.711328 
L 195.01403 124.909384 
L 192.999676 126.154481 
L 190.985323 127.3763 
L 188.970969 128.452488 
L 186.956616 129.611856 
L 184.942262 130.857045 
L 182.927909 132.091178 
L 180.913555 133.23237 
L 178.899202 134.373562 
L 176.884848 135.313189 
L 174.870494 136.543913 
L 172.856141 137.537426 
L 170.841787 138.699001 
L 168.827434 139.716478 
L 166.81308 140.920783 
L 164.798727 142.09383 
L 162.784373 143.342092 
L 160.77002 144.54426 
L 158.755666 145.727596 
L 156.741313 146.897014 
L 154.726959 147.986804 
L 152.712606 149.14534 
L 150.698252 150.160966 
L 148.683898 151.331531 
L 146.669545 152.26254 
L 144.655191 153.260495 
L 142.640838 154.266756 
L 140.626484 155.264611 
L 138.612131 156.182435 
L 136.597777 157.24848 
L 134.583424 158.415763 
L 132.56907 159.386362 
L 130.554717 160.36584 
L 128.540363 161.436001 
L 126.52601 162.504454 
L 124.511656 163.512084 
L 122.497303 164.759112 
L 120.482949 165.824575 
L 118.468595 167.051019 
L 116.454242 167.998688 
L 114.439888 168.938087 
L 112.425535 169.823443 
L 110.411181 170.786805 
L 108.396828 171.605569 
L 106.382474 172.498174 
L 104.368121 173.601545 
L 102.353767 174.563338 
L 100.339414 175.458583 
L 98.32506 176.260378 
L 96.310707 177.086094 
L 94.296353 177.94223 
L 92.281999 178.898637 
L 90.267646 179.757861 
L 88.253292 180.566092 
L 86.238939 181.414936 
L 84.224585 182.337585 
L 82.210232 183.199552 
L 80.195878 184.147846 
L 78.181525 185.012455 
L 76.167171 185.877245 
L 74.152818 186.741571 
L 72.138464 187.606603 
L 70.124111 188.533648 
L 68.109757 189.335554 
L 66.095404 190.283659 
L 64.08105 191.221227 
z
" clip-path="url(#p482cf8ceec)" style="fill: #808080; fill-opacity: 0.15"/>
   </g>
   <g id="matplotlib.axis_1">
    <g id="xtick_1">
     <g id="line2d_1">
      <defs>
       <path id="m773f148bbd" d="M 0 0 
L 0 3.5 
" style="stroke: #000000; stroke-width: 0.8"/>
      </defs>
      <g>
       <use xlink:href="#m773f148bbd" x="78.953196" y="246.04" style="stroke: #000000; stroke-width: 0.8"/>
      </g>
     </g>
     <g id="text_1">
      <!-- 0.14 -->
      <g transform="translate(67.820383 260.638438) scale(0.1 -0.1)">
       <defs>
        <path id="DejaVuSans-30" d="M 2034 4250 
Q 1547 4250 1301 3770 
Q 1056 3291 1056 2328 
Q 1056 1369 1301 889 
Q 1547 409 2034 409 
Q 2525 409 2770 889 
Q 3016 1369 3016 2328 
Q 3016 3291 2770 3770 
Q 2525 4250 2034 4250 
z
M 2034 4750 
Q 2819 4750 3233 4129 
Q 3647 3509 3647 2328 
Q 3647 1150 3233 529 
Q 2819 -91 2034 -91 
Q 1250 -91 836 529 
Q 422 1150 422 2328 
Q 422 3509 836 4129 
Q 1250 4750 2034 4750 
z
" transform="scale(0.015625)"/>
        <path id="DejaVuSans-2e" d="M 684 794 
L 1344 794 
L 1344 0 
L 684 0 
L 684 794 
z
" transform="scale(0.015625)"/>
        <path id="DejaVuSans-31" d="M 794 531 
L 1825 531 
L 1825 4091 
L 703 3866 
L 703 4441 
L 1819 4666 
L 2450 4666 
L 2450 531 
L 3481 531 
L 3481 0 
L 794 0 
L 794 531 
z
" transform="scale(0.015625)"/>
        <path id="DejaVuSans-34" d="M 2419 4116 
L 825 1625 
L 2419 1625 
L 2419 4116 
z
M 2253 4666 
L 3047 4666 
L 3047 1625 
L 3713 1625 
L 3713 1100 
L 3047 1100 
L 3047 0 
L 2419 0 
L 2419 1100 
L 313 1100 
L 313 1709 
L 2253 4666 
z
" transform="scale(0.015625)"/>
       </defs>
       <use xlink:href="#DejaVuSans-30"/>
       <use xlink:href="#DejaVuSans-2e" x="63.623047"/>
       <use xlink:href="#DejaVuSans-31" x="95.410156"/>
       <use xlink:href="#DejaVuSans-34" x="159.033203"/>
      </g>
     </g>
    </g>
    <g id="xtick_2">
     <g id="line2d_2">
      <g>
       <use xlink:href="#m773f148bbd" x="118.929054" y="246.04" style="stroke: #000000; stroke-width: 0.8"/>
      </g>
     </g>
     <g id="text_2">
      <!-- 0.16 -->
      <g transform="translate(107.796242 260.638438) scale(0.1 -0.1)">
       <defs>
        <path id="DejaVuSans-36" d="M 2113 2584 
Q 1688 2584 1439 2293 
Q 1191 2003 1191 1497 
Q 1191 994 1439 701 
Q 1688 409 2113 409 
Q 2538 409 2786 701 
Q 3034 994 3034 1497 
Q 3034 2003 2786 2293 
Q 2538 2584 2113 2584 
z
M 3366 4563 
L 3366 3988 
Q 3128 4100 2886 4159 
Q 2644 4219 2406 4219 
Q 1781 4219 1451 3797 
Q 1122 3375 1075 2522 
Q 1259 2794 1537 2939 
Q 1816 3084 2150 3084 
Q 2853 3084 3261 2657 
Q 3669 2231 3669 1497 
Q 3669 778 3244 343 
Q 2819 -91 2113 -91 
Q 1303 -91 875 529 
Q 447 1150 447 2328 
Q 447 3434 972 4092 
Q 1497 4750 2381 4750 
Q 2619 4750 2861 4703 
Q 3103 4656 3366 4563 
z
" transform="scale(0.015625)"/>
       </defs>
       <use xlink:href="#DejaVuSans-30"/>
       <use xlink:href="#DejaVuSans-2e" x="63.623047"/>
       <use xlink:href="#DejaVuSans-31" x="95.410156"/>
       <use xlink:href="#DejaVuSans-36" x="159.033203"/>
      </g>
     </g>
    </g>
    <g id="xtick_3">
     <g id="line2d_3">
      <g>
       <use xlink:href="#m773f148bbd" x="158.904913" y="246.04" style="stroke: #000000; stroke-width: 0.8"/>
      </g>
     </g>
     <g id="text_3">
      <!-- 0.18 -->
      <g transform="translate(147.7721 260.638438) scale(0.1 -0.1)">
       <defs>
        <path id="DejaVuSans-38" d="M 2034 2216 
Q 1584 2216 1326 1975 
Q 1069 1734 1069 1313 
Q 1069 891 1326 650 
Q 1584 409 2034 409 
Q 2484 409 2743 651 
Q 3003 894 3003 1313 
Q 3003 1734 2745 1975 
Q 2488 2216 2034 2216 
z
M 1403 2484 
Q 997 2584 770 2862 
Q 544 3141 544 3541 
Q 544 4100 942 4425 
Q 1341 4750 2034 4750 
Q 2731 4750 3128 4425 
Q 3525 4100 3525 3541 
Q 3525 3141 3298 2862 
Q 3072 2584 2669 2484 
Q 3125 2378 3379 2068 
Q 3634 1759 3634 1313 
Q 3634 634 3220 271 
Q 2806 -91 2034 -91 
Q 1263 -91 848 271 
Q 434 634 434 1313 
Q 434 1759 690 2068 
Q 947 2378 1403 2484 
z
M 1172 3481 
Q 1172 3119 1398 2916 
Q 1625 2713 2034 2713 
Q 2441 2713 2670 2916 
Q 2900 3119 2900 3481 
Q 2900 3844 2670 4047 
Q 2441 4250 2034 4250 
Q 1625 4250 1398 4047 
Q 1172 3844 1172 3481 
z
" transform="scale(0.015625)"/>
       </defs>
       <use xlink:href="#DejaVuSans-30"/>
       <use xlink:href="#DejaVuSans-2e" x="63.623047"/>
       <use xlink:href="#DejaVuSans-31" x="95.410156"/>
       <use xlink:href="#DejaVuSans-38" x="159.033203"/>
      </g>
     </g>
    </g>
    <g id="xtick_4">
     <g id="line2d_4">
      <g>
       <use xlink:href="#m773f148bbd" x="198.880771" y="246.04" style="stroke: #000000; stroke-width: 0.8"/>
      </g>
     </g>
     <g id="text_4">
      <!-- 0.20 -->
      <g transform="translate(187.747959 260.638438) scale(0.1 -0.1)">
       <defs>
        <path id="DejaVuSans-32" d="M 1228 531 
L 3431 531 
L 3431 0 
L 469 0 
L 469 531 
Q 828 903 1448 1529 
Q 2069 2156 2228 2338 
Q 2531 2678 2651 2914 
Q 2772 3150 2772 3378 
Q 2772 3750 2511 3984 
Q 2250 4219 1831 4219 
Q 1534 4219 1204 4116 
Q 875 4013 500 3803 
L 500 4441 
Q 881 4594 1212 4672 
Q 1544 4750 1819 4750 
Q 2544 4750 2975 4387 
Q 3406 4025 3406 3419 
Q 3406 3131 3298 2873 
Q 3191 2616 2906 2266 
Q 2828 2175 2409 1742 
Q 1991 1309 1228 531 
z
" transform="scale(0.015625)"/>
       </defs>
       <use xlink:href="#DejaVuSans-30"/>
       <use xlink:href="#DejaVuSans-2e" x="63.623047"/>
       <use xlink:href="#DejaVuSans-32" x="95.410156"/>
       <use xlink:href="#DejaVuSans-30" x="159.033203"/>
      </g>
     </g>
    </g>
    <g id="xtick_5">
     <g id="line2d_5">
      <g>
       <use xlink:href="#m773f148bbd" x="238.85663" y="246.04" style="stroke: #000000; stroke-width: 0.8"/>
      </g>
     </g>
     <g id="text_5">
      <!-- 0.22 -->
      <g transform="translate(227.723818 260.638438) scale(0.1 -0.1)">
       <use xlink:href="#DejaVuSans-30"/>
       <use xlink:href="#DejaVuSans-2e" x="63.623047"/>
       <use xlink:href="#DejaVuSans-32" x="95.410156"/>
       <use xlink:href="#DejaVuSans-32" x="159.033203"/>
      </g>
     </g>
    </g>
    <g id="text_6">
     <!-- Cortical Activation (a.u.) -->
     <g transform="translate(103.111081 274.316562) scale(0.1 -0.1)">
      <defs>
       <path id="DejaVuSans-43" d="M 4122 4306 
L 4122 3641 
Q 3803 3938 3442 4084 
Q 3081 4231 2675 4231 
Q 1875 4231 1450 3742 
Q 1025 3253 1025 2328 
Q 1025 1406 1450 917 
Q 1875 428 2675 428 
Q 3081 428 3442 575 
Q 3803 722 4122 1019 
L 4122 359 
Q 3791 134 3420 21 
Q 3050 -91 2638 -91 
Q 1578 -91 968 557 
Q 359 1206 359 2328 
Q 359 3453 968 4101 
Q 1578 4750 2638 4750 
Q 3056 4750 3426 4639 
Q 3797 4528 4122 4306 
z
" transform="scale(0.015625)"/>
       <path id="DejaVuSans-6f" d="M 1959 3097 
Q 1497 3097 1228 2736 
Q 959 2375 959 1747 
Q 959 1119 1226 758 
Q 1494 397 1959 397 
Q 2419 397 2687 759 
Q 2956 1122 2956 1747 
Q 2956 2369 2687 2733 
Q 2419 3097 1959 3097 
z
M 1959 3584 
Q 2709 3584 3137 3096 
Q 3566 2609 3566 1747 
Q 3566 888 3137 398 
Q 2709 -91 1959 -91 
Q 1206 -91 779 398 
Q 353 888 353 1747 
Q 353 2609 779 3096 
Q 1206 3584 1959 3584 
z
" transform="scale(0.015625)"/>
       <path id="DejaVuSans-72" d="M 2631 2963 
Q 2534 3019 2420 3045 
Q 2306 3072 2169 3072 
Q 1681 3072 1420 2755 
Q 1159 2438 1159 1844 
L 1159 0 
L 581 0 
L 581 3500 
L 1159 3500 
L 1159 2956 
Q 1341 3275 1631 3429 
Q 1922 3584 2338 3584 
Q 2397 3584 2469 3576 
Q 2541 3569 2628 3553 
L 2631 2963 
z
" transform="scale(0.015625)"/>
       <path id="DejaVuSans-74" d="M 1172 4494 
L 1172 3500 
L 2356 3500 
L 2356 3053 
L 1172 3053 
L 1172 1153 
Q 1172 725 1289 603 
Q 1406 481 1766 481 
L 2356 481 
L 2356 0 
L 1766 0 
Q 1100 0 847 248 
Q 594 497 594 1153 
L 594 3053 
L 172 3053 
L 172 3500 
L 594 3500 
L 594 4494 
L 1172 4494 
z
" transform="scale(0.015625)"/>
       <path id="DejaVuSans-69" d="M 603 3500 
L 1178 3500 
L 1178 0 
L 603 0 
L 603 3500 
z
M 603 4863 
L 1178 4863 
L 1178 4134 
L 603 4134 
L 603 4863 
z
" transform="scale(0.015625)"/>
       <path id="DejaVuSans-63" d="M 3122 3366 
L 3122 2828 
Q 2878 2963 2633 3030 
Q 2388 3097 2138 3097 
Q 1578 3097 1268 2742 
Q 959 2388 959 1747 
Q 959 1106 1268 751 
Q 1578 397 2138 397 
Q 2388 397 2633 464 
Q 2878 531 3122 666 
L 3122 134 
Q 2881 22 2623 -34 
Q 2366 -91 2075 -91 
Q 1284 -91 818 406 
Q 353 903 353 1747 
Q 353 2603 823 3093 
Q 1294 3584 2113 3584 
Q 2378 3584 2631 3529 
Q 2884 3475 3122 3366 
z
" transform="scale(0.015625)"/>
       <path id="DejaVuSans-61" d="M 2194 1759 
Q 1497 1759 1228 1600 
Q 959 1441 959 1056 
Q 959 750 1161 570 
Q 1363 391 1709 391 
Q 2188 391 2477 730 
Q 2766 1069 2766 1631 
L 2766 1759 
L 2194 1759 
z
M 3341 1997 
L 3341 0 
L 2766 0 
L 2766 531 
Q 2569 213 2275 61 
Q 1981 -91 1556 -91 
Q 1019 -91 701 211 
Q 384 513 384 1019 
Q 384 1609 779 1909 
Q 1175 2209 1959 2209 
L 2766 2209 
L 2766 2266 
Q 2766 2663 2505 2880 
Q 2244 3097 1772 3097 
Q 1472 3097 1187 3025 
Q 903 2953 641 2809 
L 641 3341 
Q 956 3463 1253 3523 
Q 1550 3584 1831 3584 
Q 2591 3584 2966 3190 
Q 3341 2797 3341 1997 
z
" transform="scale(0.015625)"/>
       <path id="DejaVuSans-6c" d="M 603 4863 
L 1178 4863 
L 1178 0 
L 603 0 
L 603 4863 
z
" transform="scale(0.015625)"/>
       <path id="DejaVuSans-20" transform="scale(0.015625)"/>
       <path id="DejaVuSans-41" d="M 2188 4044 
L 1331 1722 
L 3047 1722 
L 2188 4044 
z
M 1831 4666 
L 2547 4666 
L 4325 0 
L 3669 0 
L 3244 1197 
L 1141 1197 
L 716 0 
L 50 0 
L 1831 4666 
z
" transform="scale(0.015625)"/>
       <path id="DejaVuSans-76" d="M 191 3500 
L 800 3500 
L 1894 563 
L 2988 3500 
L 3597 3500 
L 2284 0 
L 1503 0 
L 191 3500 
z
" transform="scale(0.015625)"/>
       <path id="DejaVuSans-6e" d="M 3513 2113 
L 3513 0 
L 2938 0 
L 2938 2094 
Q 2938 2591 2744 2837 
Q 2550 3084 2163 3084 
Q 1697 3084 1428 2787 
Q 1159 2491 1159 1978 
L 1159 0 
L 581 0 
L 581 3500 
L 1159 3500 
L 1159 2956 
Q 1366 3272 1645 3428 
Q 1925 3584 2291 3584 
Q 2894 3584 3203 3211 
Q 3513 2838 3513 2113 
z
" transform="scale(0.015625)"/>
       <path id="DejaVuSans-28" d="M 1984 4856 
Q 1566 4138 1362 3434 
Q 1159 2731 1159 2009 
Q 1159 1288 1364 580 
Q 1569 -128 1984 -844 
L 1484 -844 
Q 1016 -109 783 600 
Q 550 1309 550 2009 
Q 550 2706 781 3412 
Q 1013 4119 1484 4856 
L 1984 4856 
z
" transform="scale(0.015625)"/>
       <path id="DejaVuSans-75" d="M 544 1381 
L 544 3500 
L 1119 3500 
L 1119 1403 
Q 1119 906 1312 657 
Q 1506 409 1894 409 
Q 2359 409 2629 706 
Q 2900 1003 2900 1516 
L 2900 3500 
L 3475 3500 
L 3475 0 
L 2900 0 
L 2900 538 
Q 2691 219 2414 64 
Q 2138 -91 1772 -91 
Q 1169 -91 856 284 
Q 544 659 544 1381 
z
M 1991 3584 
L 1991 3584 
z
" transform="scale(0.015625)"/>
       <path id="DejaVuSans-29" d="M 513 4856 
L 1013 4856 
Q 1481 4119 1714 3412 
Q 1947 2706 1947 2009 
Q 1947 1309 1714 600 
Q 1481 -109 1013 -844 
L 513 -844 
Q 928 -128 1133 580 
Q 1338 1288 1338 2009 
Q 1338 2731 1133 3434 
Q 928 4138 513 4856 
z
" transform="scale(0.015625)"/>
      </defs>
      <use xlink:href="#DejaVuSans-43"/>
      <use xlink:href="#DejaVuSans-6f" x="69.824219"/>
      <use xlink:href="#DejaVuSans-72" x="131.005859"/>
      <use xlink:href="#DejaVuSans-74" x="172.119141"/>
      <use xlink:href="#DejaVuSans-69" x="211.328125"/>
      <use xlink:href="#DejaVuSans-63" x="239.111328"/>
      <use xlink:href="#DejaVuSans-61" x="294.091797"/>
      <use xlink:href="#DejaVuSans-6c" x="355.371094"/>
      <use xlink:href="#DejaVuSans-20" x="383.154297"/>
      <use xlink:href="#DejaVuSans-41" x="414.941406"/>
      <use xlink:href="#DejaVuSans-63" x="481.599609"/>
      <use xlink:href="#DejaVuSans-74" x="536.580078"/>
      <use xlink:href="#DejaVuSans-69" x="575.789062"/>
      <use xlink:href="#DejaVuSans-76" x="603.572266"/>
      <use xlink:href="#DejaVuSans-61" x="662.751953"/>
      <use xlink:href="#DejaVuSans-74" x="724.03125"/>
      <use xlink:href="#DejaVuSans-69" x="763.240234"/>
      <use xlink:href="#DejaVuSans-6f" x="791.023438"/>
      <use xlink:href="#DejaVuSans-6e" x="852.205078"/>
      <use xlink:href="#DejaVuSans-20" x="915.583984"/>
      <use xlink:href="#DejaVuSans-28" x="947.371094"/>
      <use xlink:href="#DejaVuSans-61" x="986.384766"/>
      <use xlink:href="#DejaVuSans-2e" x="1047.664062"/>
      <use xlink:href="#DejaVuSans-75" x="1079.451172"/>
      <use xlink:href="#DejaVuSans-2e" x="1142.830078"/>
      <use xlink:href="#DejaVuSans-29" x="1174.617188"/>
     </g>
    </g>
   </g>
   <g id="matplotlib.axis_2">
    <g id="ytick_1">
     <g id="line2d_6">
      <defs>
       <path id="mac4ad708ce" d="M 0 0 
L -3.5 0 
" style="stroke: #000000; stroke-width: 0.8"/>
      </defs>
      <g>
       <use xlink:href="#mac4ad708ce" x="54.11" y="226.717854" style="stroke: #000000; stroke-width: 0.8"/>
      </g>
     </g>
     <g id="text_7">
      <!-- 0.02 -->
      <g transform="translate(24.844375 230.517073) scale(0.1 -0.1)">
       <use xlink:href="#DejaVuSans-30"/>
       <use xlink:href="#DejaVuSans-2e" x="63.623047"/>
       <use xlink:href="#DejaVuSans-30" x="95.410156"/>
       <use xlink:href="#DejaVuSans-32" x="159.033203"/>
      </g>
     </g>
    </g>
    <g id="ytick_2">
     <g id="line2d_7">
      <g>
       <use xlink:href="#mac4ad708ce" x="54.11" y="196.725004" style="stroke: #000000; stroke-width: 0.8"/>
      </g>
     </g>
     <g id="text_8">
      <!-- 0.04 -->
      <g transform="translate(24.844375 200.524223) scale(0.1 -0.1)">
       <use xlink:href="#DejaVuSans-30"/>
       <use xlink:href="#DejaVuSans-2e" x="63.623047"/>
       <use xlink:href="#DejaVuSans-30" x="95.410156"/>
       <use xlink:href="#DejaVuSans-34" x="159.033203"/>
      </g>
     </g>
    </g>
    <g id="ytick_3">
     <g id="line2d_8">
      <g>
       <use xlink:href="#mac4ad708ce" x="54.11" y="166.732153" style="stroke: #000000; stroke-width: 0.8"/>
      </g>
     </g>
     <g id="text_9">
      <!-- 0.06 -->
      <g transform="translate(24.844375 170.531372) scale(0.1 -0.1)">
       <use xlink:href="#DejaVuSans-30"/>
       <use xlink:href="#DejaVuSans-2e" x="63.623047"/>
       <use xlink:href="#DejaVuSans-30" x="95.410156"/>
       <use xlink:href="#DejaVuSans-36" x="159.033203"/>
      </g>
     </g>
    </g>
    <g id="ytick_4">
     <g id="line2d_9">
      <g>
       <use xlink:href="#mac4ad708ce" x="54.11" y="136.739303" style="stroke: #000000; stroke-width: 0.8"/>
      </g>
     </g>
     <g id="text_10">
      <!-- 0.08 -->
      <g transform="translate(24.844375 140.538522) scale(0.1 -0.1)">
       <use xlink:href="#DejaVuSans-30"/>
       <use xlink:href="#DejaVuSans-2e" x="63.623047"/>
       <use xlink:href="#DejaVuSans-30" x="95.410156"/>
       <use xlink:href="#DejaVuSans-38" x="159.033203"/>
      </g>
     </g>
    </g>
    <g id="ytick_5">
     <g id="line2d_10">
      <g>
       <use xlink:href="#mac4ad708ce" x="54.11" y="106.746453" style="stroke: #000000; stroke-width: 0.8"/>
      </g>
     </g>
     <g id="text_11">
      <!-- 0.10 -->
      <g transform="translate(24.844375 110.545672) scale(0.1 -0.1)">
       <use xlink:href="#DejaVuSans-30"/>
       <use xlink:href="#DejaVuSans-2e" x="63.623047"/>
       <use xlink:href="#DejaVuSans-31" x="95.410156"/>
       <use xlink:href="#DejaVuSans-30" x="159.033203"/>
      </g>
     </g>
    </g>
    <g id="ytick_6">
     <g id="line2d_11">
      <g>
       <use xlink:href="#mac4ad708ce" x="54.11" y="76.753603" style="stroke: #000000; stroke-width: 0.8"/>
      </g>
     </g>
     <g id="text_12">
      <!-- 0.12 -->
      <g transform="translate(24.844375 80.552821) scale(0.1 -0.1)">
       <use xlink:href="#DejaVuSans-30"/>
       <use xlink:href="#DejaVuSans-2e" x="63.623047"/>
       <use xlink:href="#DejaVuSans-31" x="95.410156"/>
       <use xlink:href="#DejaVuSans-32" x="159.033203"/>
      </g>
     </g>
    </g>
    <g id="ytick_7">
     <g id="line2d_12">
      <g>
       <use xlink:href="#mac4ad708ce" x="54.11" y="46.760752" style="stroke: #000000; stroke-width: 0.8"/>
      </g>
     </g>
     <g id="text_13">
      <!-- 0.14 -->
      <g transform="translate(24.844375 50.559971) scale(0.1 -0.1)">
       <use xlink:href="#DejaVuSans-30"/>
       <use xlink:href="#DejaVuSans-2e" x="63.623047"/>
       <use xlink:href="#DejaVuSans-31" x="95.410156"/>
       <use xlink:href="#DejaVuSans-34" x="159.033203"/>
      </g>
     </g>
    </g>
    <g id="ytick_8">
     <g id="line2d_13">
      <g>
       <use xlink:href="#mac4ad708ce" x="54.11" y="16.767902" style="stroke: #000000; stroke-width: 0.8"/>
      </g>
     </g>
     <g id="text_14">
      <!-- 0.16 -->
      <g transform="translate(24.844375 20.567121) scale(0.1 -0.1)">
       <use xlink:href="#DejaVuSans-30"/>
       <use xlink:href="#DejaVuSans-2e" x="63.623047"/>
       <use xlink:href="#DejaVuSans-31" x="95.410156"/>
       <use xlink:href="#DejaVuSans-36" x="159.033203"/>
      </g>
     </g>
    </g>
    <g id="text_15">
     <!-- Cerebellar Activation (a.u.) -->
     <g transform="translate(18.764687 195.678594) rotate(-90) scale(0.1 -0.1)">
      <defs>
       <path id="DejaVuSans-65" d="M 3597 1894 
L 3597 1613 
L 953 1613 
Q 991 1019 1311 708 
Q 1631 397 2203 397 
Q 2534 397 2845 478 
Q 3156 559 3463 722 
L 3463 178 
Q 3153 47 2828 -22 
Q 2503 -91 2169 -91 
Q 1331 -91 842 396 
Q 353 884 353 1716 
Q 353 2575 817 3079 
Q 1281 3584 2069 3584 
Q 2775 3584 3186 3129 
Q 3597 2675 3597 1894 
z
M 3022 2063 
Q 3016 2534 2758 2815 
Q 2500 3097 2075 3097 
Q 1594 3097 1305 2825 
Q 1016 2553 972 2059 
L 3022 2063 
z
" transform="scale(0.015625)"/>
       <path id="DejaVuSans-62" d="M 3116 1747 
Q 3116 2381 2855 2742 
Q 2594 3103 2138 3103 
Q 1681 3103 1420 2742 
Q 1159 2381 1159 1747 
Q 1159 1113 1420 752 
Q 1681 391 2138 391 
Q 2594 391 2855 752 
Q 3116 1113 3116 1747 
z
M 1159 2969 
Q 1341 3281 1617 3432 
Q 1894 3584 2278 3584 
Q 2916 3584 3314 3078 
Q 3713 2572 3713 1747 
Q 3713 922 3314 415 
Q 2916 -91 2278 -91 
Q 1894 -91 1617 61 
Q 1341 213 1159 525 
L 1159 0 
L 581 0 
L 581 4863 
L 1159 4863 
L 1159 2969 
z
" transform="scale(0.015625)"/>
      </defs>
      <use xlink:href="#DejaVuSans-43"/>
      <use xlink:href="#DejaVuSans-65" x="69.824219"/>
      <use xlink:href="#DejaVuSans-72" x="131.347656"/>
      <use xlink:href="#DejaVuSans-65" x="170.210938"/>
      <use xlink:href="#DejaVuSans-62" x="231.734375"/>
      <use xlink:href="#DejaVuSans-65" x="295.210938"/>
      <use xlink:href="#DejaVuSans-6c" x="356.734375"/>
      <use xlink:href="#DejaVuSans-6c" x="384.517578"/>
      <use xlink:href="#DejaVuSans-61" x="412.300781"/>
      <use xlink:href="#DejaVuSans-72" x="473.580078"/>
      <use xlink:href="#DejaVuSans-20" x="514.693359"/>
      <use xlink:href="#DejaVuSans-41" x="546.480469"/>
      <use xlink:href="#DejaVuSans-63" x="613.138672"/>
      <use xlink:href="#DejaVuSans-74" x="668.119141"/>
      <use xlink:href="#DejaVuSans-69" x="707.328125"/>
      <use xlink:href="#DejaVuSans-76" x="735.111328"/>
      <use xlink:href="#DejaVuSans-61" x="794.291016"/>
      <use xlink:href="#DejaVuSans-74" x="855.570312"/>
      <use xlink:href="#DejaVuSans-69" x="894.779297"/>
      <use xlink:href="#DejaVuSans-6f" x="922.5625"/>
      <use xlink:href="#DejaVuSans-6e" x="983.744141"/>
      <use xlink:href="#DejaVuSans-20" x="1047.123047"/>
      <use xlink:href="#DejaVuSans-28" x="1078.910156"/>
      <use xlink:href="#DejaVuSans-61" x="1117.923828"/>
      <use xlink:href="#DejaVuSans-2e" x="1179.203125"/>
      <use xlink:href="#DejaVuSans-75" x="1210.990234"/>
      <use xlink:href="#DejaVuSans-2e" x="1274.369141"/>
      <use xlink:href="#DejaVuSans-29" x="1306.15625"/>
     </g>
    </g>
   </g>
   <g id="line2d_14">
    <path d="M 64.08105 202.119272 
L 66.095404 201.103871 
L 68.109757 200.08847 
L 70.124111 199.073069 
L 72.138464 198.057668 
L 74.152818 197.042267 
L 76.167171 196.026866 
L 78.181525 195.011465 
L 80.195878 193.996064 
L 82.210232 192.980663 
L 84.224585 191.965262 
L 86.238939 190.949861 
L 88.253292 189.93446 
L 90.267646 188.919059 
L 92.281999 187.903658 
L 94.296353 186.888257 
L 96.310707 185.872856 
L 98.32506 184.857455 
L 100.339414 183.842054 
L 102.353767 182.826653 
L 104.368121 181.811252 
L 106.382474 180.795851 
L 108.396828 179.78045 
L 110.411181 178.765049 
L 112.425535 177.749648 
L 114.439888 176.734247 
L 116.454242 175.718846 
L 118.468595 174.703445 
L 120.482949 173.688044 
L 122.497303 172.672643 
L 124.511656 171.657242 
L 126.52601 170.641841 
L 128.540363 169.62644 
L 130.554717 168.611039 
L 132.56907 167.595638 
L 134.583424 166.580237 
L 136.597777 165.564836 
L 138.612131 164.549435 
L 140.626484 163.534034 
L 142.640838 162.518633 
L 144.655191 161.503232 
L 146.669545 160.487831 
L 148.683898 159.47243 
L 150.698252 158.457029 
L 152.712606 157.441628 
L 154.726959 156.426227 
L 156.741313 155.410826 
L 158.755666 154.395425 
L 160.77002 153.380024 
L 162.784373 152.364623 
L 164.798727 151.349222 
L 166.81308 150.333821 
L 168.827434 149.31842 
L 170.841787 148.303019 
L 172.856141 147.287617 
L 174.870494 146.272216 
L 176.884848 145.256815 
L 178.899202 144.241414 
L 180.913555 143.226013 
L 182.927909 142.210612 
L 184.942262 141.195211 
L 186.956616 140.17981 
L 188.970969 139.164409 
L 190.985323 138.149008 
L 192.999676 137.133607 
L 195.01403 136.118206 
L 197.028383 135.102805 
L 199.042737 134.087404 
L 201.05709 133.072003 
L 203.071444 132.056602 
L 205.085797 131.041201 
L 207.100151 130.0258 
L 209.114505 129.010399 
L 211.128858 127.994998 
L 213.143212 126.979597 
L 215.157565 125.964196 
L 217.171919 124.948795 
L 219.186272 123.933394 
L 221.200626 122.917993 
L 223.214979 121.902592 
L 225.229333 120.887191 
L 227.243686 119.87179 
L 229.25804 118.856389 
L 231.272393 117.840988 
L 233.286747 116.825587 
L 235.301101 115.810186 
L 237.315454 114.794785 
L 239.329808 113.779384 
L 241.344161 112.763983 
L 243.358515 111.748582 
L 245.372868 110.733181 
L 247.387222 109.71778 
L 249.401575 108.702379 
L 251.415929 107.686978 
L 253.430282 106.671577 
L 255.444636 105.656176 
L 257.458989 104.640775 
L 259.473343 103.625374 
L 261.487696 102.609973 
L 263.50205 101.594572 
" clip-path="url(#p482cf8ceec)" style="fill: none; stroke: #808080; stroke-width: 2.25; stroke-linecap: square"/>
   </g>
   <g id="LineCollection_1">
    <path d="M 104.354845 224.131896 
L 104.354845 150.545532 
" clip-path="url(#p482cf8ceec)" style="fill: none; stroke: #e6e6e6"/>
    <path d="M 202.522885 197.529827 
L 202.522885 109.737289 
" clip-path="url(#p482cf8ceec)" style="fill: none; stroke: #e6e6e6"/>
    <path d="M 64.08105 235.347273 
L 64.08105 160.971781 
" clip-path="url(#p482cf8ceec)" style="fill: none; stroke: #e6e6e6"/>
    <path d="M 123.271327 210.181644 
L 123.271327 146.893612 
" clip-path="url(#p482cf8ceec)" style="fill: none; stroke: #e6e6e6"/>
    <path d="M 176.304619 182.724125 
L 176.304619 111.482028 
" clip-path="url(#p482cf8ceec)" style="fill: none; stroke: #e6e6e6"/>
    <path d="M 260.36066 170.70156 
L 260.36066 78.148726 
" clip-path="url(#p482cf8ceec)" style="fill: none; stroke: #e6e6e6"/>
    <path d="M 73.34678 227.269893 
L 73.34678 161.414953 
" clip-path="url(#p482cf8ceec)" style="fill: none; stroke: #e6e6e6"/>
    <path d="M 179.135185 193.845471 
L 179.135185 124.344487 
" clip-path="url(#p482cf8ceec)" style="fill: none; stroke: #e6e6e6"/>
    <path d="M 263.50205 133.253377 
L 263.50205 21.492727 
" clip-path="url(#p482cf8ceec)" style="fill: none; stroke: #e6e6e6"/>
    <path d="M 243.966556 149.348808 
L 243.966556 64.027539 
" clip-path="url(#p482cf8ceec)" style="fill: none; stroke: #e6e6e6"/>
    <path d="M 176.33504 160.47717 
L 176.33504 75.353521 
" clip-path="url(#p482cf8ceec)" style="fill: none; stroke: #e6e6e6"/>
    <path d="M 174.560632 186.090764 
L 174.560632 92.386524 
" clip-path="url(#p482cf8ceec)" style="fill: none; stroke: #e6e6e6"/>
   </g>
   <g id="patch_3">
    <path d="M 54.11 246.04 
L 54.11 10.8 
" style="fill: none; stroke: #000000; stroke-width: 0.8; stroke-linejoin: miter; stroke-linecap: square"/>
   </g>
   <g id="patch_4">
    <path d="M 54.11 246.04 
L 273.4731 246.04 
" style="fill: none; stroke: #000000; stroke-width: 0.8; stroke-linejoin: miter; stroke-linecap: square"/>
   </g>
   <g id="text_16">
    <!-- load2 -->
    <g transform="translate(106.783624 194.589587) scale(0.0833 -0.0833)">
     <defs>
      <path id="DejaVuSans-64" d="M 2906 2969 
L 2906 4863 
L 3481 4863 
L 3481 0 
L 2906 0 
L 2906 525 
Q 2725 213 2448 61 
Q 2172 -91 1784 -91 
Q 1150 -91 751 415 
Q 353 922 353 1747 
Q 353 2572 751 3078 
Q 1150 3584 1784 3584 
Q 2172 3584 2448 3432 
Q 2725 3281 2906 2969 
z
M 947 1747 
Q 947 1113 1208 752 
Q 1469 391 1925 391 
Q 2381 391 2643 752 
Q 2906 1113 2906 1747 
Q 2906 2381 2643 2742 
Q 2381 3103 1925 3103 
Q 1469 3103 1208 2742 
Q 947 2381 947 1747 
z
" transform="scale(0.015625)"/>
     </defs>
     <use xlink:href="#DejaVuSans-6c"/>
     <use xlink:href="#DejaVuSans-6f" x="27.783203"/>
     <use xlink:href="#DejaVuSans-61" x="88.964844"/>
     <use xlink:href="#DejaVuSans-64" x="150.244141"/>
     <use xlink:href="#DejaVuSans-32" x="213.720703"/>
    </g>
   </g>
   <g id="text_17">
    <!-- load2 -->
    <g transform="translate(204.951663 150.979803) scale(0.0833 -0.0833)">
     <use xlink:href="#DejaVuSans-6c"/>
     <use xlink:href="#DejaVuSans-6f" x="27.783203"/>
     <use xlink:href="#DejaVuSans-61" x="88.964844"/>
     <use xlink:href="#DejaVuSans-64" x="150.244141"/>
     <use xlink:href="#DejaVuSans-32" x="213.720703"/>
    </g>
   </g>
   <g id="text_18">
    <!-- load2 -->
    <g transform="translate(66.509829 205.4104) scale(0.0833 -0.0833)">
     <use xlink:href="#DejaVuSans-6c"/>
     <use xlink:href="#DejaVuSans-6f" x="27.783203"/>
     <use xlink:href="#DejaVuSans-61" x="88.964844"/>
     <use xlink:href="#DejaVuSans-64" x="150.244141"/>
     <use xlink:href="#DejaVuSans-32" x="213.720703"/>
    </g>
   </g>
   <g id="text_19">
    <!-- load2 -->
    <g transform="translate(125.700105 175.883873) scale(0.0833 -0.0833)">
     <use xlink:href="#DejaVuSans-6c"/>
     <use xlink:href="#DejaVuSans-6f" x="27.783203"/>
     <use xlink:href="#DejaVuSans-61" x="88.964844"/>
     <use xlink:href="#DejaVuSans-64" x="150.244141"/>
     <use xlink:href="#DejaVuSans-32" x="213.720703"/>
    </g>
   </g>
   <g id="text_20">
    <!-- load4 -->
    <g transform="translate(178.733397 154.35395) scale(0.0833 -0.0833)">
     <use xlink:href="#DejaVuSans-6c"/>
     <use xlink:href="#DejaVuSans-6f" x="27.783203"/>
     <use xlink:href="#DejaVuSans-61" x="88.964844"/>
     <use xlink:href="#DejaVuSans-64" x="150.244141"/>
     <use xlink:href="#DejaVuSans-34" x="213.720703"/>
    </g>
   </g>
   <g id="text_21">
    <!-- load4 -->
    <g transform="translate(238.825431 121.771388) scale(0.0833 -0.0833)">
     <use xlink:href="#DejaVuSans-6c"/>
     <use xlink:href="#DejaVuSans-6f" x="27.783203"/>
     <use xlink:href="#DejaVuSans-61" x="88.964844"/>
     <use xlink:href="#DejaVuSans-64" x="150.244141"/>
     <use xlink:href="#DejaVuSans-34" x="213.720703"/>
    </g>
   </g>
   <g id="text_22">
    <!-- load4 -->
    <g transform="translate(75.775558 191.688668) scale(0.0833 -0.0833)">
     <use xlink:href="#DejaVuSans-6c"/>
     <use xlink:href="#DejaVuSans-6f" x="27.783203"/>
     <use xlink:href="#DejaVuSans-61" x="88.964844"/>
     <use xlink:href="#DejaVuSans-64" x="150.244141"/>
     <use xlink:href="#DejaVuSans-34" x="213.720703"/>
    </g>
   </g>
   <g id="text_23">
    <!-- load4 -->
    <g transform="translate(181.563964 166.345852) scale(0.0833 -0.0833)">
     <use xlink:href="#DejaVuSans-6c"/>
     <use xlink:href="#DejaVuSans-6f" x="27.783203"/>
     <use xlink:href="#DejaVuSans-61" x="88.964844"/>
     <use xlink:href="#DejaVuSans-64" x="150.244141"/>
     <use xlink:href="#DejaVuSans-34" x="213.720703"/>
    </g>
   </g>
   <g id="text_24">
    <!-- load6 -->
    <g transform="translate(241.966821 74.719297) scale(0.0833 -0.0833)">
     <use xlink:href="#DejaVuSans-6c"/>
     <use xlink:href="#DejaVuSans-6f" x="27.783203"/>
     <use xlink:href="#DejaVuSans-61" x="88.964844"/>
     <use xlink:href="#DejaVuSans-64" x="150.244141"/>
     <use xlink:href="#DejaVuSans-36" x="213.720703"/>
    </g>
   </g>
   <g id="text_25">
    <!-- load6 -->
    <g transform="translate(246.395335 104.034419) scale(0.0833 -0.0833)">
     <use xlink:href="#DejaVuSans-6c"/>
     <use xlink:href="#DejaVuSans-6f" x="27.783203"/>
     <use xlink:href="#DejaVuSans-61" x="88.964844"/>
     <use xlink:href="#DejaVuSans-64" x="150.244141"/>
     <use xlink:href="#DejaVuSans-36" x="213.720703"/>
    </g>
   </g>
   <g id="text_26">
    <!-- load6 -->
    <g transform="translate(178.763819 115.261591) scale(0.0833 -0.0833)">
     <use xlink:href="#DejaVuSans-6c"/>
     <use xlink:href="#DejaVuSans-6f" x="27.783203"/>
     <use xlink:href="#DejaVuSans-61" x="88.964844"/>
     <use xlink:href="#DejaVuSans-64" x="150.244141"/>
     <use xlink:href="#DejaVuSans-36" x="213.720703"/>
    </g>
   </g>
   <g id="text_27">
    <!-- load6 -->
    <g transform="translate(176.989411 136.58489) scale(0.0833 -0.0833)">
     <use xlink:href="#DejaVuSans-6c"/>
     <use xlink:href="#DejaVuSans-6f" x="27.783203"/>
     <use xlink:href="#DejaVuSans-61" x="88.964844"/>
     <use xlink:href="#DejaVuSans-64" x="150.244141"/>
     <use xlink:href="#DejaVuSans-36" x="213.720703"/>
    </g>
   </g>
  </g>
  <g id="legend_1">
   <g id="text_28">
    <!-- recall -->
    <g transform="translate(315.33375 110.064063) scale(0.1 -0.1)">
     <use xlink:href="#DejaVuSans-72"/>
     <use xlink:href="#DejaVuSans-65" x="38.863281"/>
     <use xlink:href="#DejaVuSans-63" x="100.386719"/>
     <use xlink:href="#DejaVuSans-61" x="155.367188"/>
     <use xlink:href="#DejaVuSans-6c" x="216.646484"/>
     <use xlink:href="#DejaVuSans-6c" x="244.429688"/>
    </g>
   </g>
   <g id="PathCollection_7">
    <defs>
     <path id="m1de9a4d375" d="M 0 3 
C 0.795609 3 1.55874 2.683901 2.12132 2.12132 
C 2.683901 1.55874 3 0.795609 3 0 
C 3 -0.795609 2.683901 -1.55874 2.12132 -2.12132 
C 1.55874 -2.683901 0.795609 -3 0 -3 
C -0.795609 -3 -1.55874 -2.683901 -2.12132 -2.12132 
C -2.683901 -1.55874 -3 -0.795609 -3 0 
C -3 0.795609 -2.683901 1.55874 -2.12132 2.12132 
C -1.55874 2.683901 -0.795609 3 0 3 
z
" style="stroke: #1f77b4"/>
    </defs>
    <g>
     <use xlink:href="#m1de9a4d375" x="297.33375" y="122.117188" style="fill: #1f77b4; stroke: #1f77b4"/>
    </g>
   </g>
   <g id="text_29">
    <!-- backward -->
    <g transform="translate(315.33375 124.742188) scale(0.1 -0.1)">
     <defs>
      <path id="DejaVuSans-6b" d="M 581 4863 
L 1159 4863 
L 1159 1991 
L 2875 3500 
L 3609 3500 
L 1753 1863 
L 3688 0 
L 2938 0 
L 1159 1709 
L 1159 0 
L 581 0 
L 581 4863 
z
" transform="scale(0.015625)"/>
      <path id="DejaVuSans-77" d="M 269 3500 
L 844 3500 
L 1563 769 
L 2278 3500 
L 2956 3500 
L 3675 769 
L 4391 3500 
L 4966 3500 
L 4050 0 
L 3372 0 
L 2619 2869 
L 1863 0 
L 1184 0 
L 269 3500 
z
" transform="scale(0.015625)"/>
     </defs>
     <use xlink:href="#DejaVuSans-62"/>
     <use xlink:href="#DejaVuSans-61" x="63.476562"/>
     <use xlink:href="#DejaVuSans-63" x="124.755859"/>
     <use xlink:href="#DejaVuSans-6b" x="179.736328"/>
     <use xlink:href="#DejaVuSans-77" x="237.646484"/>
     <use xlink:href="#DejaVuSans-61" x="319.433594"/>
     <use xlink:href="#DejaVuSans-72" x="380.712891"/>
     <use xlink:href="#DejaVuSans-64" x="420.076172"/>
    </g>
   </g>
   <g id="PathCollection_8">
    <defs>
     <path id="m539f21605f" d="M 0 3 
C 0.795609 3 1.55874 2.683901 2.12132 2.12132 
C 2.683901 1.55874 3 0.795609 3 0 
C 3 -0.795609 2.683901 -1.55874 2.12132 -2.12132 
C 1.55874 -2.683901 0.795609 -3 0 -3 
C -0.795609 -3 -1.55874 -2.683901 -2.12132 -2.12132 
C -2.683901 -1.55874 -3 -0.795609 -3 0 
C -3 0.795609 -2.683901 1.55874 -2.12132 2.12132 
C -1.55874 2.683901 -0.795609 3 0 3 
z
" style="stroke: #ff7f0e"/>
    </defs>
    <g>
     <use xlink:href="#m539f21605f" x="297.33375" y="136.795313" style="fill: #ff7f0e; stroke: #ff7f0e"/>
    </g>
   </g>
   <g id="text_30">
    <!-- forward -->
    <g transform="translate(315.33375 139.420313) scale(0.1 -0.1)">
     <defs>
      <path id="DejaVuSans-66" d="M 2375 4863 
L 2375 4384 
L 1825 4384 
Q 1516 4384 1395 4259 
Q 1275 4134 1275 3809 
L 1275 3500 
L 2222 3500 
L 2222 3053 
L 1275 3053 
L 1275 0 
L 697 0 
L 697 3053 
L 147 3053 
L 147 3500 
L 697 3500 
L 697 3744 
Q 697 4328 969 4595 
Q 1241 4863 1831 4863 
L 2375 4863 
z
" transform="scale(0.015625)"/>
     </defs>
     <use xlink:href="#DejaVuSans-66"/>
     <use xlink:href="#DejaVuSans-6f" x="35.205078"/>
     <use xlink:href="#DejaVuSans-72" x="96.386719"/>
     <use xlink:href="#DejaVuSans-77" x="137.5"/>
     <use xlink:href="#DejaVuSans-61" x="219.287109"/>
     <use xlink:href="#DejaVuSans-72" x="280.566406"/>
     <use xlink:href="#DejaVuSans-64" x="319.929688"/>
    </g>
   </g>
   <g id="text_31">
    <!-- phase -->
    <g transform="translate(315.33375 154.098438) scale(0.1 -0.1)">
     <defs>
      <path id="DejaVuSans-70" d="M 1159 525 
L 1159 -1331 
L 581 -1331 
L 581 3500 
L 1159 3500 
L 1159 2969 
Q 1341 3281 1617 3432 
Q 1894 3584 2278 3584 
Q 2916 3584 3314 3078 
Q 3713 2572 3713 1747 
Q 3713 922 3314 415 
Q 2916 -91 2278 -91 
Q 1894 -91 1617 61 
Q 1341 213 1159 525 
z
M 3116 1747 
Q 3116 2381 2855 2742 
Q 2594 3103 2138 3103 
Q 1681 3103 1420 2742 
Q 1159 2381 1159 1747 
Q 1159 1113 1420 752 
Q 1681 391 2138 391 
Q 2594 391 2855 752 
Q 3116 1113 3116 1747 
z
" transform="scale(0.015625)"/>
      <path id="DejaVuSans-68" d="M 3513 2113 
L 3513 0 
L 2938 0 
L 2938 2094 
Q 2938 2591 2744 2837 
Q 2550 3084 2163 3084 
Q 1697 3084 1428 2787 
Q 1159 2491 1159 1978 
L 1159 0 
L 581 0 
L 581 4863 
L 1159 4863 
L 1159 2956 
Q 1366 3272 1645 3428 
Q 1925 3584 2291 3584 
Q 2894 3584 3203 3211 
Q 3513 2838 3513 2113 
z
" transform="scale(0.015625)"/>
      <path id="DejaVuSans-73" d="M 2834 3397 
L 2834 2853 
Q 2591 2978 2328 3040 
Q 2066 3103 1784 3103 
Q 1356 3103 1142 2972 
Q 928 2841 928 2578 
Q 928 2378 1081 2264 
Q 1234 2150 1697 2047 
L 1894 2003 
Q 2506 1872 2764 1633 
Q 3022 1394 3022 966 
Q 3022 478 2636 193 
Q 2250 -91 1575 -91 
Q 1294 -91 989 -36 
Q 684 19 347 128 
L 347 722 
Q 666 556 975 473 
Q 1284 391 1588 391 
Q 1994 391 2212 530 
Q 2431 669 2431 922 
Q 2431 1156 2273 1281 
Q 2116 1406 1581 1522 
L 1381 1569 
Q 847 1681 609 1914 
Q 372 2147 372 2553 
Q 372 3047 722 3315 
Q 1072 3584 1716 3584 
Q 2034 3584 2315 3537 
Q 2597 3491 2834 3397 
z
" transform="scale(0.015625)"/>
     </defs>
     <use xlink:href="#DejaVuSans-70"/>
     <use xlink:href="#DejaVuSans-68" x="63.476562"/>
     <use xlink:href="#DejaVuSans-61" x="126.855469"/>
     <use xlink:href="#DejaVuSans-73" x="188.134766"/>
     <use xlink:href="#DejaVuSans-65" x="240.234375"/>
    </g>
   </g>
   <g id="PathCollection_9">
    <defs>
     <path id="m3b0444ae66" d="M 0 3 
C 0.795609 3 1.55874 2.683901 2.12132 2.12132 
C 2.683901 1.55874 3 0.795609 3 0 
C 3 -0.795609 2.683901 -1.55874 2.12132 -2.12132 
C 1.55874 -2.683901 0.795609 -3 0 -3 
C -0.795609 -3 -1.55874 -2.683901 -2.12132 -2.12132 
C -2.683901 -1.55874 -3 -0.795609 -3 0 
C -3 0.795609 -2.683901 1.55874 -2.12132 2.12132 
C -1.55874 2.683901 -0.795609 3 0 3 
z
" style="stroke: #333333"/>
    </defs>
    <g>
     <use xlink:href="#m3b0444ae66" x="297.33375" y="166.151563" style="fill: #333333; stroke: #333333"/>
    </g>
   </g>
   <g id="text_32">
    <!-- encode -->
    <g transform="translate(315.33375 168.776563) scale(0.1 -0.1)">
     <use xlink:href="#DejaVuSans-65"/>
     <use xlink:href="#DejaVuSans-6e" x="61.523438"/>
     <use xlink:href="#DejaVuSans-63" x="124.902344"/>
     <use xlink:href="#DejaVuSans-6f" x="179.882812"/>
     <use xlink:href="#DejaVuSans-64" x="241.064453"/>
     <use xlink:href="#DejaVuSans-65" x="304.541016"/>
    </g>
   </g>
   <g id="PathCollection_10">
    <defs>
     <path id="m2d15bd115a" d="M -1.5 3 
L 0 1.5 
L 1.5 3 
L 3 1.5 
L 1.5 0 
L 3 -1.5 
L 1.5 -3 
L 0 -1.5 
L -1.5 -3 
L -3 -1.5 
L -1.5 0 
L -3 1.5 
z
" style="stroke: #333333"/>
    </defs>
    <g>
     <use xlink:href="#m2d15bd115a" x="297.33375" y="180.829688" style="fill: #333333; stroke: #333333"/>
    </g>
   </g>
   <g id="text_33">
    <!-- retriev -->
    <g transform="translate(315.33375 183.454688) scale(0.1 -0.1)">
     <use xlink:href="#DejaVuSans-72"/>
     <use xlink:href="#DejaVuSans-65" x="38.863281"/>
     <use xlink:href="#DejaVuSans-74" x="100.386719"/>
     <use xlink:href="#DejaVuSans-72" x="139.595703"/>
     <use xlink:href="#DejaVuSans-69" x="180.708984"/>
     <use xlink:href="#DejaVuSans-65" x="208.492188"/>
     <use xlink:href="#DejaVuSans-76" x="270.015625"/>
    </g>
   </g>
  </g>
 </g>
 <defs>
  <clipPath id="p482cf8ceec">
   <rect x="54.11" y="10.8" width="219.3631" height="235.24"/>
  </clipPath>
 </defs>
</svg>
