<?xml version="1.0" encoding="utf-8" standalone="no"?>
<!DOCTYPE svg PUBLIC "-//W3C//DTD SVG 1.1//EN"
  "http://www.w3.org/Graphics/SVG/1.1/DTD/svg11.dtd">
<svg xmlns:xlink="http://www.w3.org/1999/xlink" width="372.69pt" height="288pt" viewBox="0 0 372.69 288" xmlns="http://www.w3.org/2000/svg" version="1.1">
 <metadata>
  <rdf:RDF xmlns:dc="http://purl.org/dc/elements/1.1/" xmlns:cc="http://creativecommons.org/ns#" xmlns:rdf="http://www.w3.org/1999/02/22-rdf-syntax-ns#">
   <cc:Work>
    <dc:type rdf:resource="http://purl.org/dc/dcmitype/StillImage"/>
    <dc:date>2023-02-15T10:56:29.200916</dc:date>
    <dc:format>image/svg+xml</dc:format>
    <dc:creator>
     <cc:Agent>
      <dc:title>Matplotlib v3.6.3, https://matplotlib.org/</dc:title>
     </cc:Agent>
    </dc:creator>
   </cc:Work>
  </rdf:RDF>
 </metadata>
 <defs>
  <style type="text/css">*{stroke-linejoin: round; stroke-linecap: butt}</style>
 </defs>
 <g id="figure_1">
  <g id="patch_1">
   <path d="M 0 288 
L 372.69 288 
L 372.69 0 
L 0 0 
z
" style="fill: #ffffff"/>
  </g>
  <g id="axes_1">
   <g id="patch_2">
    <path d="M 54.02 246.04 
L 273.4731 246.04 
L 273.4731 10.8 
L 54.02 10.8 
z
" style="fill: #ffffff"/>
   </g>
   <g id="PathCollection_1">
    <path d="M 63.995141 194.739382 
C 65.321156 194.739382 66.59304 194.21255 67.530675 193.274916 
C 68.468309 192.337281 68.995141 191.065397 68.995141 189.739382 
C 68.995141 188.413366 68.468309 187.141483 67.530675 186.203848 
C 66.59304 185.266213 65.321156 184.739382 63.995141 184.739382 
C 62.669125 184.739382 61.397242 185.266213 60.459607 186.203848 
C 59.521972 187.141483 58.995141 188.413366 58.995141 189.739382 
C 58.995141 191.065397 59.521972 192.337281 60.459607 193.274916 
C 61.397242 194.21255 62.669125 194.739382 63.995141 194.739382 
z
" clip-path="url(#p29da9914f9)" style="fill: #1f77b4; stroke: #ffffff; stroke-width: 0.8"/>
    <path d="M 254.356968 130.853041 
L 256.856968 128.353041 
L 259.356968 130.853041 
L 261.856968 128.353041 
L 259.356968 125.853041 
L 261.856968 123.353041 
L 259.356968 120.853041 
L 256.856968 123.353041 
L 254.356968 120.853041 
L 251.856968 123.353041 
L 254.356968 125.853041 
L 251.856968 128.353041 
z
" clip-path="url(#p29da9914f9)" style="fill: #1f77b4; stroke: #ffffff; stroke-width: 0.8"/>
    <path d="M 84.938078 195.091155 
C 86.264094 195.091155 87.535978 194.564324 88.473612 193.626689 
C 89.411247 192.689055 89.938078 191.417171 89.938078 190.091155 
C 89.938078 188.76514 89.411247 187.493256 88.473612 186.555622 
C 87.535978 185.617987 86.264094 185.091155 84.938078 185.091155 
C 83.612063 185.091155 82.340179 185.617987 81.402544 186.555622 
C 80.46491 187.493256 79.938078 188.76514 79.938078 190.091155 
C 79.938078 191.417171 80.46491 192.689055 81.402544 193.626689 
C 82.340179 194.564324 83.612063 195.091155 84.938078 195.091155 
z
" clip-path="url(#p29da9914f9)" style="fill: #ff7f0e; stroke: #ffffff; stroke-width: 0.8"/>
    <path d="M 245.329407 135.177929 
L 247.829407 132.677929 
L 250.329407 135.177929 
L 252.829407 132.677929 
L 250.329407 130.177929 
L 252.829407 127.677929 
L 250.329407 125.177929 
L 247.829407 127.677929 
L 245.329407 125.177929 
L 242.829407 127.677929 
L 245.329407 130.177929 
L 242.829407 132.677929 
z
" clip-path="url(#p29da9914f9)" style="fill: #ff7f0e; stroke: #ffffff; stroke-width: 0.8"/>
    <path d="M 143.135841 148.142605 
C 144.461857 148.142605 145.73374 147.615774 146.671375 146.678139 
C 147.609009 145.740504 148.135841 144.468621 148.135841 143.142605 
C 148.135841 141.81659 147.609009 140.544706 146.671375 139.607071 
C 145.73374 138.669437 144.461857 138.142605 143.135841 138.142605 
C 141.809826 138.142605 140.537942 138.669437 139.600307 139.607071 
C 138.662673 140.544706 138.135841 141.81659 138.135841 143.142605 
C 138.135841 144.468621 138.662673 145.740504 139.600307 146.678139 
C 140.537942 147.615774 141.809826 148.142605 143.135841 148.142605 
z
" clip-path="url(#p29da9914f9)" style="fill: #1f77b4; stroke: #ffffff; stroke-width: 0.8"/>
    <path d="M 260.997959 107.305079 
L 263.497959 104.805079 
L 265.997959 107.305079 
L 268.497959 104.805079 
L 265.997959 102.305079 
L 268.497959 99.805079 
L 265.997959 97.305079 
L 263.497959 99.805079 
L 260.997959 97.305079 
L 258.497959 99.805079 
L 260.997959 102.305079 
L 258.497959 104.805079 
z
" clip-path="url(#p29da9914f9)" style="fill: #1f77b4; stroke: #ffffff; stroke-width: 0.8"/>
    <path d="M 80.33821 194.269683 
C 81.664225 194.269683 82.936109 193.742852 83.873744 192.805217 
C 84.811378 191.867583 85.33821 190.595699 85.33821 189.269683 
C 85.33821 187.943668 84.811378 186.671784 83.873744 185.734149 
C 82.936109 184.796515 81.664225 184.269683 80.33821 184.269683 
C 79.012194 184.269683 77.74031 184.796515 76.802676 185.734149 
C 75.865041 186.671784 75.33821 187.943668 75.33821 189.269683 
C 75.33821 190.595699 75.865041 191.867583 76.802676 192.805217 
C 77.74031 193.742852 79.012194 194.269683 80.33821 194.269683 
z
" clip-path="url(#p29da9914f9)" style="fill: #ff7f0e; stroke: #ffffff; stroke-width: 0.8"/>
    <path d="M 252.687378 123.441701 
L 255.187378 120.941701 
L 257.687378 123.441701 
L 260.187378 120.941701 
L 257.687378 118.441701 
L 260.187378 115.941701 
L 257.687378 113.441701 
L 255.187378 115.941701 
L 252.687378 113.441701 
L 250.187378 115.941701 
L 252.687378 118.441701 
L 250.187378 120.941701 
z
" clip-path="url(#p29da9914f9)" style="fill: #ff7f0e; stroke: #ffffff; stroke-width: 0.8"/>
    <path d="M 230.191497 80.910243 
C 231.517512 80.910243 232.789396 80.383411 233.727031 79.445777 
C 234.664665 78.508142 235.191497 77.236258 235.191497 75.910243 
C 235.191497 74.584227 234.664665 73.312343 233.727031 72.374709 
C 232.789396 71.437074 231.517512 70.910243 230.191497 70.910243 
C 228.865481 70.910243 227.593597 71.437074 226.655963 72.374709 
C 225.718328 73.312343 225.191497 74.584227 225.191497 75.910243 
C 225.191497 77.236258 225.718328 78.508142 226.655963 79.445777 
C 227.593597 80.383411 228.865481 80.910243 230.191497 80.910243 
z
" clip-path="url(#p29da9914f9)" style="fill: #1f77b4; stroke: #ffffff; stroke-width: 0.8"/>
    <path d="M 197.469824 100.994641 
L 199.969824 98.494641 
L 202.469824 100.994641 
L 204.969824 98.494641 
L 202.469824 95.994641 
L 204.969824 93.494641 
L 202.469824 90.994641 
L 199.969824 93.494641 
L 197.469824 90.994641 
L 194.969824 93.494641 
L 197.469824 95.994641 
L 194.969824 98.494641 
z
" clip-path="url(#p29da9914f9)" style="fill: #1f77b4; stroke: #ffffff; stroke-width: 0.8"/>
    <path d="M 162.490205 124.208477 
C 163.816221 124.208477 165.088104 123.681646 166.025739 122.744011 
C 166.963374 121.806377 167.490205 120.534493 167.490205 119.208477 
C 167.490205 117.882462 166.963374 116.610578 166.025739 115.672944 
C 165.088104 114.735309 163.816221 114.208477 162.490205 114.208477 
C 161.16419 114.208477 159.892306 114.735309 158.954671 115.672944 
C 158.017037 116.610578 157.490205 117.882462 157.490205 119.208477 
C 157.490205 120.534493 158.017037 121.806377 158.954671 122.744011 
C 159.892306 123.681646 161.16419 124.208477 162.490205 124.208477 
z
" clip-path="url(#p29da9914f9)" style="fill: #ff7f0e; stroke: #ffffff; stroke-width: 0.8"/>
    <path d="M 201.394835 120.361947 
L 203.894835 117.861947 
L 206.394835 120.361947 
L 208.894835 117.861947 
L 206.394835 115.361947 
L 208.894835 112.861947 
L 206.394835 110.361947 
L 203.894835 112.861947 
L 201.394835 110.361947 
L 198.894835 112.861947 
L 201.394835 115.361947 
L 198.894835 117.861947 
z
" clip-path="url(#p29da9914f9)" style="fill: #ff7f0e; stroke: #ffffff; stroke-width: 0.8"/>
   </g>
   <g id="PathCollection_2"/>
   <g id="PathCollection_3"/>
   <g id="PathCollection_4"/>
   <g id="PathCollection_5"/>
   <g id="PathCollection_6">
    <defs>
     <path id="m1a978fc4fe" d="M 0 0 
C 0 0 0 0 0 0 
C 0 0 0 0 0 0 
C 0 0 0 0 0 0 
C 0 0 0 0 0 0 
C 0 0 0 0 0 0 
C 0 0 0 0 0 0 
C 0 0 0 0 0 0 
C 0 0 0 0 0 0 
z
" style="stroke: #1f77b4; stroke-opacity: 0.8"/>
    </defs>
    <g clip-path="url(#p29da9914f9)">
     <use xlink:href="#m1a978fc4fe" x="63.995141" y="189.739382" style="fill: #1f77b4; fill-opacity: 0.8; stroke: #1f77b4; stroke-opacity: 0.8"/>
     <use xlink:href="#m1a978fc4fe" x="256.856968" y="125.853041" style="fill: #1f77b4; fill-opacity: 0.8; stroke: #1f77b4; stroke-opacity: 0.8"/>
     <use xlink:href="#m1a978fc4fe" x="84.938078" y="190.091155" style="fill: #1f77b4; fill-opacity: 0.8; stroke: #1f77b4; stroke-opacity: 0.8"/>
     <use xlink:href="#m1a978fc4fe" x="247.829407" y="130.177929" style="fill: #1f77b4; fill-opacity: 0.8; stroke: #1f77b4; stroke-opacity: 0.8"/>
     <use xlink:href="#m1a978fc4fe" x="143.135841" y="143.142605" style="fill: #1f77b4; fill-opacity: 0.8; stroke: #1f77b4; stroke-opacity: 0.8"/>
     <use xlink:href="#m1a978fc4fe" x="263.497959" y="102.305079" style="fill: #1f77b4; fill-opacity: 0.8; stroke: #1f77b4; stroke-opacity: 0.8"/>
     <use xlink:href="#m1a978fc4fe" x="80.33821" y="189.269683" style="fill: #1f77b4; fill-opacity: 0.8; stroke: #1f77b4; stroke-opacity: 0.8"/>
     <use xlink:href="#m1a978fc4fe" x="255.187378" y="118.441701" style="fill: #1f77b4; fill-opacity: 0.8; stroke: #1f77b4; stroke-opacity: 0.8"/>
     <use xlink:href="#m1a978fc4fe" x="230.191497" y="75.910243" style="fill: #1f77b4; fill-opacity: 0.8; stroke: #1f77b4; stroke-opacity: 0.8"/>
     <use xlink:href="#m1a978fc4fe" x="199.969824" y="95.994641" style="fill: #1f77b4; fill-opacity: 0.8; stroke: #1f77b4; stroke-opacity: 0.8"/>
     <use xlink:href="#m1a978fc4fe" x="162.490205" y="119.208477" style="fill: #1f77b4; fill-opacity: 0.8; stroke: #1f77b4; stroke-opacity: 0.8"/>
     <use xlink:href="#m1a978fc4fe" x="203.894835" y="115.361947" style="fill: #1f77b4; fill-opacity: 0.8; stroke: #1f77b4; stroke-opacity: 0.8"/>
    </g>
   </g>
   <g id="PolyCollection_1">
    <path d="M 63.995141 144.37578 
L 63.995141 194.098326 
L 66.010321 193.010425 
L 68.025501 192.059662 
L 70.040681 191.027281 
L 72.055861 189.956356 
L 74.071041 189.070687 
L 76.086221 188.146024 
L 78.101401 187.262451 
L 80.116581 186.243497 
L 82.131761 185.160577 
L 84.146941 184.222519 
L 86.162121 183.223373 
L 88.177301 182.265343 
L 90.192481 181.35709 
L 92.207661 180.392221 
L 94.222841 179.468902 
L 96.238021 178.572859 
L 98.253201 177.754606 
L 100.268381 176.838679 
L 102.283561 175.935892 
L 104.298741 175.097551 
L 106.313921 174.271059 
L 108.329101 173.406998 
L 110.34428 172.593861 
L 112.35946 171.746448 
L 114.37464 170.918251 
L 116.38982 170.104596 
L 118.405 169.290998 
L 120.42018 168.4774 
L 122.43536 167.642867 
L 124.45054 166.850133 
L 126.46572 166.036599 
L 128.4809 165.200231 
L 130.49608 164.386479 
L 132.51126 163.50753 
L 134.52644 162.647111 
L 136.54162 161.840037 
L 138.5568 160.988448 
L 140.57198 160.145285 
L 142.58716 159.274049 
L 144.60234 158.419141 
L 146.61752 157.560713 
L 148.6327 156.698328 
L 150.64788 155.851112 
L 152.66306 154.998312 
L 154.67824 154.240631 
L 156.69342 153.48295 
L 158.7086 152.725269 
L 160.72378 151.966658 
L 162.73896 151.214669 
L 164.75414 150.434107 
L 166.76932 149.635305 
L 168.7845 148.827134 
L 170.79968 148.086371 
L 172.81486 147.220313 
L 174.83004 146.483136 
L 176.84522 145.677133 
L 178.8604 144.893872 
L 180.87558 144.144433 
L 182.89076 143.44973 
L 184.90594 142.776899 
L 186.92112 141.972399 
L 188.9363 141.261138 
L 190.95148 140.563261 
L 192.96666 139.80136 
L 194.98184 138.990304 
L 196.99702 138.135621 
L 199.0122 137.383254 
L 201.02738 136.606135 
L 203.04256 135.748888 
L 205.05774 135.000455 
L 207.07292 134.324284 
L 209.0881 133.625817 
L 211.10328 132.874381 
L 213.11846 132.119424 
L 215.13364 131.351758 
L 217.14882 130.584092 
L 219.163999 129.816426 
L 221.179179 129.048761 
L 223.194359 128.320377 
L 225.209539 127.615977 
L 227.224719 126.866199 
L 229.239899 126.115874 
L 231.255079 125.364535 
L 233.270259 124.613196 
L 235.285439 123.917722 
L 237.300619 123.135404 
L 239.315799 122.35918 
L 241.330979 121.607841 
L 243.346159 120.911562 
L 245.361339 120.314894 
L 247.376519 119.691037 
L 249.391699 118.917116 
L 251.406879 118.425194 
L 253.422059 117.688248 
L 255.437239 116.908822 
L 257.452419 116.313269 
L 259.467599 115.730388 
L 261.482779 115.117332 
L 263.497959 114.487533 
L 263.497959 75.112292 
L 263.497959 75.112292 
L 261.482779 76.26737 
L 259.467599 77.36787 
L 257.452419 78.468615 
L 255.437239 79.56936 
L 253.422059 80.670105 
L 251.406879 81.831643 
L 249.391699 83.009752 
L 247.376519 84.187861 
L 245.361339 85.366259 
L 243.346159 86.545447 
L 241.330979 87.726005 
L 239.315799 88.906913 
L 237.300619 90.087821 
L 235.285439 91.268729 
L 233.270259 92.449636 
L 231.255079 93.630544 
L 229.239899 94.811452 
L 227.224719 95.887034 
L 225.209539 97.085735 
L 223.194359 98.294856 
L 221.179179 98.801201 
L 219.163999 100.053004 
L 217.14882 101.307273 
L 215.13364 102.561687 
L 213.11846 103.751818 
L 211.10328 104.661499 
L 209.0881 105.69597 
L 207.07292 106.84518 
L 205.05774 107.930008 
L 203.04256 109.044166 
L 201.02738 110.176579 
L 199.0122 111.056061 
L 196.99702 111.692445 
L 194.98184 112.733126 
L 192.96666 113.36305 
L 190.95148 114.20751 
L 188.9363 115.239774 
L 186.92112 115.815476 
L 184.90594 116.481509 
L 182.89076 117.070971 
L 180.87558 117.740636 
L 178.8604 118.619611 
L 176.84522 118.994793 
L 174.83004 119.501726 
L 172.81486 120.404122 
L 170.79968 120.788294 
L 168.7845 121.162726 
L 166.76932 122.085096 
L 164.75414 123.551064 
L 162.73896 124.773978 
L 160.72378 125.166163 
L 158.7086 125.866576 
L 156.69342 126.39369 
L 154.67824 126.920805 
L 152.66306 127.371683 
L 150.64788 127.72806 
L 148.6327 127.971987 
L 146.61752 128.221894 
L 144.60234 128.4718 
L 142.58716 129.141383 
L 140.57198 129.471633 
L 138.5568 130.002387 
L 136.54162 130.281334 
L 134.52644 130.541397 
L 132.51126 130.801461 
L 130.49608 131.061524 
L 128.4809 131.344481 
L 126.46572 131.782193 
L 124.45054 132.3194 
L 122.43536 132.856607 
L 120.42018 133.393814 
L 118.405 133.931021 
L 116.38982 134.468228 
L 114.37464 135.005435 
L 112.35946 135.551674 
L 110.34428 136.097944 
L 108.329101 136.644214 
L 106.313921 137.086364 
L 104.298741 137.39845 
L 102.283561 137.6983 
L 100.268381 138.146966 
L 98.253201 138.493012 
L 96.238021 138.839057 
L 94.222841 139.185102 
L 92.207661 139.531147 
L 90.192481 139.877192 
L 88.177301 140.223238 
L 86.162121 140.569283 
L 84.146941 140.915328 
L 82.131761 141.261373 
L 80.116581 141.607418 
L 78.101401 141.953464 
L 76.086221 142.299509 
L 74.071041 142.645554 
L 72.055861 142.991599 
L 70.040681 143.337644 
L 68.025501 143.68369 
L 66.010321 144.029735 
L 63.995141 144.37578 
z
" clip-path="url(#p29da9914f9)" style="fill: #808080; fill-opacity: 0.15"/>
   </g>
   <g id="matplotlib.axis_1">
    <g id="xtick_1">
     <g id="line2d_1">
      <defs>
       <path id="mdc8544dc5e" d="M 0 0 
L 0 3.5 
" style="stroke: #000000; stroke-width: 0.8"/>
      </defs>
      <g>
       <use xlink:href="#mdc8544dc5e" x="58.160256" y="246.04" style="stroke: #000000; stroke-width: 0.8"/>
      </g>
     </g>
     <g id="text_1">
      <!-- 0.03 -->
      <g transform="translate(47.027443 260.638438) scale(0.1 -0.1)">
       <defs>
        <path id="DejaVuSans-30" d="M 2034 4250 
Q 1547 4250 1301 3770 
Q 1056 3291 1056 2328 
Q 1056 1369 1301 889 
Q 1547 409 2034 409 
Q 2525 409 2770 889 
Q 3016 1369 3016 2328 
Q 3016 3291 2770 3770 
Q 2525 4250 2034 4250 
z
M 2034 4750 
Q 2819 4750 3233 4129 
Q 3647 3509 3647 2328 
Q 3647 1150 3233 529 
Q 2819 -91 2034 -91 
Q 1250 -91 836 529 
Q 422 1150 422 2328 
Q 422 3509 836 4129 
Q 1250 4750 2034 4750 
z
" transform="scale(0.015625)"/>
        <path id="DejaVuSans-2e" d="M 684 794 
L 1344 794 
L 1344 0 
L 684 0 
L 684 794 
z
" transform="scale(0.015625)"/>
        <path id="DejaVuSans-33" d="M 2597 2516 
Q 3050 2419 3304 2112 
Q 3559 1806 3559 1356 
Q 3559 666 3084 287 
Q 2609 -91 1734 -91 
Q 1441 -91 1130 -33 
Q 819 25 488 141 
L 488 750 
Q 750 597 1062 519 
Q 1375 441 1716 441 
Q 2309 441 2620 675 
Q 2931 909 2931 1356 
Q 2931 1769 2642 2001 
Q 2353 2234 1838 2234 
L 1294 2234 
L 1294 2753 
L 1863 2753 
Q 2328 2753 2575 2939 
Q 2822 3125 2822 3475 
Q 2822 3834 2567 4026 
Q 2313 4219 1838 4219 
Q 1578 4219 1281 4162 
Q 984 4106 628 3988 
L 628 4550 
Q 988 4650 1302 4700 
Q 1616 4750 1894 4750 
Q 2613 4750 3031 4423 
Q 3450 4097 3450 3541 
Q 3450 3153 3228 2886 
Q 3006 2619 2597 2516 
z
" transform="scale(0.015625)"/>
       </defs>
       <use xlink:href="#DejaVuSans-30"/>
       <use xlink:href="#DejaVuSans-2e" x="63.623047"/>
       <use xlink:href="#DejaVuSans-30" x="95.410156"/>
       <use xlink:href="#DejaVuSans-33" x="159.033203"/>
      </g>
     </g>
    </g>
    <g id="xtick_2">
     <g id="line2d_2">
      <g>
       <use xlink:href="#mdc8544dc5e" x="94.606694" y="246.04" style="stroke: #000000; stroke-width: 0.8"/>
      </g>
     </g>
     <g id="text_2">
      <!-- 0.04 -->
      <g transform="translate(83.473882 260.638438) scale(0.1 -0.1)">
       <defs>
        <path id="DejaVuSans-34" d="M 2419 4116 
L 825 1625 
L 2419 1625 
L 2419 4116 
z
M 2253 4666 
L 3047 4666 
L 3047 1625 
L 3713 1625 
L 3713 1100 
L 3047 1100 
L 3047 0 
L 2419 0 
L 2419 1100 
L 313 1100 
L 313 1709 
L 2253 4666 
z
" transform="scale(0.015625)"/>
       </defs>
       <use xlink:href="#DejaVuSans-30"/>
       <use xlink:href="#DejaVuSans-2e" x="63.623047"/>
       <use xlink:href="#DejaVuSans-30" x="95.410156"/>
       <use xlink:href="#DejaVuSans-34" x="159.033203"/>
      </g>
     </g>
    </g>
    <g id="xtick_3">
     <g id="line2d_3">
      <g>
       <use xlink:href="#mdc8544dc5e" x="131.053133" y="246.04" style="stroke: #000000; stroke-width: 0.8"/>
      </g>
     </g>
     <g id="text_3">
      <!-- 0.05 -->
      <g transform="translate(119.92032 260.638438) scale(0.1 -0.1)">
       <defs>
        <path id="DejaVuSans-35" d="M 691 4666 
L 3169 4666 
L 3169 4134 
L 1269 4134 
L 1269 2991 
Q 1406 3038 1543 3061 
Q 1681 3084 1819 3084 
Q 2600 3084 3056 2656 
Q 3513 2228 3513 1497 
Q 3513 744 3044 326 
Q 2575 -91 1722 -91 
Q 1428 -91 1123 -41 
Q 819 9 494 109 
L 494 744 
Q 775 591 1075 516 
Q 1375 441 1709 441 
Q 2250 441 2565 725 
Q 2881 1009 2881 1497 
Q 2881 1984 2565 2268 
Q 2250 2553 1709 2553 
Q 1456 2553 1204 2497 
Q 953 2441 691 2322 
L 691 4666 
z
" transform="scale(0.015625)"/>
       </defs>
       <use xlink:href="#DejaVuSans-30"/>
       <use xlink:href="#DejaVuSans-2e" x="63.623047"/>
       <use xlink:href="#DejaVuSans-30" x="95.410156"/>
       <use xlink:href="#DejaVuSans-35" x="159.033203"/>
      </g>
     </g>
    </g>
    <g id="xtick_4">
     <g id="line2d_4">
      <g>
       <use xlink:href="#mdc8544dc5e" x="167.499571" y="246.04" style="stroke: #000000; stroke-width: 0.8"/>
      </g>
     </g>
     <g id="text_4">
      <!-- 0.06 -->
      <g transform="translate(156.366759 260.638438) scale(0.1 -0.1)">
       <defs>
        <path id="DejaVuSans-36" d="M 2113 2584 
Q 1688 2584 1439 2293 
Q 1191 2003 1191 1497 
Q 1191 994 1439 701 
Q 1688 409 2113 409 
Q 2538 409 2786 701 
Q 3034 994 3034 1497 
Q 3034 2003 2786 2293 
Q 2538 2584 2113 2584 
z
M 3366 4563 
L 3366 3988 
Q 3128 4100 2886 4159 
Q 2644 4219 2406 4219 
Q 1781 4219 1451 3797 
Q 1122 3375 1075 2522 
Q 1259 2794 1537 2939 
Q 1816 3084 2150 3084 
Q 2853 3084 3261 2657 
Q 3669 2231 3669 1497 
Q 3669 778 3244 343 
Q 2819 -91 2113 -91 
Q 1303 -91 875 529 
Q 447 1150 447 2328 
Q 447 3434 972 4092 
Q 1497 4750 2381 4750 
Q 2619 4750 2861 4703 
Q 3103 4656 3366 4563 
z
" transform="scale(0.015625)"/>
       </defs>
       <use xlink:href="#DejaVuSans-30"/>
       <use xlink:href="#DejaVuSans-2e" x="63.623047"/>
       <use xlink:href="#DejaVuSans-30" x="95.410156"/>
       <use xlink:href="#DejaVuSans-36" x="159.033203"/>
      </g>
     </g>
    </g>
    <g id="xtick_5">
     <g id="line2d_5">
      <g>
       <use xlink:href="#mdc8544dc5e" x="203.94601" y="246.04" style="stroke: #000000; stroke-width: 0.8"/>
      </g>
     </g>
     <g id="text_5">
      <!-- 0.07 -->
      <g transform="translate(192.813198 260.638438) scale(0.1 -0.1)">
       <defs>
        <path id="DejaVuSans-37" d="M 525 4666 
L 3525 4666 
L 3525 4397 
L 1831 0 
L 1172 0 
L 2766 4134 
L 525 4134 
L 525 4666 
z
" transform="scale(0.015625)"/>
       </defs>
       <use xlink:href="#DejaVuSans-30"/>
       <use xlink:href="#DejaVuSans-2e" x="63.623047"/>
       <use xlink:href="#DejaVuSans-30" x="95.410156"/>
       <use xlink:href="#DejaVuSans-37" x="159.033203"/>
      </g>
     </g>
    </g>
    <g id="xtick_6">
     <g id="line2d_6">
      <g>
       <use xlink:href="#mdc8544dc5e" x="240.392449" y="246.04" style="stroke: #000000; stroke-width: 0.8"/>
      </g>
     </g>
     <g id="text_6">
      <!-- 0.08 -->
      <g transform="translate(229.259636 260.638438) scale(0.1 -0.1)">
       <defs>
        <path id="DejaVuSans-38" d="M 2034 2216 
Q 1584 2216 1326 1975 
Q 1069 1734 1069 1313 
Q 1069 891 1326 650 
Q 1584 409 2034 409 
Q 2484 409 2743 651 
Q 3003 894 3003 1313 
Q 3003 1734 2745 1975 
Q 2488 2216 2034 2216 
z
M 1403 2484 
Q 997 2584 770 2862 
Q 544 3141 544 3541 
Q 544 4100 942 4425 
Q 1341 4750 2034 4750 
Q 2731 4750 3128 4425 
Q 3525 4100 3525 3541 
Q 3525 3141 3298 2862 
Q 3072 2584 2669 2484 
Q 3125 2378 3379 2068 
Q 3634 1759 3634 1313 
Q 3634 634 3220 271 
Q 2806 -91 2034 -91 
Q 1263 -91 848 271 
Q 434 634 434 1313 
Q 434 1759 690 2068 
Q 947 2378 1403 2484 
z
M 1172 3481 
Q 1172 3119 1398 2916 
Q 1625 2713 2034 2713 
Q 2441 2713 2670 2916 
Q 2900 3119 2900 3481 
Q 2900 3844 2670 4047 
Q 2441 4250 2034 4250 
Q 1625 4250 1398 4047 
Q 1172 3844 1172 3481 
z
" transform="scale(0.015625)"/>
       </defs>
       <use xlink:href="#DejaVuSans-30"/>
       <use xlink:href="#DejaVuSans-2e" x="63.623047"/>
       <use xlink:href="#DejaVuSans-30" x="95.410156"/>
       <use xlink:href="#DejaVuSans-38" x="159.033203"/>
      </g>
     </g>
    </g>
    <g id="text_7">
     <!-- Cortical Activation (a.u.) -->
     <g transform="translate(103.066081 274.316562) scale(0.1 -0.1)">
      <defs>
       <path id="DejaVuSans-43" d="M 4122 4306 
L 4122 3641 
Q 3803 3938 3442 4084 
Q 3081 4231 2675 4231 
Q 1875 4231 1450 3742 
Q 1025 3253 1025 2328 
Q 1025 1406 1450 917 
Q 1875 428 2675 428 
Q 3081 428 3442 575 
Q 3803 722 4122 1019 
L 4122 359 
Q 3791 134 3420 21 
Q 3050 -91 2638 -91 
Q 1578 -91 968 557 
Q 359 1206 359 2328 
Q 359 3453 968 4101 
Q 1578 4750 2638 4750 
Q 3056 4750 3426 4639 
Q 3797 4528 4122 4306 
z
" transform="scale(0.015625)"/>
       <path id="DejaVuSans-6f" d="M 1959 3097 
Q 1497 3097 1228 2736 
Q 959 2375 959 1747 
Q 959 1119 1226 758 
Q 1494 397 1959 397 
Q 2419 397 2687 759 
Q 2956 1122 2956 1747 
Q 2956 2369 2687 2733 
Q 2419 3097 1959 3097 
z
M 1959 3584 
Q 2709 3584 3137 3096 
Q 3566 2609 3566 1747 
Q 3566 888 3137 398 
Q 2709 -91 1959 -91 
Q 1206 -91 779 398 
Q 353 888 353 1747 
Q 353 2609 779 3096 
Q 1206 3584 1959 3584 
z
" transform="scale(0.015625)"/>
       <path id="DejaVuSans-72" d="M 2631 2963 
Q 2534 3019 2420 3045 
Q 2306 3072 2169 3072 
Q 1681 3072 1420 2755 
Q 1159 2438 1159 1844 
L 1159 0 
L 581 0 
L 581 3500 
L 1159 3500 
L 1159 2956 
Q 1341 3275 1631 3429 
Q 1922 3584 2338 3584 
Q 2397 3584 2469 3576 
Q 2541 3569 2628 3553 
L 2631 2963 
z
" transform="scale(0.015625)"/>
       <path id="DejaVuSans-74" d="M 1172 4494 
L 1172 3500 
L 2356 3500 
L 2356 3053 
L 1172 3053 
L 1172 1153 
Q 1172 725 1289 603 
Q 1406 481 1766 481 
L 2356 481 
L 2356 0 
L 1766 0 
Q 1100 0 847 248 
Q 594 497 594 1153 
L 594 3053 
L 172 3053 
L 172 3500 
L 594 3500 
L 594 4494 
L 1172 4494 
z
" transform="scale(0.015625)"/>
       <path id="DejaVuSans-69" d="M 603 3500 
L 1178 3500 
L 1178 0 
L 603 0 
L 603 3500 
z
M 603 4863 
L 1178 4863 
L 1178 4134 
L 603 4134 
L 603 4863 
z
" transform="scale(0.015625)"/>
       <path id="DejaVuSans-63" d="M 3122 3366 
L 3122 2828 
Q 2878 2963 2633 3030 
Q 2388 3097 2138 3097 
Q 1578 3097 1268 2742 
Q 959 2388 959 1747 
Q 959 1106 1268 751 
Q 1578 397 2138 397 
Q 2388 397 2633 464 
Q 2878 531 3122 666 
L 3122 134 
Q 2881 22 2623 -34 
Q 2366 -91 2075 -91 
Q 1284 -91 818 406 
Q 353 903 353 1747 
Q 353 2603 823 3093 
Q 1294 3584 2113 3584 
Q 2378 3584 2631 3529 
Q 2884 3475 3122 3366 
z
" transform="scale(0.015625)"/>
       <path id="DejaVuSans-61" d="M 2194 1759 
Q 1497 1759 1228 1600 
Q 959 1441 959 1056 
Q 959 750 1161 570 
Q 1363 391 1709 391 
Q 2188 391 2477 730 
Q 2766 1069 2766 1631 
L 2766 1759 
L 2194 1759 
z
M 3341 1997 
L 3341 0 
L 2766 0 
L 2766 531 
Q 2569 213 2275 61 
Q 1981 -91 1556 -91 
Q 1019 -91 701 211 
Q 384 513 384 1019 
Q 384 1609 779 1909 
Q 1175 2209 1959 2209 
L 2766 2209 
L 2766 2266 
Q 2766 2663 2505 2880 
Q 2244 3097 1772 3097 
Q 1472 3097 1187 3025 
Q 903 2953 641 2809 
L 641 3341 
Q 956 3463 1253 3523 
Q 1550 3584 1831 3584 
Q 2591 3584 2966 3190 
Q 3341 2797 3341 1997 
z
" transform="scale(0.015625)"/>
       <path id="DejaVuSans-6c" d="M 603 4863 
L 1178 4863 
L 1178 0 
L 603 0 
L 603 4863 
z
" transform="scale(0.015625)"/>
       <path id="DejaVuSans-20" transform="scale(0.015625)"/>
       <path id="DejaVuSans-41" d="M 2188 4044 
L 1331 1722 
L 3047 1722 
L 2188 4044 
z
M 1831 4666 
L 2547 4666 
L 4325 0 
L 3669 0 
L 3244 1197 
L 1141 1197 
L 716 0 
L 50 0 
L 1831 4666 
z
" transform="scale(0.015625)"/>
       <path id="DejaVuSans-76" d="M 191 3500 
L 800 3500 
L 1894 563 
L 2988 3500 
L 3597 3500 
L 2284 0 
L 1503 0 
L 191 3500 
z
" transform="scale(0.015625)"/>
       <path id="DejaVuSans-6e" d="M 3513 2113 
L 3513 0 
L 2938 0 
L 2938 2094 
Q 2938 2591 2744 2837 
Q 2550 3084 2163 3084 
Q 1697 3084 1428 2787 
Q 1159 2491 1159 1978 
L 1159 0 
L 581 0 
L 581 3500 
L 1159 3500 
L 1159 2956 
Q 1366 3272 1645 3428 
Q 1925 3584 2291 3584 
Q 2894 3584 3203 3211 
Q 3513 2838 3513 2113 
z
" transform="scale(0.015625)"/>
       <path id="DejaVuSans-28" d="M 1984 4856 
Q 1566 4138 1362 3434 
Q 1159 2731 1159 2009 
Q 1159 1288 1364 580 
Q 1569 -128 1984 -844 
L 1484 -844 
Q 1016 -109 783 600 
Q 550 1309 550 2009 
Q 550 2706 781 3412 
Q 1013 4119 1484 4856 
L 1984 4856 
z
" transform="scale(0.015625)"/>
       <path id="DejaVuSans-75" d="M 544 1381 
L 544 3500 
L 1119 3500 
L 1119 1403 
Q 1119 906 1312 657 
Q 1506 409 1894 409 
Q 2359 409 2629 706 
Q 2900 1003 2900 1516 
L 2900 3500 
L 3475 3500 
L 3475 0 
L 2900 0 
L 2900 538 
Q 2691 219 2414 64 
Q 2138 -91 1772 -91 
Q 1169 -91 856 284 
Q 544 659 544 1381 
z
M 1991 3584 
L 1991 3584 
z
" transform="scale(0.015625)"/>
       <path id="DejaVuSans-29" d="M 513 4856 
L 1013 4856 
Q 1481 4119 1714 3412 
Q 1947 2706 1947 2009 
Q 1947 1309 1714 600 
Q 1481 -109 1013 -844 
L 513 -844 
Q 928 -128 1133 580 
Q 1338 1288 1338 2009 
Q 1338 2731 1133 3434 
Q 928 4138 513 4856 
z
" transform="scale(0.015625)"/>
      </defs>
      <use xlink:href="#DejaVuSans-43"/>
      <use xlink:href="#DejaVuSans-6f" x="69.824219"/>
      <use xlink:href="#DejaVuSans-72" x="131.005859"/>
      <use xlink:href="#DejaVuSans-74" x="172.119141"/>
      <use xlink:href="#DejaVuSans-69" x="211.328125"/>
      <use xlink:href="#DejaVuSans-63" x="239.111328"/>
      <use xlink:href="#DejaVuSans-61" x="294.091797"/>
      <use xlink:href="#DejaVuSans-6c" x="355.371094"/>
      <use xlink:href="#DejaVuSans-20" x="383.154297"/>
      <use xlink:href="#DejaVuSans-41" x="414.941406"/>
      <use xlink:href="#DejaVuSans-63" x="481.599609"/>
      <use xlink:href="#DejaVuSans-74" x="536.580078"/>
      <use xlink:href="#DejaVuSans-69" x="575.789062"/>
      <use xlink:href="#DejaVuSans-76" x="603.572266"/>
      <use xlink:href="#DejaVuSans-61" x="662.751953"/>
      <use xlink:href="#DejaVuSans-74" x="724.03125"/>
      <use xlink:href="#DejaVuSans-69" x="763.240234"/>
      <use xlink:href="#DejaVuSans-6f" x="791.023438"/>
      <use xlink:href="#DejaVuSans-6e" x="852.205078"/>
      <use xlink:href="#DejaVuSans-20" x="915.583984"/>
      <use xlink:href="#DejaVuSans-28" x="947.371094"/>
      <use xlink:href="#DejaVuSans-61" x="986.384766"/>
      <use xlink:href="#DejaVuSans-2e" x="1047.664062"/>
      <use xlink:href="#DejaVuSans-75" x="1079.451172"/>
      <use xlink:href="#DejaVuSans-2e" x="1142.830078"/>
      <use xlink:href="#DejaVuSans-29" x="1174.617188"/>
     </g>
    </g>
   </g>
   <g id="matplotlib.axis_2">
    <g id="ytick_1">
     <g id="line2d_7">
      <defs>
       <path id="ma501d8057e" d="M 0 0 
L -3.5 0 
" style="stroke: #000000; stroke-width: 0.8"/>
      </defs>
      <g>
       <use xlink:href="#ma501d8057e" x="54.02" y="240.184026" style="stroke: #000000; stroke-width: 0.8"/>
      </g>
     </g>
     <g id="text_8">
      <!-- 0.00 -->
      <g transform="translate(24.754375 243.983245) scale(0.1 -0.1)">
       <use xlink:href="#DejaVuSans-30"/>
       <use xlink:href="#DejaVuSans-2e" x="63.623047"/>
       <use xlink:href="#DejaVuSans-30" x="95.410156"/>
       <use xlink:href="#DejaVuSans-30" x="159.033203"/>
      </g>
     </g>
    </g>
    <g id="ytick_2">
     <g id="line2d_8">
      <g>
       <use xlink:href="#ma501d8057e" x="54.02" y="200.989463" style="stroke: #000000; stroke-width: 0.8"/>
      </g>
     </g>
     <g id="text_9">
      <!-- 0.02 -->
      <g transform="translate(24.754375 204.788682) scale(0.1 -0.1)">
       <defs>
        <path id="DejaVuSans-32" d="M 1228 531 
L 3431 531 
L 3431 0 
L 469 0 
L 469 531 
Q 828 903 1448 1529 
Q 2069 2156 2228 2338 
Q 2531 2678 2651 2914 
Q 2772 3150 2772 3378 
Q 2772 3750 2511 3984 
Q 2250 4219 1831 4219 
Q 1534 4219 1204 4116 
Q 875 4013 500 3803 
L 500 4441 
Q 881 4594 1212 4672 
Q 1544 4750 1819 4750 
Q 2544 4750 2975 4387 
Q 3406 4025 3406 3419 
Q 3406 3131 3298 2873 
Q 3191 2616 2906 2266 
Q 2828 2175 2409 1742 
Q 1991 1309 1228 531 
z
" transform="scale(0.015625)"/>
       </defs>
       <use xlink:href="#DejaVuSans-30"/>
       <use xlink:href="#DejaVuSans-2e" x="63.623047"/>
       <use xlink:href="#DejaVuSans-30" x="95.410156"/>
       <use xlink:href="#DejaVuSans-32" x="159.033203"/>
      </g>
     </g>
    </g>
    <g id="ytick_3">
     <g id="line2d_9">
      <g>
       <use xlink:href="#ma501d8057e" x="54.02" y="161.7949" style="stroke: #000000; stroke-width: 0.8"/>
      </g>
     </g>
     <g id="text_10">
      <!-- 0.04 -->
      <g transform="translate(24.754375 165.594119) scale(0.1 -0.1)">
       <use xlink:href="#DejaVuSans-30"/>
       <use xlink:href="#DejaVuSans-2e" x="63.623047"/>
       <use xlink:href="#DejaVuSans-30" x="95.410156"/>
       <use xlink:href="#DejaVuSans-34" x="159.033203"/>
      </g>
     </g>
    </g>
    <g id="ytick_4">
     <g id="line2d_10">
      <g>
       <use xlink:href="#ma501d8057e" x="54.02" y="122.600337" style="stroke: #000000; stroke-width: 0.8"/>
      </g>
     </g>
     <g id="text_11">
      <!-- 0.06 -->
      <g transform="translate(24.754375 126.399556) scale(0.1 -0.1)">
       <use xlink:href="#DejaVuSans-30"/>
       <use xlink:href="#DejaVuSans-2e" x="63.623047"/>
       <use xlink:href="#DejaVuSans-30" x="95.410156"/>
       <use xlink:href="#DejaVuSans-36" x="159.033203"/>
      </g>
     </g>
    </g>
    <g id="ytick_5">
     <g id="line2d_11">
      <g>
       <use xlink:href="#ma501d8057e" x="54.02" y="83.405774" style="stroke: #000000; stroke-width: 0.8"/>
      </g>
     </g>
     <g id="text_12">
      <!-- 0.08 -->
      <g transform="translate(24.754375 87.204993) scale(0.1 -0.1)">
       <use xlink:href="#DejaVuSans-30"/>
       <use xlink:href="#DejaVuSans-2e" x="63.623047"/>
       <use xlink:href="#DejaVuSans-30" x="95.410156"/>
       <use xlink:href="#DejaVuSans-38" x="159.033203"/>
      </g>
     </g>
    </g>
    <g id="ytick_6">
     <g id="line2d_12">
      <g>
       <use xlink:href="#ma501d8057e" x="54.02" y="44.211211" style="stroke: #000000; stroke-width: 0.8"/>
      </g>
     </g>
     <g id="text_13">
      <!-- 0.10 -->
      <g transform="translate(24.754375 48.01043) scale(0.1 -0.1)">
       <defs>
        <path id="DejaVuSans-31" d="M 794 531 
L 1825 531 
L 1825 4091 
L 703 3866 
L 703 4441 
L 1819 4666 
L 2450 4666 
L 2450 531 
L 3481 531 
L 3481 0 
L 794 0 
L 794 531 
z
" transform="scale(0.015625)"/>
       </defs>
       <use xlink:href="#DejaVuSans-30"/>
       <use xlink:href="#DejaVuSans-2e" x="63.623047"/>
       <use xlink:href="#DejaVuSans-31" x="95.410156"/>
       <use xlink:href="#DejaVuSans-30" x="159.033203"/>
      </g>
     </g>
    </g>
    <g id="text_14">
     <!-- Cerebellar Activation (a.u.) -->
     <g transform="translate(18.674687 195.678594) rotate(-90) scale(0.1 -0.1)">
      <defs>
       <path id="DejaVuSans-65" d="M 3597 1894 
L 3597 1613 
L 953 1613 
Q 991 1019 1311 708 
Q 1631 397 2203 397 
Q 2534 397 2845 478 
Q 3156 559 3463 722 
L 3463 178 
Q 3153 47 2828 -22 
Q 2503 -91 2169 -91 
Q 1331 -91 842 396 
Q 353 884 353 1716 
Q 353 2575 817 3079 
Q 1281 3584 2069 3584 
Q 2775 3584 3186 3129 
Q 3597 2675 3597 1894 
z
M 3022 2063 
Q 3016 2534 2758 2815 
Q 2500 3097 2075 3097 
Q 1594 3097 1305 2825 
Q 1016 2553 972 2059 
L 3022 2063 
z
" transform="scale(0.015625)"/>
       <path id="DejaVuSans-62" d="M 3116 1747 
Q 3116 2381 2855 2742 
Q 2594 3103 2138 3103 
Q 1681 3103 1420 2742 
Q 1159 2381 1159 1747 
Q 1159 1113 1420 752 
Q 1681 391 2138 391 
Q 2594 391 2855 752 
Q 3116 1113 3116 1747 
z
M 1159 2969 
Q 1341 3281 1617 3432 
Q 1894 3584 2278 3584 
Q 2916 3584 3314 3078 
Q 3713 2572 3713 1747 
Q 3713 922 3314 415 
Q 2916 -91 2278 -91 
Q 1894 -91 1617 61 
Q 1341 213 1159 525 
L 1159 0 
L 581 0 
L 581 4863 
L 1159 4863 
L 1159 2969 
z
" transform="scale(0.015625)"/>
      </defs>
      <use xlink:href="#DejaVuSans-43"/>
      <use xlink:href="#DejaVuSans-65" x="69.824219"/>
      <use xlink:href="#DejaVuSans-72" x="131.347656"/>
      <use xlink:href="#DejaVuSans-65" x="170.210938"/>
      <use xlink:href="#DejaVuSans-62" x="231.734375"/>
      <use xlink:href="#DejaVuSans-65" x="295.210938"/>
      <use xlink:href="#DejaVuSans-6c" x="356.734375"/>
      <use xlink:href="#DejaVuSans-6c" x="384.517578"/>
      <use xlink:href="#DejaVuSans-61" x="412.300781"/>
      <use xlink:href="#DejaVuSans-72" x="473.580078"/>
      <use xlink:href="#DejaVuSans-20" x="514.693359"/>
      <use xlink:href="#DejaVuSans-41" x="546.480469"/>
      <use xlink:href="#DejaVuSans-63" x="613.138672"/>
      <use xlink:href="#DejaVuSans-74" x="668.119141"/>
      <use xlink:href="#DejaVuSans-69" x="707.328125"/>
      <use xlink:href="#DejaVuSans-76" x="735.111328"/>
      <use xlink:href="#DejaVuSans-61" x="794.291016"/>
      <use xlink:href="#DejaVuSans-74" x="855.570312"/>
      <use xlink:href="#DejaVuSans-69" x="894.779297"/>
      <use xlink:href="#DejaVuSans-6f" x="922.5625"/>
      <use xlink:href="#DejaVuSans-6e" x="983.744141"/>
      <use xlink:href="#DejaVuSans-20" x="1047.123047"/>
      <use xlink:href="#DejaVuSans-28" x="1078.910156"/>
      <use xlink:href="#DejaVuSans-61" x="1117.923828"/>
      <use xlink:href="#DejaVuSans-2e" x="1179.203125"/>
      <use xlink:href="#DejaVuSans-75" x="1210.990234"/>
      <use xlink:href="#DejaVuSans-2e" x="1274.369141"/>
      <use xlink:href="#DejaVuSans-29" x="1306.15625"/>
     </g>
    </g>
   </g>
   <g id="line2d_13">
    <path d="M 63.995141 184.199887 
L 66.010321 183.329939 
L 68.025501 182.459991 
L 70.040681 181.590043 
L 72.055861 180.720095 
L 74.071041 179.850147 
L 76.086221 178.980199 
L 78.101401 178.110251 
L 80.116581 177.240303 
L 82.131761 176.370355 
L 84.146941 175.500407 
L 86.162121 174.630459 
L 88.177301 173.760511 
L 90.192481 172.890563 
L 92.207661 172.020615 
L 94.222841 171.150667 
L 96.238021 170.280719 
L 98.253201 169.410771 
L 100.268381 168.540822 
L 102.283561 167.670874 
L 104.298741 166.800926 
L 106.313921 165.930978 
L 108.329101 165.06103 
L 110.34428 164.191082 
L 112.35946 163.321134 
L 114.37464 162.451186 
L 116.38982 161.581238 
L 118.405 160.71129 
L 120.42018 159.841342 
L 122.43536 158.971394 
L 124.45054 158.101446 
L 126.46572 157.231498 
L 128.4809 156.36155 
L 130.49608 155.491602 
L 132.51126 154.621654 
L 134.52644 153.751706 
L 136.54162 152.881758 
L 138.5568 152.01181 
L 140.57198 151.141862 
L 142.58716 150.271914 
L 144.60234 149.401966 
L 146.61752 148.532018 
L 148.6327 147.66207 
L 150.64788 146.792122 
L 152.66306 145.922174 
L 154.67824 145.052226 
L 156.69342 144.182278 
L 158.7086 143.31233 
L 160.72378 142.442382 
L 162.73896 141.572434 
L 164.75414 140.702486 
L 166.76932 139.832538 
L 168.7845 138.96259 
L 170.79968 138.092642 
L 172.81486 137.222694 
L 174.83004 136.352746 
L 176.84522 135.482798 
L 178.8604 134.61285 
L 180.87558 133.742902 
L 182.89076 132.872954 
L 184.90594 132.003006 
L 186.92112 131.133058 
L 188.9363 130.26311 
L 190.95148 129.393162 
L 192.96666 128.523214 
L 194.98184 127.653266 
L 196.99702 126.783318 
L 199.0122 125.91337 
L 201.02738 125.043422 
L 203.04256 124.173474 
L 205.05774 123.303526 
L 207.07292 122.433578 
L 209.0881 121.56363 
L 211.10328 120.693682 
L 213.11846 119.823734 
L 215.13364 118.953786 
L 217.14882 118.083838 
L 219.163999 117.21389 
L 221.179179 116.343942 
L 223.194359 115.473994 
L 225.209539 114.604046 
L 227.224719 113.734098 
L 229.239899 112.86415 
L 231.255079 111.994202 
L 233.270259 111.124254 
L 235.285439 110.254306 
L 237.300619 109.384358 
L 239.315799 108.51441 
L 241.330979 107.644462 
L 243.346159 106.774514 
L 245.361339 105.904566 
L 247.376519 105.034618 
L 249.391699 104.16467 
L 251.406879 103.294722 
L 253.422059 102.424774 
L 255.437239 101.554826 
L 257.452419 100.684878 
L 259.467599 99.81493 
L 261.482779 98.944981 
L 263.497959 98.075033 
" clip-path="url(#p29da9914f9)" style="fill: none; stroke: #808080; stroke-width: 2.25; stroke-linecap: square"/>
   </g>
   <g id="LineCollection_1">
    <path d="M 63.995141 235.347273 
L 63.995141 144.131491 
" clip-path="url(#p29da9914f9)" style="fill: none; stroke: #e6e6e6"/>
    <path d="M 256.856968 166.738821 
L 256.856968 84.967261 
" clip-path="url(#p29da9914f9)" style="fill: none; stroke: #e6e6e6"/>
    <path d="M 84.938078 234.180519 
L 84.938078 146.001792 
" clip-path="url(#p29da9914f9)" style="fill: none; stroke: #e6e6e6"/>
    <path d="M 247.829407 170.393945 
L 247.829407 89.961913 
" clip-path="url(#p29da9914f9)" style="fill: none; stroke: #e6e6e6"/>
    <path d="M 143.135841 172.236083 
L 143.135841 114.049127 
" clip-path="url(#p29da9914f9)" style="fill: none; stroke: #e6e6e6"/>
    <path d="M 263.497959 145.979966 
L 263.497959 58.630193 
" clip-path="url(#p29da9914f9)" style="fill: none; stroke: #e6e6e6"/>
    <path d="M 80.33821 224.501403 
L 80.33821 154.037963 
" clip-path="url(#p29da9914f9)" style="fill: none; stroke: #e6e6e6"/>
    <path d="M 255.187378 150.134844 
L 255.187378 86.748557 
" clip-path="url(#p29da9914f9)" style="fill: none; stroke: #e6e6e6"/>
    <path d="M 230.191497 130.327758 
L 230.191497 21.492727 
" clip-path="url(#p29da9914f9)" style="fill: none; stroke: #e6e6e6"/>
    <path d="M 199.969824 139.429065 
L 199.969824 52.560216 
" clip-path="url(#p29da9914f9)" style="fill: none; stroke: #e6e6e6"/>
    <path d="M 162.490205 172.372813 
L 162.490205 66.044142 
" clip-path="url(#p29da9914f9)" style="fill: none; stroke: #e6e6e6"/>
    <path d="M 203.894835 161.478599 
L 203.894835 69.245294 
" clip-path="url(#p29da9914f9)" style="fill: none; stroke: #e6e6e6"/>
   </g>
   <g id="patch_3">
    <path d="M 54.02 246.04 
L 54.02 10.8 
" style="fill: none; stroke: #000000; stroke-width: 0.8; stroke-linejoin: miter; stroke-linecap: square"/>
   </g>
   <g id="patch_4">
    <path d="M 54.02 246.04 
L 273.4731 246.04 
" style="fill: none; stroke: #000000; stroke-width: 0.8; stroke-linejoin: miter; stroke-linecap: square"/>
   </g>
   <g id="text_15">
    <!-- load2 -->
    <g transform="translate(55.274524 197.00488) scale(0.0833 -0.0833)">
     <defs>
      <path id="DejaVuSans-64" d="M 2906 2969 
L 2906 4863 
L 3481 4863 
L 3481 0 
L 2906 0 
L 2906 525 
Q 2725 213 2448 61 
Q 2172 -91 1784 -91 
Q 1150 -91 751 415 
Q 353 922 353 1747 
Q 353 2572 751 3078 
Q 1150 3584 1784 3584 
Q 2172 3584 2448 3432 
Q 2725 3281 2906 2969 
z
M 947 1747 
Q 947 1113 1208 752 
Q 1469 391 1925 391 
Q 2381 391 2643 752 
Q 2906 1113 2906 1747 
Q 2906 2381 2643 2742 
Q 2381 3103 1925 3103 
Q 1469 3103 1208 2742 
Q 947 2381 947 1747 
z
" transform="scale(0.015625)"/>
     </defs>
     <use xlink:href="#DejaVuSans-6c"/>
     <use xlink:href="#DejaVuSans-6f" x="27.783203"/>
     <use xlink:href="#DejaVuSans-61" x="88.964844"/>
     <use xlink:href="#DejaVuSans-64" x="150.244141"/>
     <use xlink:href="#DejaVuSans-32" x="213.720703"/>
    </g>
   </g>
   <g id="text_16">
    <!-- load2 -->
    <g transform="translate(249.970926 124.621136) scale(0.0833 -0.0833)">
     <use xlink:href="#DejaVuSans-6c"/>
     <use xlink:href="#DejaVuSans-6f" x="27.783203"/>
     <use xlink:href="#DejaVuSans-61" x="88.964844"/>
     <use xlink:href="#DejaVuSans-64" x="150.244141"/>
     <use xlink:href="#DejaVuSans-32" x="213.720703"/>
    </g>
   </g>
   <g id="text_17">
    <!-- load2 -->
    <g transform="translate(89.521335 197.151286) scale(0.0833 -0.0833)">
     <use xlink:href="#DejaVuSans-6c"/>
     <use xlink:href="#DejaVuSans-6f" x="27.783203"/>
     <use xlink:href="#DejaVuSans-61" x="88.964844"/>
     <use xlink:href="#DejaVuSans-64" x="150.244141"/>
     <use xlink:href="#DejaVuSans-32" x="213.720703"/>
    </g>
   </g>
   <g id="text_18">
    <!-- load2 -->
    <g transform="translate(227.874171 137.532206) scale(0.0833 -0.0833)">
     <use xlink:href="#DejaVuSans-6c"/>
     <use xlink:href="#DejaVuSans-6f" x="27.783203"/>
     <use xlink:href="#DejaVuSans-61" x="88.964844"/>
     <use xlink:href="#DejaVuSans-64" x="150.244141"/>
     <use xlink:href="#DejaVuSans-32" x="213.720703"/>
    </g>
   </g>
   <g id="text_19">
    <!-- load4 -->
    <g transform="translate(147.363235 140.474225) scale(0.0833 -0.0833)">
     <use xlink:href="#DejaVuSans-6c"/>
     <use xlink:href="#DejaVuSans-6f" x="27.783203"/>
     <use xlink:href="#DejaVuSans-61" x="88.964844"/>
     <use xlink:href="#DejaVuSans-64" x="150.244141"/>
     <use xlink:href="#DejaVuSans-34" x="213.720703"/>
    </g>
   </g>
   <g id="text_20">
    <!-- load4 -->
    <g transform="translate(243.455842 99.6367) scale(0.0833 -0.0833)">
     <use xlink:href="#DejaVuSans-6c"/>
     <use xlink:href="#DejaVuSans-6f" x="27.783203"/>
     <use xlink:href="#DejaVuSans-61" x="88.964844"/>
     <use xlink:href="#DejaVuSans-64" x="150.244141"/>
     <use xlink:href="#DejaVuSans-34" x="213.720703"/>
    </g>
   </g>
   <g id="text_21">
    <!-- load4 -->
    <g transform="translate(68.446889 186.398832) scale(0.0833 -0.0833)">
     <use xlink:href="#DejaVuSans-6c"/>
     <use xlink:href="#DejaVuSans-6f" x="27.783203"/>
     <use xlink:href="#DejaVuSans-61" x="88.964844"/>
     <use xlink:href="#DejaVuSans-64" x="150.244141"/>
     <use xlink:href="#DejaVuSans-34" x="213.720703"/>
    </g>
   </g>
   <g id="text_22">
    <!-- load4 -->
    <g transform="translate(226.910517 114.739023) scale(0.0833 -0.0833)">
     <use xlink:href="#DejaVuSans-6c"/>
     <use xlink:href="#DejaVuSans-6f" x="27.783203"/>
     <use xlink:href="#DejaVuSans-61" x="88.964844"/>
     <use xlink:href="#DejaVuSans-64" x="150.244141"/>
     <use xlink:href="#DejaVuSans-34" x="213.720703"/>
    </g>
   </g>
   <g id="text_23">
    <!-- load6 -->
    <g transform="translate(234.418865 73.241863) scale(0.0833 -0.0833)">
     <use xlink:href="#DejaVuSans-6c"/>
     <use xlink:href="#DejaVuSans-6f" x="27.783203"/>
     <use xlink:href="#DejaVuSans-61" x="88.964844"/>
     <use xlink:href="#DejaVuSans-64" x="150.244141"/>
     <use xlink:href="#DejaVuSans-36" x="213.720703"/>
    </g>
   </g>
   <g id="text_24">
    <!-- load6 -->
    <g transform="translate(180.443313 91.480057) scale(0.0833 -0.0833)">
     <use xlink:href="#DejaVuSans-6c"/>
     <use xlink:href="#DejaVuSans-6f" x="27.783203"/>
     <use xlink:href="#DejaVuSans-61" x="88.964844"/>
     <use xlink:href="#DejaVuSans-64" x="150.244141"/>
     <use xlink:href="#DejaVuSans-36" x="213.720703"/>
    </g>
   </g>
   <g id="text_25">
    <!-- load6 -->
    <g transform="translate(166.717579 116.540098) scale(0.0833 -0.0833)">
     <use xlink:href="#DejaVuSans-6c"/>
     <use xlink:href="#DejaVuSans-6f" x="27.783203"/>
     <use xlink:href="#DejaVuSans-61" x="88.964844"/>
     <use xlink:href="#DejaVuSans-64" x="150.244141"/>
     <use xlink:href="#DejaVuSans-36" x="213.720703"/>
    </g>
   </g>
   <g id="text_26">
    <!-- load6 -->
    <g transform="translate(203.541163 104.207848) scale(0.0833 -0.0833)">
     <use xlink:href="#DejaVuSans-6c"/>
     <use xlink:href="#DejaVuSans-6f" x="27.783203"/>
     <use xlink:href="#DejaVuSans-61" x="88.964844"/>
     <use xlink:href="#DejaVuSans-64" x="150.244141"/>
     <use xlink:href="#DejaVuSans-36" x="213.720703"/>
    </g>
   </g>
  </g>
  <g id="legend_1">
   <g id="text_27">
    <!-- recall -->
    <g transform="translate(315.33375 110.064063) scale(0.1 -0.1)">
     <use xlink:href="#DejaVuSans-72"/>
     <use xlink:href="#DejaVuSans-65" x="38.863281"/>
     <use xlink:href="#DejaVuSans-63" x="100.386719"/>
     <use xlink:href="#DejaVuSans-61" x="155.367188"/>
     <use xlink:href="#DejaVuSans-6c" x="216.646484"/>
     <use xlink:href="#DejaVuSans-6c" x="244.429688"/>
    </g>
   </g>
   <g id="PathCollection_7">
    <defs>
     <path id="m84da64d781" d="M 0 3 
C 0.795609 3 1.55874 2.683901 2.12132 2.12132 
C 2.683901 1.55874 3 0.795609 3 0 
C 3 -0.795609 2.683901 -1.55874 2.12132 -2.12132 
C 1.55874 -2.683901 0.795609 -3 0 -3 
C -0.795609 -3 -1.55874 -2.683901 -2.12132 -2.12132 
C -2.683901 -1.55874 -3 -0.795609 -3 0 
C -3 0.795609 -2.683901 1.55874 -2.12132 2.12132 
C -1.55874 2.683901 -0.795609 3 0 3 
z
" style="stroke: #1f77b4"/>
    </defs>
    <g>
     <use xlink:href="#m84da64d781" x="297.33375" y="122.117188" style="fill: #1f77b4; stroke: #1f77b4"/>
    </g>
   </g>
   <g id="text_28">
    <!-- backward -->
    <g transform="translate(315.33375 124.742188) scale(0.1 -0.1)">
     <defs>
      <path id="DejaVuSans-6b" d="M 581 4863 
L 1159 4863 
L 1159 1991 
L 2875 3500 
L 3609 3500 
L 1753 1863 
L 3688 0 
L 2938 0 
L 1159 1709 
L 1159 0 
L 581 0 
L 581 4863 
z
" transform="scale(0.015625)"/>
      <path id="DejaVuSans-77" d="M 269 3500 
L 844 3500 
L 1563 769 
L 2278 3500 
L 2956 3500 
L 3675 769 
L 4391 3500 
L 4966 3500 
L 4050 0 
L 3372 0 
L 2619 2869 
L 1863 0 
L 1184 0 
L 269 3500 
z
" transform="scale(0.015625)"/>
     </defs>
     <use xlink:href="#DejaVuSans-62"/>
     <use xlink:href="#DejaVuSans-61" x="63.476562"/>
     <use xlink:href="#DejaVuSans-63" x="124.755859"/>
     <use xlink:href="#DejaVuSans-6b" x="179.736328"/>
     <use xlink:href="#DejaVuSans-77" x="237.646484"/>
     <use xlink:href="#DejaVuSans-61" x="319.433594"/>
     <use xlink:href="#DejaVuSans-72" x="380.712891"/>
     <use xlink:href="#DejaVuSans-64" x="420.076172"/>
    </g>
   </g>
   <g id="PathCollection_8">
    <defs>
     <path id="md258d6828e" d="M 0 3 
C 0.795609 3 1.55874 2.683901 2.12132 2.12132 
C 2.683901 1.55874 3 0.795609 3 0 
C 3 -0.795609 2.683901 -1.55874 2.12132 -2.12132 
C 1.55874 -2.683901 0.795609 -3 0 -3 
C -0.795609 -3 -1.55874 -2.683901 -2.12132 -2.12132 
C -2.683901 -1.55874 -3 -0.795609 -3 0 
C -3 0.795609 -2.683901 1.55874 -2.12132 2.12132 
C -1.55874 2.683901 -0.795609 3 0 3 
z
" style="stroke: #ff7f0e"/>
    </defs>
    <g>
     <use xlink:href="#md258d6828e" x="297.33375" y="136.795313" style="fill: #ff7f0e; stroke: #ff7f0e"/>
    </g>
   </g>
   <g id="text_29">
    <!-- forward -->
    <g transform="translate(315.33375 139.420313) scale(0.1 -0.1)">
     <defs>
      <path id="DejaVuSans-66" d="M 2375 4863 
L 2375 4384 
L 1825 4384 
Q 1516 4384 1395 4259 
Q 1275 4134 1275 3809 
L 1275 3500 
L 2222 3500 
L 2222 3053 
L 1275 3053 
L 1275 0 
L 697 0 
L 697 3053 
L 147 3053 
L 147 3500 
L 697 3500 
L 697 3744 
Q 697 4328 969 4595 
Q 1241 4863 1831 4863 
L 2375 4863 
z
" transform="scale(0.015625)"/>
     </defs>
     <use xlink:href="#DejaVuSans-66"/>
     <use xlink:href="#DejaVuSans-6f" x="35.205078"/>
     <use xlink:href="#DejaVuSans-72" x="96.386719"/>
     <use xlink:href="#DejaVuSans-77" x="137.5"/>
     <use xlink:href="#DejaVuSans-61" x="219.287109"/>
     <use xlink:href="#DejaVuSans-72" x="280.566406"/>
     <use xlink:href="#DejaVuSans-64" x="319.929688"/>
    </g>
   </g>
   <g id="text_30">
    <!-- phase -->
    <g transform="translate(315.33375 154.098438) scale(0.1 -0.1)">
     <defs>
      <path id="DejaVuSans-70" d="M 1159 525 
L 1159 -1331 
L 581 -1331 
L 581 3500 
L 1159 3500 
L 1159 2969 
Q 1341 3281 1617 3432 
Q 1894 3584 2278 3584 
Q 2916 3584 3314 3078 
Q 3713 2572 3713 1747 
Q 3713 922 3314 415 
Q 2916 -91 2278 -91 
Q 1894 -91 1617 61 
Q 1341 213 1159 525 
z
M 3116 1747 
Q 3116 2381 2855 2742 
Q 2594 3103 2138 3103 
Q 1681 3103 1420 2742 
Q 1159 2381 1159 1747 
Q 1159 1113 1420 752 
Q 1681 391 2138 391 
Q 2594 391 2855 752 
Q 3116 1113 3116 1747 
z
" transform="scale(0.015625)"/>
      <path id="DejaVuSans-68" d="M 3513 2113 
L 3513 0 
L 2938 0 
L 2938 2094 
Q 2938 2591 2744 2837 
Q 2550 3084 2163 3084 
Q 1697 3084 1428 2787 
Q 1159 2491 1159 1978 
L 1159 0 
L 581 0 
L 581 4863 
L 1159 4863 
L 1159 2956 
Q 1366 3272 1645 3428 
Q 1925 3584 2291 3584 
Q 2894 3584 3203 3211 
Q 3513 2838 3513 2113 
z
" transform="scale(0.015625)"/>
      <path id="DejaVuSans-73" d="M 2834 3397 
L 2834 2853 
Q 2591 2978 2328 3040 
Q 2066 3103 1784 3103 
Q 1356 3103 1142 2972 
Q 928 2841 928 2578 
Q 928 2378 1081 2264 
Q 1234 2150 1697 2047 
L 1894 2003 
Q 2506 1872 2764 1633 
Q 3022 1394 3022 966 
Q 3022 478 2636 193 
Q 2250 -91 1575 -91 
Q 1294 -91 989 -36 
Q 684 19 347 128 
L 347 722 
Q 666 556 975 473 
Q 1284 391 1588 391 
Q 1994 391 2212 530 
Q 2431 669 2431 922 
Q 2431 1156 2273 1281 
Q 2116 1406 1581 1522 
L 1381 1569 
Q 847 1681 609 1914 
Q 372 2147 372 2553 
Q 372 3047 722 3315 
Q 1072 3584 1716 3584 
Q 2034 3584 2315 3537 
Q 2597 3491 2834 3397 
z
" transform="scale(0.015625)"/>
     </defs>
     <use xlink:href="#DejaVuSans-70"/>
     <use xlink:href="#DejaVuSans-68" x="63.476562"/>
     <use xlink:href="#DejaVuSans-61" x="126.855469"/>
     <use xlink:href="#DejaVuSans-73" x="188.134766"/>
     <use xlink:href="#DejaVuSans-65" x="240.234375"/>
    </g>
   </g>
   <g id="PathCollection_9">
    <defs>
     <path id="m8a429ae453" d="M 0 3 
C 0.795609 3 1.55874 2.683901 2.12132 2.12132 
C 2.683901 1.55874 3 0.795609 3 0 
C 3 -0.795609 2.683901 -1.55874 2.12132 -2.12132 
C 1.55874 -2.683901 0.795609 -3 0 -3 
C -0.795609 -3 -1.55874 -2.683901 -2.12132 -2.12132 
C -2.683901 -1.55874 -3 -0.795609 -3 0 
C -3 0.795609 -2.683901 1.55874 -2.12132 2.12132 
C -1.55874 2.683901 -0.795609 3 0 3 
z
" style="stroke: #333333"/>
    </defs>
    <g>
     <use xlink:href="#m8a429ae453" x="297.33375" y="166.151563" style="fill: #333333; stroke: #333333"/>
    </g>
   </g>
   <g id="text_31">
    <!-- encode -->
    <g transform="translate(315.33375 168.776563) scale(0.1 -0.1)">
     <use xlink:href="#DejaVuSans-65"/>
     <use xlink:href="#DejaVuSans-6e" x="61.523438"/>
     <use xlink:href="#DejaVuSans-63" x="124.902344"/>
     <use xlink:href="#DejaVuSans-6f" x="179.882812"/>
     <use xlink:href="#DejaVuSans-64" x="241.064453"/>
     <use xlink:href="#DejaVuSans-65" x="304.541016"/>
    </g>
   </g>
   <g id="PathCollection_10">
    <defs>
     <path id="m313fc4f2bd" d="M -1.5 3 
L 0 1.5 
L 1.5 3 
L 3 1.5 
L 1.5 0 
L 3 -1.5 
L 1.5 -3 
L 0 -1.5 
L -1.5 -3 
L -3 -1.5 
L -1.5 0 
L -3 1.5 
z
" style="stroke: #333333"/>
    </defs>
    <g>
     <use xlink:href="#m313fc4f2bd" x="297.33375" y="180.829688" style="fill: #333333; stroke: #333333"/>
    </g>
   </g>
   <g id="text_32">
    <!-- retriev -->
    <g transform="translate(315.33375 183.454688) scale(0.1 -0.1)">
     <use xlink:href="#DejaVuSans-72"/>
     <use xlink:href="#DejaVuSans-65" x="38.863281"/>
     <use xlink:href="#DejaVuSans-74" x="100.386719"/>
     <use xlink:href="#DejaVuSans-72" x="139.595703"/>
     <use xlink:href="#DejaVuSans-69" x="180.708984"/>
     <use xlink:href="#DejaVuSans-65" x="208.492188"/>
     <use xlink:href="#DejaVuSans-76" x="270.015625"/>
    </g>
   </g>
  </g>
 </g>
 <defs>
  <clipPath id="p29da9914f9">
   <rect x="54.02" y="10.8" width="219.4531" height="235.24"/>
  </clipPath>
 </defs>
</svg>
