<?xml version="1.0" encoding="utf-8" standalone="no"?>
<!DOCTYPE svg PUBLIC "-//W3C//DTD SVG 1.1//EN"
  "http://www.w3.org/Graphics/SVG/1.1/DTD/svg11.dtd">
<svg xmlns:xlink="http://www.w3.org/1999/xlink" width="365.94pt" height="288pt" viewBox="0 0 365.94 288" xmlns="http://www.w3.org/2000/svg" version="1.1">
 <metadata>
  <rdf:RDF xmlns:dc="http://purl.org/dc/elements/1.1/" xmlns:cc="http://creativecommons.org/ns#" xmlns:rdf="http://www.w3.org/1999/02/22-rdf-syntax-ns#">
   <cc:Work>
    <dc:type rdf:resource="http://purl.org/dc/dcmitype/StillImage"/>
    <dc:date>2023-02-02T00:42:23.539884</dc:date>
    <dc:format>image/svg+xml</dc:format>
    <dc:creator>
     <cc:Agent>
      <dc:title>Matplotlib v3.6.2, https://matplotlib.org/</dc:title>
     </cc:Agent>
    </dc:creator>
   </cc:Work>
  </rdf:RDF>
 </metadata>
 <defs>
  <style type="text/css">*{stroke-linejoin: round; stroke-linecap: butt}</style>
 </defs>
 <g id="figure_1">
  <g id="patch_1">
   <path d="M 0 288 
L 365.94 288 
L 365.94 0 
L 0 0 
z
" style="fill: #ffffff"/>
  </g>
  <g id="axes_1">
   <g id="patch_2">
    <path d="M 60.32 246.04 
L 273.5406 246.04 
L 273.5406 14.719972 
L 60.32 14.719972 
z
" style="fill: #ffffff"/>
   </g>
   <g id="PathCollection_1">
    <path d="M 135.152937 176.995617 
C 136.478952 176.995617 137.750836 176.468785 138.688471 175.531151 
C 139.626105 174.593516 140.152937 173.321632 140.152937 171.995617 
C 140.152937 170.669601 139.626105 169.397717 138.688471 168.460083 
C 137.750836 167.522448 136.478952 166.995617 135.152937 166.995617 
C 133.826921 166.995617 132.555037 167.522448 131.617403 168.460083 
C 130.679768 169.397717 130.152937 170.669601 130.152937 171.995617 
C 130.152937 173.321632 130.679768 174.593516 131.617403 175.531151 
C 132.555037 176.468785 133.826921 176.995617 135.152937 176.995617 
z
" clip-path="url(#p86cfd09605)" style="fill: #1f77b4; stroke: #ffffff; stroke-width: 0.8"/>
    <path d="M 129.141846 182.422878 
C 130.467861 182.422878 131.739745 181.896046 132.67738 180.958412 
C 133.615014 180.020777 134.141846 178.748893 134.141846 177.422878 
C 134.141846 176.096862 133.615014 174.824978 132.67738 173.887344 
C 131.739745 172.949709 130.467861 172.422878 129.141846 172.422878 
C 127.81583 172.422878 126.543946 172.949709 125.606312 173.887344 
C 124.668677 174.824978 124.141846 176.096862 124.141846 177.422878 
C 124.141846 178.748893 124.668677 180.020777 125.606312 180.958412 
C 126.543946 181.896046 127.81583 182.422878 129.141846 182.422878 
z
" clip-path="url(#p86cfd09605)" style="fill: #ff7f0e; stroke: #ffffff; stroke-width: 0.8"/>
    <path d="M 263.848755 56.349843 
C 265.17477 56.349843 266.446654 55.823012 267.384288 54.885377 
C 268.321923 53.947743 268.848755 52.675859 268.848755 51.349843 
C 268.848755 50.023828 268.321923 48.751944 267.384288 47.814309 
C 266.446654 46.876675 265.17477 46.349843 263.848755 46.349843 
C 262.522739 46.349843 261.250855 46.876675 260.313221 47.814309 
C 259.375586 48.751944 258.848755 50.023828 258.848755 51.349843 
C 258.848755 52.675859 259.375586 53.947743 260.313221 54.885377 
C 261.250855 55.823012 262.522739 56.349843 263.848755 56.349843 
z
" clip-path="url(#p86cfd09605)" style="fill: #1f77b4; stroke: #ffffff; stroke-width: 0.8"/>
    <path d="M 255.88048 64.167339 
C 257.206496 64.167339 258.47838 63.640508 259.416014 62.702873 
C 260.353649 61.765239 260.88048 60.493355 260.88048 59.167339 
C 260.88048 57.841324 260.353649 56.56944 259.416014 55.631805 
C 258.47838 54.694171 257.206496 54.167339 255.88048 54.167339 
C 254.554465 54.167339 253.282581 54.694171 252.344946 55.631805 
C 251.407312 56.56944 250.88048 57.841324 250.88048 59.167339 
C 250.88048 60.493355 251.407312 61.765239 252.344946 62.702873 
C 253.282581 63.640508 254.554465 64.167339 255.88048 64.167339 
z
" clip-path="url(#p86cfd09605)" style="fill: #ff7f0e; stroke: #ffffff; stroke-width: 0.8"/>
    <path d="M 67.511845 217.577121 
L 70.011845 215.077121 
L 72.511845 217.577121 
L 75.011845 215.077121 
L 72.511845 212.577121 
L 75.011845 210.077121 
L 72.511845 207.577121 
L 70.011845 210.077121 
L 67.511845 207.577121 
L 65.011845 210.077121 
L 67.511845 212.577121 
L 65.011845 215.077121 
z
" clip-path="url(#p86cfd09605)" style="fill: #1f77b4; stroke: #ffffff; stroke-width: 0.8"/>
    <path d="M 71.662052 214.329871 
L 74.162052 211.829871 
L 76.662052 214.329871 
L 79.162052 211.829871 
L 76.662052 209.329871 
L 79.162052 206.829871 
L 76.662052 204.329871 
L 74.162052 206.829871 
L 71.662052 204.329871 
L 69.162052 206.829871 
L 71.662052 209.329871 
L 69.162052 211.829871 
z
" clip-path="url(#p86cfd09605)" style="fill: #ff7f0e; stroke: #ffffff; stroke-width: 0.8"/>
    <path d="M 195.0074 124.890102 
L 197.5074 122.390102 
L 200.0074 124.890102 
L 202.5074 122.390102 
L 200.0074 119.890102 
L 202.5074 117.390102 
L 200.0074 114.890102 
L 197.5074 117.390102 
L 195.0074 114.890102 
L 192.5074 117.390102 
L 195.0074 119.890102 
L 192.5074 122.390102 
z
" clip-path="url(#p86cfd09605)" style="fill: #1f77b4; stroke: #ffffff; stroke-width: 0.8"/>
    <path d="M 194.453779 120.906599 
L 196.953779 118.406599 
L 199.453779 120.906599 
L 201.953779 118.406599 
L 199.453779 115.906599 
L 201.953779 113.406599 
L 199.453779 110.906599 
L 196.953779 113.406599 
L 194.453779 110.906599 
L 191.953779 113.406599 
L 194.453779 115.906599 
L 191.953779 118.406599 
z
" clip-path="url(#p86cfd09605)" style="fill: #ff7f0e; stroke: #ffffff; stroke-width: 0.8"/>
    <path d="M 80.682664 205.55417 
L 80.682664 212.625238 
L 87.753732 212.625238 
L 87.753732 205.55417 
z
" clip-path="url(#p86cfd09605)" style="fill: #1f77b4; stroke: #ffffff; stroke-width: 0.8"/>
    <path d="M 90.077102 200.092695 
L 90.077102 207.163763 
L 97.14817 207.163763 
L 97.14817 200.092695 
z
" clip-path="url(#p86cfd09605)" style="fill: #ff7f0e; stroke: #ffffff; stroke-width: 0.8"/>
    <path d="M 215.646132 89.380187 
L 215.646132 96.451255 
L 222.717199 96.451255 
L 222.717199 89.380187 
z
" clip-path="url(#p86cfd09605)" style="fill: #1f77b4; stroke: #ffffff; stroke-width: 0.8"/>
    <path d="M 228.730028 83.963372 
L 228.730028 91.034439 
L 235.801095 91.034439 
L 235.801095 83.963372 
z
" clip-path="url(#p86cfd09605)" style="fill: #ff7f0e; stroke: #ffffff; stroke-width: 0.8"/>
   </g>
   <g id="PathCollection_2"/>
   <g id="PathCollection_3"/>
   <g id="PathCollection_4"/>
   <g id="PathCollection_5"/>
   <g id="PathCollection_6"/>
   <g id="PathCollection_7">
    <defs>
     <path id="mfa2bc01c9f" d="M 0 0 
C 0 0 0 0 0 0 
C 0 0 0 0 0 0 
C 0 0 0 0 0 0 
C 0 0 0 0 0 0 
C 0 0 0 0 0 0 
C 0 0 0 0 0 0 
C 0 0 0 0 0 0 
C 0 0 0 0 0 0 
z
" style="stroke: #1f77b4; stroke-opacity: 0.8"/>
    </defs>
    <g clip-path="url(#p86cfd09605)">
     <use xlink:href="#mfa2bc01c9f" x="135.152937" y="171.995617" style="fill: #1f77b4; fill-opacity: 0.8; stroke: #1f77b4; stroke-opacity: 0.8"/>
     <use xlink:href="#mfa2bc01c9f" x="129.141846" y="177.422878" style="fill: #1f77b4; fill-opacity: 0.8; stroke: #1f77b4; stroke-opacity: 0.8"/>
     <use xlink:href="#mfa2bc01c9f" x="263.848755" y="51.349843" style="fill: #1f77b4; fill-opacity: 0.8; stroke: #1f77b4; stroke-opacity: 0.8"/>
     <use xlink:href="#mfa2bc01c9f" x="255.88048" y="59.167339" style="fill: #1f77b4; fill-opacity: 0.8; stroke: #1f77b4; stroke-opacity: 0.8"/>
     <use xlink:href="#mfa2bc01c9f" x="70.011845" y="212.577121" style="fill: #1f77b4; fill-opacity: 0.8; stroke: #1f77b4; stroke-opacity: 0.8"/>
     <use xlink:href="#mfa2bc01c9f" x="74.162052" y="209.329871" style="fill: #1f77b4; fill-opacity: 0.8; stroke: #1f77b4; stroke-opacity: 0.8"/>
     <use xlink:href="#mfa2bc01c9f" x="197.5074" y="119.890102" style="fill: #1f77b4; fill-opacity: 0.8; stroke: #1f77b4; stroke-opacity: 0.8"/>
     <use xlink:href="#mfa2bc01c9f" x="196.953779" y="115.906599" style="fill: #1f77b4; fill-opacity: 0.8; stroke: #1f77b4; stroke-opacity: 0.8"/>
     <use xlink:href="#mfa2bc01c9f" x="84.218198" y="209.089704" style="fill: #1f77b4; fill-opacity: 0.8; stroke: #1f77b4; stroke-opacity: 0.8"/>
     <use xlink:href="#mfa2bc01c9f" x="93.612636" y="203.628229" style="fill: #1f77b4; fill-opacity: 0.8; stroke: #1f77b4; stroke-opacity: 0.8"/>
     <use xlink:href="#mfa2bc01c9f" x="219.181665" y="92.915721" style="fill: #1f77b4; fill-opacity: 0.8; stroke: #1f77b4; stroke-opacity: 0.8"/>
     <use xlink:href="#mfa2bc01c9f" x="232.265561" y="87.498905" style="fill: #1f77b4; fill-opacity: 0.8; stroke: #1f77b4; stroke-opacity: 0.8"/>
    </g>
   </g>
   <g id="PolyCollection_1">
    <path d="M 70.011845 215.325868 
L 70.011845 227.940638 
L 71.969794 226.190504 
L 73.927743 224.44037 
L 75.885691 222.690237 
L 77.84364 220.940103 
L 79.801588 219.189969 
L 81.759537 217.439835 
L 83.717485 215.689701 
L 85.675434 213.939568 
L 87.633383 212.189434 
L 89.591331 210.4393 
L 91.54928 208.689166 
L 93.507228 206.939033 
L 95.465177 205.188899 
L 97.423126 203.443127 
L 99.381074 201.702711 
L 101.339023 199.978386 
L 103.296971 198.259616 
L 105.25492 196.540846 
L 107.212868 194.822076 
L 109.170817 193.103306 
L 111.128766 191.384535 
L 113.086714 189.665739 
L 115.044663 187.927442 
L 117.002611 186.183786 
L 118.96056 184.462962 
L 120.918508 182.769325 
L 122.876457 181.075295 
L 124.834406 179.317674 
L 126.792354 177.592521 
L 128.750303 175.814231 
L 130.708251 174.149787 
L 132.6662 172.415837 
L 134.624148 170.767731 
L 136.582097 169.052181 
L 138.540046 167.33601 
L 140.497994 165.617384 
L 142.455943 163.935012 
L 144.413891 162.280945 
L 146.37184 160.526055 
L 148.329789 158.771003 
L 150.287737 157.182328 
L 152.245686 155.670581 
L 154.203634 153.9404 
L 156.161583 152.295079 
L 158.119531 150.56814 
L 160.07748 148.83019 
L 162.035429 147.18664 
L 163.993377 145.4527 
L 165.951326 143.803729 
L 167.909274 142.109198 
L 169.867223 140.450173 
L 171.825171 138.759193 
L 173.78312 137.095492 
L 175.741069 135.480018 
L 177.699017 133.830348 
L 179.656966 132.163451 
L 181.614914 130.572157 
L 183.572863 128.940139 
L 185.530811 127.341999 
L 187.48876 125.796769 
L 189.446709 124.210764 
L 191.404657 122.658668 
L 193.362606 121.113823 
L 195.320554 119.529331 
L 197.278503 117.935208 
L 199.236452 116.393743 
L 201.1944 114.853808 
L 203.152349 113.313054 
L 205.110297 111.771937 
L 207.068246 110.213019 
L 209.026194 108.634741 
L 210.984143 107.056416 
L 212.942092 105.490263 
L 214.90004 103.95509 
L 216.857989 102.419917 
L 218.815937 100.884744 
L 220.773886 99.349571 
L 222.731834 97.814398 
L 224.689783 96.277212 
L 226.647732 94.671285 
L 228.60568 93.130801 
L 230.563629 91.621376 
L 232.521577 90.110884 
L 234.479526 88.600392 
L 236.437474 87.067113 
L 238.395423 85.53269 
L 240.353372 83.997842 
L 242.31132 82.485592 
L 244.269269 80.974124 
L 246.227217 79.435111 
L 248.185166 77.895371 
L 250.143115 76.355436 
L 252.101063 74.815501 
L 254.059012 73.275343 
L 256.01696 71.732839 
L 257.974909 70.181287 
L 259.932857 68.646114 
L 261.890806 67.110941 
L 263.848755 65.575144 
L 263.848755 53.526359 
L 263.848755 53.526359 
L 261.890806 55.257256 
L 259.932857 56.942148 
L 257.974909 58.664832 
L 256.01696 60.41075 
L 254.059012 62.115178 
L 252.101063 63.821477 
L 250.143115 65.47928 
L 248.185166 67.212558 
L 246.227217 68.911125 
L 244.269269 70.608794 
L 242.31132 72.30787 
L 240.353372 74.020993 
L 238.395423 75.700045 
L 236.437474 77.381116 
L 234.479526 79.044194 
L 232.521577 80.69547 
L 230.563629 82.355825 
L 228.60568 84.017488 
L 226.647732 85.667202 
L 224.689783 87.34186 
L 222.731834 89.007525 
L 220.773886 90.685523 
L 218.815937 92.350352 
L 216.857989 93.999182 
L 214.90004 95.680584 
L 212.942092 97.346963 
L 210.984143 99.011488 
L 209.026194 100.68546 
L 207.068246 102.352672 
L 205.110297 104.060748 
L 203.152349 105.720621 
L 201.1944 107.35736 
L 199.236452 109.002563 
L 197.278503 110.662763 
L 195.320554 112.266748 
L 193.362606 113.89923 
L 191.404657 115.504242 
L 189.446709 117.138415 
L 187.48876 118.795546 
L 185.530811 120.420326 
L 183.572863 122.099033 
L 181.614914 123.735079 
L 179.656966 125.361785 
L 177.699017 127.020152 
L 175.741069 128.679707 
L 173.78312 130.314621 
L 171.825171 131.953638 
L 169.867223 133.619243 
L 167.909274 135.271128 
L 165.951326 136.893355 
L 163.993377 138.51325 
L 162.035429 140.133145 
L 160.07748 141.75304 
L 158.119531 143.365646 
L 156.161583 144.999043 
L 154.203634 146.611938 
L 152.245686 148.230912 
L 150.287737 149.841783 
L 148.329789 151.469513 
L 146.37184 153.089294 
L 144.413891 154.708615 
L 142.455943 156.327447 
L 140.497994 157.946885 
L 138.540046 159.560482 
L 136.582097 161.185604 
L 134.624148 162.794425 
L 132.6662 164.384144 
L 130.708251 165.974136 
L 128.750303 167.5868 
L 126.792354 169.214925 
L 124.834406 170.8373 
L 122.876457 172.458117 
L 120.918508 174.067214 
L 118.96056 175.688102 
L 117.002611 177.260312 
L 115.044663 178.834218 
L 113.086714 180.433219 
L 111.128766 182.03271 
L 109.170817 183.642483 
L 107.212868 185.268938 
L 105.25492 186.873598 
L 103.296971 188.460242 
L 101.339023 190.029291 
L 99.381074 191.628248 
L 97.423126 193.219842 
L 95.465177 194.783384 
L 93.507228 196.368284 
L 91.54928 197.929798 
L 89.591331 199.52709 
L 87.633383 201.095766 
L 85.675434 202.674179 
L 83.717485 204.253286 
L 81.759537 205.851257 
L 79.801588 207.404388 
L 77.84364 209.026165 
L 75.885691 210.617008 
L 73.927743 212.186455 
L 71.969794 213.755969 
L 70.011845 215.325868 
z
" clip-path="url(#p86cfd09605)" style="fill: #808080; fill-opacity: 0.15"/>
   </g>
   <g id="matplotlib.axis_1">
    <g id="xtick_1">
     <g id="line2d_1">
      <defs>
       <path id="m3caf0c4825" d="M 0 0 
L 0 3.5 
" style="stroke: #000000; stroke-width: 0.8"/>
      </defs>
      <g>
       <use xlink:href="#m3caf0c4825" x="82.296191" y="246.04" style="stroke: #000000; stroke-width: 0.8"/>
      </g>
     </g>
     <g id="text_1">
      <!-- 0.02 -->
      <g transform="translate(71.163378 260.638438) scale(0.1 -0.1)">
       <defs>
        <path id="DejaVuSans-30" d="M 2034 4250 
Q 1547 4250 1301 3770 
Q 1056 3291 1056 2328 
Q 1056 1369 1301 889 
Q 1547 409 2034 409 
Q 2525 409 2770 889 
Q 3016 1369 3016 2328 
Q 3016 3291 2770 3770 
Q 2525 4250 2034 4250 
z
M 2034 4750 
Q 2819 4750 3233 4129 
Q 3647 3509 3647 2328 
Q 3647 1150 3233 529 
Q 2819 -91 2034 -91 
Q 1250 -91 836 529 
Q 422 1150 422 2328 
Q 422 3509 836 4129 
Q 1250 4750 2034 4750 
z
" transform="scale(0.015625)"/>
        <path id="DejaVuSans-2e" d="M 684 794 
L 1344 794 
L 1344 0 
L 684 0 
L 684 794 
z
" transform="scale(0.015625)"/>
        <path id="DejaVuSans-32" d="M 1228 531 
L 3431 531 
L 3431 0 
L 469 0 
L 469 531 
Q 828 903 1448 1529 
Q 2069 2156 2228 2338 
Q 2531 2678 2651 2914 
Q 2772 3150 2772 3378 
Q 2772 3750 2511 3984 
Q 2250 4219 1831 4219 
Q 1534 4219 1204 4116 
Q 875 4013 500 3803 
L 500 4441 
Q 881 4594 1212 4672 
Q 1544 4750 1819 4750 
Q 2544 4750 2975 4387 
Q 3406 4025 3406 3419 
Q 3406 3131 3298 2873 
Q 3191 2616 2906 2266 
Q 2828 2175 2409 1742 
Q 1991 1309 1228 531 
z
" transform="scale(0.015625)"/>
       </defs>
       <use xlink:href="#DejaVuSans-30"/>
       <use xlink:href="#DejaVuSans-2e" x="63.623047"/>
       <use xlink:href="#DejaVuSans-30" x="95.410156"/>
       <use xlink:href="#DejaVuSans-32" x="159.033203"/>
      </g>
     </g>
    </g>
    <g id="xtick_2">
     <g id="line2d_2">
      <g>
       <use xlink:href="#m3caf0c4825" x="121.638156" y="246.04" style="stroke: #000000; stroke-width: 0.8"/>
      </g>
     </g>
     <g id="text_2">
      <!-- 0.04 -->
      <g transform="translate(110.505343 260.638438) scale(0.1 -0.1)">
       <defs>
        <path id="DejaVuSans-34" d="M 2419 4116 
L 825 1625 
L 2419 1625 
L 2419 4116 
z
M 2253 4666 
L 3047 4666 
L 3047 1625 
L 3713 1625 
L 3713 1100 
L 3047 1100 
L 3047 0 
L 2419 0 
L 2419 1100 
L 313 1100 
L 313 1709 
L 2253 4666 
z
" transform="scale(0.015625)"/>
       </defs>
       <use xlink:href="#DejaVuSans-30"/>
       <use xlink:href="#DejaVuSans-2e" x="63.623047"/>
       <use xlink:href="#DejaVuSans-30" x="95.410156"/>
       <use xlink:href="#DejaVuSans-34" x="159.033203"/>
      </g>
     </g>
    </g>
    <g id="xtick_3">
     <g id="line2d_3">
      <g>
       <use xlink:href="#m3caf0c4825" x="160.980121" y="246.04" style="stroke: #000000; stroke-width: 0.8"/>
      </g>
     </g>
     <g id="text_3">
      <!-- 0.06 -->
      <g transform="translate(149.847308 260.638438) scale(0.1 -0.1)">
       <defs>
        <path id="DejaVuSans-36" d="M 2113 2584 
Q 1688 2584 1439 2293 
Q 1191 2003 1191 1497 
Q 1191 994 1439 701 
Q 1688 409 2113 409 
Q 2538 409 2786 701 
Q 3034 994 3034 1497 
Q 3034 2003 2786 2293 
Q 2538 2584 2113 2584 
z
M 3366 4563 
L 3366 3988 
Q 3128 4100 2886 4159 
Q 2644 4219 2406 4219 
Q 1781 4219 1451 3797 
Q 1122 3375 1075 2522 
Q 1259 2794 1537 2939 
Q 1816 3084 2150 3084 
Q 2853 3084 3261 2657 
Q 3669 2231 3669 1497 
Q 3669 778 3244 343 
Q 2819 -91 2113 -91 
Q 1303 -91 875 529 
Q 447 1150 447 2328 
Q 447 3434 972 4092 
Q 1497 4750 2381 4750 
Q 2619 4750 2861 4703 
Q 3103 4656 3366 4563 
z
" transform="scale(0.015625)"/>
       </defs>
       <use xlink:href="#DejaVuSans-30"/>
       <use xlink:href="#DejaVuSans-2e" x="63.623047"/>
       <use xlink:href="#DejaVuSans-30" x="95.410156"/>
       <use xlink:href="#DejaVuSans-36" x="159.033203"/>
      </g>
     </g>
    </g>
    <g id="xtick_4">
     <g id="line2d_4">
      <g>
       <use xlink:href="#m3caf0c4825" x="200.322085" y="246.04" style="stroke: #000000; stroke-width: 0.8"/>
      </g>
     </g>
     <g id="text_4">
      <!-- 0.08 -->
      <g transform="translate(189.189273 260.638438) scale(0.1 -0.1)">
       <defs>
        <path id="DejaVuSans-38" d="M 2034 2216 
Q 1584 2216 1326 1975 
Q 1069 1734 1069 1313 
Q 1069 891 1326 650 
Q 1584 409 2034 409 
Q 2484 409 2743 651 
Q 3003 894 3003 1313 
Q 3003 1734 2745 1975 
Q 2488 2216 2034 2216 
z
M 1403 2484 
Q 997 2584 770 2862 
Q 544 3141 544 3541 
Q 544 4100 942 4425 
Q 1341 4750 2034 4750 
Q 2731 4750 3128 4425 
Q 3525 4100 3525 3541 
Q 3525 3141 3298 2862 
Q 3072 2584 2669 2484 
Q 3125 2378 3379 2068 
Q 3634 1759 3634 1313 
Q 3634 634 3220 271 
Q 2806 -91 2034 -91 
Q 1263 -91 848 271 
Q 434 634 434 1313 
Q 434 1759 690 2068 
Q 947 2378 1403 2484 
z
M 1172 3481 
Q 1172 3119 1398 2916 
Q 1625 2713 2034 2713 
Q 2441 2713 2670 2916 
Q 2900 3119 2900 3481 
Q 2900 3844 2670 4047 
Q 2441 4250 2034 4250 
Q 1625 4250 1398 4047 
Q 1172 3844 1172 3481 
z
" transform="scale(0.015625)"/>
       </defs>
       <use xlink:href="#DejaVuSans-30"/>
       <use xlink:href="#DejaVuSans-2e" x="63.623047"/>
       <use xlink:href="#DejaVuSans-30" x="95.410156"/>
       <use xlink:href="#DejaVuSans-38" x="159.033203"/>
      </g>
     </g>
    </g>
    <g id="xtick_5">
     <g id="line2d_5">
      <g>
       <use xlink:href="#m3caf0c4825" x="239.66405" y="246.04" style="stroke: #000000; stroke-width: 0.8"/>
      </g>
     </g>
     <g id="text_5">
      <!-- 0.10 -->
      <g transform="translate(228.531238 260.638438) scale(0.1 -0.1)">
       <defs>
        <path id="DejaVuSans-31" d="M 794 531 
L 1825 531 
L 1825 4091 
L 703 3866 
L 703 4441 
L 1819 4666 
L 2450 4666 
L 2450 531 
L 3481 531 
L 3481 0 
L 794 0 
L 794 531 
z
" transform="scale(0.015625)"/>
       </defs>
       <use xlink:href="#DejaVuSans-30"/>
       <use xlink:href="#DejaVuSans-2e" x="63.623047"/>
       <use xlink:href="#DejaVuSans-31" x="95.410156"/>
       <use xlink:href="#DejaVuSans-30" x="159.033203"/>
      </g>
     </g>
    </g>
    <g id="text_6">
     <!-- Predicted Activation (a.u.) -->
     <g transform="translate(101.937331 274.316562) scale(0.1 -0.1)">
      <defs>
       <path id="DejaVuSans-50" d="M 1259 4147 
L 1259 2394 
L 2053 2394 
Q 2494 2394 2734 2622 
Q 2975 2850 2975 3272 
Q 2975 3691 2734 3919 
Q 2494 4147 2053 4147 
L 1259 4147 
z
M 628 4666 
L 2053 4666 
Q 2838 4666 3239 4311 
Q 3641 3956 3641 3272 
Q 3641 2581 3239 2228 
Q 2838 1875 2053 1875 
L 1259 1875 
L 1259 0 
L 628 0 
L 628 4666 
z
" transform="scale(0.015625)"/>
       <path id="DejaVuSans-72" d="M 2631 2963 
Q 2534 3019 2420 3045 
Q 2306 3072 2169 3072 
Q 1681 3072 1420 2755 
Q 1159 2438 1159 1844 
L 1159 0 
L 581 0 
L 581 3500 
L 1159 3500 
L 1159 2956 
Q 1341 3275 1631 3429 
Q 1922 3584 2338 3584 
Q 2397 3584 2469 3576 
Q 2541 3569 2628 3553 
L 2631 2963 
z
" transform="scale(0.015625)"/>
       <path id="DejaVuSans-65" d="M 3597 1894 
L 3597 1613 
L 953 1613 
Q 991 1019 1311 708 
Q 1631 397 2203 397 
Q 2534 397 2845 478 
Q 3156 559 3463 722 
L 3463 178 
Q 3153 47 2828 -22 
Q 2503 -91 2169 -91 
Q 1331 -91 842 396 
Q 353 884 353 1716 
Q 353 2575 817 3079 
Q 1281 3584 2069 3584 
Q 2775 3584 3186 3129 
Q 3597 2675 3597 1894 
z
M 3022 2063 
Q 3016 2534 2758 2815 
Q 2500 3097 2075 3097 
Q 1594 3097 1305 2825 
Q 1016 2553 972 2059 
L 3022 2063 
z
" transform="scale(0.015625)"/>
       <path id="DejaVuSans-64" d="M 2906 2969 
L 2906 4863 
L 3481 4863 
L 3481 0 
L 2906 0 
L 2906 525 
Q 2725 213 2448 61 
Q 2172 -91 1784 -91 
Q 1150 -91 751 415 
Q 353 922 353 1747 
Q 353 2572 751 3078 
Q 1150 3584 1784 3584 
Q 2172 3584 2448 3432 
Q 2725 3281 2906 2969 
z
M 947 1747 
Q 947 1113 1208 752 
Q 1469 391 1925 391 
Q 2381 391 2643 752 
Q 2906 1113 2906 1747 
Q 2906 2381 2643 2742 
Q 2381 3103 1925 3103 
Q 1469 3103 1208 2742 
Q 947 2381 947 1747 
z
" transform="scale(0.015625)"/>
       <path id="DejaVuSans-69" d="M 603 3500 
L 1178 3500 
L 1178 0 
L 603 0 
L 603 3500 
z
M 603 4863 
L 1178 4863 
L 1178 4134 
L 603 4134 
L 603 4863 
z
" transform="scale(0.015625)"/>
       <path id="DejaVuSans-63" d="M 3122 3366 
L 3122 2828 
Q 2878 2963 2633 3030 
Q 2388 3097 2138 3097 
Q 1578 3097 1268 2742 
Q 959 2388 959 1747 
Q 959 1106 1268 751 
Q 1578 397 2138 397 
Q 2388 397 2633 464 
Q 2878 531 3122 666 
L 3122 134 
Q 2881 22 2623 -34 
Q 2366 -91 2075 -91 
Q 1284 -91 818 406 
Q 353 903 353 1747 
Q 353 2603 823 3093 
Q 1294 3584 2113 3584 
Q 2378 3584 2631 3529 
Q 2884 3475 3122 3366 
z
" transform="scale(0.015625)"/>
       <path id="DejaVuSans-74" d="M 1172 4494 
L 1172 3500 
L 2356 3500 
L 2356 3053 
L 1172 3053 
L 1172 1153 
Q 1172 725 1289 603 
Q 1406 481 1766 481 
L 2356 481 
L 2356 0 
L 1766 0 
Q 1100 0 847 248 
Q 594 497 594 1153 
L 594 3053 
L 172 3053 
L 172 3500 
L 594 3500 
L 594 4494 
L 1172 4494 
z
" transform="scale(0.015625)"/>
       <path id="DejaVuSans-20" transform="scale(0.015625)"/>
       <path id="DejaVuSans-41" d="M 2188 4044 
L 1331 1722 
L 3047 1722 
L 2188 4044 
z
M 1831 4666 
L 2547 4666 
L 4325 0 
L 3669 0 
L 3244 1197 
L 1141 1197 
L 716 0 
L 50 0 
L 1831 4666 
z
" transform="scale(0.015625)"/>
       <path id="DejaVuSans-76" d="M 191 3500 
L 800 3500 
L 1894 563 
L 2988 3500 
L 3597 3500 
L 2284 0 
L 1503 0 
L 191 3500 
z
" transform="scale(0.015625)"/>
       <path id="DejaVuSans-61" d="M 2194 1759 
Q 1497 1759 1228 1600 
Q 959 1441 959 1056 
Q 959 750 1161 570 
Q 1363 391 1709 391 
Q 2188 391 2477 730 
Q 2766 1069 2766 1631 
L 2766 1759 
L 2194 1759 
z
M 3341 1997 
L 3341 0 
L 2766 0 
L 2766 531 
Q 2569 213 2275 61 
Q 1981 -91 1556 -91 
Q 1019 -91 701 211 
Q 384 513 384 1019 
Q 384 1609 779 1909 
Q 1175 2209 1959 2209 
L 2766 2209 
L 2766 2266 
Q 2766 2663 2505 2880 
Q 2244 3097 1772 3097 
Q 1472 3097 1187 3025 
Q 903 2953 641 2809 
L 641 3341 
Q 956 3463 1253 3523 
Q 1550 3584 1831 3584 
Q 2591 3584 2966 3190 
Q 3341 2797 3341 1997 
z
" transform="scale(0.015625)"/>
       <path id="DejaVuSans-6f" d="M 1959 3097 
Q 1497 3097 1228 2736 
Q 959 2375 959 1747 
Q 959 1119 1226 758 
Q 1494 397 1959 397 
Q 2419 397 2687 759 
Q 2956 1122 2956 1747 
Q 2956 2369 2687 2733 
Q 2419 3097 1959 3097 
z
M 1959 3584 
Q 2709 3584 3137 3096 
Q 3566 2609 3566 1747 
Q 3566 888 3137 398 
Q 2709 -91 1959 -91 
Q 1206 -91 779 398 
Q 353 888 353 1747 
Q 353 2609 779 3096 
Q 1206 3584 1959 3584 
z
" transform="scale(0.015625)"/>
       <path id="DejaVuSans-6e" d="M 3513 2113 
L 3513 0 
L 2938 0 
L 2938 2094 
Q 2938 2591 2744 2837 
Q 2550 3084 2163 3084 
Q 1697 3084 1428 2787 
Q 1159 2491 1159 1978 
L 1159 0 
L 581 0 
L 581 3500 
L 1159 3500 
L 1159 2956 
Q 1366 3272 1645 3428 
Q 1925 3584 2291 3584 
Q 2894 3584 3203 3211 
Q 3513 2838 3513 2113 
z
" transform="scale(0.015625)"/>
       <path id="DejaVuSans-28" d="M 1984 4856 
Q 1566 4138 1362 3434 
Q 1159 2731 1159 2009 
Q 1159 1288 1364 580 
Q 1569 -128 1984 -844 
L 1484 -844 
Q 1016 -109 783 600 
Q 550 1309 550 2009 
Q 550 2706 781 3412 
Q 1013 4119 1484 4856 
L 1984 4856 
z
" transform="scale(0.015625)"/>
       <path id="DejaVuSans-75" d="M 544 1381 
L 544 3500 
L 1119 3500 
L 1119 1403 
Q 1119 906 1312 657 
Q 1506 409 1894 409 
Q 2359 409 2629 706 
Q 2900 1003 2900 1516 
L 2900 3500 
L 3475 3500 
L 3475 0 
L 2900 0 
L 2900 538 
Q 2691 219 2414 64 
Q 2138 -91 1772 -91 
Q 1169 -91 856 284 
Q 544 659 544 1381 
z
M 1991 3584 
L 1991 3584 
z
" transform="scale(0.015625)"/>
       <path id="DejaVuSans-29" d="M 513 4856 
L 1013 4856 
Q 1481 4119 1714 3412 
Q 1947 2706 1947 2009 
Q 1947 1309 1714 600 
Q 1481 -109 1013 -844 
L 513 -844 
Q 928 -128 1133 580 
Q 1338 1288 1338 2009 
Q 1338 2731 1133 3434 
Q 928 4138 513 4856 
z
" transform="scale(0.015625)"/>
      </defs>
      <use xlink:href="#DejaVuSans-50"/>
      <use xlink:href="#DejaVuSans-72" x="58.552734"/>
      <use xlink:href="#DejaVuSans-65" x="97.416016"/>
      <use xlink:href="#DejaVuSans-64" x="158.939453"/>
      <use xlink:href="#DejaVuSans-69" x="222.416016"/>
      <use xlink:href="#DejaVuSans-63" x="250.199219"/>
      <use xlink:href="#DejaVuSans-74" x="305.179688"/>
      <use xlink:href="#DejaVuSans-65" x="344.388672"/>
      <use xlink:href="#DejaVuSans-64" x="405.912109"/>
      <use xlink:href="#DejaVuSans-20" x="469.388672"/>
      <use xlink:href="#DejaVuSans-41" x="501.175781"/>
      <use xlink:href="#DejaVuSans-63" x="567.833984"/>
      <use xlink:href="#DejaVuSans-74" x="622.814453"/>
      <use xlink:href="#DejaVuSans-69" x="662.023438"/>
      <use xlink:href="#DejaVuSans-76" x="689.806641"/>
      <use xlink:href="#DejaVuSans-61" x="748.986328"/>
      <use xlink:href="#DejaVuSans-74" x="810.265625"/>
      <use xlink:href="#DejaVuSans-69" x="849.474609"/>
      <use xlink:href="#DejaVuSans-6f" x="877.257812"/>
      <use xlink:href="#DejaVuSans-6e" x="938.439453"/>
      <use xlink:href="#DejaVuSans-20" x="1001.818359"/>
      <use xlink:href="#DejaVuSans-28" x="1033.605469"/>
      <use xlink:href="#DejaVuSans-61" x="1072.619141"/>
      <use xlink:href="#DejaVuSans-2e" x="1133.898438"/>
      <use xlink:href="#DejaVuSans-75" x="1165.685547"/>
      <use xlink:href="#DejaVuSans-2e" x="1229.064453"/>
      <use xlink:href="#DejaVuSans-29" x="1260.851562"/>
     </g>
    </g>
   </g>
   <g id="matplotlib.axis_2">
    <g id="ytick_1">
     <g id="line2d_6">
      <defs>
       <path id="md46042ec68" d="M 0 0 
L -3.5 0 
" style="stroke: #000000; stroke-width: 0.8"/>
      </defs>
      <g>
       <use xlink:href="#md46042ec68" x="60.32" y="228.881096" style="stroke: #000000; stroke-width: 0.8"/>
      </g>
     </g>
     <g id="text_7">
      <!-- 0.025 -->
      <g transform="translate(24.691875 232.680314) scale(0.1 -0.1)">
       <defs>
        <path id="DejaVuSans-35" d="M 691 4666 
L 3169 4666 
L 3169 4134 
L 1269 4134 
L 1269 2991 
Q 1406 3038 1543 3061 
Q 1681 3084 1819 3084 
Q 2600 3084 3056 2656 
Q 3513 2228 3513 1497 
Q 3513 744 3044 326 
Q 2575 -91 1722 -91 
Q 1428 -91 1123 -41 
Q 819 9 494 109 
L 494 744 
Q 775 591 1075 516 
Q 1375 441 1709 441 
Q 2250 441 2565 725 
Q 2881 1009 2881 1497 
Q 2881 1984 2565 2268 
Q 2250 2553 1709 2553 
Q 1456 2553 1204 2497 
Q 953 2441 691 2322 
L 691 4666 
z
" transform="scale(0.015625)"/>
       </defs>
       <use xlink:href="#DejaVuSans-30"/>
       <use xlink:href="#DejaVuSans-2e" x="63.623047"/>
       <use xlink:href="#DejaVuSans-30" x="95.410156"/>
       <use xlink:href="#DejaVuSans-32" x="159.033203"/>
       <use xlink:href="#DejaVuSans-35" x="222.65625"/>
      </g>
     </g>
    </g>
    <g id="ytick_2">
     <g id="line2d_7">
      <g>
       <use xlink:href="#md46042ec68" x="60.32" y="202.115875" style="stroke: #000000; stroke-width: 0.8"/>
      </g>
     </g>
     <g id="text_8">
      <!-- 0.050 -->
      <g transform="translate(24.691875 205.915094) scale(0.1 -0.1)">
       <use xlink:href="#DejaVuSans-30"/>
       <use xlink:href="#DejaVuSans-2e" x="63.623047"/>
       <use xlink:href="#DejaVuSans-30" x="95.410156"/>
       <use xlink:href="#DejaVuSans-35" x="159.033203"/>
       <use xlink:href="#DejaVuSans-30" x="222.65625"/>
      </g>
     </g>
    </g>
    <g id="ytick_3">
     <g id="line2d_8">
      <g>
       <use xlink:href="#md46042ec68" x="60.32" y="175.350655" style="stroke: #000000; stroke-width: 0.8"/>
      </g>
     </g>
     <g id="text_9">
      <!-- 0.075 -->
      <g transform="translate(24.691875 179.149874) scale(0.1 -0.1)">
       <defs>
        <path id="DejaVuSans-37" d="M 525 4666 
L 3525 4666 
L 3525 4397 
L 1831 0 
L 1172 0 
L 2766 4134 
L 525 4134 
L 525 4666 
z
" transform="scale(0.015625)"/>
       </defs>
       <use xlink:href="#DejaVuSans-30"/>
       <use xlink:href="#DejaVuSans-2e" x="63.623047"/>
       <use xlink:href="#DejaVuSans-30" x="95.410156"/>
       <use xlink:href="#DejaVuSans-37" x="159.033203"/>
       <use xlink:href="#DejaVuSans-35" x="222.65625"/>
      </g>
     </g>
    </g>
    <g id="ytick_4">
     <g id="line2d_9">
      <g>
       <use xlink:href="#md46042ec68" x="60.32" y="148.585435" style="stroke: #000000; stroke-width: 0.8"/>
      </g>
     </g>
     <g id="text_10">
      <!-- 0.100 -->
      <g transform="translate(24.691875 152.384653) scale(0.1 -0.1)">
       <use xlink:href="#DejaVuSans-30"/>
       <use xlink:href="#DejaVuSans-2e" x="63.623047"/>
       <use xlink:href="#DejaVuSans-31" x="95.410156"/>
       <use xlink:href="#DejaVuSans-30" x="159.033203"/>
       <use xlink:href="#DejaVuSans-30" x="222.65625"/>
      </g>
     </g>
    </g>
    <g id="ytick_5">
     <g id="line2d_10">
      <g>
       <use xlink:href="#md46042ec68" x="60.32" y="121.820214" style="stroke: #000000; stroke-width: 0.8"/>
      </g>
     </g>
     <g id="text_11">
      <!-- 0.125 -->
      <g transform="translate(24.691875 125.619433) scale(0.1 -0.1)">
       <use xlink:href="#DejaVuSans-30"/>
       <use xlink:href="#DejaVuSans-2e" x="63.623047"/>
       <use xlink:href="#DejaVuSans-31" x="95.410156"/>
       <use xlink:href="#DejaVuSans-32" x="159.033203"/>
       <use xlink:href="#DejaVuSans-35" x="222.65625"/>
      </g>
     </g>
    </g>
    <g id="ytick_6">
     <g id="line2d_11">
      <g>
       <use xlink:href="#md46042ec68" x="60.32" y="95.054994" style="stroke: #000000; stroke-width: 0.8"/>
      </g>
     </g>
     <g id="text_12">
      <!-- 0.150 -->
      <g transform="translate(24.691875 98.854213) scale(0.1 -0.1)">
       <use xlink:href="#DejaVuSans-30"/>
       <use xlink:href="#DejaVuSans-2e" x="63.623047"/>
       <use xlink:href="#DejaVuSans-31" x="95.410156"/>
       <use xlink:href="#DejaVuSans-35" x="159.033203"/>
       <use xlink:href="#DejaVuSans-30" x="222.65625"/>
      </g>
     </g>
    </g>
    <g id="ytick_7">
     <g id="line2d_12">
      <g>
       <use xlink:href="#md46042ec68" x="60.32" y="68.289774" style="stroke: #000000; stroke-width: 0.8"/>
      </g>
     </g>
     <g id="text_13">
      <!-- 0.175 -->
      <g transform="translate(24.691875 72.088992) scale(0.1 -0.1)">
       <use xlink:href="#DejaVuSans-30"/>
       <use xlink:href="#DejaVuSans-2e" x="63.623047"/>
       <use xlink:href="#DejaVuSans-31" x="95.410156"/>
       <use xlink:href="#DejaVuSans-37" x="159.033203"/>
       <use xlink:href="#DejaVuSans-35" x="222.65625"/>
      </g>
     </g>
    </g>
    <g id="ytick_8">
     <g id="line2d_13">
      <g>
       <use xlink:href="#md46042ec68" x="60.32" y="41.524553" style="stroke: #000000; stroke-width: 0.8"/>
      </g>
     </g>
     <g id="text_14">
      <!-- 0.200 -->
      <g transform="translate(24.691875 45.323772) scale(0.1 -0.1)">
       <use xlink:href="#DejaVuSans-30"/>
       <use xlink:href="#DejaVuSans-2e" x="63.623047"/>
       <use xlink:href="#DejaVuSans-32" x="95.410156"/>
       <use xlink:href="#DejaVuSans-30" x="159.033203"/>
       <use xlink:href="#DejaVuSans-30" x="222.65625"/>
      </g>
     </g>
    </g>
    <g id="ytick_9">
     <g id="line2d_14">
      <g>
       <use xlink:href="#md46042ec68" x="60.32" y="14.759333" style="stroke: #000000; stroke-width: 0.8"/>
      </g>
     </g>
     <g id="text_15">
      <!-- 0.225 -->
      <g transform="translate(24.691875 18.558552) scale(0.1 -0.1)">
       <use xlink:href="#DejaVuSans-30"/>
       <use xlink:href="#DejaVuSans-2e" x="63.623047"/>
       <use xlink:href="#DejaVuSans-32" x="95.410156"/>
       <use xlink:href="#DejaVuSans-32" x="159.033203"/>
       <use xlink:href="#DejaVuSans-35" x="222.65625"/>
      </g>
     </g>
    </g>
    <g id="text_16">
     <!-- Cerebellar Activation (a.u.) -->
     <g transform="translate(18.612187 197.63858) rotate(-90) scale(0.1 -0.1)">
      <defs>
       <path id="DejaVuSans-43" d="M 4122 4306 
L 4122 3641 
Q 3803 3938 3442 4084 
Q 3081 4231 2675 4231 
Q 1875 4231 1450 3742 
Q 1025 3253 1025 2328 
Q 1025 1406 1450 917 
Q 1875 428 2675 428 
Q 3081 428 3442 575 
Q 3803 722 4122 1019 
L 4122 359 
Q 3791 134 3420 21 
Q 3050 -91 2638 -91 
Q 1578 -91 968 557 
Q 359 1206 359 2328 
Q 359 3453 968 4101 
Q 1578 4750 2638 4750 
Q 3056 4750 3426 4639 
Q 3797 4528 4122 4306 
z
" transform="scale(0.015625)"/>
       <path id="DejaVuSans-62" d="M 3116 1747 
Q 3116 2381 2855 2742 
Q 2594 3103 2138 3103 
Q 1681 3103 1420 2742 
Q 1159 2381 1159 1747 
Q 1159 1113 1420 752 
Q 1681 391 2138 391 
Q 2594 391 2855 752 
Q 3116 1113 3116 1747 
z
M 1159 2969 
Q 1341 3281 1617 3432 
Q 1894 3584 2278 3584 
Q 2916 3584 3314 3078 
Q 3713 2572 3713 1747 
Q 3713 922 3314 415 
Q 2916 -91 2278 -91 
Q 1894 -91 1617 61 
Q 1341 213 1159 525 
L 1159 0 
L 581 0 
L 581 4863 
L 1159 4863 
L 1159 2969 
z
" transform="scale(0.015625)"/>
       <path id="DejaVuSans-6c" d="M 603 4863 
L 1178 4863 
L 1178 0 
L 603 0 
L 603 4863 
z
" transform="scale(0.015625)"/>
      </defs>
      <use xlink:href="#DejaVuSans-43"/>
      <use xlink:href="#DejaVuSans-65" x="69.824219"/>
      <use xlink:href="#DejaVuSans-72" x="131.347656"/>
      <use xlink:href="#DejaVuSans-65" x="170.210938"/>
      <use xlink:href="#DejaVuSans-62" x="231.734375"/>
      <use xlink:href="#DejaVuSans-65" x="295.210938"/>
      <use xlink:href="#DejaVuSans-6c" x="356.734375"/>
      <use xlink:href="#DejaVuSans-6c" x="384.517578"/>
      <use xlink:href="#DejaVuSans-61" x="412.300781"/>
      <use xlink:href="#DejaVuSans-72" x="473.580078"/>
      <use xlink:href="#DejaVuSans-20" x="514.693359"/>
      <use xlink:href="#DejaVuSans-41" x="546.480469"/>
      <use xlink:href="#DejaVuSans-63" x="613.138672"/>
      <use xlink:href="#DejaVuSans-74" x="668.119141"/>
      <use xlink:href="#DejaVuSans-69" x="707.328125"/>
      <use xlink:href="#DejaVuSans-76" x="735.111328"/>
      <use xlink:href="#DejaVuSans-61" x="794.291016"/>
      <use xlink:href="#DejaVuSans-74" x="855.570312"/>
      <use xlink:href="#DejaVuSans-69" x="894.779297"/>
      <use xlink:href="#DejaVuSans-6f" x="922.5625"/>
      <use xlink:href="#DejaVuSans-6e" x="983.744141"/>
      <use xlink:href="#DejaVuSans-20" x="1047.123047"/>
      <use xlink:href="#DejaVuSans-28" x="1078.910156"/>
      <use xlink:href="#DejaVuSans-61" x="1117.923828"/>
      <use xlink:href="#DejaVuSans-2e" x="1179.203125"/>
      <use xlink:href="#DejaVuSans-75" x="1210.990234"/>
      <use xlink:href="#DejaVuSans-2e" x="1274.369141"/>
      <use xlink:href="#DejaVuSans-29" x="1306.15625"/>
     </g>
    </g>
   </g>
   <g id="line2d_15">
    <path d="M 70.011845 220.313917 
L 71.969794 218.670848 
L 73.927743 217.027778 
L 75.885691 215.384709 
L 77.84364 213.74164 
L 79.801588 212.09857 
L 81.759537 210.455501 
L 83.717485 208.812431 
L 85.675434 207.169362 
L 87.633383 205.526292 
L 89.591331 203.883223 
L 91.54928 202.240154 
L 93.507228 200.597084 
L 95.465177 198.954015 
L 97.423126 197.310945 
L 99.381074 195.667876 
L 101.339023 194.024807 
L 103.296971 192.381737 
L 105.25492 190.738668 
L 107.212868 189.095598 
L 109.170817 187.452529 
L 111.128766 185.809459 
L 113.086714 184.16639 
L 115.044663 182.523321 
L 117.002611 180.880251 
L 118.96056 179.237182 
L 120.918508 177.594112 
L 122.876457 175.951043 
L 124.834406 174.307973 
L 126.792354 172.664904 
L 128.750303 171.021835 
L 130.708251 169.378765 
L 132.6662 167.735696 
L 134.624148 166.092626 
L 136.582097 164.449557 
L 138.540046 162.806487 
L 140.497994 161.163418 
L 142.455943 159.520349 
L 144.413891 157.877279 
L 146.37184 156.23421 
L 148.329789 154.59114 
L 150.287737 152.948071 
L 152.245686 151.305001 
L 154.203634 149.661932 
L 156.161583 148.018863 
L 158.119531 146.375793 
L 160.07748 144.732724 
L 162.035429 143.089654 
L 163.993377 141.446585 
L 165.951326 139.803516 
L 167.909274 138.160446 
L 169.867223 136.517377 
L 171.825171 134.874307 
L 173.78312 133.231238 
L 175.741069 131.588168 
L 177.699017 129.945099 
L 179.656966 128.30203 
L 181.614914 126.65896 
L 183.572863 125.015891 
L 185.530811 123.372821 
L 187.48876 121.729752 
L 189.446709 120.086682 
L 191.404657 118.443613 
L 193.362606 116.800544 
L 195.320554 115.157474 
L 197.278503 113.514405 
L 199.236452 111.871335 
L 201.1944 110.228266 
L 203.152349 108.585196 
L 205.110297 106.942127 
L 207.068246 105.299058 
L 209.026194 103.655988 
L 210.984143 102.012919 
L 212.942092 100.369849 
L 214.90004 98.72678 
L 216.857989 97.08371 
L 218.815937 95.440641 
L 220.773886 93.797572 
L 222.731834 92.154502 
L 224.689783 90.511433 
L 226.647732 88.868363 
L 228.60568 87.225294 
L 230.563629 85.582225 
L 232.521577 83.939155 
L 234.479526 82.296086 
L 236.437474 80.653016 
L 238.395423 79.009947 
L 240.353372 77.366877 
L 242.31132 75.723808 
L 244.269269 74.080739 
L 246.227217 72.437669 
L 248.185166 70.7946 
L 250.143115 69.15153 
L 252.101063 67.508461 
L 254.059012 65.865391 
L 256.01696 64.222322 
L 257.974909 62.579253 
L 259.932857 60.936183 
L 261.890806 59.293114 
L 263.848755 57.650044 
" clip-path="url(#p86cfd09605)" style="fill: none; stroke: #808080; stroke-width: 2.25; stroke-linecap: square"/>
   </g>
   <g id="LineCollection_1">
    <path d="M 135.152937 194.382218 
L 135.152937 149.609015 
" clip-path="url(#p86cfd09605)" style="fill: none; stroke: #e6e6e6"/>
    <path d="M 129.141846 206.227486 
L 129.141846 148.61827 
" clip-path="url(#p86cfd09605)" style="fill: none; stroke: #e6e6e6"/>
    <path d="M 263.848755 77.465168 
L 263.848755 25.234519 
" clip-path="url(#p86cfd09605)" style="fill: none; stroke: #e6e6e6"/>
    <path d="M 255.88048 86.053037 
L 255.88048 32.281642 
" clip-path="url(#p86cfd09605)" style="fill: none; stroke: #e6e6e6"/>
    <path d="M 70.011845 235.06188 
L 70.011845 190.092362 
" clip-path="url(#p86cfd09605)" style="fill: none; stroke: #e6e6e6"/>
    <path d="M 74.162052 226.099338 
L 74.162052 192.560405 
" clip-path="url(#p86cfd09605)" style="fill: none; stroke: #e6e6e6"/>
    <path d="M 197.5074 151.129949 
L 197.5074 88.650255 
" clip-path="url(#p86cfd09605)" style="fill: none; stroke: #e6e6e6"/>
    <path d="M 196.953779 149.953721 
L 196.953779 81.859477 
" clip-path="url(#p86cfd09605)" style="fill: none; stroke: #e6e6e6"/>
    <path d="M 84.218198 235.525453 
L 84.218198 182.653954 
" clip-path="url(#p86cfd09605)" style="fill: none; stroke: #e6e6e6"/>
    <path d="M 93.612636 226.730994 
L 93.612636 180.525463 
" clip-path="url(#p86cfd09605)" style="fill: none; stroke: #e6e6e6"/>
    <path d="M 219.181665 111.229766 
L 219.181665 74.601677 
" clip-path="url(#p86cfd09605)" style="fill: none; stroke: #e6e6e6"/>
    <path d="M 232.265561 113.572821 
L 232.265561 61.42499 
" clip-path="url(#p86cfd09605)" style="fill: none; stroke: #e6e6e6"/>
   </g>
   <g id="patch_3">
    <path d="M 60.32 246.04 
L 60.32 14.719972 
" style="fill: none; stroke: #000000; stroke-width: 0.8; stroke-linejoin: miter; stroke-linecap: square"/>
   </g>
   <g id="patch_4">
    <path d="M 60.32 246.04 
L 273.5406 246.04 
" style="fill: none; stroke: #000000; stroke-width: 0.8; stroke-linejoin: miter; stroke-linecap: square"/>
   </g>
   <g id="text_17">
    <!-- nback_E_face  -->
    <g transform="translate(138.604788 169.095559) scale(0.0833 -0.0833)">
     <defs>
      <path id="DejaVuSans-6b" d="M 581 4863 
L 1159 4863 
L 1159 1991 
L 2875 3500 
L 3609 3500 
L 1753 1863 
L 3688 0 
L 2938 0 
L 1159 1709 
L 1159 0 
L 581 0 
L 581 4863 
z
" transform="scale(0.015625)"/>
      <path id="DejaVuSans-5f" d="M 3263 -1063 
L 3263 -1509 
L -63 -1509 
L -63 -1063 
L 3263 -1063 
z
" transform="scale(0.015625)"/>
      <path id="DejaVuSans-45" d="M 628 4666 
L 3578 4666 
L 3578 4134 
L 1259 4134 
L 1259 2753 
L 3481 2753 
L 3481 2222 
L 1259 2222 
L 1259 531 
L 3634 531 
L 3634 0 
L 628 0 
L 628 4666 
z
" transform="scale(0.015625)"/>
      <path id="DejaVuSans-66" d="M 2375 4863 
L 2375 4384 
L 1825 4384 
Q 1516 4384 1395 4259 
Q 1275 4134 1275 3809 
L 1275 3500 
L 2222 3500 
L 2222 3053 
L 1275 3053 
L 1275 0 
L 697 0 
L 697 3053 
L 147 3053 
L 147 3500 
L 697 3500 
L 697 3744 
Q 697 4328 969 4595 
Q 1241 4863 1831 4863 
L 2375 4863 
z
" transform="scale(0.015625)"/>
     </defs>
     <use xlink:href="#DejaVuSans-6e"/>
     <use xlink:href="#DejaVuSans-62" x="63.378906"/>
     <use xlink:href="#DejaVuSans-61" x="126.855469"/>
     <use xlink:href="#DejaVuSans-63" x="188.134766"/>
     <use xlink:href="#DejaVuSans-6b" x="243.115234"/>
     <use xlink:href="#DejaVuSans-5f" x="301.025391"/>
     <use xlink:href="#DejaVuSans-45" x="351.025391"/>
     <use xlink:href="#DejaVuSans-5f" x="414.208984"/>
     <use xlink:href="#DejaVuSans-66" x="464.208984"/>
     <use xlink:href="#DejaVuSans-61" x="499.414062"/>
     <use xlink:href="#DejaVuSans-63" x="560.693359"/>
     <use xlink:href="#DejaVuSans-65" x="615.673828"/>
     <use xlink:href="#DejaVuSans-20" x="677.197266"/>
    </g>
   </g>
   <g id="text_18">
    <!-- nback_E_house  -->
    <g transform="translate(132.778167 184.688376) scale(0.0833 -0.0833)">
     <defs>
      <path id="DejaVuSans-68" d="M 3513 2113 
L 3513 0 
L 2938 0 
L 2938 2094 
Q 2938 2591 2744 2837 
Q 2550 3084 2163 3084 
Q 1697 3084 1428 2787 
Q 1159 2491 1159 1978 
L 1159 0 
L 581 0 
L 581 4863 
L 1159 4863 
L 1159 2956 
Q 1366 3272 1645 3428 
Q 1925 3584 2291 3584 
Q 2894 3584 3203 3211 
Q 3513 2838 3513 2113 
z
" transform="scale(0.015625)"/>
      <path id="DejaVuSans-73" d="M 2834 3397 
L 2834 2853 
Q 2591 2978 2328 3040 
Q 2066 3103 1784 3103 
Q 1356 3103 1142 2972 
Q 928 2841 928 2578 
Q 928 2378 1081 2264 
Q 1234 2150 1697 2047 
L 1894 2003 
Q 2506 1872 2764 1633 
Q 3022 1394 3022 966 
Q 3022 478 2636 193 
Q 2250 -91 1575 -91 
Q 1294 -91 989 -36 
Q 684 19 347 128 
L 347 722 
Q 666 556 975 473 
Q 1284 391 1588 391 
Q 1994 391 2212 530 
Q 2431 669 2431 922 
Q 2431 1156 2273 1281 
Q 2116 1406 1581 1522 
L 1381 1569 
Q 847 1681 609 1914 
Q 372 2147 372 2553 
Q 372 3047 722 3315 
Q 1072 3584 1716 3584 
Q 2034 3584 2315 3537 
Q 2597 3491 2834 3397 
z
" transform="scale(0.015625)"/>
     </defs>
     <use xlink:href="#DejaVuSans-6e"/>
     <use xlink:href="#DejaVuSans-62" x="63.378906"/>
     <use xlink:href="#DejaVuSans-61" x="126.855469"/>
     <use xlink:href="#DejaVuSans-63" x="188.134766"/>
     <use xlink:href="#DejaVuSans-6b" x="243.115234"/>
     <use xlink:href="#DejaVuSans-5f" x="301.025391"/>
     <use xlink:href="#DejaVuSans-45" x="351.025391"/>
     <use xlink:href="#DejaVuSans-5f" x="414.208984"/>
     <use xlink:href="#DejaVuSans-68" x="464.208984"/>
     <use xlink:href="#DejaVuSans-6f" x="527.587891"/>
     <use xlink:href="#DejaVuSans-75" x="588.769531"/>
     <use xlink:href="#DejaVuSans-73" x="652.148438"/>
     <use xlink:href="#DejaVuSans-65" x="704.248047"/>
     <use xlink:href="#DejaVuSans-20" x="765.771484"/>
    </g>
   </g>
   <g id="text_19">
    <!-- nback_H_face  -->
    <g transform="translate(204.243502 48.449785) scale(0.0833 -0.0833)">
     <defs>
      <path id="DejaVuSans-48" d="M 628 4666 
L 1259 4666 
L 1259 2753 
L 3553 2753 
L 3553 4666 
L 4184 4666 
L 4184 0 
L 3553 0 
L 3553 2222 
L 1259 2222 
L 1259 0 
L 628 0 
L 628 4666 
z
" transform="scale(0.015625)"/>
     </defs>
     <use xlink:href="#DejaVuSans-6e"/>
     <use xlink:href="#DejaVuSans-62" x="63.378906"/>
     <use xlink:href="#DejaVuSans-61" x="126.855469"/>
     <use xlink:href="#DejaVuSans-63" x="188.134766"/>
     <use xlink:href="#DejaVuSans-6b" x="243.115234"/>
     <use xlink:href="#DejaVuSans-5f" x="301.025391"/>
     <use xlink:href="#DejaVuSans-48" x="351.025391"/>
     <use xlink:href="#DejaVuSans-5f" x="426.220703"/>
     <use xlink:href="#DejaVuSans-66" x="476.220703"/>
     <use xlink:href="#DejaVuSans-61" x="511.425781"/>
     <use xlink:href="#DejaVuSans-63" x="572.705078"/>
     <use xlink:href="#DejaVuSans-65" x="627.685547"/>
     <use xlink:href="#DejaVuSans-20" x="689.208984"/>
    </g>
   </g>
   <g id="text_20">
    <!-- nback_H_house  -->
    <g transform="translate(188.713503 66.432838) scale(0.0833 -0.0833)">
     <use xlink:href="#DejaVuSans-6e"/>
     <use xlink:href="#DejaVuSans-62" x="63.378906"/>
     <use xlink:href="#DejaVuSans-61" x="126.855469"/>
     <use xlink:href="#DejaVuSans-63" x="188.134766"/>
     <use xlink:href="#DejaVuSans-6b" x="243.115234"/>
     <use xlink:href="#DejaVuSans-5f" x="301.025391"/>
     <use xlink:href="#DejaVuSans-48" x="351.025391"/>
     <use xlink:href="#DejaVuSans-5f" x="426.220703"/>
     <use xlink:href="#DejaVuSans-68" x="476.220703"/>
     <use xlink:href="#DejaVuSans-6f" x="539.599609"/>
     <use xlink:href="#DejaVuSans-75" x="600.78125"/>
     <use xlink:href="#DejaVuSans-73" x="664.160156"/>
     <use xlink:href="#DejaVuSans-65" x="716.259766"/>
     <use xlink:href="#DejaVuSans-20" x="777.783203"/>
    </g>
   </g>
   <g id="text_21">
    <!-- stop_E_face -->
    <g transform="translate(62.331793 227.739608) scale(0.0833 -0.0833)">
     <defs>
      <path id="DejaVuSans-70" d="M 1159 525 
L 1159 -1331 
L 581 -1331 
L 581 3500 
L 1159 3500 
L 1159 2969 
Q 1341 3281 1617 3432 
Q 1894 3584 2278 3584 
Q 2916 3584 3314 3078 
Q 3713 2572 3713 1747 
Q 3713 922 3314 415 
Q 2916 -91 2278 -91 
Q 1894 -91 1617 61 
Q 1341 213 1159 525 
z
M 3116 1747 
Q 3116 2381 2855 2742 
Q 2594 3103 2138 3103 
Q 1681 3103 1420 2742 
Q 1159 2381 1159 1747 
Q 1159 1113 1420 752 
Q 1681 391 2138 391 
Q 2594 391 2855 752 
Q 3116 1113 3116 1747 
z
" transform="scale(0.015625)"/>
     </defs>
     <use xlink:href="#DejaVuSans-73"/>
     <use xlink:href="#DejaVuSans-74" x="52.099609"/>
     <use xlink:href="#DejaVuSans-6f" x="91.308594"/>
     <use xlink:href="#DejaVuSans-70" x="152.490234"/>
     <use xlink:href="#DejaVuSans-5f" x="215.966797"/>
     <use xlink:href="#DejaVuSans-45" x="265.966797"/>
     <use xlink:href="#DejaVuSans-5f" x="329.150391"/>
     <use xlink:href="#DejaVuSans-66" x="379.150391"/>
     <use xlink:href="#DejaVuSans-61" x="414.355469"/>
     <use xlink:href="#DejaVuSans-63" x="475.634766"/>
     <use xlink:href="#DejaVuSans-65" x="530.615234"/>
    </g>
   </g>
   <g id="text_22">
    <!-- stop_E_house  -->
    <g transform="translate(85.865184 216.875488) scale(0.0833 -0.0833)">
     <use xlink:href="#DejaVuSans-73"/>
     <use xlink:href="#DejaVuSans-74" x="52.099609"/>
     <use xlink:href="#DejaVuSans-6f" x="91.308594"/>
     <use xlink:href="#DejaVuSans-70" x="152.490234"/>
     <use xlink:href="#DejaVuSans-5f" x="215.966797"/>
     <use xlink:href="#DejaVuSans-45" x="265.966797"/>
     <use xlink:href="#DejaVuSans-5f" x="329.150391"/>
     <use xlink:href="#DejaVuSans-68" x="379.150391"/>
     <use xlink:href="#DejaVuSans-6f" x="442.529297"/>
     <use xlink:href="#DejaVuSans-75" x="503.710938"/>
     <use xlink:href="#DejaVuSans-73" x="567.089844"/>
     <use xlink:href="#DejaVuSans-65" x="619.189453"/>
     <use xlink:href="#DejaVuSans-20" x="680.712891"/>
    </g>
   </g>
   <g id="text_23">
    <!-- stop_H_face  -->
    <g transform="translate(200.808526 127.1556) scale(0.0833 -0.0833)">
     <use xlink:href="#DejaVuSans-73"/>
     <use xlink:href="#DejaVuSans-74" x="52.099609"/>
     <use xlink:href="#DejaVuSans-6f" x="91.308594"/>
     <use xlink:href="#DejaVuSans-70" x="152.490234"/>
     <use xlink:href="#DejaVuSans-5f" x="215.966797"/>
     <use xlink:href="#DejaVuSans-48" x="265.966797"/>
     <use xlink:href="#DejaVuSans-5f" x="341.162109"/>
     <use xlink:href="#DejaVuSans-66" x="391.162109"/>
     <use xlink:href="#DejaVuSans-61" x="426.367188"/>
     <use xlink:href="#DejaVuSans-63" x="487.646484"/>
     <use xlink:href="#DejaVuSans-65" x="542.626953"/>
     <use xlink:href="#DejaVuSans-20" x="604.150391"/>
    </g>
   </g>
   <g id="text_24">
    <!-- stop_H_house  -->
    <g transform="translate(200.439375 113.006541) scale(0.0833 -0.0833)">
     <use xlink:href="#DejaVuSans-73"/>
     <use xlink:href="#DejaVuSans-74" x="52.099609"/>
     <use xlink:href="#DejaVuSans-6f" x="91.308594"/>
     <use xlink:href="#DejaVuSans-70" x="152.490234"/>
     <use xlink:href="#DejaVuSans-5f" x="215.966797"/>
     <use xlink:href="#DejaVuSans-48" x="265.966797"/>
     <use xlink:href="#DejaVuSans-5f" x="341.162109"/>
     <use xlink:href="#DejaVuSans-68" x="391.162109"/>
     <use xlink:href="#DejaVuSans-6f" x="454.541016"/>
     <use xlink:href="#DejaVuSans-75" x="515.722656"/>
     <use xlink:href="#DejaVuSans-73" x="579.101562"/>
     <use xlink:href="#DejaVuSans-65" x="631.201172"/>
     <use xlink:href="#DejaVuSans-20" x="692.724609"/>
    </g>
   </g>
   <g id="text_25">
    <!-- switch_E_face  -->
    <g transform="translate(145.990065 227.555972) scale(0.0833 -0.0833)">
     <defs>
      <path id="DejaVuSans-77" d="M 269 3500 
L 844 3500 
L 1563 769 
L 2278 3500 
L 2956 3500 
L 3675 769 
L 4391 3500 
L 4966 3500 
L 4050 0 
L 3372 0 
L 2619 2869 
L 1863 0 
L 1184 0 
L 269 3500 
z
" transform="scale(0.015625)"/>
     </defs>
     <use xlink:href="#DejaVuSans-73"/>
     <use xlink:href="#DejaVuSans-77" x="52.099609"/>
     <use xlink:href="#DejaVuSans-69" x="133.886719"/>
     <use xlink:href="#DejaVuSans-74" x="161.669922"/>
     <use xlink:href="#DejaVuSans-63" x="200.878906"/>
     <use xlink:href="#DejaVuSans-68" x="255.859375"/>
     <use xlink:href="#DejaVuSans-5f" x="319.238281"/>
     <use xlink:href="#DejaVuSans-45" x="369.238281"/>
     <use xlink:href="#DejaVuSans-5f" x="432.421875"/>
     <use xlink:href="#DejaVuSans-66" x="482.421875"/>
     <use xlink:href="#DejaVuSans-61" x="517.626953"/>
     <use xlink:href="#DejaVuSans-63" x="578.90625"/>
     <use xlink:href="#DejaVuSans-65" x="633.886719"/>
     <use xlink:href="#DejaVuSans-20" x="695.410156"/>
    </g>
   </g>
   <g id="text_26">
    <!-- switch_E_house  -->
    <g transform="translate(100.263851 200.983582) scale(0.0833 -0.0833)">
     <use xlink:href="#DejaVuSans-73"/>
     <use xlink:href="#DejaVuSans-77" x="52.099609"/>
     <use xlink:href="#DejaVuSans-69" x="133.886719"/>
     <use xlink:href="#DejaVuSans-74" x="161.669922"/>
     <use xlink:href="#DejaVuSans-63" x="200.878906"/>
     <use xlink:href="#DejaVuSans-68" x="255.859375"/>
     <use xlink:href="#DejaVuSans-5f" x="319.238281"/>
     <use xlink:href="#DejaVuSans-45" x="369.238281"/>
     <use xlink:href="#DejaVuSans-5f" x="432.421875"/>
     <use xlink:href="#DejaVuSans-68" x="482.421875"/>
     <use xlink:href="#DejaVuSans-6f" x="545.800781"/>
     <use xlink:href="#DejaVuSans-75" x="606.982422"/>
     <use xlink:href="#DejaVuSans-73" x="670.361328"/>
     <use xlink:href="#DejaVuSans-65" x="722.460938"/>
     <use xlink:href="#DejaVuSans-20" x="783.984375"/>
    </g>
   </g>
   <g id="text_27">
    <!-- switch_H_face  -->
    <g transform="translate(158.020901 100.18122) scale(0.0833 -0.0833)">
     <use xlink:href="#DejaVuSans-73"/>
     <use xlink:href="#DejaVuSans-77" x="52.099609"/>
     <use xlink:href="#DejaVuSans-69" x="133.886719"/>
     <use xlink:href="#DejaVuSans-74" x="161.669922"/>
     <use xlink:href="#DejaVuSans-63" x="200.878906"/>
     <use xlink:href="#DejaVuSans-68" x="255.859375"/>
     <use xlink:href="#DejaVuSans-5f" x="319.238281"/>
     <use xlink:href="#DejaVuSans-48" x="369.238281"/>
     <use xlink:href="#DejaVuSans-5f" x="444.433594"/>
     <use xlink:href="#DejaVuSans-66" x="494.433594"/>
     <use xlink:href="#DejaVuSans-61" x="529.638672"/>
     <use xlink:href="#DejaVuSans-63" x="590.917969"/>
     <use xlink:href="#DejaVuSans-65" x="645.898438"/>
     <use xlink:href="#DejaVuSans-20" x="707.421875"/>
    </g>
   </g>
   <g id="text_28">
    <!-- switch_H_house  -->
    <g transform="translate(163.543072 84.598848) scale(0.0833 -0.0833)">
     <use xlink:href="#DejaVuSans-73"/>
     <use xlink:href="#DejaVuSans-77" x="52.099609"/>
     <use xlink:href="#DejaVuSans-69" x="133.886719"/>
     <use xlink:href="#DejaVuSans-74" x="161.669922"/>
     <use xlink:href="#DejaVuSans-63" x="200.878906"/>
     <use xlink:href="#DejaVuSans-68" x="255.859375"/>
     <use xlink:href="#DejaVuSans-5f" x="319.238281"/>
     <use xlink:href="#DejaVuSans-48" x="369.238281"/>
     <use xlink:href="#DejaVuSans-5f" x="444.433594"/>
     <use xlink:href="#DejaVuSans-68" x="494.433594"/>
     <use xlink:href="#DejaVuSans-6f" x="557.8125"/>
     <use xlink:href="#DejaVuSans-75" x="618.994141"/>
     <use xlink:href="#DejaVuSans-73" x="682.373047"/>
     <use xlink:href="#DejaVuSans-65" x="734.472656"/>
     <use xlink:href="#DejaVuSans-20" x="795.996094"/>
    </g>
   </g>
  </g>
  <g id="legend_1">
   <g id="text_29">
    <!-- material -->
    <g transform="translate(315.2025 102.585938) scale(0.1 -0.1)">
     <defs>
      <path id="DejaVuSans-6d" d="M 3328 2828 
Q 3544 3216 3844 3400 
Q 4144 3584 4550 3584 
Q 5097 3584 5394 3201 
Q 5691 2819 5691 2113 
L 5691 0 
L 5113 0 
L 5113 2094 
Q 5113 2597 4934 2840 
Q 4756 3084 4391 3084 
Q 3944 3084 3684 2787 
Q 3425 2491 3425 1978 
L 3425 0 
L 2847 0 
L 2847 2094 
Q 2847 2600 2669 2842 
Q 2491 3084 2119 3084 
Q 1678 3084 1418 2786 
Q 1159 2488 1159 1978 
L 1159 0 
L 581 0 
L 581 3500 
L 1159 3500 
L 1159 2956 
Q 1356 3278 1631 3431 
Q 1906 3584 2284 3584 
Q 2666 3584 2933 3390 
Q 3200 3197 3328 2828 
z
" transform="scale(0.015625)"/>
     </defs>
     <use xlink:href="#DejaVuSans-6d"/>
     <use xlink:href="#DejaVuSans-61" x="97.412109"/>
     <use xlink:href="#DejaVuSans-74" x="158.691406"/>
     <use xlink:href="#DejaVuSans-65" x="197.900391"/>
     <use xlink:href="#DejaVuSans-72" x="259.423828"/>
     <use xlink:href="#DejaVuSans-69" x="300.537109"/>
     <use xlink:href="#DejaVuSans-61" x="328.320312"/>
     <use xlink:href="#DejaVuSans-6c" x="389.599609"/>
    </g>
   </g>
   <g id="PathCollection_8">
    <defs>
     <path id="m234467ff98" d="M 0 3 
C 0.795609 3 1.55874 2.683901 2.12132 2.12132 
C 2.683901 1.55874 3 0.795609 3 0 
C 3 -0.795609 2.683901 -1.55874 2.12132 -2.12132 
C 1.55874 -2.683901 0.795609 -3 0 -3 
C -0.795609 -3 -1.55874 -2.683901 -2.12132 -2.12132 
C -2.683901 -1.55874 -3 -0.795609 -3 0 
C -3 0.795609 -2.683901 1.55874 -2.12132 2.12132 
C -1.55874 2.683901 -0.795609 3 0 3 
z
" style="stroke: #1f77b4"/>
    </defs>
    <g>
     <use xlink:href="#m234467ff98" x="297.2025" y="114.639063" style="fill: #1f77b4; stroke: #1f77b4"/>
    </g>
   </g>
   <g id="text_30">
    <!-- face -->
    <g transform="translate(315.2025 117.264063) scale(0.1 -0.1)">
     <use xlink:href="#DejaVuSans-66"/>
     <use xlink:href="#DejaVuSans-61" x="35.205078"/>
     <use xlink:href="#DejaVuSans-63" x="96.484375"/>
     <use xlink:href="#DejaVuSans-65" x="151.464844"/>
    </g>
   </g>
   <g id="PathCollection_9">
    <defs>
     <path id="m0da7b029a7" d="M 0 3 
C 0.795609 3 1.55874 2.683901 2.12132 2.12132 
C 2.683901 1.55874 3 0.795609 3 0 
C 3 -0.795609 2.683901 -1.55874 2.12132 -2.12132 
C 1.55874 -2.683901 0.795609 -3 0 -3 
C -0.795609 -3 -1.55874 -2.683901 -2.12132 -2.12132 
C -2.683901 -1.55874 -3 -0.795609 -3 0 
C -3 0.795609 -2.683901 1.55874 -2.12132 2.12132 
C -1.55874 2.683901 -0.795609 3 0 3 
z
" style="stroke: #ff7f0e"/>
    </defs>
    <g>
     <use xlink:href="#m0da7b029a7" x="297.2025" y="129.317187" style="fill: #ff7f0e; stroke: #ff7f0e"/>
    </g>
   </g>
   <g id="text_31">
    <!-- house -->
    <g transform="translate(315.2025 131.942187) scale(0.1 -0.1)">
     <use xlink:href="#DejaVuSans-68"/>
     <use xlink:href="#DejaVuSans-6f" x="63.378906"/>
     <use xlink:href="#DejaVuSans-75" x="124.560547"/>
     <use xlink:href="#DejaVuSans-73" x="187.939453"/>
     <use xlink:href="#DejaVuSans-65" x="240.039062"/>
    </g>
   </g>
   <g id="text_32">
    <!-- task -->
    <g transform="translate(315.2025 146.620313) scale(0.1 -0.1)">
     <use xlink:href="#DejaVuSans-74"/>
     <use xlink:href="#DejaVuSans-61" x="39.208984"/>
     <use xlink:href="#DejaVuSans-73" x="100.488281"/>
     <use xlink:href="#DejaVuSans-6b" x="152.587891"/>
    </g>
   </g>
   <g id="PathCollection_10">
    <defs>
     <path id="m149d52c6f3" d="M 0 3 
C 0.795609 3 1.55874 2.683901 2.12132 2.12132 
C 2.683901 1.55874 3 0.795609 3 0 
C 3 -0.795609 2.683901 -1.55874 2.12132 -2.12132 
C 1.55874 -2.683901 0.795609 -3 0 -3 
C -0.795609 -3 -1.55874 -2.683901 -2.12132 -2.12132 
C -2.683901 -1.55874 -3 -0.795609 -3 0 
C -3 0.795609 -2.683901 1.55874 -2.12132 2.12132 
C -1.55874 2.683901 -0.795609 3 0 3 
z
" style="stroke: #333333"/>
    </defs>
    <g>
     <use xlink:href="#m149d52c6f3" x="297.2025" y="158.673438" style="fill: #333333; stroke: #333333"/>
    </g>
   </g>
   <g id="text_33">
    <!-- n_back -->
    <g transform="translate(315.2025 161.298438) scale(0.1 -0.1)">
     <use xlink:href="#DejaVuSans-6e"/>
     <use xlink:href="#DejaVuSans-5f" x="63.378906"/>
     <use xlink:href="#DejaVuSans-62" x="113.378906"/>
     <use xlink:href="#DejaVuSans-61" x="176.855469"/>
     <use xlink:href="#DejaVuSans-63" x="238.134766"/>
     <use xlink:href="#DejaVuSans-6b" x="293.115234"/>
    </g>
   </g>
   <g id="PathCollection_11">
    <defs>
     <path id="ma514ac11ba" d="M -1.5 3 
L 0 1.5 
L 1.5 3 
L 3 1.5 
L 1.5 0 
L 3 -1.5 
L 1.5 -3 
L 0 -1.5 
L -1.5 -3 
L -3 -1.5 
L -1.5 0 
L -3 1.5 
z
" style="stroke: #333333"/>
    </defs>
    <g>
     <use xlink:href="#ma514ac11ba" x="297.2025" y="173.629687" style="fill: #333333; stroke: #333333"/>
    </g>
   </g>
   <g id="text_34">
    <!-- stop -->
    <g transform="translate(315.2025 176.254687) scale(0.1 -0.1)">
     <use xlink:href="#DejaVuSans-73"/>
     <use xlink:href="#DejaVuSans-74" x="52.099609"/>
     <use xlink:href="#DejaVuSans-6f" x="91.308594"/>
     <use xlink:href="#DejaVuSans-70" x="152.490234"/>
    </g>
   </g>
   <g id="PathCollection_12">
    <defs>
     <path id="mf74e941311" d="M -2.12132 -2.12132 
L -2.12132 2.12132 
L 2.12132 2.12132 
L 2.12132 -2.12132 
z
" style="stroke: #333333"/>
    </defs>
    <g>
     <use xlink:href="#mf74e941311" x="297.2025" y="188.307813" style="fill: #333333; stroke: #333333"/>
    </g>
   </g>
   <g id="text_35">
    <!-- switch -->
    <g transform="translate(315.2025 190.932813) scale(0.1 -0.1)">
     <use xlink:href="#DejaVuSans-73"/>
     <use xlink:href="#DejaVuSans-77" x="52.099609"/>
     <use xlink:href="#DejaVuSans-69" x="133.886719"/>
     <use xlink:href="#DejaVuSans-74" x="161.669922"/>
     <use xlink:href="#DejaVuSans-63" x="200.878906"/>
     <use xlink:href="#DejaVuSans-68" x="255.859375"/>
    </g>
   </g>
  </g>
 </g>
 <defs>
  <clipPath id="p86cfd09605">
   <rect x="60.32" y="14.719972" width="213.2206" height="231.320028"/>
  </clipPath>
 </defs>
</svg>
