<?xml version="1.0" encoding="utf-8" standalone="no"?>
<!DOCTYPE svg PUBLIC "-//W3C//DTD SVG 1.1//EN"
  "http://www.w3.org/Graphics/SVG/1.1/DTD/svg11.dtd">
<svg xmlns:xlink="http://www.w3.org/1999/xlink" width="365.94pt" height="288pt" viewBox="0 0 365.94 288" xmlns="http://www.w3.org/2000/svg" version="1.1">
 <metadata>
  <rdf:RDF xmlns:dc="http://purl.org/dc/elements/1.1/" xmlns:cc="http://creativecommons.org/ns#" xmlns:rdf="http://www.w3.org/1999/02/22-rdf-syntax-ns#">
   <cc:Work>
    <dc:type rdf:resource="http://purl.org/dc/dcmitype/StillImage"/>
    <dc:date>2023-02-02T00:42:20.169173</dc:date>
    <dc:format>image/svg+xml</dc:format>
    <dc:creator>
     <cc:Agent>
      <dc:title>Matplotlib v3.6.2, https://matplotlib.org/</dc:title>
     </cc:Agent>
    </dc:creator>
   </cc:Work>
  </rdf:RDF>
 </metadata>
 <defs>
  <style type="text/css">*{stroke-linejoin: round; stroke-linecap: butt}</style>
 </defs>
 <g id="figure_1">
  <g id="patch_1">
   <path d="M 0 288 
L 365.94 288 
L 365.94 0 
L 0 0 
z
" style="fill: #ffffff"/>
  </g>
  <g id="axes_1">
   <g id="patch_2">
    <path d="M 62.39 246.04 
L 266.219612 246.04 
L 266.219612 10.8 
L 62.39 10.8 
z
" style="fill: #ffffff"/>
   </g>
   <g id="PathCollection_1">
    <path d="M 94.625214 168.968762 
C 95.95123 168.968762 97.223113 168.44193 98.160748 167.504296 
C 99.098382 166.566661 99.625214 165.294777 99.625214 163.968762 
C 99.625214 162.642746 99.098382 161.370862 98.160748 160.433228 
C 97.223113 159.495593 95.95123 158.968762 94.625214 158.968762 
C 93.299199 158.968762 92.027315 159.495593 91.08968 160.433228 
C 90.152046 161.370862 89.625214 162.642746 89.625214 163.968762 
C 89.625214 165.294777 90.152046 166.566661 91.08968 167.504296 
C 92.027315 168.44193 93.299199 168.968762 94.625214 168.968762 
z
" clip-path="url(#pbd295752f5)" style="fill: #1f77b4; stroke: #ffffff; stroke-width: 0.8"/>
    <path d="M 150.333703 166.675399 
C 151.659719 166.675399 152.931602 166.148568 153.869237 165.210933 
C 154.806872 164.273298 155.333703 163.001415 155.333703 161.675399 
C 155.333703 160.349384 154.806872 159.0775 153.869237 158.139865 
C 152.931602 157.202231 151.659719 156.675399 150.333703 156.675399 
C 149.007688 156.675399 147.735804 157.202231 146.798169 158.139865 
C 145.860535 159.0775 145.333703 160.349384 145.333703 161.675399 
C 145.333703 163.001415 145.860535 164.273298 146.798169 165.210933 
C 147.735804 166.148568 149.007688 166.675399 150.333703 166.675399 
z
" clip-path="url(#pbd295752f5)" style="fill: #ff7f0e; stroke: #ffffff; stroke-width: 0.8"/>
    <path d="M 156.948524 83.387955 
C 158.27454 83.387955 159.546423 82.861123 160.484058 81.923489 
C 161.421693 80.985854 161.948524 79.71397 161.948524 78.387955 
C 161.948524 77.061939 161.421693 75.790055 160.484058 74.852421 
C 159.546423 73.914786 158.27454 73.387955 156.948524 73.387955 
C 155.622509 73.387955 154.350625 73.914786 153.41299 74.852421 
C 152.475356 75.790055 151.948524 77.061939 151.948524 78.387955 
C 151.948524 79.71397 152.475356 80.985854 153.41299 81.923489 
C 154.350625 82.861123 155.622509 83.387955 156.948524 83.387955 
z
" clip-path="url(#pbd295752f5)" style="fill: #1f77b4; stroke: #ffffff; stroke-width: 0.8"/>
    <path d="M 177.466606 93.779447 
C 178.792621 93.779447 180.064505 93.252615 181.00214 92.314981 
C 181.939774 91.377346 182.466606 90.105462 182.466606 88.779447 
C 182.466606 87.453431 181.939774 86.181547 181.00214 85.243913 
C 180.064505 84.306278 178.792621 83.779447 177.466606 83.779447 
C 176.14059 83.779447 174.868707 84.306278 173.931072 85.243913 
C 172.993437 86.181547 172.466606 87.453431 172.466606 88.779447 
C 172.466606 90.105462 172.993437 91.377346 173.931072 92.314981 
C 174.868707 93.252615 176.14059 93.779447 177.466606 93.779447 
z
" clip-path="url(#pbd295752f5)" style="fill: #ff7f0e; stroke: #ffffff; stroke-width: 0.8"/>
    <path d="M 81.650039 177.846007 
L 84.150039 175.346007 
L 86.650039 177.846007 
L 89.150039 175.346007 
L 86.650039 172.846007 
L 89.150039 170.346007 
L 86.650039 167.846007 
L 84.150039 170.346007 
L 81.650039 167.846007 
L 79.150039 170.346007 
L 81.650039 172.846007 
L 79.150039 175.346007 
z
" clip-path="url(#pbd295752f5)" style="fill: #1f77b4; stroke: #ffffff; stroke-width: 0.8"/>
    <path d="M 121.290958 179.484426 
L 123.790958 176.984426 
L 126.290958 179.484426 
L 128.790958 176.984426 
L 126.290958 174.484426 
L 128.790958 171.984426 
L 126.290958 169.484426 
L 123.790958 171.984426 
L 121.290958 169.484426 
L 118.790958 171.984426 
L 121.290958 174.484426 
L 118.790958 176.984426 
z
" clip-path="url(#pbd295752f5)" style="fill: #ff7f0e; stroke: #ffffff; stroke-width: 0.8"/>
    <path d="M 193.925141 108.955821 
L 196.425141 106.455821 
L 198.925141 108.955821 
L 201.425141 106.455821 
L 198.925141 103.955821 
L 201.425141 101.455821 
L 198.925141 98.955821 
L 196.425141 101.455821 
L 193.925141 98.955821 
L 191.425141 101.455821 
L 193.925141 103.955821 
L 191.425141 106.455821 
z
" clip-path="url(#pbd295752f5)" style="fill: #1f77b4; stroke: #ffffff; stroke-width: 0.8"/>
    <path d="M 239.961002 102.431588 
L 242.461002 99.931588 
L 244.961002 102.431588 
L 247.461002 99.931588 
L 244.961002 97.431588 
L 247.461002 94.931588 
L 244.961002 92.431588 
L 242.461002 94.931588 
L 239.961002 92.431588 
L 237.461002 94.931588 
L 239.961002 97.431588 
L 237.461002 99.931588 
z
" clip-path="url(#pbd295752f5)" style="fill: #ff7f0e; stroke: #ffffff; stroke-width: 0.8"/>
    <path d="M 68.119448 180.61486 
L 68.119448 187.685928 
L 75.190516 187.685928 
L 75.190516 180.61486 
z
" clip-path="url(#pbd295752f5)" style="fill: #1f77b4; stroke: #ffffff; stroke-width: 0.8"/>
    <path d="M 136.997273 172.992497 
L 136.997273 180.063565 
L 144.068341 180.063565 
L 144.068341 172.992497 
z
" clip-path="url(#pbd295752f5)" style="fill: #ff7f0e; stroke: #ffffff; stroke-width: 0.8"/>
    <path d="M 211.303836 68.156632 
L 211.303836 75.2277 
L 218.374904 75.2277 
L 218.374904 68.156632 
z
" clip-path="url(#pbd295752f5)" style="fill: #1f77b4; stroke: #ffffff; stroke-width: 0.8"/>
    <path d="M 253.419095 73.785432 
L 253.419095 80.8565 
L 260.490163 80.8565 
L 260.490163 73.785432 
z
" clip-path="url(#pbd295752f5)" style="fill: #ff7f0e; stroke: #ffffff; stroke-width: 0.8"/>
   </g>
   <g id="PathCollection_2"/>
   <g id="PathCollection_3"/>
   <g id="PathCollection_4"/>
   <g id="PathCollection_5"/>
   <g id="PathCollection_6"/>
   <g id="PathCollection_7">
    <defs>
     <path id="m90d14bd2a8" d="M 0 0 
C 0 0 0 0 0 0 
C 0 0 0 0 0 0 
C 0 0 0 0 0 0 
C 0 0 0 0 0 0 
C 0 0 0 0 0 0 
C 0 0 0 0 0 0 
C 0 0 0 0 0 0 
C 0 0 0 0 0 0 
z
" style="stroke: #1f77b4; stroke-opacity: 0.8"/>
    </defs>
    <g clip-path="url(#pbd295752f5)">
     <use xlink:href="#m90d14bd2a8" x="94.625214" y="163.968762" style="fill: #1f77b4; fill-opacity: 0.8; stroke: #1f77b4; stroke-opacity: 0.8"/>
     <use xlink:href="#m90d14bd2a8" x="150.333703" y="161.675399" style="fill: #1f77b4; fill-opacity: 0.8; stroke: #1f77b4; stroke-opacity: 0.8"/>
     <use xlink:href="#m90d14bd2a8" x="156.948524" y="78.387955" style="fill: #1f77b4; fill-opacity: 0.8; stroke: #1f77b4; stroke-opacity: 0.8"/>
     <use xlink:href="#m90d14bd2a8" x="177.466606" y="88.779447" style="fill: #1f77b4; fill-opacity: 0.8; stroke: #1f77b4; stroke-opacity: 0.8"/>
     <use xlink:href="#m90d14bd2a8" x="84.150039" y="172.846007" style="fill: #1f77b4; fill-opacity: 0.8; stroke: #1f77b4; stroke-opacity: 0.8"/>
     <use xlink:href="#m90d14bd2a8" x="123.790958" y="174.484426" style="fill: #1f77b4; fill-opacity: 0.8; stroke: #1f77b4; stroke-opacity: 0.8"/>
     <use xlink:href="#m90d14bd2a8" x="196.425141" y="103.955821" style="fill: #1f77b4; fill-opacity: 0.8; stroke: #1f77b4; stroke-opacity: 0.8"/>
     <use xlink:href="#m90d14bd2a8" x="242.461002" y="97.431588" style="fill: #1f77b4; fill-opacity: 0.8; stroke: #1f77b4; stroke-opacity: 0.8"/>
     <use xlink:href="#m90d14bd2a8" x="71.654982" y="184.150394" style="fill: #1f77b4; fill-opacity: 0.8; stroke: #1f77b4; stroke-opacity: 0.8"/>
     <use xlink:href="#m90d14bd2a8" x="140.532807" y="176.528031" style="fill: #1f77b4; fill-opacity: 0.8; stroke: #1f77b4; stroke-opacity: 0.8"/>
     <use xlink:href="#m90d14bd2a8" x="214.83937" y="71.692166" style="fill: #1f77b4; fill-opacity: 0.8; stroke: #1f77b4; stroke-opacity: 0.8"/>
     <use xlink:href="#m90d14bd2a8" x="256.954629" y="77.320966" style="fill: #1f77b4; fill-opacity: 0.8; stroke: #1f77b4; stroke-opacity: 0.8"/>
    </g>
   </g>
   <g id="PolyCollection_1">
    <path d="M 71.654982 162.611398 
L 71.654982 207.511446 
L 73.526696 205.897098 
L 75.39841 204.276374 
L 77.270123 202.65239 
L 79.141837 201.365866 
L 81.01355 199.762414 
L 82.885264 198.015223 
L 84.756978 196.399058 
L 86.628691 195.03252 
L 88.500405 193.780207 
L 90.372118 192.313934 
L 92.243832 190.779513 
L 94.115546 189.324568 
L 95.987259 187.786199 
L 97.858973 186.321062 
L 99.730686 184.586741 
L 101.6024 183.386226 
L 103.474114 181.952428 
L 105.345827 180.195719 
L 107.217541 178.782389 
L 109.089254 177.551496 
L 110.960968 176.33201 
L 112.832682 175.112197 
L 114.704395 173.703105 
L 116.576109 172.233279 
L 118.447822 170.674257 
L 120.319536 169.167444 
L 122.19125 167.860827 
L 124.062963 166.550468 
L 125.934677 165.246558 
L 127.80639 164.02518 
L 129.678104 162.663862 
L 131.549818 161.348741 
L 133.421531 160.016815 
L 135.293245 158.782442 
L 137.164959 157.567559 
L 139.036672 156.316437 
L 140.908386 155.048592 
L 142.780099 153.78063 
L 144.651813 152.640969 
L 146.523527 151.500796 
L 148.39524 150.243455 
L 150.266954 148.742891 
L 152.138667 147.435077 
L 154.010381 146.214221 
L 155.882095 145.098356 
L 157.753808 143.980157 
L 159.625522 142.832172 
L 161.497235 141.71728 
L 163.368949 140.579486 
L 165.240663 139.368393 
L 167.112376 138.151882 
L 168.98409 136.939627 
L 170.855803 135.727371 
L 172.727517 134.562106 
L 174.599231 133.476511 
L 176.470944 132.352675 
L 178.342658 131.223417 
L 180.214371 130.15598 
L 182.086085 129.088543 
L 183.957799 128.021105 
L 185.829512 126.953668 
L 187.701226 125.886231 
L 189.572939 124.820791 
L 191.444653 123.75483 
L 193.316367 122.686541 
L 195.18808 121.563424 
L 197.059794 120.440076 
L 198.931507 119.25828 
L 200.803221 118.178524 
L 202.674935 117.078759 
L 204.546648 116.022143 
L 206.418362 114.921466 
L 208.290076 113.546514 
L 210.161789 112.552925 
L 212.033503 111.559335 
L 213.905216 110.450425 
L 215.77693 109.211517 
L 217.648644 107.967943 
L 219.520357 106.757538 
L 221.392071 105.752814 
L 223.263784 104.745631 
L 225.135498 103.737446 
L 227.007212 102.629488 
L 228.878925 101.543255 
L 230.750639 100.521604 
L 232.622352 99.499335 
L 234.494066 98.472931 
L 236.36578 97.387605 
L 238.237493 96.421255 
L 240.109207 95.4074 
L 241.98092 94.267493 
L 243.852634 93.058346 
L 245.724348 92.009411 
L 247.596061 90.959952 
L 249.467775 89.910493 
L 251.339488 88.861033 
L 253.211202 87.811574 
L 255.082916 86.762115 
L 256.954629 85.79907 
L 256.954629 35.24362 
L 256.954629 35.24362 
L 255.082916 36.855435 
L 253.211202 38.46725 
L 251.339488 40.079064 
L 249.467775 41.690879 
L 247.596061 43.237418 
L 245.724348 44.729794 
L 243.852634 46.241268 
L 241.98092 47.961052 
L 240.109207 49.680835 
L 238.237493 51.361768 
L 236.36578 52.973582 
L 234.494066 54.585397 
L 232.622352 56.197212 
L 230.750639 57.809027 
L 228.878925 59.420841 
L 227.007212 61.032656 
L 225.135498 62.644471 
L 223.263784 64.256285 
L 221.392071 65.8681 
L 219.520357 67.479915 
L 217.648644 69.09173 
L 215.77693 70.703544 
L 213.905216 72.055691 
L 212.033503 73.239672 
L 210.161789 74.423653 
L 208.290076 75.89558 
L 206.418362 77.629136 
L 204.546648 79.361495 
L 202.674935 80.666684 
L 200.803221 82.461403 
L 198.931507 83.578864 
L 197.059794 85.199334 
L 195.18808 86.53016 
L 193.316367 88.030779 
L 191.444653 89.379983 
L 189.572939 90.727309 
L 187.701226 92.076327 
L 185.829512 93.427762 
L 183.957799 94.774363 
L 182.086085 96.123382 
L 180.214371 97.409911 
L 178.342658 98.821418 
L 176.470944 100.214377 
L 174.599231 101.649251 
L 172.727517 103.013299 
L 170.855803 104.251886 
L 168.98409 105.567514 
L 167.112376 107.059633 
L 165.240663 108.62022 
L 163.368949 110.006072 
L 161.497235 111.493214 
L 159.625522 112.964126 
L 157.753808 113.839542 
L 155.882095 115.009634 
L 154.010381 116.358652 
L 152.138667 117.365375 
L 150.266954 118.323385 
L 148.39524 119.297549 
L 146.523527 120.56164 
L 144.651813 122.281683 
L 142.780099 123.360967 
L 140.908386 124.325369 
L 139.036672 125.171935 
L 137.164959 126.870968 
L 135.293245 128.008885 
L 133.421531 129.183898 
L 131.549818 130.255466 
L 129.678104 131.327373 
L 127.80639 132.399279 
L 125.934677 133.354351 
L 124.062963 134.546097 
L 122.19125 135.639695 
L 120.319536 136.842017 
L 118.447822 137.791914 
L 116.576109 138.835456 
L 114.704395 139.881907 
L 112.832682 140.955115 
L 110.960968 142.046706 
L 109.089254 143.118344 
L 107.217541 143.912694 
L 105.345827 144.909834 
L 103.474114 145.963758 
L 101.6024 147.020918 
L 99.730686 148.078533 
L 97.858973 149.136148 
L 95.987259 150.193764 
L 94.115546 151.241503 
L 92.243832 152.16204 
L 90.372118 153.082577 
L 88.500405 154.003114 
L 86.628691 154.923651 
L 84.756978 155.844189 
L 82.885264 156.764726 
L 81.01355 157.685263 
L 79.141837 158.607472 
L 77.270123 159.530458 
L 75.39841 160.453444 
L 73.526696 161.513626 
L 71.654982 162.611398 
z
" clip-path="url(#pbd295752f5)" style="fill: #808080; fill-opacity: 0.15"/>
   </g>
   <g id="matplotlib.axis_1">
    <g id="xtick_1">
     <g id="line2d_1">
      <defs>
       <path id="m04820e4449" d="M 0 0 
L 0 3.5 
" style="stroke: #000000; stroke-width: 0.8"/>
      </defs>
      <g>
       <use xlink:href="#m04820e4449" x="106.765424" y="246.04" style="stroke: #000000; stroke-width: 0.8"/>
      </g>
     </g>
     <g id="text_1">
      <!-- 0.04 -->
      <g transform="translate(95.632612 260.638438) scale(0.1 -0.1)">
       <defs>
        <path id="DejaVuSans-30" d="M 2034 4250 
Q 1547 4250 1301 3770 
Q 1056 3291 1056 2328 
Q 1056 1369 1301 889 
Q 1547 409 2034 409 
Q 2525 409 2770 889 
Q 3016 1369 3016 2328 
Q 3016 3291 2770 3770 
Q 2525 4250 2034 4250 
z
M 2034 4750 
Q 2819 4750 3233 4129 
Q 3647 3509 3647 2328 
Q 3647 1150 3233 529 
Q 2819 -91 2034 -91 
Q 1250 -91 836 529 
Q 422 1150 422 2328 
Q 422 3509 836 4129 
Q 1250 4750 2034 4750 
z
" transform="scale(0.015625)"/>
        <path id="DejaVuSans-2e" d="M 684 794 
L 1344 794 
L 1344 0 
L 684 0 
L 684 794 
z
" transform="scale(0.015625)"/>
        <path id="DejaVuSans-34" d="M 2419 4116 
L 825 1625 
L 2419 1625 
L 2419 4116 
z
M 2253 4666 
L 3047 4666 
L 3047 1625 
L 3713 1625 
L 3713 1100 
L 3047 1100 
L 3047 0 
L 2419 0 
L 2419 1100 
L 313 1100 
L 313 1709 
L 2253 4666 
z
" transform="scale(0.015625)"/>
       </defs>
       <use xlink:href="#DejaVuSans-30"/>
       <use xlink:href="#DejaVuSans-2e" x="63.623047"/>
       <use xlink:href="#DejaVuSans-30" x="95.410156"/>
       <use xlink:href="#DejaVuSans-34" x="159.033203"/>
      </g>
     </g>
    </g>
    <g id="xtick_2">
     <g id="line2d_2">
      <g>
       <use xlink:href="#m04820e4449" x="158.716785" y="246.04" style="stroke: #000000; stroke-width: 0.8"/>
      </g>
     </g>
     <g id="text_2">
      <!-- 0.06 -->
      <g transform="translate(147.583973 260.638438) scale(0.1 -0.1)">
       <defs>
        <path id="DejaVuSans-36" d="M 2113 2584 
Q 1688 2584 1439 2293 
Q 1191 2003 1191 1497 
Q 1191 994 1439 701 
Q 1688 409 2113 409 
Q 2538 409 2786 701 
Q 3034 994 3034 1497 
Q 3034 2003 2786 2293 
Q 2538 2584 2113 2584 
z
M 3366 4563 
L 3366 3988 
Q 3128 4100 2886 4159 
Q 2644 4219 2406 4219 
Q 1781 4219 1451 3797 
Q 1122 3375 1075 2522 
Q 1259 2794 1537 2939 
Q 1816 3084 2150 3084 
Q 2853 3084 3261 2657 
Q 3669 2231 3669 1497 
Q 3669 778 3244 343 
Q 2819 -91 2113 -91 
Q 1303 -91 875 529 
Q 447 1150 447 2328 
Q 447 3434 972 4092 
Q 1497 4750 2381 4750 
Q 2619 4750 2861 4703 
Q 3103 4656 3366 4563 
z
" transform="scale(0.015625)"/>
       </defs>
       <use xlink:href="#DejaVuSans-30"/>
       <use xlink:href="#DejaVuSans-2e" x="63.623047"/>
       <use xlink:href="#DejaVuSans-30" x="95.410156"/>
       <use xlink:href="#DejaVuSans-36" x="159.033203"/>
      </g>
     </g>
    </g>
    <g id="xtick_3">
     <g id="line2d_3">
      <g>
       <use xlink:href="#m04820e4449" x="210.668146" y="246.04" style="stroke: #000000; stroke-width: 0.8"/>
      </g>
     </g>
     <g id="text_3">
      <!-- 0.08 -->
      <g transform="translate(199.535334 260.638438) scale(0.1 -0.1)">
       <defs>
        <path id="DejaVuSans-38" d="M 2034 2216 
Q 1584 2216 1326 1975 
Q 1069 1734 1069 1313 
Q 1069 891 1326 650 
Q 1584 409 2034 409 
Q 2484 409 2743 651 
Q 3003 894 3003 1313 
Q 3003 1734 2745 1975 
Q 2488 2216 2034 2216 
z
M 1403 2484 
Q 997 2584 770 2862 
Q 544 3141 544 3541 
Q 544 4100 942 4425 
Q 1341 4750 2034 4750 
Q 2731 4750 3128 4425 
Q 3525 4100 3525 3541 
Q 3525 3141 3298 2862 
Q 3072 2584 2669 2484 
Q 3125 2378 3379 2068 
Q 3634 1759 3634 1313 
Q 3634 634 3220 271 
Q 2806 -91 2034 -91 
Q 1263 -91 848 271 
Q 434 634 434 1313 
Q 434 1759 690 2068 
Q 947 2378 1403 2484 
z
M 1172 3481 
Q 1172 3119 1398 2916 
Q 1625 2713 2034 2713 
Q 2441 2713 2670 2916 
Q 2900 3119 2900 3481 
Q 2900 3844 2670 4047 
Q 2441 4250 2034 4250 
Q 1625 4250 1398 4047 
Q 1172 3844 1172 3481 
z
" transform="scale(0.015625)"/>
       </defs>
       <use xlink:href="#DejaVuSans-30"/>
       <use xlink:href="#DejaVuSans-2e" x="63.623047"/>
       <use xlink:href="#DejaVuSans-30" x="95.410156"/>
       <use xlink:href="#DejaVuSans-38" x="159.033203"/>
      </g>
     </g>
    </g>
    <g id="xtick_4">
     <g id="line2d_4">
      <g>
       <use xlink:href="#m04820e4449" x="262.619507" y="246.04" style="stroke: #000000; stroke-width: 0.8"/>
      </g>
     </g>
     <g id="text_4">
      <!-- 0.10 -->
      <g transform="translate(251.486695 260.638438) scale(0.1 -0.1)">
       <defs>
        <path id="DejaVuSans-31" d="M 794 531 
L 1825 531 
L 1825 4091 
L 703 3866 
L 703 4441 
L 1819 4666 
L 2450 4666 
L 2450 531 
L 3481 531 
L 3481 0 
L 794 0 
L 794 531 
z
" transform="scale(0.015625)"/>
       </defs>
       <use xlink:href="#DejaVuSans-30"/>
       <use xlink:href="#DejaVuSans-2e" x="63.623047"/>
       <use xlink:href="#DejaVuSans-31" x="95.410156"/>
       <use xlink:href="#DejaVuSans-30" x="159.033203"/>
      </g>
     </g>
    </g>
    <g id="text_5">
     <!-- Cortical Activation (a.u.) -->
     <g transform="translate(103.624337 274.316562) scale(0.1 -0.1)">
      <defs>
       <path id="DejaVuSans-43" d="M 4122 4306 
L 4122 3641 
Q 3803 3938 3442 4084 
Q 3081 4231 2675 4231 
Q 1875 4231 1450 3742 
Q 1025 3253 1025 2328 
Q 1025 1406 1450 917 
Q 1875 428 2675 428 
Q 3081 428 3442 575 
Q 3803 722 4122 1019 
L 4122 359 
Q 3791 134 3420 21 
Q 3050 -91 2638 -91 
Q 1578 -91 968 557 
Q 359 1206 359 2328 
Q 359 3453 968 4101 
Q 1578 4750 2638 4750 
Q 3056 4750 3426 4639 
Q 3797 4528 4122 4306 
z
" transform="scale(0.015625)"/>
       <path id="DejaVuSans-6f" d="M 1959 3097 
Q 1497 3097 1228 2736 
Q 959 2375 959 1747 
Q 959 1119 1226 758 
Q 1494 397 1959 397 
Q 2419 397 2687 759 
Q 2956 1122 2956 1747 
Q 2956 2369 2687 2733 
Q 2419 3097 1959 3097 
z
M 1959 3584 
Q 2709 3584 3137 3096 
Q 3566 2609 3566 1747 
Q 3566 888 3137 398 
Q 2709 -91 1959 -91 
Q 1206 -91 779 398 
Q 353 888 353 1747 
Q 353 2609 779 3096 
Q 1206 3584 1959 3584 
z
" transform="scale(0.015625)"/>
       <path id="DejaVuSans-72" d="M 2631 2963 
Q 2534 3019 2420 3045 
Q 2306 3072 2169 3072 
Q 1681 3072 1420 2755 
Q 1159 2438 1159 1844 
L 1159 0 
L 581 0 
L 581 3500 
L 1159 3500 
L 1159 2956 
Q 1341 3275 1631 3429 
Q 1922 3584 2338 3584 
Q 2397 3584 2469 3576 
Q 2541 3569 2628 3553 
L 2631 2963 
z
" transform="scale(0.015625)"/>
       <path id="DejaVuSans-74" d="M 1172 4494 
L 1172 3500 
L 2356 3500 
L 2356 3053 
L 1172 3053 
L 1172 1153 
Q 1172 725 1289 603 
Q 1406 481 1766 481 
L 2356 481 
L 2356 0 
L 1766 0 
Q 1100 0 847 248 
Q 594 497 594 1153 
L 594 3053 
L 172 3053 
L 172 3500 
L 594 3500 
L 594 4494 
L 1172 4494 
z
" transform="scale(0.015625)"/>
       <path id="DejaVuSans-69" d="M 603 3500 
L 1178 3500 
L 1178 0 
L 603 0 
L 603 3500 
z
M 603 4863 
L 1178 4863 
L 1178 4134 
L 603 4134 
L 603 4863 
z
" transform="scale(0.015625)"/>
       <path id="DejaVuSans-63" d="M 3122 3366 
L 3122 2828 
Q 2878 2963 2633 3030 
Q 2388 3097 2138 3097 
Q 1578 3097 1268 2742 
Q 959 2388 959 1747 
Q 959 1106 1268 751 
Q 1578 397 2138 397 
Q 2388 397 2633 464 
Q 2878 531 3122 666 
L 3122 134 
Q 2881 22 2623 -34 
Q 2366 -91 2075 -91 
Q 1284 -91 818 406 
Q 353 903 353 1747 
Q 353 2603 823 3093 
Q 1294 3584 2113 3584 
Q 2378 3584 2631 3529 
Q 2884 3475 3122 3366 
z
" transform="scale(0.015625)"/>
       <path id="DejaVuSans-61" d="M 2194 1759 
Q 1497 1759 1228 1600 
Q 959 1441 959 1056 
Q 959 750 1161 570 
Q 1363 391 1709 391 
Q 2188 391 2477 730 
Q 2766 1069 2766 1631 
L 2766 1759 
L 2194 1759 
z
M 3341 1997 
L 3341 0 
L 2766 0 
L 2766 531 
Q 2569 213 2275 61 
Q 1981 -91 1556 -91 
Q 1019 -91 701 211 
Q 384 513 384 1019 
Q 384 1609 779 1909 
Q 1175 2209 1959 2209 
L 2766 2209 
L 2766 2266 
Q 2766 2663 2505 2880 
Q 2244 3097 1772 3097 
Q 1472 3097 1187 3025 
Q 903 2953 641 2809 
L 641 3341 
Q 956 3463 1253 3523 
Q 1550 3584 1831 3584 
Q 2591 3584 2966 3190 
Q 3341 2797 3341 1997 
z
" transform="scale(0.015625)"/>
       <path id="DejaVuSans-6c" d="M 603 4863 
L 1178 4863 
L 1178 0 
L 603 0 
L 603 4863 
z
" transform="scale(0.015625)"/>
       <path id="DejaVuSans-20" transform="scale(0.015625)"/>
       <path id="DejaVuSans-41" d="M 2188 4044 
L 1331 1722 
L 3047 1722 
L 2188 4044 
z
M 1831 4666 
L 2547 4666 
L 4325 0 
L 3669 0 
L 3244 1197 
L 1141 1197 
L 716 0 
L 50 0 
L 1831 4666 
z
" transform="scale(0.015625)"/>
       <path id="DejaVuSans-76" d="M 191 3500 
L 800 3500 
L 1894 563 
L 2988 3500 
L 3597 3500 
L 2284 0 
L 1503 0 
L 191 3500 
z
" transform="scale(0.015625)"/>
       <path id="DejaVuSans-6e" d="M 3513 2113 
L 3513 0 
L 2938 0 
L 2938 2094 
Q 2938 2591 2744 2837 
Q 2550 3084 2163 3084 
Q 1697 3084 1428 2787 
Q 1159 2491 1159 1978 
L 1159 0 
L 581 0 
L 581 3500 
L 1159 3500 
L 1159 2956 
Q 1366 3272 1645 3428 
Q 1925 3584 2291 3584 
Q 2894 3584 3203 3211 
Q 3513 2838 3513 2113 
z
" transform="scale(0.015625)"/>
       <path id="DejaVuSans-28" d="M 1984 4856 
Q 1566 4138 1362 3434 
Q 1159 2731 1159 2009 
Q 1159 1288 1364 580 
Q 1569 -128 1984 -844 
L 1484 -844 
Q 1016 -109 783 600 
Q 550 1309 550 2009 
Q 550 2706 781 3412 
Q 1013 4119 1484 4856 
L 1984 4856 
z
" transform="scale(0.015625)"/>
       <path id="DejaVuSans-75" d="M 544 1381 
L 544 3500 
L 1119 3500 
L 1119 1403 
Q 1119 906 1312 657 
Q 1506 409 1894 409 
Q 2359 409 2629 706 
Q 2900 1003 2900 1516 
L 2900 3500 
L 3475 3500 
L 3475 0 
L 2900 0 
L 2900 538 
Q 2691 219 2414 64 
Q 2138 -91 1772 -91 
Q 1169 -91 856 284 
Q 544 659 544 1381 
z
M 1991 3584 
L 1991 3584 
z
" transform="scale(0.015625)"/>
       <path id="DejaVuSans-29" d="M 513 4856 
L 1013 4856 
Q 1481 4119 1714 3412 
Q 1947 2706 1947 2009 
Q 1947 1309 1714 600 
Q 1481 -109 1013 -844 
L 513 -844 
Q 928 -128 1133 580 
Q 1338 1288 1338 2009 
Q 1338 2731 1133 3434 
Q 928 4138 513 4856 
z
" transform="scale(0.015625)"/>
      </defs>
      <use xlink:href="#DejaVuSans-43"/>
      <use xlink:href="#DejaVuSans-6f" x="69.824219"/>
      <use xlink:href="#DejaVuSans-72" x="131.005859"/>
      <use xlink:href="#DejaVuSans-74" x="172.119141"/>
      <use xlink:href="#DejaVuSans-69" x="211.328125"/>
      <use xlink:href="#DejaVuSans-63" x="239.111328"/>
      <use xlink:href="#DejaVuSans-61" x="294.091797"/>
      <use xlink:href="#DejaVuSans-6c" x="355.371094"/>
      <use xlink:href="#DejaVuSans-20" x="383.154297"/>
      <use xlink:href="#DejaVuSans-41" x="414.941406"/>
      <use xlink:href="#DejaVuSans-63" x="481.599609"/>
      <use xlink:href="#DejaVuSans-74" x="536.580078"/>
      <use xlink:href="#DejaVuSans-69" x="575.789062"/>
      <use xlink:href="#DejaVuSans-76" x="603.572266"/>
      <use xlink:href="#DejaVuSans-61" x="662.751953"/>
      <use xlink:href="#DejaVuSans-74" x="724.03125"/>
      <use xlink:href="#DejaVuSans-69" x="763.240234"/>
      <use xlink:href="#DejaVuSans-6f" x="791.023438"/>
      <use xlink:href="#DejaVuSans-6e" x="852.205078"/>
      <use xlink:href="#DejaVuSans-20" x="915.583984"/>
      <use xlink:href="#DejaVuSans-28" x="947.371094"/>
      <use xlink:href="#DejaVuSans-61" x="986.384766"/>
      <use xlink:href="#DejaVuSans-2e" x="1047.664062"/>
      <use xlink:href="#DejaVuSans-75" x="1079.451172"/>
      <use xlink:href="#DejaVuSans-2e" x="1142.830078"/>
      <use xlink:href="#DejaVuSans-29" x="1174.617188"/>
     </g>
    </g>
   </g>
   <g id="matplotlib.axis_2">
    <g id="ytick_1">
     <g id="line2d_5">
      <defs>
       <path id="m42b66eeb5b" d="M 0 0 
L -3.5 0 
" style="stroke: #000000; stroke-width: 0.8"/>
      </defs>
      <g>
       <use xlink:href="#m42b66eeb5b" x="62.39" y="221.1078" style="stroke: #000000; stroke-width: 0.8"/>
      </g>
     </g>
     <g id="text_6">
      <!-- −0.01 -->
      <g transform="translate(24.744688 224.907019) scale(0.1 -0.1)">
       <defs>
        <path id="DejaVuSans-2212" d="M 678 2272 
L 4684 2272 
L 4684 1741 
L 678 1741 
L 678 2272 
z
" transform="scale(0.015625)"/>
       </defs>
       <use xlink:href="#DejaVuSans-2212"/>
       <use xlink:href="#DejaVuSans-30" x="83.789062"/>
       <use xlink:href="#DejaVuSans-2e" x="147.412109"/>
       <use xlink:href="#DejaVuSans-30" x="179.199219"/>
       <use xlink:href="#DejaVuSans-31" x="242.822266"/>
      </g>
     </g>
    </g>
    <g id="ytick_2">
     <g id="line2d_6">
      <g>
       <use xlink:href="#m42b66eeb5b" x="62.39" y="194.00157" style="stroke: #000000; stroke-width: 0.8"/>
      </g>
     </g>
     <g id="text_7">
      <!-- 0.00 -->
      <g transform="translate(33.124375 197.800789) scale(0.1 -0.1)">
       <use xlink:href="#DejaVuSans-30"/>
       <use xlink:href="#DejaVuSans-2e" x="63.623047"/>
       <use xlink:href="#DejaVuSans-30" x="95.410156"/>
       <use xlink:href="#DejaVuSans-30" x="159.033203"/>
      </g>
     </g>
    </g>
    <g id="ytick_3">
     <g id="line2d_7">
      <g>
       <use xlink:href="#m42b66eeb5b" x="62.39" y="166.89534" style="stroke: #000000; stroke-width: 0.8"/>
      </g>
     </g>
     <g id="text_8">
      <!-- 0.01 -->
      <g transform="translate(33.124375 170.694558) scale(0.1 -0.1)">
       <use xlink:href="#DejaVuSans-30"/>
       <use xlink:href="#DejaVuSans-2e" x="63.623047"/>
       <use xlink:href="#DejaVuSans-30" x="95.410156"/>
       <use xlink:href="#DejaVuSans-31" x="159.033203"/>
      </g>
     </g>
    </g>
    <g id="ytick_4">
     <g id="line2d_8">
      <g>
       <use xlink:href="#m42b66eeb5b" x="62.39" y="139.789109" style="stroke: #000000; stroke-width: 0.8"/>
      </g>
     </g>
     <g id="text_9">
      <!-- 0.02 -->
      <g transform="translate(33.124375 143.588328) scale(0.1 -0.1)">
       <defs>
        <path id="DejaVuSans-32" d="M 1228 531 
L 3431 531 
L 3431 0 
L 469 0 
L 469 531 
Q 828 903 1448 1529 
Q 2069 2156 2228 2338 
Q 2531 2678 2651 2914 
Q 2772 3150 2772 3378 
Q 2772 3750 2511 3984 
Q 2250 4219 1831 4219 
Q 1534 4219 1204 4116 
Q 875 4013 500 3803 
L 500 4441 
Q 881 4594 1212 4672 
Q 1544 4750 1819 4750 
Q 2544 4750 2975 4387 
Q 3406 4025 3406 3419 
Q 3406 3131 3298 2873 
Q 3191 2616 2906 2266 
Q 2828 2175 2409 1742 
Q 1991 1309 1228 531 
z
" transform="scale(0.015625)"/>
       </defs>
       <use xlink:href="#DejaVuSans-30"/>
       <use xlink:href="#DejaVuSans-2e" x="63.623047"/>
       <use xlink:href="#DejaVuSans-30" x="95.410156"/>
       <use xlink:href="#DejaVuSans-32" x="159.033203"/>
      </g>
     </g>
    </g>
    <g id="ytick_5">
     <g id="line2d_9">
      <g>
       <use xlink:href="#m42b66eeb5b" x="62.39" y="112.682879" style="stroke: #000000; stroke-width: 0.8"/>
      </g>
     </g>
     <g id="text_10">
      <!-- 0.03 -->
      <g transform="translate(33.124375 116.482098) scale(0.1 -0.1)">
       <defs>
        <path id="DejaVuSans-33" d="M 2597 2516 
Q 3050 2419 3304 2112 
Q 3559 1806 3559 1356 
Q 3559 666 3084 287 
Q 2609 -91 1734 -91 
Q 1441 -91 1130 -33 
Q 819 25 488 141 
L 488 750 
Q 750 597 1062 519 
Q 1375 441 1716 441 
Q 2309 441 2620 675 
Q 2931 909 2931 1356 
Q 2931 1769 2642 2001 
Q 2353 2234 1838 2234 
L 1294 2234 
L 1294 2753 
L 1863 2753 
Q 2328 2753 2575 2939 
Q 2822 3125 2822 3475 
Q 2822 3834 2567 4026 
Q 2313 4219 1838 4219 
Q 1578 4219 1281 4162 
Q 984 4106 628 3988 
L 628 4550 
Q 988 4650 1302 4700 
Q 1616 4750 1894 4750 
Q 2613 4750 3031 4423 
Q 3450 4097 3450 3541 
Q 3450 3153 3228 2886 
Q 3006 2619 2597 2516 
z
" transform="scale(0.015625)"/>
       </defs>
       <use xlink:href="#DejaVuSans-30"/>
       <use xlink:href="#DejaVuSans-2e" x="63.623047"/>
       <use xlink:href="#DejaVuSans-30" x="95.410156"/>
       <use xlink:href="#DejaVuSans-33" x="159.033203"/>
      </g>
     </g>
    </g>
    <g id="ytick_6">
     <g id="line2d_10">
      <g>
       <use xlink:href="#m42b66eeb5b" x="62.39" y="85.576649" style="stroke: #000000; stroke-width: 0.8"/>
      </g>
     </g>
     <g id="text_11">
      <!-- 0.04 -->
      <g transform="translate(33.124375 89.375867) scale(0.1 -0.1)">
       <use xlink:href="#DejaVuSans-30"/>
       <use xlink:href="#DejaVuSans-2e" x="63.623047"/>
       <use xlink:href="#DejaVuSans-30" x="95.410156"/>
       <use xlink:href="#DejaVuSans-34" x="159.033203"/>
      </g>
     </g>
    </g>
    <g id="ytick_7">
     <g id="line2d_11">
      <g>
       <use xlink:href="#m42b66eeb5b" x="62.39" y="58.470418" style="stroke: #000000; stroke-width: 0.8"/>
      </g>
     </g>
     <g id="text_12">
      <!-- 0.05 -->
      <g transform="translate(33.124375 62.269637) scale(0.1 -0.1)">
       <defs>
        <path id="DejaVuSans-35" d="M 691 4666 
L 3169 4666 
L 3169 4134 
L 1269 4134 
L 1269 2991 
Q 1406 3038 1543 3061 
Q 1681 3084 1819 3084 
Q 2600 3084 3056 2656 
Q 3513 2228 3513 1497 
Q 3513 744 3044 326 
Q 2575 -91 1722 -91 
Q 1428 -91 1123 -41 
Q 819 9 494 109 
L 494 744 
Q 775 591 1075 516 
Q 1375 441 1709 441 
Q 2250 441 2565 725 
Q 2881 1009 2881 1497 
Q 2881 1984 2565 2268 
Q 2250 2553 1709 2553 
Q 1456 2553 1204 2497 
Q 953 2441 691 2322 
L 691 4666 
z
" transform="scale(0.015625)"/>
       </defs>
       <use xlink:href="#DejaVuSans-30"/>
       <use xlink:href="#DejaVuSans-2e" x="63.623047"/>
       <use xlink:href="#DejaVuSans-30" x="95.410156"/>
       <use xlink:href="#DejaVuSans-35" x="159.033203"/>
      </g>
     </g>
    </g>
    <g id="ytick_8">
     <g id="line2d_12">
      <g>
       <use xlink:href="#m42b66eeb5b" x="62.39" y="31.364188" style="stroke: #000000; stroke-width: 0.8"/>
      </g>
     </g>
     <g id="text_13">
      <!-- 0.06 -->
      <g transform="translate(33.124375 35.163407) scale(0.1 -0.1)">
       <use xlink:href="#DejaVuSans-30"/>
       <use xlink:href="#DejaVuSans-2e" x="63.623047"/>
       <use xlink:href="#DejaVuSans-30" x="95.410156"/>
       <use xlink:href="#DejaVuSans-36" x="159.033203"/>
      </g>
     </g>
    </g>
    <g id="text_14">
     <!-- Cerebellar Activation (a.u.) -->
     <g transform="translate(18.665 195.678594) rotate(-90) scale(0.1 -0.1)">
      <defs>
       <path id="DejaVuSans-65" d="M 3597 1894 
L 3597 1613 
L 953 1613 
Q 991 1019 1311 708 
Q 1631 397 2203 397 
Q 2534 397 2845 478 
Q 3156 559 3463 722 
L 3463 178 
Q 3153 47 2828 -22 
Q 2503 -91 2169 -91 
Q 1331 -91 842 396 
Q 353 884 353 1716 
Q 353 2575 817 3079 
Q 1281 3584 2069 3584 
Q 2775 3584 3186 3129 
Q 3597 2675 3597 1894 
z
M 3022 2063 
Q 3016 2534 2758 2815 
Q 2500 3097 2075 3097 
Q 1594 3097 1305 2825 
Q 1016 2553 972 2059 
L 3022 2063 
z
" transform="scale(0.015625)"/>
       <path id="DejaVuSans-62" d="M 3116 1747 
Q 3116 2381 2855 2742 
Q 2594 3103 2138 3103 
Q 1681 3103 1420 2742 
Q 1159 2381 1159 1747 
Q 1159 1113 1420 752 
Q 1681 391 2138 391 
Q 2594 391 2855 752 
Q 3116 1113 3116 1747 
z
M 1159 2969 
Q 1341 3281 1617 3432 
Q 1894 3584 2278 3584 
Q 2916 3584 3314 3078 
Q 3713 2572 3713 1747 
Q 3713 922 3314 415 
Q 2916 -91 2278 -91 
Q 1894 -91 1617 61 
Q 1341 213 1159 525 
L 1159 0 
L 581 0 
L 581 4863 
L 1159 4863 
L 1159 2969 
z
" transform="scale(0.015625)"/>
      </defs>
      <use xlink:href="#DejaVuSans-43"/>
      <use xlink:href="#DejaVuSans-65" x="69.824219"/>
      <use xlink:href="#DejaVuSans-72" x="131.347656"/>
      <use xlink:href="#DejaVuSans-65" x="170.210938"/>
      <use xlink:href="#DejaVuSans-62" x="231.734375"/>
      <use xlink:href="#DejaVuSans-65" x="295.210938"/>
      <use xlink:href="#DejaVuSans-6c" x="356.734375"/>
      <use xlink:href="#DejaVuSans-6c" x="384.517578"/>
      <use xlink:href="#DejaVuSans-61" x="412.300781"/>
      <use xlink:href="#DejaVuSans-72" x="473.580078"/>
      <use xlink:href="#DejaVuSans-20" x="514.693359"/>
      <use xlink:href="#DejaVuSans-41" x="546.480469"/>
      <use xlink:href="#DejaVuSans-63" x="613.138672"/>
      <use xlink:href="#DejaVuSans-74" x="668.119141"/>
      <use xlink:href="#DejaVuSans-69" x="707.328125"/>
      <use xlink:href="#DejaVuSans-76" x="735.111328"/>
      <use xlink:href="#DejaVuSans-61" x="794.291016"/>
      <use xlink:href="#DejaVuSans-74" x="855.570312"/>
      <use xlink:href="#DejaVuSans-69" x="894.779297"/>
      <use xlink:href="#DejaVuSans-6f" x="922.5625"/>
      <use xlink:href="#DejaVuSans-6e" x="983.744141"/>
      <use xlink:href="#DejaVuSans-20" x="1047.123047"/>
      <use xlink:href="#DejaVuSans-28" x="1078.910156"/>
      <use xlink:href="#DejaVuSans-61" x="1117.923828"/>
      <use xlink:href="#DejaVuSans-2e" x="1179.203125"/>
      <use xlink:href="#DejaVuSans-75" x="1210.990234"/>
      <use xlink:href="#DejaVuSans-2e" x="1274.369141"/>
      <use xlink:href="#DejaVuSans-29" x="1306.15625"/>
     </g>
    </g>
   </g>
   <g id="line2d_13">
    <path d="M 71.654982 184.624414 
L 73.526696 183.440658 
L 75.39841 182.256901 
L 77.270123 181.073145 
L 79.141837 179.889388 
L 81.01355 178.705632 
L 82.885264 177.521875 
L 84.756978 176.338119 
L 86.628691 175.154362 
L 88.500405 173.970605 
L 90.372118 172.786849 
L 92.243832 171.603092 
L 94.115546 170.419336 
L 95.987259 169.235579 
L 97.858973 168.051823 
L 99.730686 166.868066 
L 101.6024 165.68431 
L 103.474114 164.500553 
L 105.345827 163.316796 
L 107.217541 162.13304 
L 109.089254 160.949283 
L 110.960968 159.765527 
L 112.832682 158.58177 
L 114.704395 157.398014 
L 116.576109 156.214257 
L 118.447822 155.030501 
L 120.319536 153.846744 
L 122.19125 152.662987 
L 124.062963 151.479231 
L 125.934677 150.295474 
L 127.80639 149.111718 
L 129.678104 147.927961 
L 131.549818 146.744205 
L 133.421531 145.560448 
L 135.293245 144.376692 
L 137.164959 143.192935 
L 139.036672 142.009178 
L 140.908386 140.825422 
L 142.780099 139.641665 
L 144.651813 138.457909 
L 146.523527 137.274152 
L 148.39524 136.090396 
L 150.266954 134.906639 
L 152.138667 133.722883 
L 154.010381 132.539126 
L 155.882095 131.355369 
L 157.753808 130.171613 
L 159.625522 128.987856 
L 161.497235 127.8041 
L 163.368949 126.620343 
L 165.240663 125.436587 
L 167.112376 124.25283 
L 168.98409 123.069074 
L 170.855803 121.885317 
L 172.727517 120.70156 
L 174.599231 119.517804 
L 176.470944 118.334047 
L 178.342658 117.150291 
L 180.214371 115.966534 
L 182.086085 114.782778 
L 183.957799 113.599021 
L 185.829512 112.415265 
L 187.701226 111.231508 
L 189.572939 110.047751 
L 191.444653 108.863995 
L 193.316367 107.680238 
L 195.18808 106.496482 
L 197.059794 105.312725 
L 198.931507 104.128969 
L 200.803221 102.945212 
L 202.674935 101.761456 
L 204.546648 100.577699 
L 206.418362 99.393942 
L 208.290076 98.210186 
L 210.161789 97.026429 
L 212.033503 95.842673 
L 213.905216 94.658916 
L 215.77693 93.47516 
L 217.648644 92.291403 
L 219.520357 91.107646 
L 221.392071 89.92389 
L 223.263784 88.740133 
L 225.135498 87.556377 
L 227.007212 86.37262 
L 228.878925 85.188864 
L 230.750639 84.005107 
L 232.622352 82.821351 
L 234.494066 81.637594 
L 236.36578 80.453837 
L 238.237493 79.270081 
L 240.109207 78.086324 
L 241.98092 76.902568 
L 243.852634 75.718811 
L 245.724348 74.535055 
L 247.596061 73.351298 
L 249.467775 72.167542 
L 251.339488 70.983785 
L 253.211202 69.800028 
L 255.082916 68.616272 
L 256.954629 67.432515 
" clip-path="url(#pbd295752f5)" style="fill: none; stroke: #808080; stroke-width: 2.25; stroke-linecap: square"/>
   </g>
   <g id="LineCollection_1">
    <path d="M 94.625214 188.958102 
L 94.625214 138.979422 
" clip-path="url(#pbd295752f5)" style="fill: none; stroke: #e6e6e6"/>
    <path d="M 150.333703 195.292584 
L 150.333703 128.058214 
" clip-path="url(#pbd295752f5)" style="fill: none; stroke: #e6e6e6"/>
    <path d="M 156.948524 135.283182 
L 156.948524 21.492727 
" clip-path="url(#pbd295752f5)" style="fill: none; stroke: #e6e6e6"/>
    <path d="M 177.466606 124.59929 
L 177.466606 52.959603 
" clip-path="url(#pbd295752f5)" style="fill: none; stroke: #e6e6e6"/>
    <path d="M 84.150039 218.968163 
L 84.150039 126.723851 
" clip-path="url(#pbd295752f5)" style="fill: none; stroke: #e6e6e6"/>
    <path d="M 123.790958 212.247111 
L 123.790958 136.721741 
" clip-path="url(#pbd295752f5)" style="fill: none; stroke: #e6e6e6"/>
    <path d="M 196.425141 139.940781 
L 196.425141 67.970862 
" clip-path="url(#pbd295752f5)" style="fill: none; stroke: #e6e6e6"/>
    <path d="M 242.461002 131.095351 
L 242.461002 63.767825 
" clip-path="url(#pbd295752f5)" style="fill: none; stroke: #e6e6e6"/>
    <path d="M 71.654982 235.347273 
L 71.654982 132.953516 
" clip-path="url(#pbd295752f5)" style="fill: none; stroke: #e6e6e6"/>
    <path d="M 140.532807 209.367661 
L 140.532807 143.688401 
" clip-path="url(#pbd295752f5)" style="fill: none; stroke: #e6e6e6"/>
    <path d="M 214.83937 103.700224 
L 214.83937 39.684108 
" clip-path="url(#pbd295752f5)" style="fill: none; stroke: #e6e6e6"/>
    <path d="M 256.954629 124.786391 
L 256.954629 29.855542 
" clip-path="url(#pbd295752f5)" style="fill: none; stroke: #e6e6e6"/>
   </g>
   <g id="patch_3">
    <path d="M 62.39 246.04 
L 62.39 10.8 
" style="fill: none; stroke: #000000; stroke-width: 0.8; stroke-linejoin: miter; stroke-linecap: square"/>
   </g>
   <g id="patch_4">
    <path d="M 62.39 246.04 
L 266.219612 246.04 
" style="fill: none; stroke: #000000; stroke-width: 0.8; stroke-linejoin: miter; stroke-linecap: square"/>
   </g>
   <g id="text_15">
    <!-- nback_E_face  -->
    <g transform="translate(74.698327 160.510272) scale(0.0833 -0.0833)">
     <defs>
      <path id="DejaVuSans-6b" d="M 581 4863 
L 1159 4863 
L 1159 1991 
L 2875 3500 
L 3609 3500 
L 1753 1863 
L 3688 0 
L 2938 0 
L 1159 1709 
L 1159 0 
L 581 0 
L 581 4863 
z
" transform="scale(0.015625)"/>
      <path id="DejaVuSans-5f" d="M 3263 -1063 
L 3263 -1509 
L -63 -1509 
L -63 -1063 
L 3263 -1063 
z
" transform="scale(0.015625)"/>
      <path id="DejaVuSans-45" d="M 628 4666 
L 3578 4666 
L 3578 4134 
L 1259 4134 
L 1259 2753 
L 3481 2753 
L 3481 2222 
L 1259 2222 
L 1259 531 
L 3634 531 
L 3634 0 
L 628 0 
L 628 4666 
z
" transform="scale(0.015625)"/>
      <path id="DejaVuSans-66" d="M 2375 4863 
L 2375 4384 
L 1825 4384 
Q 1516 4384 1395 4259 
Q 1275 4134 1275 3809 
L 1275 3500 
L 2222 3500 
L 2222 3053 
L 1275 3053 
L 1275 0 
L 697 0 
L 697 3053 
L 147 3053 
L 147 3500 
L 697 3500 
L 697 3744 
Q 697 4328 969 4595 
Q 1241 4863 1831 4863 
L 2375 4863 
z
" transform="scale(0.015625)"/>
     </defs>
     <use xlink:href="#DejaVuSans-6e"/>
     <use xlink:href="#DejaVuSans-62" x="63.378906"/>
     <use xlink:href="#DejaVuSans-61" x="126.855469"/>
     <use xlink:href="#DejaVuSans-63" x="188.134766"/>
     <use xlink:href="#DejaVuSans-6b" x="243.115234"/>
     <use xlink:href="#DejaVuSans-5f" x="301.025391"/>
     <use xlink:href="#DejaVuSans-45" x="351.025391"/>
     <use xlink:href="#DejaVuSans-5f" x="414.208984"/>
     <use xlink:href="#DejaVuSans-66" x="464.208984"/>
     <use xlink:href="#DejaVuSans-61" x="499.414062"/>
     <use xlink:href="#DejaVuSans-63" x="560.693359"/>
     <use xlink:href="#DejaVuSans-65" x="615.673828"/>
     <use xlink:href="#DejaVuSans-20" x="677.197266"/>
    </g>
   </g>
   <g id="text_16">
    <!-- nback_E_house  -->
    <g transform="translate(154.600725 158.775341) scale(0.0833 -0.0833)">
     <defs>
      <path id="DejaVuSans-68" d="M 3513 2113 
L 3513 0 
L 2938 0 
L 2938 2094 
Q 2938 2591 2744 2837 
Q 2550 3084 2163 3084 
Q 1697 3084 1428 2787 
Q 1159 2491 1159 1978 
L 1159 0 
L 581 0 
L 581 4863 
L 1159 4863 
L 1159 2956 
Q 1366 3272 1645 3428 
Q 1925 3584 2291 3584 
Q 2894 3584 3203 3211 
Q 3513 2838 3513 2113 
z
" transform="scale(0.015625)"/>
      <path id="DejaVuSans-73" d="M 2834 3397 
L 2834 2853 
Q 2591 2978 2328 3040 
Q 2066 3103 1784 3103 
Q 1356 3103 1142 2972 
Q 928 2841 928 2578 
Q 928 2378 1081 2264 
Q 1234 2150 1697 2047 
L 1894 2003 
Q 2506 1872 2764 1633 
Q 3022 1394 3022 966 
Q 3022 478 2636 193 
Q 2250 -91 1575 -91 
Q 1294 -91 989 -36 
Q 684 19 347 128 
L 347 722 
Q 666 556 975 473 
Q 1284 391 1588 391 
Q 1994 391 2212 530 
Q 2431 669 2431 922 
Q 2431 1156 2273 1281 
Q 2116 1406 1581 1522 
L 1381 1569 
Q 847 1681 609 1914 
Q 372 2147 372 2553 
Q 372 3047 722 3315 
Q 1072 3584 1716 3584 
Q 2034 3584 2315 3537 
Q 2597 3491 2834 3397 
z
" transform="scale(0.015625)"/>
     </defs>
     <use xlink:href="#DejaVuSans-6e"/>
     <use xlink:href="#DejaVuSans-62" x="63.378906"/>
     <use xlink:href="#DejaVuSans-61" x="126.855469"/>
     <use xlink:href="#DejaVuSans-63" x="188.134766"/>
     <use xlink:href="#DejaVuSans-6b" x="243.115234"/>
     <use xlink:href="#DejaVuSans-5f" x="301.025391"/>
     <use xlink:href="#DejaVuSans-45" x="351.025391"/>
     <use xlink:href="#DejaVuSans-5f" x="414.208984"/>
     <use xlink:href="#DejaVuSans-68" x="464.208984"/>
     <use xlink:href="#DejaVuSans-6f" x="527.587891"/>
     <use xlink:href="#DejaVuSans-75" x="588.769531"/>
     <use xlink:href="#DejaVuSans-73" x="652.148438"/>
     <use xlink:href="#DejaVuSans-65" x="704.248047"/>
     <use xlink:href="#DejaVuSans-20" x="765.771484"/>
    </g>
   </g>
   <g id="text_17">
    <!-- nback_H_face  -->
    <g transform="translate(97.973524 75.487897) scale(0.0833 -0.0833)">
     <defs>
      <path id="DejaVuSans-48" d="M 628 4666 
L 1259 4666 
L 1259 2753 
L 3553 2753 
L 3553 4666 
L 4184 4666 
L 4184 0 
L 3553 0 
L 3553 2222 
L 1259 2222 
L 1259 0 
L 628 0 
L 628 4666 
z
" transform="scale(0.015625)"/>
     </defs>
     <use xlink:href="#DejaVuSans-6e"/>
     <use xlink:href="#DejaVuSans-62" x="63.378906"/>
     <use xlink:href="#DejaVuSans-61" x="126.855469"/>
     <use xlink:href="#DejaVuSans-63" x="188.134766"/>
     <use xlink:href="#DejaVuSans-6b" x="243.115234"/>
     <use xlink:href="#DejaVuSans-5f" x="301.025391"/>
     <use xlink:href="#DejaVuSans-48" x="351.025391"/>
     <use xlink:href="#DejaVuSans-5f" x="426.220703"/>
     <use xlink:href="#DejaVuSans-66" x="476.220703"/>
     <use xlink:href="#DejaVuSans-61" x="511.425781"/>
     <use xlink:href="#DejaVuSans-63" x="572.705078"/>
     <use xlink:href="#DejaVuSans-65" x="627.685547"/>
     <use xlink:href="#DejaVuSans-20" x="689.208984"/>
    </g>
   </g>
   <g id="text_18">
    <!-- nback_H_house  -->
    <g transform="translate(110.929818 96.044945) scale(0.0833 -0.0833)">
     <use xlink:href="#DejaVuSans-6e"/>
     <use xlink:href="#DejaVuSans-62" x="63.378906"/>
     <use xlink:href="#DejaVuSans-61" x="126.855469"/>
     <use xlink:href="#DejaVuSans-63" x="188.134766"/>
     <use xlink:href="#DejaVuSans-6b" x="243.115234"/>
     <use xlink:href="#DejaVuSans-5f" x="301.025391"/>
     <use xlink:href="#DejaVuSans-48" x="351.025391"/>
     <use xlink:href="#DejaVuSans-5f" x="426.220703"/>
     <use xlink:href="#DejaVuSans-68" x="476.220703"/>
     <use xlink:href="#DejaVuSans-6f" x="539.599609"/>
     <use xlink:href="#DejaVuSans-75" x="600.78125"/>
     <use xlink:href="#DejaVuSans-73" x="664.160156"/>
     <use xlink:href="#DejaVuSans-65" x="716.259766"/>
     <use xlink:href="#DejaVuSans-20" x="777.783203"/>
    </g>
   </g>
   <g id="text_19">
    <!-- stop_E_face -->
    <g transform="translate(105.078242 183.793529) scale(0.0833 -0.0833)">
     <defs>
      <path id="DejaVuSans-70" d="M 1159 525 
L 1159 -1331 
L 581 -1331 
L 581 3500 
L 1159 3500 
L 1159 2969 
Q 1341 3281 1617 3432 
Q 1894 3584 2278 3584 
Q 2916 3584 3314 3078 
Q 3713 2572 3713 1747 
Q 3713 922 3314 415 
Q 2916 -91 2278 -91 
Q 1894 -91 1617 61 
Q 1341 213 1159 525 
z
M 3116 1747 
Q 3116 2381 2855 2742 
Q 2594 3103 2138 3103 
Q 1681 3103 1420 2742 
Q 1159 2381 1159 1747 
Q 1159 1113 1420 752 
Q 1681 391 2138 391 
Q 2594 391 2855 752 
Q 3116 1113 3116 1747 
z
" transform="scale(0.015625)"/>
     </defs>
     <use xlink:href="#DejaVuSans-73"/>
     <use xlink:href="#DejaVuSans-74" x="52.099609"/>
     <use xlink:href="#DejaVuSans-6f" x="91.308594"/>
     <use xlink:href="#DejaVuSans-70" x="152.490234"/>
     <use xlink:href="#DejaVuSans-5f" x="215.966797"/>
     <use xlink:href="#DejaVuSans-45" x="265.966797"/>
     <use xlink:href="#DejaVuSans-5f" x="329.150391"/>
     <use xlink:href="#DejaVuSans-66" x="379.150391"/>
     <use xlink:href="#DejaVuSans-61" x="414.355469"/>
     <use xlink:href="#DejaVuSans-63" x="475.634766"/>
     <use xlink:href="#DejaVuSans-65" x="530.615234"/>
    </g>
   </g>
   <g id="text_20">
    <!-- stop_E_house  -->
    <g transform="translate(141.654462 171.242397) scale(0.0833 -0.0833)">
     <use xlink:href="#DejaVuSans-73"/>
     <use xlink:href="#DejaVuSans-74" x="52.099609"/>
     <use xlink:href="#DejaVuSans-6f" x="91.308594"/>
     <use xlink:href="#DejaVuSans-70" x="152.490234"/>
     <use xlink:href="#DejaVuSans-5f" x="215.966797"/>
     <use xlink:href="#DejaVuSans-45" x="265.966797"/>
     <use xlink:href="#DejaVuSans-5f" x="329.150391"/>
     <use xlink:href="#DejaVuSans-68" x="379.150391"/>
     <use xlink:href="#DejaVuSans-6f" x="442.529297"/>
     <use xlink:href="#DejaVuSans-75" x="503.710938"/>
     <use xlink:href="#DejaVuSans-73" x="567.089844"/>
     <use xlink:href="#DejaVuSans-65" x="619.189453"/>
     <use xlink:href="#DejaVuSans-20" x="680.712891"/>
    </g>
   </g>
   <g id="text_21">
    <!-- stop_H_face  -->
    <g transform="translate(211.582486 113.575203) scale(0.0833 -0.0833)">
     <use xlink:href="#DejaVuSans-73"/>
     <use xlink:href="#DejaVuSans-74" x="52.099609"/>
     <use xlink:href="#DejaVuSans-6f" x="91.308594"/>
     <use xlink:href="#DejaVuSans-70" x="152.490234"/>
     <use xlink:href="#DejaVuSans-5f" x="215.966797"/>
     <use xlink:href="#DejaVuSans-48" x="265.966797"/>
     <use xlink:href="#DejaVuSans-5f" x="341.162109"/>
     <use xlink:href="#DejaVuSans-66" x="391.162109"/>
     <use xlink:href="#DejaVuSans-61" x="426.367188"/>
     <use xlink:href="#DejaVuSans-63" x="487.646484"/>
     <use xlink:href="#DejaVuSans-65" x="542.626953"/>
     <use xlink:href="#DejaVuSans-20" x="604.150391"/>
    </g>
   </g>
   <g id="text_22">
    <!-- stop_H_house  -->
    <g transform="translate(183.326257 102.876425) scale(0.0833 -0.0833)">
     <use xlink:href="#DejaVuSans-73"/>
     <use xlink:href="#DejaVuSans-74" x="52.099609"/>
     <use xlink:href="#DejaVuSans-6f" x="91.308594"/>
     <use xlink:href="#DejaVuSans-70" x="152.490234"/>
     <use xlink:href="#DejaVuSans-5f" x="215.966797"/>
     <use xlink:href="#DejaVuSans-48" x="265.966797"/>
     <use xlink:href="#DejaVuSans-5f" x="341.162109"/>
     <use xlink:href="#DejaVuSans-68" x="391.162109"/>
     <use xlink:href="#DejaVuSans-6f" x="454.541016"/>
     <use xlink:href="#DejaVuSans-75" x="515.722656"/>
     <use xlink:href="#DejaVuSans-73" x="579.101562"/>
     <use xlink:href="#DejaVuSans-65" x="631.201172"/>
     <use xlink:href="#DejaVuSans-20" x="692.724609"/>
    </g>
   </g>
   <g id="text_23">
    <!-- switch_E_face  -->
    <g transform="translate(62.440328 195.025529) scale(0.0833 -0.0833)">
     <defs>
      <path id="DejaVuSans-77" d="M 269 3500 
L 844 3500 
L 1563 769 
L 2278 3500 
L 2956 3500 
L 3675 769 
L 4391 3500 
L 4966 3500 
L 4050 0 
L 3372 0 
L 2619 2869 
L 1863 0 
L 1184 0 
L 269 3500 
z
" transform="scale(0.015625)"/>
     </defs>
     <use xlink:href="#DejaVuSans-73"/>
     <use xlink:href="#DejaVuSans-77" x="52.099609"/>
     <use xlink:href="#DejaVuSans-69" x="133.886719"/>
     <use xlink:href="#DejaVuSans-74" x="161.669922"/>
     <use xlink:href="#DejaVuSans-63" x="200.878906"/>
     <use xlink:href="#DejaVuSans-68" x="255.859375"/>
     <use xlink:href="#DejaVuSans-5f" x="319.238281"/>
     <use xlink:href="#DejaVuSans-45" x="369.238281"/>
     <use xlink:href="#DejaVuSans-5f" x="432.421875"/>
     <use xlink:href="#DejaVuSans-66" x="482.421875"/>
     <use xlink:href="#DejaVuSans-61" x="517.626953"/>
     <use xlink:href="#DejaVuSans-63" x="578.90625"/>
     <use xlink:href="#DejaVuSans-65" x="633.886719"/>
     <use xlink:href="#DejaVuSans-20" x="695.410156"/>
    </g>
   </g>
   <g id="text_24">
    <!-- switch_E_house  -->
    <g transform="translate(157.435471 195.025529) scale(0.0833 -0.0833)">
     <use xlink:href="#DejaVuSans-73"/>
     <use xlink:href="#DejaVuSans-77" x="52.099609"/>
     <use xlink:href="#DejaVuSans-69" x="133.886719"/>
     <use xlink:href="#DejaVuSans-74" x="161.669922"/>
     <use xlink:href="#DejaVuSans-63" x="200.878906"/>
     <use xlink:href="#DejaVuSans-68" x="255.859375"/>
     <use xlink:href="#DejaVuSans-5f" x="319.238281"/>
     <use xlink:href="#DejaVuSans-45" x="369.238281"/>
     <use xlink:href="#DejaVuSans-5f" x="432.421875"/>
     <use xlink:href="#DejaVuSans-68" x="482.421875"/>
     <use xlink:href="#DejaVuSans-6f" x="545.800781"/>
     <use xlink:href="#DejaVuSans-75" x="606.982422"/>
     <use xlink:href="#DejaVuSans-73" x="670.361328"/>
     <use xlink:href="#DejaVuSans-65" x="722.460938"/>
     <use xlink:href="#DejaVuSans-20" x="783.984375"/>
    </g>
   </g>
   <g id="text_25">
    <!-- switch_H_face  -->
    <g transform="translate(186.649128 68.792108) scale(0.0833 -0.0833)">
     <use xlink:href="#DejaVuSans-73"/>
     <use xlink:href="#DejaVuSans-77" x="52.099609"/>
     <use xlink:href="#DejaVuSans-69" x="133.886719"/>
     <use xlink:href="#DejaVuSans-74" x="161.669922"/>
     <use xlink:href="#DejaVuSans-63" x="200.878906"/>
     <use xlink:href="#DejaVuSans-68" x="255.859375"/>
     <use xlink:href="#DejaVuSans-5f" x="319.238281"/>
     <use xlink:href="#DejaVuSans-48" x="369.238281"/>
     <use xlink:href="#DejaVuSans-5f" x="444.433594"/>
     <use xlink:href="#DejaVuSans-66" x="494.433594"/>
     <use xlink:href="#DejaVuSans-61" x="529.638672"/>
     <use xlink:href="#DejaVuSans-63" x="590.917969"/>
     <use xlink:href="#DejaVuSans-65" x="645.898438"/>
     <use xlink:href="#DejaVuSans-20" x="707.421875"/>
    </g>
   </g>
   <g id="text_26">
    <!-- switch_H_house  -->
    <g transform="translate(188.862321 84.586465) scale(0.0833 -0.0833)">
     <use xlink:href="#DejaVuSans-73"/>
     <use xlink:href="#DejaVuSans-77" x="52.099609"/>
     <use xlink:href="#DejaVuSans-69" x="133.886719"/>
     <use xlink:href="#DejaVuSans-74" x="161.669922"/>
     <use xlink:href="#DejaVuSans-63" x="200.878906"/>
     <use xlink:href="#DejaVuSans-68" x="255.859375"/>
     <use xlink:href="#DejaVuSans-5f" x="319.238281"/>
     <use xlink:href="#DejaVuSans-48" x="369.238281"/>
     <use xlink:href="#DejaVuSans-5f" x="444.433594"/>
     <use xlink:href="#DejaVuSans-68" x="494.433594"/>
     <use xlink:href="#DejaVuSans-6f" x="557.8125"/>
     <use xlink:href="#DejaVuSans-75" x="618.994141"/>
     <use xlink:href="#DejaVuSans-73" x="682.373047"/>
     <use xlink:href="#DejaVuSans-65" x="734.472656"/>
     <use xlink:href="#DejaVuSans-20" x="795.996094"/>
    </g>
   </g>
  </g>
  <g id="legend_1">
   <g id="text_27">
    <!-- material -->
    <g transform="translate(315.2025 102.585938) scale(0.1 -0.1)">
     <defs>
      <path id="DejaVuSans-6d" d="M 3328 2828 
Q 3544 3216 3844 3400 
Q 4144 3584 4550 3584 
Q 5097 3584 5394 3201 
Q 5691 2819 5691 2113 
L 5691 0 
L 5113 0 
L 5113 2094 
Q 5113 2597 4934 2840 
Q 4756 3084 4391 3084 
Q 3944 3084 3684 2787 
Q 3425 2491 3425 1978 
L 3425 0 
L 2847 0 
L 2847 2094 
Q 2847 2600 2669 2842 
Q 2491 3084 2119 3084 
Q 1678 3084 1418 2786 
Q 1159 2488 1159 1978 
L 1159 0 
L 581 0 
L 581 3500 
L 1159 3500 
L 1159 2956 
Q 1356 3278 1631 3431 
Q 1906 3584 2284 3584 
Q 2666 3584 2933 3390 
Q 3200 3197 3328 2828 
z
" transform="scale(0.015625)"/>
     </defs>
     <use xlink:href="#DejaVuSans-6d"/>
     <use xlink:href="#DejaVuSans-61" x="97.412109"/>
     <use xlink:href="#DejaVuSans-74" x="158.691406"/>
     <use xlink:href="#DejaVuSans-65" x="197.900391"/>
     <use xlink:href="#DejaVuSans-72" x="259.423828"/>
     <use xlink:href="#DejaVuSans-69" x="300.537109"/>
     <use xlink:href="#DejaVuSans-61" x="328.320312"/>
     <use xlink:href="#DejaVuSans-6c" x="389.599609"/>
    </g>
   </g>
   <g id="PathCollection_8">
    <defs>
     <path id="m45cf9a0b58" d="M 0 3 
C 0.795609 3 1.55874 2.683901 2.12132 2.12132 
C 2.683901 1.55874 3 0.795609 3 0 
C 3 -0.795609 2.683901 -1.55874 2.12132 -2.12132 
C 1.55874 -2.683901 0.795609 -3 0 -3 
C -0.795609 -3 -1.55874 -2.683901 -2.12132 -2.12132 
C -2.683901 -1.55874 -3 -0.795609 -3 0 
C -3 0.795609 -2.683901 1.55874 -2.12132 2.12132 
C -1.55874 2.683901 -0.795609 3 0 3 
z
" style="stroke: #1f77b4"/>
    </defs>
    <g>
     <use xlink:href="#m45cf9a0b58" x="297.2025" y="114.639063" style="fill: #1f77b4; stroke: #1f77b4"/>
    </g>
   </g>
   <g id="text_28">
    <!-- face -->
    <g transform="translate(315.2025 117.264063) scale(0.1 -0.1)">
     <use xlink:href="#DejaVuSans-66"/>
     <use xlink:href="#DejaVuSans-61" x="35.205078"/>
     <use xlink:href="#DejaVuSans-63" x="96.484375"/>
     <use xlink:href="#DejaVuSans-65" x="151.464844"/>
    </g>
   </g>
   <g id="PathCollection_9">
    <defs>
     <path id="mc9c93e94c4" d="M 0 3 
C 0.795609 3 1.55874 2.683901 2.12132 2.12132 
C 2.683901 1.55874 3 0.795609 3 0 
C 3 -0.795609 2.683901 -1.55874 2.12132 -2.12132 
C 1.55874 -2.683901 0.795609 -3 0 -3 
C -0.795609 -3 -1.55874 -2.683901 -2.12132 -2.12132 
C -2.683901 -1.55874 -3 -0.795609 -3 0 
C -3 0.795609 -2.683901 1.55874 -2.12132 2.12132 
C -1.55874 2.683901 -0.795609 3 0 3 
z
" style="stroke: #ff7f0e"/>
    </defs>
    <g>
     <use xlink:href="#mc9c93e94c4" x="297.2025" y="129.317187" style="fill: #ff7f0e; stroke: #ff7f0e"/>
    </g>
   </g>
   <g id="text_29">
    <!-- house -->
    <g transform="translate(315.2025 131.942187) scale(0.1 -0.1)">
     <use xlink:href="#DejaVuSans-68"/>
     <use xlink:href="#DejaVuSans-6f" x="63.378906"/>
     <use xlink:href="#DejaVuSans-75" x="124.560547"/>
     <use xlink:href="#DejaVuSans-73" x="187.939453"/>
     <use xlink:href="#DejaVuSans-65" x="240.039062"/>
    </g>
   </g>
   <g id="text_30">
    <!-- task -->
    <g transform="translate(315.2025 146.620313) scale(0.1 -0.1)">
     <use xlink:href="#DejaVuSans-74"/>
     <use xlink:href="#DejaVuSans-61" x="39.208984"/>
     <use xlink:href="#DejaVuSans-73" x="100.488281"/>
     <use xlink:href="#DejaVuSans-6b" x="152.587891"/>
    </g>
   </g>
   <g id="PathCollection_10">
    <defs>
     <path id="m62dc61972d" d="M 0 3 
C 0.795609 3 1.55874 2.683901 2.12132 2.12132 
C 2.683901 1.55874 3 0.795609 3 0 
C 3 -0.795609 2.683901 -1.55874 2.12132 -2.12132 
C 1.55874 -2.683901 0.795609 -3 0 -3 
C -0.795609 -3 -1.55874 -2.683901 -2.12132 -2.12132 
C -2.683901 -1.55874 -3 -0.795609 -3 0 
C -3 0.795609 -2.683901 1.55874 -2.12132 2.12132 
C -1.55874 2.683901 -0.795609 3 0 3 
z
" style="stroke: #333333"/>
    </defs>
    <g>
     <use xlink:href="#m62dc61972d" x="297.2025" y="158.673438" style="fill: #333333; stroke: #333333"/>
    </g>
   </g>
   <g id="text_31">
    <!-- n_back -->
    <g transform="translate(315.2025 161.298438) scale(0.1 -0.1)">
     <use xlink:href="#DejaVuSans-6e"/>
     <use xlink:href="#DejaVuSans-5f" x="63.378906"/>
     <use xlink:href="#DejaVuSans-62" x="113.378906"/>
     <use xlink:href="#DejaVuSans-61" x="176.855469"/>
     <use xlink:href="#DejaVuSans-63" x="238.134766"/>
     <use xlink:href="#DejaVuSans-6b" x="293.115234"/>
    </g>
   </g>
   <g id="PathCollection_11">
    <defs>
     <path id="m059247cf32" d="M -1.5 3 
L 0 1.5 
L 1.5 3 
L 3 1.5 
L 1.5 0 
L 3 -1.5 
L 1.5 -3 
L 0 -1.5 
L -1.5 -3 
L -3 -1.5 
L -1.5 0 
L -3 1.5 
z
" style="stroke: #333333"/>
    </defs>
    <g>
     <use xlink:href="#m059247cf32" x="297.2025" y="173.629687" style="fill: #333333; stroke: #333333"/>
    </g>
   </g>
   <g id="text_32">
    <!-- stop -->
    <g transform="translate(315.2025 176.254687) scale(0.1 -0.1)">
     <use xlink:href="#DejaVuSans-73"/>
     <use xlink:href="#DejaVuSans-74" x="52.099609"/>
     <use xlink:href="#DejaVuSans-6f" x="91.308594"/>
     <use xlink:href="#DejaVuSans-70" x="152.490234"/>
    </g>
   </g>
   <g id="PathCollection_12">
    <defs>
     <path id="m1232b3ac74" d="M -2.12132 -2.12132 
L -2.12132 2.12132 
L 2.12132 2.12132 
L 2.12132 -2.12132 
z
" style="stroke: #333333"/>
    </defs>
    <g>
     <use xlink:href="#m1232b3ac74" x="297.2025" y="188.307813" style="fill: #333333; stroke: #333333"/>
    </g>
   </g>
   <g id="text_33">
    <!-- switch -->
    <g transform="translate(315.2025 190.932813) scale(0.1 -0.1)">
     <use xlink:href="#DejaVuSans-73"/>
     <use xlink:href="#DejaVuSans-77" x="52.099609"/>
     <use xlink:href="#DejaVuSans-69" x="133.886719"/>
     <use xlink:href="#DejaVuSans-74" x="161.669922"/>
     <use xlink:href="#DejaVuSans-63" x="200.878906"/>
     <use xlink:href="#DejaVuSans-68" x="255.859375"/>
    </g>
   </g>
  </g>
 </g>
 <defs>
  <clipPath id="pbd295752f5">
   <rect x="62.39" y="10.8" width="203.829612" height="235.24"/>
  </clipPath>
 </defs>
</svg>
