<?xml version="1.0" encoding="utf-8" standalone="no"?>
<!DOCTYPE svg PUBLIC "-//W3C//DTD SVG 1.1//EN"
  "http://www.w3.org/Graphics/SVG/1.1/DTD/svg11.dtd">
<svg xmlns:xlink="http://www.w3.org/1999/xlink" width="365.94pt" height="288pt" viewBox="0 0 365.94 288" xmlns="http://www.w3.org/2000/svg" version="1.1">
 <metadata>
  <rdf:RDF xmlns:dc="http://purl.org/dc/elements/1.1/" xmlns:cc="http://creativecommons.org/ns#" xmlns:rdf="http://www.w3.org/1999/02/22-rdf-syntax-ns#">
   <cc:Work>
    <dc:type rdf:resource="http://purl.org/dc/dcmitype/StillImage"/>
    <dc:date>2023-02-02T00:42:21.897130</dc:date>
    <dc:format>image/svg+xml</dc:format>
    <dc:creator>
     <cc:Agent>
      <dc:title>Matplotlib v3.6.2, https://matplotlib.org/</dc:title>
     </cc:Agent>
    </dc:creator>
   </cc:Work>
  </rdf:RDF>
 </metadata>
 <defs>
  <style type="text/css">*{stroke-linejoin: round; stroke-linecap: butt}</style>
 </defs>
 <g id="figure_1">
  <g id="patch_1">
   <path d="M 0 288 
L 365.94 288 
L 365.94 0 
L 0 0 
z
" style="fill: #ffffff"/>
  </g>
  <g id="axes_1">
   <g id="patch_2">
    <path d="M 60.32 246.04 
L 273.5406 246.04 
L 273.5406 10.8 
L 60.32 10.8 
z
" style="fill: #ffffff"/>
   </g>
   <g id="PathCollection_1">
    <path d="M 128.468956 177.694279 
C 129.794972 177.694279 131.066856 177.167447 132.00449 176.229813 
C 132.942125 175.292178 133.468956 174.020294 133.468956 172.694279 
C 133.468956 171.368263 132.942125 170.096379 132.00449 169.158745 
C 131.066856 168.22111 129.794972 167.694279 128.468956 167.694279 
C 127.142941 167.694279 125.871057 168.22111 124.933423 169.158745 
C 123.995788 170.096379 123.468956 171.368263 123.468956 172.694279 
C 123.468956 174.020294 123.995788 175.292178 124.933423 176.229813 
C 125.871057 177.167447 127.142941 177.694279 128.468956 177.694279 
z
" clip-path="url(#p7c8a8bf4cc)" style="fill: #1f77b4; stroke: #ffffff; stroke-width: 0.8"/>
    <path d="M 131.248767 183.329986 
C 132.574782 183.329986 133.846666 182.803155 134.784301 181.86552 
C 135.721935 180.927885 136.248767 179.656002 136.248767 178.329986 
C 136.248767 177.003971 135.721935 175.732087 134.784301 174.794452 
C 133.846666 173.856818 132.574782 173.329986 131.248767 173.329986 
C 129.922751 173.329986 128.650867 173.856818 127.713233 174.794452 
C 126.775598 175.732087 126.248767 177.003971 126.248767 178.329986 
C 126.248767 179.656002 126.775598 180.927885 127.713233 181.86552 
C 128.650867 182.803155 129.922751 183.329986 131.248767 183.329986 
z
" clip-path="url(#p7c8a8bf4cc)" style="fill: #ff7f0e; stroke: #ffffff; stroke-width: 0.8"/>
    <path d="M 263.848755 52.41483 
C 265.17477 52.41483 266.446654 51.887999 267.384288 50.950364 
C 268.321923 50.01273 268.848755 48.740846 268.848755 47.41483 
C 268.848755 46.088815 268.321923 44.816931 267.384288 43.879296 
C 266.446654 42.941662 265.17477 42.41483 263.848755 42.41483 
C 262.522739 42.41483 261.250855 42.941662 260.313221 43.879296 
C 259.375586 44.816931 258.848755 46.088815 258.848755 47.41483 
C 258.848755 48.740846 259.375586 50.01273 260.313221 50.950364 
C 261.250855 51.887999 262.522739 52.41483 263.848755 52.41483 
z
" clip-path="url(#p7c8a8bf4cc)" style="fill: #1f77b4; stroke: #ffffff; stroke-width: 0.8"/>
    <path d="M 259.121064 60.532575 
C 260.44708 60.532575 261.718964 60.005744 262.656598 59.068109 
C 263.594233 58.130474 264.121064 56.858591 264.121064 55.532575 
C 264.121064 54.20656 263.594233 52.934676 262.656598 51.997041 
C 261.718964 51.059407 260.44708 50.532575 259.121064 50.532575 
C 257.795049 50.532575 256.523165 51.059407 255.58553 51.997041 
C 254.647896 52.934676 254.121064 54.20656 254.121064 55.532575 
C 254.121064 56.858591 254.647896 58.130474 255.58553 59.068109 
C 256.523165 60.005744 257.795049 60.532575 259.121064 60.532575 
z
" clip-path="url(#p7c8a8bf4cc)" style="fill: #ff7f0e; stroke: #ffffff; stroke-width: 0.8"/>
    <path d="M 67.511845 219.834408 
L 70.011845 217.334408 
L 72.511845 219.834408 
L 75.011845 217.334408 
L 72.511845 214.834408 
L 75.011845 212.334408 
L 72.511845 209.834408 
L 70.011845 212.334408 
L 67.511845 209.834408 
L 65.011845 212.334408 
L 67.511845 214.834408 
L 65.011845 217.334408 
z
" clip-path="url(#p7c8a8bf4cc)" style="fill: #1f77b4; stroke: #ffffff; stroke-width: 0.8"/>
    <path d="M 78.142847 216.46244 
L 80.642847 213.96244 
L 83.142847 216.46244 
L 85.642847 213.96244 
L 83.142847 211.46244 
L 85.642847 208.96244 
L 83.142847 206.46244 
L 80.642847 208.96244 
L 78.142847 206.46244 
L 75.642847 208.96244 
L 78.142847 211.46244 
L 75.642847 213.96244 
z
" clip-path="url(#p7c8a8bf4cc)" style="fill: #ff7f0e; stroke: #ffffff; stroke-width: 0.8"/>
    <path d="M 169.664658 123.587534 
L 172.164658 121.087534 
L 174.664658 123.587534 
L 177.164658 121.087534 
L 174.664658 118.587534 
L 177.164658 116.087534 
L 174.664658 113.587534 
L 172.164658 116.087534 
L 169.664658 113.587534 
L 167.164658 116.087534 
L 169.664658 118.587534 
L 167.164658 121.087534 
z
" clip-path="url(#p7c8a8bf4cc)" style="fill: #1f77b4; stroke: #ffffff; stroke-width: 0.8"/>
    <path d="M 178.512965 119.451035 
L 181.012965 116.951035 
L 183.512965 119.451035 
L 186.012965 116.951035 
L 183.512965 114.451035 
L 186.012965 111.951035 
L 183.512965 109.451035 
L 181.012965 111.951035 
L 178.512965 109.451035 
L 176.012965 111.951035 
L 178.512965 114.451035 
L 176.012965 116.951035 
z
" clip-path="url(#p7c8a8bf4cc)" style="fill: #ff7f0e; stroke: #ffffff; stroke-width: 0.8"/>
    <path d="M 73.393783 207.677515 
L 73.393783 214.748582 
L 80.464851 214.748582 
L 80.464851 207.677515 
z
" clip-path="url(#p7c8a8bf4cc)" style="fill: #1f77b4; stroke: #ffffff; stroke-width: 0.8"/>
    <path d="M 93.932186 202.006279 
L 93.932186 209.077347 
L 101.003254 209.077347 
L 101.003254 202.006279 
z
" clip-path="url(#p7c8a8bf4cc)" style="fill: #ff7f0e; stroke: #ffffff; stroke-width: 0.8"/>
    <path d="M 222.384427 87.041606 
L 222.384427 94.112674 
L 229.455494 94.112674 
L 229.455494 87.041606 
z
" clip-path="url(#p7c8a8bf4cc)" style="fill: #1f77b4; stroke: #ffffff; stroke-width: 0.8"/>
    <path d="M 238.145071 81.416746 
L 238.145071 88.487813 
L 245.216139 88.487813 
L 245.216139 81.416746 
z
" clip-path="url(#p7c8a8bf4cc)" style="fill: #ff7f0e; stroke: #ffffff; stroke-width: 0.8"/>
   </g>
   <g id="PathCollection_2"/>
   <g id="PathCollection_3"/>
   <g id="PathCollection_4"/>
   <g id="PathCollection_5"/>
   <g id="PathCollection_6"/>
   <g id="PathCollection_7">
    <defs>
     <path id="m6d650c0548" d="M 0 0 
C 0 0 0 0 0 0 
C 0 0 0 0 0 0 
C 0 0 0 0 0 0 
C 0 0 0 0 0 0 
C 0 0 0 0 0 0 
C 0 0 0 0 0 0 
C 0 0 0 0 0 0 
C 0 0 0 0 0 0 
z
" style="stroke: #1f77b4; stroke-opacity: 0.8"/>
    </defs>
    <g clip-path="url(#p7c8a8bf4cc)">
     <use xlink:href="#m6d650c0548" x="128.468956" y="172.694279" style="fill: #1f77b4; fill-opacity: 0.8; stroke: #1f77b4; stroke-opacity: 0.8"/>
     <use xlink:href="#m6d650c0548" x="131.248767" y="178.329986" style="fill: #1f77b4; fill-opacity: 0.8; stroke: #1f77b4; stroke-opacity: 0.8"/>
     <use xlink:href="#m6d650c0548" x="263.848755" y="47.41483" style="fill: #1f77b4; fill-opacity: 0.8; stroke: #1f77b4; stroke-opacity: 0.8"/>
     <use xlink:href="#m6d650c0548" x="259.121064" y="55.532575" style="fill: #1f77b4; fill-opacity: 0.8; stroke: #1f77b4; stroke-opacity: 0.8"/>
     <use xlink:href="#m6d650c0548" x="70.011845" y="214.834408" style="fill: #1f77b4; fill-opacity: 0.8; stroke: #1f77b4; stroke-opacity: 0.8"/>
     <use xlink:href="#m6d650c0548" x="80.642847" y="211.46244" style="fill: #1f77b4; fill-opacity: 0.8; stroke: #1f77b4; stroke-opacity: 0.8"/>
     <use xlink:href="#m6d650c0548" x="172.164658" y="118.587534" style="fill: #1f77b4; fill-opacity: 0.8; stroke: #1f77b4; stroke-opacity: 0.8"/>
     <use xlink:href="#m6d650c0548" x="181.012965" y="114.451035" style="fill: #1f77b4; fill-opacity: 0.8; stroke: #1f77b4; stroke-opacity: 0.8"/>
     <use xlink:href="#m6d650c0548" x="76.929317" y="211.213048" style="fill: #1f77b4; fill-opacity: 0.8; stroke: #1f77b4; stroke-opacity: 0.8"/>
     <use xlink:href="#m6d650c0548" x="97.46772" y="205.541813" style="fill: #1f77b4; fill-opacity: 0.8; stroke: #1f77b4; stroke-opacity: 0.8"/>
     <use xlink:href="#m6d650c0548" x="225.919961" y="90.57714" style="fill: #1f77b4; fill-opacity: 0.8; stroke: #1f77b4; stroke-opacity: 0.8"/>
     <use xlink:href="#m6d650c0548" x="241.680605" y="84.952279" style="fill: #1f77b4; fill-opacity: 0.8; stroke: #1f77b4; stroke-opacity: 0.8"/>
    </g>
   </g>
   <g id="PolyCollection_1">
    <path d="M 70.011845 214.75404 
L 70.011845 227.267003 
L 71.969794 225.507335 
L 73.927743 223.722715 
L 75.885691 221.942846 
L 77.84364 220.189233 
L 79.801588 218.392885 
L 81.759537 216.616416 
L 83.717485 214.812505 
L 85.675434 213.031272 
L 87.633383 211.25004 
L 89.591331 209.467434 
L 91.54928 207.684421 
L 93.507228 205.938976 
L 95.465177 204.25572 
L 97.423126 202.521138 
L 99.381074 200.733222 
L 101.339023 198.943504 
L 103.296971 197.194804 
L 105.25492 195.507218 
L 107.212868 193.82037 
L 109.170817 192.082115 
L 111.128766 190.323713 
L 113.086714 188.62277 
L 115.044663 186.920802 
L 117.002611 185.181583 
L 118.96056 183.401059 
L 120.918508 181.686304 
L 122.876457 179.964552 
L 124.834406 178.246317 
L 126.792354 176.527169 
L 128.750303 174.729602 
L 130.708251 172.960074 
L 132.6662 171.220255 
L 134.624148 169.489566 
L 136.582097 167.764176 
L 138.540046 166.065276 
L 140.497994 164.403435 
L 142.455943 162.60496 
L 144.413891 160.893621 
L 146.37184 159.139282 
L 148.329789 157.45726 
L 150.287737 155.859101 
L 152.245686 154.197208 
L 154.203634 152.521804 
L 156.161583 150.898887 
L 158.119531 149.21843 
L 160.07748 147.5928 
L 162.035429 145.964208 
L 163.993377 144.335916 
L 165.951326 142.678819 
L 167.909274 140.989144 
L 169.867223 139.356613 
L 171.825171 137.699286 
L 173.78312 136.040935 
L 175.741069 134.326495 
L 177.699017 132.611375 
L 179.656966 130.904554 
L 181.614914 129.337392 
L 183.572863 127.750486 
L 185.530811 126.057411 
L 187.48876 124.365007 
L 189.446709 122.710039 
L 191.404657 120.980752 
L 193.362606 119.331561 
L 195.320554 117.761678 
L 197.278503 116.159635 
L 199.236452 114.505023 
L 201.1944 112.909421 
L 203.152349 111.232873 
L 205.110297 109.615265 
L 207.068246 107.973902 
L 209.026194 106.429488 
L 210.984143 104.885074 
L 212.942092 103.266126 
L 214.90004 101.646656 
L 216.857989 100.063154 
L 218.815937 98.471925 
L 220.773886 96.83394 
L 222.731834 95.195801 
L 224.689783 93.573503 
L 226.647732 92.002805 
L 228.60568 90.431604 
L 230.563629 88.793531 
L 232.521577 87.177421 
L 234.479526 85.608004 
L 236.437474 83.993658 
L 238.395423 82.413811 
L 240.353372 80.815034 
L 242.31132 79.224377 
L 244.269269 77.635035 
L 246.227217 76.044768 
L 248.185166 74.427318 
L 250.143115 72.785702 
L 252.101063 71.144087 
L 254.059012 69.502293 
L 256.01696 67.859578 
L 257.974909 66.315383 
L 259.932857 64.777798 
L 261.890806 63.147052 
L 263.848755 61.513907 
L 263.848755 43.964304 
L 263.848755 43.964304 
L 261.890806 45.792197 
L 259.932857 47.62009 
L 257.974909 49.422888 
L 256.01696 51.1954 
L 254.059012 52.967913 
L 252.101063 54.740425 
L 250.143115 56.512937 
L 248.185166 58.28545 
L 246.227217 60.056568 
L 244.269269 61.827464 
L 242.31132 63.598576 
L 240.353372 65.380006 
L 238.395423 67.221816 
L 236.437474 68.961847 
L 234.479526 70.704052 
L 232.521577 72.513691 
L 230.563629 74.323676 
L 228.60568 76.133661 
L 226.647732 77.946227 
L 224.689783 79.758812 
L 222.731834 81.572491 
L 220.773886 83.393597 
L 218.815937 85.164722 
L 216.857989 86.918947 
L 214.90004 88.673172 
L 212.942092 90.427701 
L 210.984143 92.182448 
L 209.026194 93.943964 
L 207.068246 95.71101 
L 205.110297 97.478056 
L 203.152349 99.230461 
L 201.1944 100.953861 
L 199.236452 102.706975 
L 197.278503 104.461409 
L 195.320554 106.202868 
L 193.362606 107.970291 
L 191.404657 109.716589 
L 189.446709 111.479993 
L 187.48876 113.234844 
L 185.530811 114.989694 
L 183.572863 116.743714 
L 181.614914 118.497518 
L 179.656966 120.252818 
L 177.699017 122.020287 
L 175.741069 123.808887 
L 173.78312 125.523545 
L 171.825171 127.320634 
L 169.867223 129.117782 
L 167.909274 130.914339 
L 165.951326 132.636185 
L 163.993377 134.337685 
L 162.035429 136.04731 
L 160.07748 137.797258 
L 158.119531 139.670472 
L 156.161583 141.384231 
L 154.203634 143.090593 
L 152.245686 144.815198 
L 150.287737 146.558812 
L 148.329789 148.244925 
L 146.37184 149.911625 
L 144.413891 151.616884 
L 142.455943 153.321372 
L 140.497994 155.027012 
L 138.540046 156.737955 
L 136.582097 158.452203 
L 134.624148 160.142564 
L 132.6662 161.825091 
L 130.708251 163.491277 
L 128.750303 165.155847 
L 126.792354 166.830652 
L 124.834406 168.485042 
L 122.876457 170.157378 
L 120.918508 171.847039 
L 118.96056 173.493077 
L 117.002611 175.18619 
L 115.044663 176.925698 
L 113.086714 178.581523 
L 111.128766 180.235754 
L 109.170817 181.918033 
L 107.212868 183.603105 
L 105.25492 185.221759 
L 103.296971 186.84439 
L 101.339023 188.46688 
L 99.381074 190.128289 
L 97.423126 191.781891 
L 95.465177 193.444761 
L 93.507228 195.107821 
L 91.54928 196.771184 
L 89.591331 198.384935 
L 87.633383 200.045327 
L 85.675434 201.706712 
L 83.717485 203.318591 
L 81.759537 204.952572 
L 79.801588 206.581257 
L 77.84364 208.189954 
L 75.885691 209.866933 
L 73.927743 211.559379 
L 71.969794 213.143201 
L 70.011845 214.75404 
z
" clip-path="url(#p7c8a8bf4cc)" style="fill: #808080; fill-opacity: 0.15"/>
   </g>
   <g id="matplotlib.axis_1">
    <g id="xtick_1">
     <g id="line2d_1">
      <defs>
       <path id="mfda61cb387" d="M 0 0 
L 0 3.5 
" style="stroke: #000000; stroke-width: 0.8"/>
      </defs>
      <g>
       <use xlink:href="#mfda61cb387" x="91.987617" y="246.04" style="stroke: #000000; stroke-width: 0.8"/>
      </g>
     </g>
     <g id="text_1">
      <!-- 0.2 -->
      <g transform="translate(84.036054 260.638438) scale(0.1 -0.1)">
       <defs>
        <path id="DejaVuSans-30" d="M 2034 4250 
Q 1547 4250 1301 3770 
Q 1056 3291 1056 2328 
Q 1056 1369 1301 889 
Q 1547 409 2034 409 
Q 2525 409 2770 889 
Q 3016 1369 3016 2328 
Q 3016 3291 2770 3770 
Q 2525 4250 2034 4250 
z
M 2034 4750 
Q 2819 4750 3233 4129 
Q 3647 3509 3647 2328 
Q 3647 1150 3233 529 
Q 2819 -91 2034 -91 
Q 1250 -91 836 529 
Q 422 1150 422 2328 
Q 422 3509 836 4129 
Q 1250 4750 2034 4750 
z
" transform="scale(0.015625)"/>
        <path id="DejaVuSans-2e" d="M 684 794 
L 1344 794 
L 1344 0 
L 684 0 
L 684 794 
z
" transform="scale(0.015625)"/>
        <path id="DejaVuSans-32" d="M 1228 531 
L 3431 531 
L 3431 0 
L 469 0 
L 469 531 
Q 828 903 1448 1529 
Q 2069 2156 2228 2338 
Q 2531 2678 2651 2914 
Q 2772 3150 2772 3378 
Q 2772 3750 2511 3984 
Q 2250 4219 1831 4219 
Q 1534 4219 1204 4116 
Q 875 4013 500 3803 
L 500 4441 
Q 881 4594 1212 4672 
Q 1544 4750 1819 4750 
Q 2544 4750 2975 4387 
Q 3406 4025 3406 3419 
Q 3406 3131 3298 2873 
Q 3191 2616 2906 2266 
Q 2828 2175 2409 1742 
Q 1991 1309 1228 531 
z
" transform="scale(0.015625)"/>
       </defs>
       <use xlink:href="#DejaVuSans-30"/>
       <use xlink:href="#DejaVuSans-2e" x="63.623047"/>
       <use xlink:href="#DejaVuSans-32" x="95.410156"/>
      </g>
     </g>
    </g>
    <g id="xtick_2">
     <g id="line2d_2">
      <g>
       <use xlink:href="#mfda61cb387" x="133.591248" y="246.04" style="stroke: #000000; stroke-width: 0.8"/>
      </g>
     </g>
     <g id="text_2">
      <!-- 0.3 -->
      <g transform="translate(125.639686 260.638438) scale(0.1 -0.1)">
       <defs>
        <path id="DejaVuSans-33" d="M 2597 2516 
Q 3050 2419 3304 2112 
Q 3559 1806 3559 1356 
Q 3559 666 3084 287 
Q 2609 -91 1734 -91 
Q 1441 -91 1130 -33 
Q 819 25 488 141 
L 488 750 
Q 750 597 1062 519 
Q 1375 441 1716 441 
Q 2309 441 2620 675 
Q 2931 909 2931 1356 
Q 2931 1769 2642 2001 
Q 2353 2234 1838 2234 
L 1294 2234 
L 1294 2753 
L 1863 2753 
Q 2328 2753 2575 2939 
Q 2822 3125 2822 3475 
Q 2822 3834 2567 4026 
Q 2313 4219 1838 4219 
Q 1578 4219 1281 4162 
Q 984 4106 628 3988 
L 628 4550 
Q 988 4650 1302 4700 
Q 1616 4750 1894 4750 
Q 2613 4750 3031 4423 
Q 3450 4097 3450 3541 
Q 3450 3153 3228 2886 
Q 3006 2619 2597 2516 
z
" transform="scale(0.015625)"/>
       </defs>
       <use xlink:href="#DejaVuSans-30"/>
       <use xlink:href="#DejaVuSans-2e" x="63.623047"/>
       <use xlink:href="#DejaVuSans-33" x="95.410156"/>
      </g>
     </g>
    </g>
    <g id="xtick_3">
     <g id="line2d_3">
      <g>
       <use xlink:href="#mfda61cb387" x="175.194879" y="246.04" style="stroke: #000000; stroke-width: 0.8"/>
      </g>
     </g>
     <g id="text_3">
      <!-- 0.4 -->
      <g transform="translate(167.243317 260.638438) scale(0.1 -0.1)">
       <defs>
        <path id="DejaVuSans-34" d="M 2419 4116 
L 825 1625 
L 2419 1625 
L 2419 4116 
z
M 2253 4666 
L 3047 4666 
L 3047 1625 
L 3713 1625 
L 3713 1100 
L 3047 1100 
L 3047 0 
L 2419 0 
L 2419 1100 
L 313 1100 
L 313 1709 
L 2253 4666 
z
" transform="scale(0.015625)"/>
       </defs>
       <use xlink:href="#DejaVuSans-30"/>
       <use xlink:href="#DejaVuSans-2e" x="63.623047"/>
       <use xlink:href="#DejaVuSans-34" x="95.410156"/>
      </g>
     </g>
    </g>
    <g id="xtick_4">
     <g id="line2d_4">
      <g>
       <use xlink:href="#mfda61cb387" x="216.79851" y="246.04" style="stroke: #000000; stroke-width: 0.8"/>
      </g>
     </g>
     <g id="text_4">
      <!-- 0.5 -->
      <g transform="translate(208.846948 260.638438) scale(0.1 -0.1)">
       <defs>
        <path id="DejaVuSans-35" d="M 691 4666 
L 3169 4666 
L 3169 4134 
L 1269 4134 
L 1269 2991 
Q 1406 3038 1543 3061 
Q 1681 3084 1819 3084 
Q 2600 3084 3056 2656 
Q 3513 2228 3513 1497 
Q 3513 744 3044 326 
Q 2575 -91 1722 -91 
Q 1428 -91 1123 -41 
Q 819 9 494 109 
L 494 744 
Q 775 591 1075 516 
Q 1375 441 1709 441 
Q 2250 441 2565 725 
Q 2881 1009 2881 1497 
Q 2881 1984 2565 2268 
Q 2250 2553 1709 2553 
Q 1456 2553 1204 2497 
Q 953 2441 691 2322 
L 691 4666 
z
" transform="scale(0.015625)"/>
       </defs>
       <use xlink:href="#DejaVuSans-30"/>
       <use xlink:href="#DejaVuSans-2e" x="63.623047"/>
       <use xlink:href="#DejaVuSans-35" x="95.410156"/>
      </g>
     </g>
    </g>
    <g id="xtick_5">
     <g id="line2d_5">
      <g>
       <use xlink:href="#mfda61cb387" x="258.402141" y="246.04" style="stroke: #000000; stroke-width: 0.8"/>
      </g>
     </g>
     <g id="text_5">
      <!-- 0.6 -->
      <g transform="translate(250.450579 260.638438) scale(0.1 -0.1)">
       <defs>
        <path id="DejaVuSans-36" d="M 2113 2584 
Q 1688 2584 1439 2293 
Q 1191 2003 1191 1497 
Q 1191 994 1439 701 
Q 1688 409 2113 409 
Q 2538 409 2786 701 
Q 3034 994 3034 1497 
Q 3034 2003 2786 2293 
Q 2538 2584 2113 2584 
z
M 3366 4563 
L 3366 3988 
Q 3128 4100 2886 4159 
Q 2644 4219 2406 4219 
Q 1781 4219 1451 3797 
Q 1122 3375 1075 2522 
Q 1259 2794 1537 2939 
Q 1816 3084 2150 3084 
Q 2853 3084 3261 2657 
Q 3669 2231 3669 1497 
Q 3669 778 3244 343 
Q 2819 -91 2113 -91 
Q 1303 -91 875 529 
Q 447 1150 447 2328 
Q 447 3434 972 4092 
Q 1497 4750 2381 4750 
Q 2619 4750 2861 4703 
Q 3103 4656 3366 4563 
z
" transform="scale(0.015625)"/>
       </defs>
       <use xlink:href="#DejaVuSans-30"/>
       <use xlink:href="#DejaVuSans-2e" x="63.623047"/>
       <use xlink:href="#DejaVuSans-36" x="95.410156"/>
      </g>
     </g>
    </g>
    <g id="text_6">
     <!-- Cortical Activation (a.u.) -->
     <g transform="translate(106.249831 274.316562) scale(0.1 -0.1)">
      <defs>
       <path id="DejaVuSans-43" d="M 4122 4306 
L 4122 3641 
Q 3803 3938 3442 4084 
Q 3081 4231 2675 4231 
Q 1875 4231 1450 3742 
Q 1025 3253 1025 2328 
Q 1025 1406 1450 917 
Q 1875 428 2675 428 
Q 3081 428 3442 575 
Q 3803 722 4122 1019 
L 4122 359 
Q 3791 134 3420 21 
Q 3050 -91 2638 -91 
Q 1578 -91 968 557 
Q 359 1206 359 2328 
Q 359 3453 968 4101 
Q 1578 4750 2638 4750 
Q 3056 4750 3426 4639 
Q 3797 4528 4122 4306 
z
" transform="scale(0.015625)"/>
       <path id="DejaVuSans-6f" d="M 1959 3097 
Q 1497 3097 1228 2736 
Q 959 2375 959 1747 
Q 959 1119 1226 758 
Q 1494 397 1959 397 
Q 2419 397 2687 759 
Q 2956 1122 2956 1747 
Q 2956 2369 2687 2733 
Q 2419 3097 1959 3097 
z
M 1959 3584 
Q 2709 3584 3137 3096 
Q 3566 2609 3566 1747 
Q 3566 888 3137 398 
Q 2709 -91 1959 -91 
Q 1206 -91 779 398 
Q 353 888 353 1747 
Q 353 2609 779 3096 
Q 1206 3584 1959 3584 
z
" transform="scale(0.015625)"/>
       <path id="DejaVuSans-72" d="M 2631 2963 
Q 2534 3019 2420 3045 
Q 2306 3072 2169 3072 
Q 1681 3072 1420 2755 
Q 1159 2438 1159 1844 
L 1159 0 
L 581 0 
L 581 3500 
L 1159 3500 
L 1159 2956 
Q 1341 3275 1631 3429 
Q 1922 3584 2338 3584 
Q 2397 3584 2469 3576 
Q 2541 3569 2628 3553 
L 2631 2963 
z
" transform="scale(0.015625)"/>
       <path id="DejaVuSans-74" d="M 1172 4494 
L 1172 3500 
L 2356 3500 
L 2356 3053 
L 1172 3053 
L 1172 1153 
Q 1172 725 1289 603 
Q 1406 481 1766 481 
L 2356 481 
L 2356 0 
L 1766 0 
Q 1100 0 847 248 
Q 594 497 594 1153 
L 594 3053 
L 172 3053 
L 172 3500 
L 594 3500 
L 594 4494 
L 1172 4494 
z
" transform="scale(0.015625)"/>
       <path id="DejaVuSans-69" d="M 603 3500 
L 1178 3500 
L 1178 0 
L 603 0 
L 603 3500 
z
M 603 4863 
L 1178 4863 
L 1178 4134 
L 603 4134 
L 603 4863 
z
" transform="scale(0.015625)"/>
       <path id="DejaVuSans-63" d="M 3122 3366 
L 3122 2828 
Q 2878 2963 2633 3030 
Q 2388 3097 2138 3097 
Q 1578 3097 1268 2742 
Q 959 2388 959 1747 
Q 959 1106 1268 751 
Q 1578 397 2138 397 
Q 2388 397 2633 464 
Q 2878 531 3122 666 
L 3122 134 
Q 2881 22 2623 -34 
Q 2366 -91 2075 -91 
Q 1284 -91 818 406 
Q 353 903 353 1747 
Q 353 2603 823 3093 
Q 1294 3584 2113 3584 
Q 2378 3584 2631 3529 
Q 2884 3475 3122 3366 
z
" transform="scale(0.015625)"/>
       <path id="DejaVuSans-61" d="M 2194 1759 
Q 1497 1759 1228 1600 
Q 959 1441 959 1056 
Q 959 750 1161 570 
Q 1363 391 1709 391 
Q 2188 391 2477 730 
Q 2766 1069 2766 1631 
L 2766 1759 
L 2194 1759 
z
M 3341 1997 
L 3341 0 
L 2766 0 
L 2766 531 
Q 2569 213 2275 61 
Q 1981 -91 1556 -91 
Q 1019 -91 701 211 
Q 384 513 384 1019 
Q 384 1609 779 1909 
Q 1175 2209 1959 2209 
L 2766 2209 
L 2766 2266 
Q 2766 2663 2505 2880 
Q 2244 3097 1772 3097 
Q 1472 3097 1187 3025 
Q 903 2953 641 2809 
L 641 3341 
Q 956 3463 1253 3523 
Q 1550 3584 1831 3584 
Q 2591 3584 2966 3190 
Q 3341 2797 3341 1997 
z
" transform="scale(0.015625)"/>
       <path id="DejaVuSans-6c" d="M 603 4863 
L 1178 4863 
L 1178 0 
L 603 0 
L 603 4863 
z
" transform="scale(0.015625)"/>
       <path id="DejaVuSans-20" transform="scale(0.015625)"/>
       <path id="DejaVuSans-41" d="M 2188 4044 
L 1331 1722 
L 3047 1722 
L 2188 4044 
z
M 1831 4666 
L 2547 4666 
L 4325 0 
L 3669 0 
L 3244 1197 
L 1141 1197 
L 716 0 
L 50 0 
L 1831 4666 
z
" transform="scale(0.015625)"/>
       <path id="DejaVuSans-76" d="M 191 3500 
L 800 3500 
L 1894 563 
L 2988 3500 
L 3597 3500 
L 2284 0 
L 1503 0 
L 191 3500 
z
" transform="scale(0.015625)"/>
       <path id="DejaVuSans-6e" d="M 3513 2113 
L 3513 0 
L 2938 0 
L 2938 2094 
Q 2938 2591 2744 2837 
Q 2550 3084 2163 3084 
Q 1697 3084 1428 2787 
Q 1159 2491 1159 1978 
L 1159 0 
L 581 0 
L 581 3500 
L 1159 3500 
L 1159 2956 
Q 1366 3272 1645 3428 
Q 1925 3584 2291 3584 
Q 2894 3584 3203 3211 
Q 3513 2838 3513 2113 
z
" transform="scale(0.015625)"/>
       <path id="DejaVuSans-28" d="M 1984 4856 
Q 1566 4138 1362 3434 
Q 1159 2731 1159 2009 
Q 1159 1288 1364 580 
Q 1569 -128 1984 -844 
L 1484 -844 
Q 1016 -109 783 600 
Q 550 1309 550 2009 
Q 550 2706 781 3412 
Q 1013 4119 1484 4856 
L 1984 4856 
z
" transform="scale(0.015625)"/>
       <path id="DejaVuSans-75" d="M 544 1381 
L 544 3500 
L 1119 3500 
L 1119 1403 
Q 1119 906 1312 657 
Q 1506 409 1894 409 
Q 2359 409 2629 706 
Q 2900 1003 2900 1516 
L 2900 3500 
L 3475 3500 
L 3475 0 
L 2900 0 
L 2900 538 
Q 2691 219 2414 64 
Q 2138 -91 1772 -91 
Q 1169 -91 856 284 
Q 544 659 544 1381 
z
M 1991 3584 
L 1991 3584 
z
" transform="scale(0.015625)"/>
       <path id="DejaVuSans-29" d="M 513 4856 
L 1013 4856 
Q 1481 4119 1714 3412 
Q 1947 2706 1947 2009 
Q 1947 1309 1714 600 
Q 1481 -109 1013 -844 
L 513 -844 
Q 928 -128 1133 580 
Q 1338 1288 1338 2009 
Q 1338 2731 1133 3434 
Q 928 4138 513 4856 
z
" transform="scale(0.015625)"/>
      </defs>
      <use xlink:href="#DejaVuSans-43"/>
      <use xlink:href="#DejaVuSans-6f" x="69.824219"/>
      <use xlink:href="#DejaVuSans-72" x="131.005859"/>
      <use xlink:href="#DejaVuSans-74" x="172.119141"/>
      <use xlink:href="#DejaVuSans-69" x="211.328125"/>
      <use xlink:href="#DejaVuSans-63" x="239.111328"/>
      <use xlink:href="#DejaVuSans-61" x="294.091797"/>
      <use xlink:href="#DejaVuSans-6c" x="355.371094"/>
      <use xlink:href="#DejaVuSans-20" x="383.154297"/>
      <use xlink:href="#DejaVuSans-41" x="414.941406"/>
      <use xlink:href="#DejaVuSans-63" x="481.599609"/>
      <use xlink:href="#DejaVuSans-74" x="536.580078"/>
      <use xlink:href="#DejaVuSans-69" x="575.789062"/>
      <use xlink:href="#DejaVuSans-76" x="603.572266"/>
      <use xlink:href="#DejaVuSans-61" x="662.751953"/>
      <use xlink:href="#DejaVuSans-74" x="724.03125"/>
      <use xlink:href="#DejaVuSans-69" x="763.240234"/>
      <use xlink:href="#DejaVuSans-6f" x="791.023438"/>
      <use xlink:href="#DejaVuSans-6e" x="852.205078"/>
      <use xlink:href="#DejaVuSans-20" x="915.583984"/>
      <use xlink:href="#DejaVuSans-28" x="947.371094"/>
      <use xlink:href="#DejaVuSans-61" x="986.384766"/>
      <use xlink:href="#DejaVuSans-2e" x="1047.664062"/>
      <use xlink:href="#DejaVuSans-75" x="1079.451172"/>
      <use xlink:href="#DejaVuSans-2e" x="1142.830078"/>
      <use xlink:href="#DejaVuSans-29" x="1174.617188"/>
     </g>
    </g>
   </g>
   <g id="matplotlib.axis_2">
    <g id="ytick_1">
     <g id="line2d_6">
      <defs>
       <path id="m9976403ec4" d="M 0 0 
L -3.5 0 
" style="stroke: #000000; stroke-width: 0.8"/>
      </defs>
      <g>
       <use xlink:href="#m9976403ec4" x="60.32" y="231.764574" style="stroke: #000000; stroke-width: 0.8"/>
      </g>
     </g>
     <g id="text_7">
      <!-- 0.025 -->
      <g transform="translate(24.691875 235.563792) scale(0.1 -0.1)">
       <use xlink:href="#DejaVuSans-30"/>
       <use xlink:href="#DejaVuSans-2e" x="63.623047"/>
       <use xlink:href="#DejaVuSans-30" x="95.410156"/>
       <use xlink:href="#DejaVuSans-32" x="159.033203"/>
       <use xlink:href="#DejaVuSans-35" x="222.65625"/>
      </g>
     </g>
    </g>
    <g id="ytick_2">
     <g id="line2d_7">
      <g>
       <use xlink:href="#m9976403ec4" x="60.32" y="203.971374" style="stroke: #000000; stroke-width: 0.8"/>
      </g>
     </g>
     <g id="text_8">
      <!-- 0.050 -->
      <g transform="translate(24.691875 207.770593) scale(0.1 -0.1)">
       <use xlink:href="#DejaVuSans-30"/>
       <use xlink:href="#DejaVuSans-2e" x="63.623047"/>
       <use xlink:href="#DejaVuSans-30" x="95.410156"/>
       <use xlink:href="#DejaVuSans-35" x="159.033203"/>
       <use xlink:href="#DejaVuSans-30" x="222.65625"/>
      </g>
     </g>
    </g>
    <g id="ytick_3">
     <g id="line2d_8">
      <g>
       <use xlink:href="#m9976403ec4" x="60.32" y="176.178175" style="stroke: #000000; stroke-width: 0.8"/>
      </g>
     </g>
     <g id="text_9">
      <!-- 0.075 -->
      <g transform="translate(24.691875 179.977394) scale(0.1 -0.1)">
       <defs>
        <path id="DejaVuSans-37" d="M 525 4666 
L 3525 4666 
L 3525 4397 
L 1831 0 
L 1172 0 
L 2766 4134 
L 525 4134 
L 525 4666 
z
" transform="scale(0.015625)"/>
       </defs>
       <use xlink:href="#DejaVuSans-30"/>
       <use xlink:href="#DejaVuSans-2e" x="63.623047"/>
       <use xlink:href="#DejaVuSans-30" x="95.410156"/>
       <use xlink:href="#DejaVuSans-37" x="159.033203"/>
       <use xlink:href="#DejaVuSans-35" x="222.65625"/>
      </g>
     </g>
    </g>
    <g id="ytick_4">
     <g id="line2d_9">
      <g>
       <use xlink:href="#m9976403ec4" x="60.32" y="148.384975" style="stroke: #000000; stroke-width: 0.8"/>
      </g>
     </g>
     <g id="text_10">
      <!-- 0.100 -->
      <g transform="translate(24.691875 152.184194) scale(0.1 -0.1)">
       <defs>
        <path id="DejaVuSans-31" d="M 794 531 
L 1825 531 
L 1825 4091 
L 703 3866 
L 703 4441 
L 1819 4666 
L 2450 4666 
L 2450 531 
L 3481 531 
L 3481 0 
L 794 0 
L 794 531 
z
" transform="scale(0.015625)"/>
       </defs>
       <use xlink:href="#DejaVuSans-30"/>
       <use xlink:href="#DejaVuSans-2e" x="63.623047"/>
       <use xlink:href="#DejaVuSans-31" x="95.410156"/>
       <use xlink:href="#DejaVuSans-30" x="159.033203"/>
       <use xlink:href="#DejaVuSans-30" x="222.65625"/>
      </g>
     </g>
    </g>
    <g id="ytick_5">
     <g id="line2d_10">
      <g>
       <use xlink:href="#m9976403ec4" x="60.32" y="120.591776" style="stroke: #000000; stroke-width: 0.8"/>
      </g>
     </g>
     <g id="text_11">
      <!-- 0.125 -->
      <g transform="translate(24.691875 124.390995) scale(0.1 -0.1)">
       <use xlink:href="#DejaVuSans-30"/>
       <use xlink:href="#DejaVuSans-2e" x="63.623047"/>
       <use xlink:href="#DejaVuSans-31" x="95.410156"/>
       <use xlink:href="#DejaVuSans-32" x="159.033203"/>
       <use xlink:href="#DejaVuSans-35" x="222.65625"/>
      </g>
     </g>
    </g>
    <g id="ytick_6">
     <g id="line2d_11">
      <g>
       <use xlink:href="#m9976403ec4" x="60.32" y="92.798577" style="stroke: #000000; stroke-width: 0.8"/>
      </g>
     </g>
     <g id="text_12">
      <!-- 0.150 -->
      <g transform="translate(24.691875 96.597795) scale(0.1 -0.1)">
       <use xlink:href="#DejaVuSans-30"/>
       <use xlink:href="#DejaVuSans-2e" x="63.623047"/>
       <use xlink:href="#DejaVuSans-31" x="95.410156"/>
       <use xlink:href="#DejaVuSans-35" x="159.033203"/>
       <use xlink:href="#DejaVuSans-30" x="222.65625"/>
      </g>
     </g>
    </g>
    <g id="ytick_7">
     <g id="line2d_12">
      <g>
       <use xlink:href="#m9976403ec4" x="60.32" y="65.005377" style="stroke: #000000; stroke-width: 0.8"/>
      </g>
     </g>
     <g id="text_13">
      <!-- 0.175 -->
      <g transform="translate(24.691875 68.804596) scale(0.1 -0.1)">
       <use xlink:href="#DejaVuSans-30"/>
       <use xlink:href="#DejaVuSans-2e" x="63.623047"/>
       <use xlink:href="#DejaVuSans-31" x="95.410156"/>
       <use xlink:href="#DejaVuSans-37" x="159.033203"/>
       <use xlink:href="#DejaVuSans-35" x="222.65625"/>
      </g>
     </g>
    </g>
    <g id="ytick_8">
     <g id="line2d_13">
      <g>
       <use xlink:href="#m9976403ec4" x="60.32" y="37.212178" style="stroke: #000000; stroke-width: 0.8"/>
      </g>
     </g>
     <g id="text_14">
      <!-- 0.200 -->
      <g transform="translate(24.691875 41.011397) scale(0.1 -0.1)">
       <use xlink:href="#DejaVuSans-30"/>
       <use xlink:href="#DejaVuSans-2e" x="63.623047"/>
       <use xlink:href="#DejaVuSans-32" x="95.410156"/>
       <use xlink:href="#DejaVuSans-30" x="159.033203"/>
       <use xlink:href="#DejaVuSans-30" x="222.65625"/>
      </g>
     </g>
    </g>
    <g id="text_15">
     <!-- Cerebellar Activation (a.u.) -->
     <g transform="translate(18.612187 195.678594) rotate(-90) scale(0.1 -0.1)">
      <defs>
       <path id="DejaVuSans-65" d="M 3597 1894 
L 3597 1613 
L 953 1613 
Q 991 1019 1311 708 
Q 1631 397 2203 397 
Q 2534 397 2845 478 
Q 3156 559 3463 722 
L 3463 178 
Q 3153 47 2828 -22 
Q 2503 -91 2169 -91 
Q 1331 -91 842 396 
Q 353 884 353 1716 
Q 353 2575 817 3079 
Q 1281 3584 2069 3584 
Q 2775 3584 3186 3129 
Q 3597 2675 3597 1894 
z
M 3022 2063 
Q 3016 2534 2758 2815 
Q 2500 3097 2075 3097 
Q 1594 3097 1305 2825 
Q 1016 2553 972 2059 
L 3022 2063 
z
" transform="scale(0.015625)"/>
       <path id="DejaVuSans-62" d="M 3116 1747 
Q 3116 2381 2855 2742 
Q 2594 3103 2138 3103 
Q 1681 3103 1420 2742 
Q 1159 2381 1159 1747 
Q 1159 1113 1420 752 
Q 1681 391 2138 391 
Q 2594 391 2855 752 
Q 3116 1113 3116 1747 
z
M 1159 2969 
Q 1341 3281 1617 3432 
Q 1894 3584 2278 3584 
Q 2916 3584 3314 3078 
Q 3713 2572 3713 1747 
Q 3713 922 3314 415 
Q 2916 -91 2278 -91 
Q 1894 -91 1617 61 
Q 1341 213 1159 525 
L 1159 0 
L 581 0 
L 581 4863 
L 1159 4863 
L 1159 2969 
z
" transform="scale(0.015625)"/>
      </defs>
      <use xlink:href="#DejaVuSans-43"/>
      <use xlink:href="#DejaVuSans-65" x="69.824219"/>
      <use xlink:href="#DejaVuSans-72" x="131.347656"/>
      <use xlink:href="#DejaVuSans-65" x="170.210938"/>
      <use xlink:href="#DejaVuSans-62" x="231.734375"/>
      <use xlink:href="#DejaVuSans-65" x="295.210938"/>
      <use xlink:href="#DejaVuSans-6c" x="356.734375"/>
      <use xlink:href="#DejaVuSans-6c" x="384.517578"/>
      <use xlink:href="#DejaVuSans-61" x="412.300781"/>
      <use xlink:href="#DejaVuSans-72" x="473.580078"/>
      <use xlink:href="#DejaVuSans-20" x="514.693359"/>
      <use xlink:href="#DejaVuSans-41" x="546.480469"/>
      <use xlink:href="#DejaVuSans-63" x="613.138672"/>
      <use xlink:href="#DejaVuSans-74" x="668.119141"/>
      <use xlink:href="#DejaVuSans-69" x="707.328125"/>
      <use xlink:href="#DejaVuSans-76" x="735.111328"/>
      <use xlink:href="#DejaVuSans-61" x="794.291016"/>
      <use xlink:href="#DejaVuSans-74" x="855.570312"/>
      <use xlink:href="#DejaVuSans-69" x="894.779297"/>
      <use xlink:href="#DejaVuSans-6f" x="922.5625"/>
      <use xlink:href="#DejaVuSans-6e" x="983.744141"/>
      <use xlink:href="#DejaVuSans-20" x="1047.123047"/>
      <use xlink:href="#DejaVuSans-28" x="1078.910156"/>
      <use xlink:href="#DejaVuSans-61" x="1117.923828"/>
      <use xlink:href="#DejaVuSans-2e" x="1179.203125"/>
      <use xlink:href="#DejaVuSans-75" x="1210.990234"/>
      <use xlink:href="#DejaVuSans-2e" x="1274.369141"/>
      <use xlink:href="#DejaVuSans-29" x="1306.15625"/>
     </g>
    </g>
   </g>
   <g id="line2d_14">
    <path d="M 70.011845 220.385914 
L 71.969794 218.696615 
L 73.927743 217.007317 
L 75.885691 215.318018 
L 77.84364 213.628719 
L 79.801588 211.93942 
L 81.759537 210.250121 
L 83.717485 208.560822 
L 85.675434 206.871523 
L 87.633383 205.182224 
L 89.591331 203.492925 
L 91.54928 201.803626 
L 93.507228 200.114327 
L 95.465177 198.425028 
L 97.423126 196.735729 
L 99.381074 195.04643 
L 101.339023 193.357131 
L 103.296971 191.667833 
L 105.25492 189.978534 
L 107.212868 188.289235 
L 109.170817 186.599936 
L 111.128766 184.910637 
L 113.086714 183.221338 
L 115.044663 181.532039 
L 117.002611 179.84274 
L 118.96056 178.153441 
L 120.918508 176.464142 
L 122.876457 174.774843 
L 124.834406 173.085544 
L 126.792354 171.396245 
L 128.750303 169.706946 
L 130.708251 168.017647 
L 132.6662 166.328349 
L 134.624148 164.63905 
L 136.582097 162.949751 
L 138.540046 161.260452 
L 140.497994 159.571153 
L 142.455943 157.881854 
L 144.413891 156.192555 
L 146.37184 154.503256 
L 148.329789 152.813957 
L 150.287737 151.124658 
L 152.245686 149.435359 
L 154.203634 147.74606 
L 156.161583 146.056761 
L 158.119531 144.367462 
L 160.07748 142.678163 
L 162.035429 140.988865 
L 163.993377 139.299566 
L 165.951326 137.610267 
L 167.909274 135.920968 
L 169.867223 134.231669 
L 171.825171 132.54237 
L 173.78312 130.853071 
L 175.741069 129.163772 
L 177.699017 127.474473 
L 179.656966 125.785174 
L 181.614914 124.095875 
L 183.572863 122.406576 
L 185.530811 120.717277 
L 187.48876 119.027978 
L 189.446709 117.338679 
L 191.404657 115.649381 
L 193.362606 113.960082 
L 195.320554 112.270783 
L 197.278503 110.581484 
L 199.236452 108.892185 
L 201.1944 107.202886 
L 203.152349 105.513587 
L 205.110297 103.824288 
L 207.068246 102.134989 
L 209.026194 100.44569 
L 210.984143 98.756391 
L 212.942092 97.067092 
L 214.90004 95.377793 
L 216.857989 93.688494 
L 218.815937 91.999195 
L 220.773886 90.309897 
L 222.731834 88.620598 
L 224.689783 86.931299 
L 226.647732 85.242 
L 228.60568 83.552701 
L 230.563629 81.863402 
L 232.521577 80.174103 
L 234.479526 78.484804 
L 236.437474 76.795505 
L 238.395423 75.106206 
L 240.353372 73.416907 
L 242.31132 71.727608 
L 244.269269 70.038309 
L 246.227217 68.34901 
L 248.185166 66.659711 
L 250.143115 64.970413 
L 252.101063 63.281114 
L 254.059012 61.591815 
L 256.01696 59.902516 
L 257.974909 58.213217 
L 259.932857 56.523918 
L 261.890806 54.834619 
L 263.848755 53.14532 
" clip-path="url(#p7c8a8bf4cc)" style="fill: none; stroke: #808080; stroke-width: 2.25; stroke-linecap: square"/>
   </g>
   <g id="LineCollection_1">
    <path d="M 128.468956 193.728583 
L 128.468956 151.659974 
" clip-path="url(#p7c8a8bf4cc)" style="fill: none; stroke: #e6e6e6"/>
    <path d="M 131.248767 205.1023 
L 131.248767 151.557672 
" clip-path="url(#p7c8a8bf4cc)" style="fill: none; stroke: #e6e6e6"/>
    <path d="M 263.848755 73.336933 
L 263.848755 21.492727 
" clip-path="url(#p7c8a8bf4cc)" style="fill: none; stroke: #e6e6e6"/>
    <path d="M 259.121064 77.673688 
L 259.121064 33.391462 
" clip-path="url(#p7c8a8bf4cc)" style="fill: none; stroke: #e6e6e6"/>
    <path d="M 70.011845 235.347273 
L 70.011845 194.321544 
" clip-path="url(#p7c8a8bf4cc)" style="fill: none; stroke: #e6e6e6"/>
    <path d="M 80.642847 226.133918 
L 80.642847 196.790963 
" clip-path="url(#p7c8a8bf4cc)" style="fill: none; stroke: #e6e6e6"/>
    <path d="M 172.164658 150.54297 
L 172.164658 86.632097 
" clip-path="url(#p7c8a8bf4cc)" style="fill: none; stroke: #e6e6e6"/>
    <path d="M 181.012965 145.571315 
L 181.012965 83.330755 
" clip-path="url(#p7c8a8bf4cc)" style="fill: none; stroke: #e6e6e6"/>
    <path d="M 76.929317 232.383154 
L 76.929317 190.042943 
" clip-path="url(#p7c8a8bf4cc)" style="fill: none; stroke: #e6e6e6"/>
    <path d="M 97.46772 223.25285 
L 97.46772 187.830777 
" clip-path="url(#p7c8a8bf4cc)" style="fill: none; stroke: #e6e6e6"/>
    <path d="M 225.919961 110.028689 
L 225.919961 71.125592 
" clip-path="url(#p7c8a8bf4cc)" style="fill: none; stroke: #e6e6e6"/>
    <path d="M 241.680605 110.882438 
L 241.680605 59.022121 
" clip-path="url(#p7c8a8bf4cc)" style="fill: none; stroke: #e6e6e6"/>
   </g>
   <g id="patch_3">
    <path d="M 60.32 246.04 
L 60.32 10.8 
" style="fill: none; stroke: #000000; stroke-width: 0.8; stroke-linejoin: miter; stroke-linecap: square"/>
   </g>
   <g id="patch_4">
    <path d="M 60.32 246.04 
L 273.5406 246.04 
" style="fill: none; stroke: #000000; stroke-width: 0.8; stroke-linejoin: miter; stroke-linecap: square"/>
   </g>
   <g id="text_16">
    <!-- nback_E_face  -->
    <g transform="translate(130.369951 169.794221) scale(0.0833 -0.0833)">
     <defs>
      <path id="DejaVuSans-6b" d="M 581 4863 
L 1159 4863 
L 1159 1991 
L 2875 3500 
L 3609 3500 
L 1753 1863 
L 3688 0 
L 2938 0 
L 1159 1709 
L 1159 0 
L 581 0 
L 581 4863 
z
" transform="scale(0.015625)"/>
      <path id="DejaVuSans-5f" d="M 3263 -1063 
L 3263 -1509 
L -63 -1509 
L -63 -1063 
L 3263 -1063 
z
" transform="scale(0.015625)"/>
      <path id="DejaVuSans-45" d="M 628 4666 
L 3578 4666 
L 3578 4134 
L 1259 4134 
L 1259 2753 
L 3481 2753 
L 3481 2222 
L 1259 2222 
L 1259 531 
L 3634 531 
L 3634 0 
L 628 0 
L 628 4666 
z
" transform="scale(0.015625)"/>
      <path id="DejaVuSans-66" d="M 2375 4863 
L 2375 4384 
L 1825 4384 
Q 1516 4384 1395 4259 
Q 1275 4134 1275 3809 
L 1275 3500 
L 2222 3500 
L 2222 3053 
L 1275 3053 
L 1275 0 
L 697 0 
L 697 3053 
L 147 3053 
L 147 3500 
L 697 3500 
L 697 3744 
Q 697 4328 969 4595 
Q 1241 4863 1831 4863 
L 2375 4863 
z
" transform="scale(0.015625)"/>
     </defs>
     <use xlink:href="#DejaVuSans-6e"/>
     <use xlink:href="#DejaVuSans-62" x="63.378906"/>
     <use xlink:href="#DejaVuSans-61" x="126.855469"/>
     <use xlink:href="#DejaVuSans-63" x="188.134766"/>
     <use xlink:href="#DejaVuSans-6b" x="243.115234"/>
     <use xlink:href="#DejaVuSans-5f" x="301.025391"/>
     <use xlink:href="#DejaVuSans-45" x="351.025391"/>
     <use xlink:href="#DejaVuSans-5f" x="414.208984"/>
     <use xlink:href="#DejaVuSans-66" x="464.208984"/>
     <use xlink:href="#DejaVuSans-61" x="499.414062"/>
     <use xlink:href="#DejaVuSans-63" x="560.693359"/>
     <use xlink:href="#DejaVuSans-65" x="615.673828"/>
     <use xlink:href="#DejaVuSans-20" x="677.197266"/>
    </g>
   </g>
   <g id="text_17">
    <!-- nback_E_house  -->
    <g transform="translate(133.334257 185.595484) scale(0.0833 -0.0833)">
     <defs>
      <path id="DejaVuSans-68" d="M 3513 2113 
L 3513 0 
L 2938 0 
L 2938 2094 
Q 2938 2591 2744 2837 
Q 2550 3084 2163 3084 
Q 1697 3084 1428 2787 
Q 1159 2491 1159 1978 
L 1159 0 
L 581 0 
L 581 4863 
L 1159 4863 
L 1159 2956 
Q 1366 3272 1645 3428 
Q 1925 3584 2291 3584 
Q 2894 3584 3203 3211 
Q 3513 2838 3513 2113 
z
" transform="scale(0.015625)"/>
      <path id="DejaVuSans-73" d="M 2834 3397 
L 2834 2853 
Q 2591 2978 2328 3040 
Q 2066 3103 1784 3103 
Q 1356 3103 1142 2972 
Q 928 2841 928 2578 
Q 928 2378 1081 2264 
Q 1234 2150 1697 2047 
L 1894 2003 
Q 2506 1872 2764 1633 
Q 3022 1394 3022 966 
Q 3022 478 2636 193 
Q 2250 -91 1575 -91 
Q 1294 -91 989 -36 
Q 684 19 347 128 
L 347 722 
Q 666 556 975 473 
Q 1284 391 1588 391 
Q 1994 391 2212 530 
Q 2431 669 2431 922 
Q 2431 1156 2273 1281 
Q 2116 1406 1581 1522 
L 1381 1569 
Q 847 1681 609 1914 
Q 372 2147 372 2553 
Q 372 3047 722 3315 
Q 1072 3584 1716 3584 
Q 2034 3584 2315 3537 
Q 2597 3491 2834 3397 
z
" transform="scale(0.015625)"/>
     </defs>
     <use xlink:href="#DejaVuSans-6e"/>
     <use xlink:href="#DejaVuSans-62" x="63.378906"/>
     <use xlink:href="#DejaVuSans-61" x="126.855469"/>
     <use xlink:href="#DejaVuSans-63" x="188.134766"/>
     <use xlink:href="#DejaVuSans-6b" x="243.115234"/>
     <use xlink:href="#DejaVuSans-5f" x="301.025391"/>
     <use xlink:href="#DejaVuSans-45" x="351.025391"/>
     <use xlink:href="#DejaVuSans-5f" x="414.208984"/>
     <use xlink:href="#DejaVuSans-68" x="464.208984"/>
     <use xlink:href="#DejaVuSans-6f" x="527.587891"/>
     <use xlink:href="#DejaVuSans-75" x="588.769531"/>
     <use xlink:href="#DejaVuSans-73" x="652.148438"/>
     <use xlink:href="#DejaVuSans-65" x="704.248047"/>
     <use xlink:href="#DejaVuSans-20" x="765.771484"/>
    </g>
   </g>
   <g id="text_18">
    <!-- nback_H_face  -->
    <g transform="translate(202.692231 44.514773) scale(0.0833 -0.0833)">
     <defs>
      <path id="DejaVuSans-48" d="M 628 4666 
L 1259 4666 
L 1259 2753 
L 3553 2753 
L 3553 4666 
L 4184 4666 
L 4184 0 
L 3553 0 
L 3553 2222 
L 1259 2222 
L 1259 0 
L 628 0 
L 628 4666 
z
" transform="scale(0.015625)"/>
     </defs>
     <use xlink:href="#DejaVuSans-6e"/>
     <use xlink:href="#DejaVuSans-62" x="63.378906"/>
     <use xlink:href="#DejaVuSans-61" x="126.855469"/>
     <use xlink:href="#DejaVuSans-63" x="188.134766"/>
     <use xlink:href="#DejaVuSans-6b" x="243.115234"/>
     <use xlink:href="#DejaVuSans-5f" x="301.025391"/>
     <use xlink:href="#DejaVuSans-48" x="351.025391"/>
     <use xlink:href="#DejaVuSans-5f" x="426.220703"/>
     <use xlink:href="#DejaVuSans-66" x="476.220703"/>
     <use xlink:href="#DejaVuSans-61" x="511.425781"/>
     <use xlink:href="#DejaVuSans-63" x="572.705078"/>
     <use xlink:href="#DejaVuSans-65" x="627.685547"/>
     <use xlink:href="#DejaVuSans-20" x="689.208984"/>
    </g>
   </g>
   <g id="text_19">
    <!-- nback_H_house  -->
    <g transform="translate(190.402802 62.798074) scale(0.0833 -0.0833)">
     <use xlink:href="#DejaVuSans-6e"/>
     <use xlink:href="#DejaVuSans-62" x="63.378906"/>
     <use xlink:href="#DejaVuSans-61" x="126.855469"/>
     <use xlink:href="#DejaVuSans-63" x="188.134766"/>
     <use xlink:href="#DejaVuSans-6b" x="243.115234"/>
     <use xlink:href="#DejaVuSans-5f" x="301.025391"/>
     <use xlink:href="#DejaVuSans-48" x="351.025391"/>
     <use xlink:href="#DejaVuSans-5f" x="426.220703"/>
     <use xlink:href="#DejaVuSans-68" x="476.220703"/>
     <use xlink:href="#DejaVuSans-6f" x="539.599609"/>
     <use xlink:href="#DejaVuSans-75" x="600.78125"/>
     <use xlink:href="#DejaVuSans-73" x="664.160156"/>
     <use xlink:href="#DejaVuSans-65" x="716.259766"/>
     <use xlink:href="#DejaVuSans-20" x="777.783203"/>
    </g>
   </g>
   <g id="text_20">
    <!-- stop_E_face -->
    <g transform="translate(60.370843 227.745862) scale(0.0833 -0.0833)">
     <defs>
      <path id="DejaVuSans-70" d="M 1159 525 
L 1159 -1331 
L 581 -1331 
L 581 3500 
L 1159 3500 
L 1159 2969 
Q 1341 3281 1617 3432 
Q 1894 3584 2278 3584 
Q 2916 3584 3314 3078 
Q 3713 2572 3713 1747 
Q 3713 922 3314 415 
Q 2916 -91 2278 -91 
Q 1894 -91 1617 61 
Q 1341 213 1159 525 
z
M 3116 1747 
Q 3116 2381 2855 2742 
Q 2594 3103 2138 3103 
Q 1681 3103 1420 2742 
Q 1159 2381 1159 1747 
Q 1159 1113 1420 752 
Q 1681 391 2138 391 
Q 2594 391 2855 752 
Q 3116 1113 3116 1747 
z
" transform="scale(0.015625)"/>
     </defs>
     <use xlink:href="#DejaVuSans-73"/>
     <use xlink:href="#DejaVuSans-74" x="52.099609"/>
     <use xlink:href="#DejaVuSans-6f" x="91.308594"/>
     <use xlink:href="#DejaVuSans-70" x="152.490234"/>
     <use xlink:href="#DejaVuSans-5f" x="215.966797"/>
     <use xlink:href="#DejaVuSans-45" x="265.966797"/>
     <use xlink:href="#DejaVuSans-5f" x="329.150391"/>
     <use xlink:href="#DejaVuSans-66" x="379.150391"/>
     <use xlink:href="#DejaVuSans-61" x="414.355469"/>
     <use xlink:href="#DejaVuSans-63" x="475.634766"/>
     <use xlink:href="#DejaVuSans-65" x="530.615234"/>
    </g>
   </g>
   <g id="text_21">
    <!-- stop_E_house  -->
    <g transform="translate(159.133769 224.025973) scale(0.0833 -0.0833)">
     <use xlink:href="#DejaVuSans-73"/>
     <use xlink:href="#DejaVuSans-74" x="52.099609"/>
     <use xlink:href="#DejaVuSans-6f" x="91.308594"/>
     <use xlink:href="#DejaVuSans-70" x="152.490234"/>
     <use xlink:href="#DejaVuSans-5f" x="215.966797"/>
     <use xlink:href="#DejaVuSans-45" x="265.966797"/>
     <use xlink:href="#DejaVuSans-5f" x="329.150391"/>
     <use xlink:href="#DejaVuSans-68" x="379.150391"/>
     <use xlink:href="#DejaVuSans-6f" x="442.529297"/>
     <use xlink:href="#DejaVuSans-75" x="503.710938"/>
     <use xlink:href="#DejaVuSans-73" x="567.089844"/>
     <use xlink:href="#DejaVuSans-65" x="619.189453"/>
     <use xlink:href="#DejaVuSans-20" x="680.712891"/>
    </g>
   </g>
   <g id="text_22">
    <!-- stop_H_face  -->
    <g transform="translate(173.914898 125.853032) scale(0.0833 -0.0833)">
     <use xlink:href="#DejaVuSans-73"/>
     <use xlink:href="#DejaVuSans-74" x="52.099609"/>
     <use xlink:href="#DejaVuSans-6f" x="91.308594"/>
     <use xlink:href="#DejaVuSans-70" x="152.490234"/>
     <use xlink:href="#DejaVuSans-5f" x="215.966797"/>
     <use xlink:href="#DejaVuSans-48" x="265.966797"/>
     <use xlink:href="#DejaVuSans-5f" x="341.162109"/>
     <use xlink:href="#DejaVuSans-66" x="391.162109"/>
     <use xlink:href="#DejaVuSans-61" x="426.367188"/>
     <use xlink:href="#DejaVuSans-63" x="487.646484"/>
     <use xlink:href="#DejaVuSans-65" x="542.626953"/>
     <use xlink:href="#DejaVuSans-20" x="604.150391"/>
    </g>
   </g>
   <g id="text_23">
    <!-- stop_H_house  -->
    <g transform="translate(182.947685 111.550977) scale(0.0833 -0.0833)">
     <use xlink:href="#DejaVuSans-73"/>
     <use xlink:href="#DejaVuSans-74" x="52.099609"/>
     <use xlink:href="#DejaVuSans-6f" x="91.308594"/>
     <use xlink:href="#DejaVuSans-70" x="152.490234"/>
     <use xlink:href="#DejaVuSans-5f" x="215.966797"/>
     <use xlink:href="#DejaVuSans-48" x="265.966797"/>
     <use xlink:href="#DejaVuSans-5f" x="341.162109"/>
     <use xlink:href="#DejaVuSans-68" x="391.162109"/>
     <use xlink:href="#DejaVuSans-6f" x="454.541016"/>
     <use xlink:href="#DejaVuSans-75" x="515.722656"/>
     <use xlink:href="#DejaVuSans-73" x="579.101562"/>
     <use xlink:href="#DejaVuSans-65" x="631.201172"/>
     <use xlink:href="#DejaVuSans-20" x="692.724609"/>
    </g>
   </g>
   <g id="text_24">
    <!-- switch_E_face  -->
    <g transform="translate(97.622862 213.335009) scale(0.0833 -0.0833)">
     <defs>
      <path id="DejaVuSans-77" d="M 269 3500 
L 844 3500 
L 1563 769 
L 2278 3500 
L 2956 3500 
L 3675 769 
L 4391 3500 
L 4966 3500 
L 4050 0 
L 3372 0 
L 2619 2869 
L 1863 0 
L 1184 0 
L 269 3500 
z
" transform="scale(0.015625)"/>
     </defs>
     <use xlink:href="#DejaVuSans-73"/>
     <use xlink:href="#DejaVuSans-77" x="52.099609"/>
     <use xlink:href="#DejaVuSans-69" x="133.886719"/>
     <use xlink:href="#DejaVuSans-74" x="161.669922"/>
     <use xlink:href="#DejaVuSans-63" x="200.878906"/>
     <use xlink:href="#DejaVuSans-68" x="255.859375"/>
     <use xlink:href="#DejaVuSans-5f" x="319.238281"/>
     <use xlink:href="#DejaVuSans-45" x="369.238281"/>
     <use xlink:href="#DejaVuSans-5f" x="432.421875"/>
     <use xlink:href="#DejaVuSans-66" x="482.421875"/>
     <use xlink:href="#DejaVuSans-61" x="517.626953"/>
     <use xlink:href="#DejaVuSans-63" x="578.90625"/>
     <use xlink:href="#DejaVuSans-65" x="633.886719"/>
     <use xlink:href="#DejaVuSans-20" x="695.410156"/>
    </g>
   </g>
   <g id="text_25">
    <!-- switch_E_house  -->
    <g transform="translate(118.220646 198.953308) scale(0.0833 -0.0833)">
     <use xlink:href="#DejaVuSans-73"/>
     <use xlink:href="#DejaVuSans-77" x="52.099609"/>
     <use xlink:href="#DejaVuSans-69" x="133.886719"/>
     <use xlink:href="#DejaVuSans-74" x="161.669922"/>
     <use xlink:href="#DejaVuSans-63" x="200.878906"/>
     <use xlink:href="#DejaVuSans-68" x="255.859375"/>
     <use xlink:href="#DejaVuSans-5f" x="319.238281"/>
     <use xlink:href="#DejaVuSans-45" x="369.238281"/>
     <use xlink:href="#DejaVuSans-5f" x="432.421875"/>
     <use xlink:href="#DejaVuSans-68" x="482.421875"/>
     <use xlink:href="#DejaVuSans-6f" x="545.800781"/>
     <use xlink:href="#DejaVuSans-75" x="606.982422"/>
     <use xlink:href="#DejaVuSans-73" x="670.361328"/>
     <use xlink:href="#DejaVuSans-65" x="722.460938"/>
     <use xlink:href="#DejaVuSans-20" x="783.984375"/>
    </g>
   </g>
   <g id="text_26">
    <!-- switch_H_face  -->
    <g transform="translate(163.207931 97.842639) scale(0.0833 -0.0833)">
     <use xlink:href="#DejaVuSans-73"/>
     <use xlink:href="#DejaVuSans-77" x="52.099609"/>
     <use xlink:href="#DejaVuSans-69" x="133.886719"/>
     <use xlink:href="#DejaVuSans-74" x="161.669922"/>
     <use xlink:href="#DejaVuSans-63" x="200.878906"/>
     <use xlink:href="#DejaVuSans-68" x="255.859375"/>
     <use xlink:href="#DejaVuSans-5f" x="319.238281"/>
     <use xlink:href="#DejaVuSans-48" x="369.238281"/>
     <use xlink:href="#DejaVuSans-5f" x="444.433594"/>
     <use xlink:href="#DejaVuSans-66" x="494.433594"/>
     <use xlink:href="#DejaVuSans-61" x="529.638672"/>
     <use xlink:href="#DejaVuSans-63" x="590.917969"/>
     <use xlink:href="#DejaVuSans-65" x="645.898438"/>
     <use xlink:href="#DejaVuSans-20" x="707.421875"/>
    </g>
   </g>
   <g id="text_27">
    <!-- switch_H_house  -->
    <g transform="translate(171.406825 82.052222) scale(0.0833 -0.0833)">
     <use xlink:href="#DejaVuSans-73"/>
     <use xlink:href="#DejaVuSans-77" x="52.099609"/>
     <use xlink:href="#DejaVuSans-69" x="133.886719"/>
     <use xlink:href="#DejaVuSans-74" x="161.669922"/>
     <use xlink:href="#DejaVuSans-63" x="200.878906"/>
     <use xlink:href="#DejaVuSans-68" x="255.859375"/>
     <use xlink:href="#DejaVuSans-5f" x="319.238281"/>
     <use xlink:href="#DejaVuSans-48" x="369.238281"/>
     <use xlink:href="#DejaVuSans-5f" x="444.433594"/>
     <use xlink:href="#DejaVuSans-68" x="494.433594"/>
     <use xlink:href="#DejaVuSans-6f" x="557.8125"/>
     <use xlink:href="#DejaVuSans-75" x="618.994141"/>
     <use xlink:href="#DejaVuSans-73" x="682.373047"/>
     <use xlink:href="#DejaVuSans-65" x="734.472656"/>
     <use xlink:href="#DejaVuSans-20" x="795.996094"/>
    </g>
   </g>
  </g>
  <g id="legend_1">
   <g id="text_28">
    <!-- material -->
    <g transform="translate(315.2025 102.585938) scale(0.1 -0.1)">
     <defs>
      <path id="DejaVuSans-6d" d="M 3328 2828 
Q 3544 3216 3844 3400 
Q 4144 3584 4550 3584 
Q 5097 3584 5394 3201 
Q 5691 2819 5691 2113 
L 5691 0 
L 5113 0 
L 5113 2094 
Q 5113 2597 4934 2840 
Q 4756 3084 4391 3084 
Q 3944 3084 3684 2787 
Q 3425 2491 3425 1978 
L 3425 0 
L 2847 0 
L 2847 2094 
Q 2847 2600 2669 2842 
Q 2491 3084 2119 3084 
Q 1678 3084 1418 2786 
Q 1159 2488 1159 1978 
L 1159 0 
L 581 0 
L 581 3500 
L 1159 3500 
L 1159 2956 
Q 1356 3278 1631 3431 
Q 1906 3584 2284 3584 
Q 2666 3584 2933 3390 
Q 3200 3197 3328 2828 
z
" transform="scale(0.015625)"/>
     </defs>
     <use xlink:href="#DejaVuSans-6d"/>
     <use xlink:href="#DejaVuSans-61" x="97.412109"/>
     <use xlink:href="#DejaVuSans-74" x="158.691406"/>
     <use xlink:href="#DejaVuSans-65" x="197.900391"/>
     <use xlink:href="#DejaVuSans-72" x="259.423828"/>
     <use xlink:href="#DejaVuSans-69" x="300.537109"/>
     <use xlink:href="#DejaVuSans-61" x="328.320312"/>
     <use xlink:href="#DejaVuSans-6c" x="389.599609"/>
    </g>
   </g>
   <g id="PathCollection_8">
    <defs>
     <path id="mcc81645917" d="M 0 3 
C 0.795609 3 1.55874 2.683901 2.12132 2.12132 
C 2.683901 1.55874 3 0.795609 3 0 
C 3 -0.795609 2.683901 -1.55874 2.12132 -2.12132 
C 1.55874 -2.683901 0.795609 -3 0 -3 
C -0.795609 -3 -1.55874 -2.683901 -2.12132 -2.12132 
C -2.683901 -1.55874 -3 -0.795609 -3 0 
C -3 0.795609 -2.683901 1.55874 -2.12132 2.12132 
C -1.55874 2.683901 -0.795609 3 0 3 
z
" style="stroke: #1f77b4"/>
    </defs>
    <g>
     <use xlink:href="#mcc81645917" x="297.2025" y="114.639063" style="fill: #1f77b4; stroke: #1f77b4"/>
    </g>
   </g>
   <g id="text_29">
    <!-- face -->
    <g transform="translate(315.2025 117.264063) scale(0.1 -0.1)">
     <use xlink:href="#DejaVuSans-66"/>
     <use xlink:href="#DejaVuSans-61" x="35.205078"/>
     <use xlink:href="#DejaVuSans-63" x="96.484375"/>
     <use xlink:href="#DejaVuSans-65" x="151.464844"/>
    </g>
   </g>
   <g id="PathCollection_9">
    <defs>
     <path id="m36b90aa8a7" d="M 0 3 
C 0.795609 3 1.55874 2.683901 2.12132 2.12132 
C 2.683901 1.55874 3 0.795609 3 0 
C 3 -0.795609 2.683901 -1.55874 2.12132 -2.12132 
C 1.55874 -2.683901 0.795609 -3 0 -3 
C -0.795609 -3 -1.55874 -2.683901 -2.12132 -2.12132 
C -2.683901 -1.55874 -3 -0.795609 -3 0 
C -3 0.795609 -2.683901 1.55874 -2.12132 2.12132 
C -1.55874 2.683901 -0.795609 3 0 3 
z
" style="stroke: #ff7f0e"/>
    </defs>
    <g>
     <use xlink:href="#m36b90aa8a7" x="297.2025" y="129.317187" style="fill: #ff7f0e; stroke: #ff7f0e"/>
    </g>
   </g>
   <g id="text_30">
    <!-- house -->
    <g transform="translate(315.2025 131.942187) scale(0.1 -0.1)">
     <use xlink:href="#DejaVuSans-68"/>
     <use xlink:href="#DejaVuSans-6f" x="63.378906"/>
     <use xlink:href="#DejaVuSans-75" x="124.560547"/>
     <use xlink:href="#DejaVuSans-73" x="187.939453"/>
     <use xlink:href="#DejaVuSans-65" x="240.039062"/>
    </g>
   </g>
   <g id="text_31">
    <!-- task -->
    <g transform="translate(315.2025 146.620313) scale(0.1 -0.1)">
     <use xlink:href="#DejaVuSans-74"/>
     <use xlink:href="#DejaVuSans-61" x="39.208984"/>
     <use xlink:href="#DejaVuSans-73" x="100.488281"/>
     <use xlink:href="#DejaVuSans-6b" x="152.587891"/>
    </g>
   </g>
   <g id="PathCollection_10">
    <defs>
     <path id="me28abccae5" d="M 0 3 
C 0.795609 3 1.55874 2.683901 2.12132 2.12132 
C 2.683901 1.55874 3 0.795609 3 0 
C 3 -0.795609 2.683901 -1.55874 2.12132 -2.12132 
C 1.55874 -2.683901 0.795609 -3 0 -3 
C -0.795609 -3 -1.55874 -2.683901 -2.12132 -2.12132 
C -2.683901 -1.55874 -3 -0.795609 -3 0 
C -3 0.795609 -2.683901 1.55874 -2.12132 2.12132 
C -1.55874 2.683901 -0.795609 3 0 3 
z
" style="stroke: #333333"/>
    </defs>
    <g>
     <use xlink:href="#me28abccae5" x="297.2025" y="158.673438" style="fill: #333333; stroke: #333333"/>
    </g>
   </g>
   <g id="text_32">
    <!-- n_back -->
    <g transform="translate(315.2025 161.298438) scale(0.1 -0.1)">
     <use xlink:href="#DejaVuSans-6e"/>
     <use xlink:href="#DejaVuSans-5f" x="63.378906"/>
     <use xlink:href="#DejaVuSans-62" x="113.378906"/>
     <use xlink:href="#DejaVuSans-61" x="176.855469"/>
     <use xlink:href="#DejaVuSans-63" x="238.134766"/>
     <use xlink:href="#DejaVuSans-6b" x="293.115234"/>
    </g>
   </g>
   <g id="PathCollection_11">
    <defs>
     <path id="m61abb74a36" d="M -1.5 3 
L 0 1.5 
L 1.5 3 
L 3 1.5 
L 1.5 0 
L 3 -1.5 
L 1.5 -3 
L 0 -1.5 
L -1.5 -3 
L -3 -1.5 
L -1.5 0 
L -3 1.5 
z
" style="stroke: #333333"/>
    </defs>
    <g>
     <use xlink:href="#m61abb74a36" x="297.2025" y="173.629687" style="fill: #333333; stroke: #333333"/>
    </g>
   </g>
   <g id="text_33">
    <!-- stop -->
    <g transform="translate(315.2025 176.254687) scale(0.1 -0.1)">
     <use xlink:href="#DejaVuSans-73"/>
     <use xlink:href="#DejaVuSans-74" x="52.099609"/>
     <use xlink:href="#DejaVuSans-6f" x="91.308594"/>
     <use xlink:href="#DejaVuSans-70" x="152.490234"/>
    </g>
   </g>
   <g id="PathCollection_12">
    <defs>
     <path id="m10e7f4b117" d="M -2.12132 -2.12132 
L -2.12132 2.12132 
L 2.12132 2.12132 
L 2.12132 -2.12132 
z
" style="stroke: #333333"/>
    </defs>
    <g>
     <use xlink:href="#m10e7f4b117" x="297.2025" y="188.307813" style="fill: #333333; stroke: #333333"/>
    </g>
   </g>
   <g id="text_34">
    <!-- switch -->
    <g transform="translate(315.2025 190.932813) scale(0.1 -0.1)">
     <use xlink:href="#DejaVuSans-73"/>
     <use xlink:href="#DejaVuSans-77" x="52.099609"/>
     <use xlink:href="#DejaVuSans-69" x="133.886719"/>
     <use xlink:href="#DejaVuSans-74" x="161.669922"/>
     <use xlink:href="#DejaVuSans-63" x="200.878906"/>
     <use xlink:href="#DejaVuSans-68" x="255.859375"/>
    </g>
   </g>
  </g>
 </g>
 <defs>
  <clipPath id="p7c8a8bf4cc">
   <rect x="60.32" y="10.8" width="213.2206" height="235.24"/>
  </clipPath>
 </defs>
</svg>
