<?xml version="1.0" encoding="utf-8" standalone="no"?>
<!DOCTYPE svg PUBLIC "-//W3C//DTD SVG 1.1//EN"
  "http://www.w3.org/Graphics/SVG/1.1/DTD/svg11.dtd">
<svg height="288pt" version="1.1" viewBox="0 0 360.5 288" width="360.5pt" xmlns="http://www.w3.org/2000/svg" xmlns:xlink="http://www.w3.org/1999/xlink">
 <metadata>
  <rdf:RDF xmlns:cc="http://creativecommons.org/ns#" xmlns:dc="http://purl.org/dc/elements/1.1/" xmlns:rdf="http://www.w3.org/1999/02/22-rdf-syntax-ns#">
   <cc:Work>
    <dc:type rdf:resource="http://purl.org/dc/dcmitype/StillImage"/>
    <dc:date>2023-02-08T09:58:31.020292</dc:date>
    <dc:format>image/svg+xml</dc:format>
    <dc:creator>
     <cc:Agent>
      <dc:title>Matplotlib v3.4.2, https://matplotlib.org/</dc:title>
     </cc:Agent>
    </dc:creator>
   </cc:Work>
  </rdf:RDF>
 </metadata>
 <defs>
  <style type="text/css">*{stroke-linecap:butt;stroke-linejoin:round;}</style>
 </defs>
 <g id="figure_1">
  <g id="patch_1">
   <path d="M 0 288 
L 360.5 288 
L 360.5 0 
L 0 0 
z
" style="fill:none;"/>
  </g>
  <g id="axes_1">
   <g id="patch_2">
    <path d="M 53.925 246.2 
L 273.595 246.2 
L 273.595 10.8 
L 53.925 10.8 
z
" style="fill:#ffffff;"/>
   </g>
   <g id="PathCollection_1">
    <path clip-path="url(#p923535608b)" d="M 63.91 203.849126 
C 65.236015 203.849126 66.507899 203.322294 67.445534 202.38466 
C 68.383168 201.447025 68.91 200.175141 68.91 198.849126 
C 68.91 197.52311 68.383168 196.251226 67.445534 195.313592 
C 66.507899 194.375957 65.236015 193.849126 63.91 193.849126 
C 62.583984 193.849126 61.312101 194.375957 60.374466 195.313592 
C 59.436832 196.251226 58.91 197.52311 58.91 198.849126 
C 58.91 200.175141 59.436832 201.447025 60.374466 202.38466 
C 61.312101 203.322294 62.583984 203.849126 63.91 203.849126 
z
" style="fill:#1f77b4;stroke:#ffffff;stroke-width:0.8;"/>
    <path clip-path="url(#p923535608b)" d="M 256.962445 128.160998 
C 258.288461 128.160998 259.560345 127.634167 260.497979 126.696532 
C 261.435614 125.758898 261.962445 124.487014 261.962445 123.160998 
C 261.962445 121.834983 261.435614 120.563099 260.497979 119.625464 
C 259.560345 118.68783 258.288461 118.160998 256.962445 118.160998 
C 255.63643 118.160998 254.364546 118.68783 253.426911 119.625464 
C 252.489277 120.563099 251.962445 121.834983 251.962445 123.160998 
C 251.962445 124.487014 252.489277 125.758898 253.426911 126.696532 
C 254.364546 127.634167 255.63643 128.160998 256.962445 128.160998 
z
" style="fill:#ff7f0e;stroke:#ffffff;stroke-width:0.8;"/>
    <path clip-path="url(#p923535608b)" d="M 82.373637 204.265883 
L 84.873637 201.765883 
L 87.373637 204.265883 
L 89.873637 201.765883 
L 87.373637 199.265883 
L 89.873637 196.765883 
L 87.373637 194.265883 
L 84.873637 196.765883 
L 82.373637 194.265883 
L 79.873637 196.765883 
L 82.373637 199.265883 
L 79.873637 201.765883 
z
" style="fill:#1f77b4;stroke:#ffffff;stroke-width:0.8;"/>
    <path clip-path="url(#p923535608b)" d="M 245.425962 133.284828 
L 247.925962 130.784828 
L 250.425962 133.284828 
L 252.925962 130.784828 
L 250.425962 128.284828 
L 252.925962 125.784828 
L 250.425962 123.284828 
L 247.925962 125.784828 
L 245.425962 123.284828 
L 242.925962 125.784828 
L 245.425962 128.284828 
L 242.925962 130.784828 
z
" style="fill:#ff7f0e;stroke:#ffffff;stroke-width:0.8;"/>
    <path clip-path="url(#p923535608b)" d="M 143.12892 148.644481 
C 144.454936 148.644481 145.726819 148.117649 146.664454 147.180015 
C 147.602089 146.24238 148.12892 144.970496 148.12892 143.644481 
C 148.12892 142.318465 147.602089 141.046581 146.664454 140.108947 
C 145.726819 139.171312 144.454936 138.644481 143.12892 138.644481 
C 141.802905 138.644481 140.531021 139.171312 139.593386 140.108947 
C 138.655752 141.046581 138.12892 142.318465 138.12892 143.644481 
C 138.12892 144.970496 138.655752 146.24238 139.593386 147.180015 
C 140.531021 148.117649 141.802905 148.644481 143.12892 148.644481 
z
" style="fill:#1f77b4;stroke:#ffffff;stroke-width:0.8;"/>
    <path clip-path="url(#p923535608b)" d="M 263.61 100.262999 
C 264.936015 100.262999 266.207899 99.736168 267.145534 98.798533 
C 268.083168 97.860898 268.61 96.589015 268.61 95.262999 
C 268.61 93.936984 268.083168 92.6651 267.145534 91.727465 
C 266.207899 90.789831 264.936015 90.262999 263.61 90.262999 
C 262.283985 90.262999 261.012101 90.789831 260.074466 91.727465 
C 259.136832 92.6651 258.61 93.936984 258.61 95.262999 
C 258.61 96.589015 259.136832 97.860898 260.074466 98.798533 
C 261.012101 99.736168 262.283985 100.262999 263.61 100.262999 
z
" style="fill:#ff7f0e;stroke:#ffffff;stroke-width:0.8;"/>
    <path clip-path="url(#p923535608b)" d="M 77.769222 203.292659 
L 80.269222 200.792659 
L 82.769222 203.292659 
L 85.269222 200.792659 
L 82.769222 198.292659 
L 85.269222 195.792659 
L 82.769222 193.292659 
L 80.269222 195.792659 
L 77.769222 193.292659 
L 75.269222 195.792659 
L 77.769222 198.292659 
L 75.269222 200.792659 
z
" style="fill:#1f77b4;stroke:#ffffff;stroke-width:0.8;"/>
    <path clip-path="url(#p923535608b)" d="M 252.791205 119.380554 
L 255.291205 116.880554 
L 257.791205 119.380554 
L 260.291205 116.880554 
L 257.791205 114.380554 
L 260.291205 111.880554 
L 257.791205 109.380554 
L 255.291205 111.880554 
L 252.791205 109.380554 
L 250.291205 111.880554 
L 252.791205 114.380554 
L 250.291205 116.880554 
z
" style="fill:#ff7f0e;stroke:#ffffff;stroke-width:0.8;"/>
    <path clip-path="url(#p923535608b)" d="M 230.270619 68.992219 
C 231.596634 68.992219 232.868518 68.465387 233.806153 67.527753 
C 234.743787 66.590118 235.270619 65.318234 235.270619 63.992219 
C 235.270619 62.666203 234.743787 61.394319 233.806153 60.456685 
C 232.868518 59.51905 231.596634 58.992219 230.270619 58.992219 
C 228.944603 58.992219 227.672719 59.51905 226.735085 60.456685 
C 225.79745 61.394319 225.270619 62.666203 225.270619 63.992219 
C 225.270619 65.318234 225.79745 66.590118 226.735085 67.527753 
C 227.672719 68.465387 228.944603 68.992219 230.270619 68.992219 
z
" style="fill:#1f77b4;stroke:#ffffff;stroke-width:0.8;"/>
    <path clip-path="url(#p923535608b)" d="M 200.019076 92.786827 
C 201.345091 92.786827 202.616975 92.259995 203.55461 91.322361 
C 204.492244 90.384726 205.019076 89.112842 205.019076 87.786827 
C 205.019076 86.460811 204.492244 85.188927 203.55461 84.251293 
C 202.616975 83.313658 201.345091 82.786827 200.019076 82.786827 
C 198.69306 82.786827 197.421176 83.313658 196.483542 84.251293 
C 195.545907 85.188927 195.019076 86.460811 195.019076 87.786827 
C 195.019076 89.112842 195.545907 90.384726 196.483542 91.322361 
C 197.421176 92.259995 198.69306 92.786827 200.019076 92.786827 
z
" style="fill:#ff7f0e;stroke:#ffffff;stroke-width:0.8;"/>
    <path clip-path="url(#p923535608b)" d="M 160.002413 120.288978 
L 162.502413 117.788978 
L 165.002413 120.288978 
L 167.502413 117.788978 
L 165.002413 115.288978 
L 167.502413 112.788978 
L 165.002413 110.288978 
L 162.502413 112.788978 
L 160.002413 110.288978 
L 157.502413 112.788978 
L 160.002413 115.288978 
L 157.502413 117.788978 
z
" style="fill:#1f77b4;stroke:#ffffff;stroke-width:0.8;"/>
    <path clip-path="url(#p923535608b)" d="M 201.447966 115.731874 
L 203.947966 113.231874 
L 206.447966 115.731874 
L 208.947966 113.231874 
L 206.447966 110.731874 
L 208.947966 108.231874 
L 206.447966 105.731874 
L 203.947966 108.231874 
L 201.447966 105.731874 
L 198.947966 108.231874 
L 201.447966 110.731874 
L 198.947966 113.231874 
z
" style="fill:#ff7f0e;stroke:#ffffff;stroke-width:0.8;"/>
   </g>
   <g id="PathCollection_2"/>
   <g id="PathCollection_3"/>
   <g id="PathCollection_4"/>
   <g id="PathCollection_5"/>
   <g id="PathCollection_6">
    <defs>
     <path d="M 0 0 
C 0 0 0 0 0 0 
C 0 0 0 0 0 0 
C 0 0 0 0 0 0 
C 0 0 0 0 0 0 
C 0 0 0 0 0 0 
C 0 0 0 0 0 0 
C 0 0 0 0 0 0 
C 0 0 0 0 0 0 
z
" id="m2271b0aafd" style="stroke:#1f77b4;stroke-opacity:0.8;"/>
    </defs>
    <g clip-path="url(#p923535608b)">
     <use style="fill:#1f77b4;fill-opacity:0.8;stroke:#1f77b4;stroke-opacity:0.8;" x="63.91" xlink:href="#m2271b0aafd" y="198.849126"/>
     <use style="fill:#1f77b4;fill-opacity:0.8;stroke:#1f77b4;stroke-opacity:0.8;" x="256.962445" xlink:href="#m2271b0aafd" y="123.160998"/>
     <use style="fill:#1f77b4;fill-opacity:0.8;stroke:#1f77b4;stroke-opacity:0.8;" x="84.873637" xlink:href="#m2271b0aafd" y="199.265883"/>
     <use style="fill:#1f77b4;fill-opacity:0.8;stroke:#1f77b4;stroke-opacity:0.8;" x="247.925962" xlink:href="#m2271b0aafd" y="128.284828"/>
     <use style="fill:#1f77b4;fill-opacity:0.8;stroke:#1f77b4;stroke-opacity:0.8;" x="143.12892" xlink:href="#m2271b0aafd" y="143.644481"/>
     <use style="fill:#1f77b4;fill-opacity:0.8;stroke:#1f77b4;stroke-opacity:0.8;" x="263.61" xlink:href="#m2271b0aafd" y="95.262999"/>
     <use style="fill:#1f77b4;fill-opacity:0.8;stroke:#1f77b4;stroke-opacity:0.8;" x="80.269222" xlink:href="#m2271b0aafd" y="198.292659"/>
     <use style="fill:#1f77b4;fill-opacity:0.8;stroke:#1f77b4;stroke-opacity:0.8;" x="255.291205" xlink:href="#m2271b0aafd" y="114.380554"/>
     <use style="fill:#1f77b4;fill-opacity:0.8;stroke:#1f77b4;stroke-opacity:0.8;" x="230.270619" xlink:href="#m2271b0aafd" y="63.992219"/>
     <use style="fill:#1f77b4;fill-opacity:0.8;stroke:#1f77b4;stroke-opacity:0.8;" x="200.019076" xlink:href="#m2271b0aafd" y="87.786827"/>
     <use style="fill:#1f77b4;fill-opacity:0.8;stroke:#1f77b4;stroke-opacity:0.8;" x="162.502413" xlink:href="#m2271b0aafd" y="115.288978"/>
     <use style="fill:#1f77b4;fill-opacity:0.8;stroke:#1f77b4;stroke-opacity:0.8;" x="203.947966" xlink:href="#m2271b0aafd" y="110.731874"/>
    </g>
   </g>
   <g id="PolyCollection_1">
    <path clip-path="url(#p923535608b)" d="M 63.91 144.324506 
L 63.91 204.102051 
L 65.927172 202.899805 
L 67.944343 201.8093 
L 69.961515 200.640748 
L 71.978687 199.357854 
L 73.995859 198.218557 
L 76.01303 197.106995 
L 78.030202 195.709976 
L 80.047374 194.719461 
L 82.064545 193.404059 
L 84.081717 192.250991 
L 86.098889 190.969817 
L 88.116061 189.706658 
L 90.133232 188.732933 
L 92.150404 187.678067 
L 94.167576 186.58724 
L 96.184747 185.453338 
L 98.201919 184.527115 
L 100.219091 183.47658 
L 102.236263 182.451409 
L 104.253434 181.322828 
L 106.270606 180.316359 
L 108.287778 179.299497 
L 110.304949 178.290111 
L 112.322121 177.284414 
L 114.339293 176.289706 
L 116.356465 175.345726 
L 118.373636 174.418593 
L 120.390808 173.447709 
L 122.40798 172.424024 
L 124.425152 171.469006 
L 126.442323 170.513988 
L 128.459495 169.55897 
L 130.476667 168.604924 
L 132.493838 167.65229 
L 134.51101 166.766294 
L 136.528182 165.821727 
L 138.545354 164.871659 
L 140.562525 163.975092 
L 142.579697 163.078525 
L 144.596869 162.181958 
L 146.61404 161.281983 
L 148.631212 160.309796 
L 150.648384 159.293485 
L 152.665556 158.376155 
L 154.682727 157.470184 
L 156.699899 156.564214 
L 158.717071 155.658243 
L 160.734242 154.752272 
L 162.751414 153.846302 
L 164.768586 152.940331 
L 166.785758 152.034361 
L 168.802929 151.12839 
L 170.820101 150.219371 
L 172.837273 149.309444 
L 174.854444 148.403173 
L 176.871616 147.500373 
L 178.888788 146.597573 
L 180.90596 145.692567 
L 182.923131 144.786596 
L 184.940303 143.986649 
L 186.957475 143.219956 
L 188.974646 142.293858 
L 190.991818 141.300656 
L 193.00899 140.400944 
L 195.026162 139.53303 
L 197.043333 138.569358 
L 199.060505 137.544334 
L 201.077677 136.625602 
L 203.094848 135.717426 
L 205.11202 134.801191 
L 207.129192 133.817975 
L 209.146364 132.834352 
L 211.163535 131.848557 
L 213.180707 130.90002 
L 215.197879 129.954829 
L 217.215051 129.049045 
L 219.232222 128.205905 
L 221.249394 127.369618 
L 223.266566 126.565595 
L 225.283737 125.747595 
L 227.300909 124.84261 
L 229.318081 123.990203 
L 231.335253 123.147062 
L 233.352424 122.303922 
L 235.369596 121.460781 
L 237.386768 120.608092 
L 239.403939 119.750912 
L 241.421111 118.885918 
L 243.438283 118.069274 
L 245.455455 117.247145 
L 247.472626 116.417066 
L 249.489798 115.644521 
L 251.50697 114.992233 
L 253.524141 114.497878 
L 255.541313 113.722936 
L 257.558485 113.024551 
L 259.575657 112.130882 
L 261.592828 111.317682 
L 263.61 110.517715 
L 263.61 62.172276 
L 263.61 62.172276 
L 261.592828 63.611692 
L 259.575657 65.051107 
L 257.558485 66.490522 
L 255.541313 67.929938 
L 253.524141 69.369353 
L 251.50697 70.808769 
L 249.489798 72.248184 
L 247.472626 73.687599 
L 245.455455 75.127015 
L 243.438283 76.56643 
L 241.421111 77.991181 
L 239.403939 79.353086 
L 237.386768 80.716708 
L 235.369596 82.08033 
L 233.352424 83.443951 
L 231.335253 84.807573 
L 229.318081 86.017045 
L 227.300909 87.181822 
L 225.283737 88.346598 
L 223.266566 89.511374 
L 221.249394 90.676151 
L 219.232222 91.840927 
L 217.215051 93.005703 
L 215.197879 94.247104 
L 213.180707 95.731898 
L 211.163535 97.216691 
L 209.146364 98.701484 
L 207.129192 99.896577 
L 205.11202 101.246159 
L 203.094848 102.348918 
L 201.077677 103.85159 
L 199.060505 105.017478 
L 197.043333 106.161547 
L 195.026162 106.901026 
L 193.00899 107.897971 
L 190.991818 109.116134 
L 188.974646 110.275804 
L 186.957475 111.444475 
L 184.940303 111.868256 
L 182.923131 113.05404 
L 180.90596 113.927771 
L 178.888788 114.860128 
L 176.871616 116.059548 
L 174.854444 117.083846 
L 172.837273 117.475817 
L 170.820101 118.315657 
L 168.802929 119.688399 
L 166.785758 120.284056 
L 164.768586 120.755438 
L 162.751414 121.324292 
L 160.734242 122.069692 
L 158.717071 122.815092 
L 156.699899 123.560492 
L 154.682727 124.305892 
L 152.665556 124.818025 
L 150.648384 125.121187 
L 148.631212 125.424349 
L 146.61404 125.735408 
L 144.596869 126.080877 
L 142.579697 126.34153 
L 140.562525 126.637602 
L 138.545354 126.94016 
L 136.528182 127.379334 
L 134.51101 127.848099 
L 132.493838 128.316863 
L 130.476667 128.785628 
L 128.459495 129.254392 
L 126.442323 129.723157 
L 124.425152 130.191922 
L 122.40798 130.660686 
L 120.390808 131.129451 
L 118.373636 131.598215 
L 116.356465 132.068591 
L 114.339293 132.539972 
L 112.322121 133.011353 
L 110.304949 133.482735 
L 108.287778 133.954116 
L 106.270606 134.425497 
L 104.253434 134.896879 
L 102.236263 135.36826 
L 100.219091 135.839641 
L 98.201919 136.311023 
L 96.184747 136.782404 
L 94.167576 137.253786 
L 92.150404 137.725167 
L 90.133232 138.196548 
L 88.116061 138.66793 
L 86.098889 139.139311 
L 84.081717 139.610692 
L 82.064545 140.082074 
L 80.047374 140.553455 
L 78.030202 141.024837 
L 76.01303 141.496218 
L 73.995859 141.967599 
L 71.978687 142.438981 
L 69.961515 142.910362 
L 67.944343 143.381743 
L 65.927172 143.853125 
L 63.91 144.324506 
z
" style="fill:#808080;fill-opacity:0.15;"/>
   </g>
   <g id="matplotlib.axis_1">
    <g id="xtick_1">
     <g id="line2d_1">
      <defs>
       <path d="M 0 0 
L 0 3.5 
" id="m71221465ea" style="stroke:#000000;stroke-width:0.8;"/>
      </defs>
      <g>
       <use style="stroke:#000000;stroke-width:0.8;" x="58.069348" xlink:href="#m71221465ea" y="246.2"/>
      </g>
     </g>
     <g id="text_1">
      <!-- 0.03 -->
      <g transform="translate(46.936535 260.798437)scale(0.1 -0.1)">
       <defs>
        <path d="M 2034 4250 
Q 1547 4250 1301 3770 
Q 1056 3291 1056 2328 
Q 1056 1369 1301 889 
Q 1547 409 2034 409 
Q 2525 409 2770 889 
Q 3016 1369 3016 2328 
Q 3016 3291 2770 3770 
Q 2525 4250 2034 4250 
z
M 2034 4750 
Q 2819 4750 3233 4129 
Q 3647 3509 3647 2328 
Q 3647 1150 3233 529 
Q 2819 -91 2034 -91 
Q 1250 -91 836 529 
Q 422 1150 422 2328 
Q 422 3509 836 4129 
Q 1250 4750 2034 4750 
z
" id="DejaVuSans-30" transform="scale(0.015625)"/>
        <path d="M 684 794 
L 1344 794 
L 1344 0 
L 684 0 
L 684 794 
z
" id="DejaVuSans-2e" transform="scale(0.015625)"/>
        <path d="M 2597 2516 
Q 3050 2419 3304 2112 
Q 3559 1806 3559 1356 
Q 3559 666 3084 287 
Q 2609 -91 1734 -91 
Q 1441 -91 1130 -33 
Q 819 25 488 141 
L 488 750 
Q 750 597 1062 519 
Q 1375 441 1716 441 
Q 2309 441 2620 675 
Q 2931 909 2931 1356 
Q 2931 1769 2642 2001 
Q 2353 2234 1838 2234 
L 1294 2234 
L 1294 2753 
L 1863 2753 
Q 2328 2753 2575 2939 
Q 2822 3125 2822 3475 
Q 2822 3834 2567 4026 
Q 2313 4219 1838 4219 
Q 1578 4219 1281 4162 
Q 984 4106 628 3988 
L 628 4550 
Q 988 4650 1302 4700 
Q 1616 4750 1894 4750 
Q 2613 4750 3031 4423 
Q 3450 4097 3450 3541 
Q 3450 3153 3228 2886 
Q 3006 2619 2597 2516 
z
" id="DejaVuSans-33" transform="scale(0.015625)"/>
       </defs>
       <use xlink:href="#DejaVuSans-30"/>
       <use x="63.623047" xlink:href="#DejaVuSans-2e"/>
       <use x="95.410156" xlink:href="#DejaVuSans-30"/>
       <use x="159.033203" xlink:href="#DejaVuSans-33"/>
      </g>
     </g>
    </g>
    <g id="xtick_2">
     <g id="line2d_2">
      <g>
       <use style="stroke:#000000;stroke-width:0.8;" x="94.551809" xlink:href="#m71221465ea" y="246.2"/>
      </g>
     </g>
     <g id="text_2">
      <!-- 0.04 -->
      <g transform="translate(83.418996 260.798437)scale(0.1 -0.1)">
       <defs>
        <path d="M 2419 4116 
L 825 1625 
L 2419 1625 
L 2419 4116 
z
M 2253 4666 
L 3047 4666 
L 3047 1625 
L 3713 1625 
L 3713 1100 
L 3047 1100 
L 3047 0 
L 2419 0 
L 2419 1100 
L 313 1100 
L 313 1709 
L 2253 4666 
z
" id="DejaVuSans-34" transform="scale(0.015625)"/>
       </defs>
       <use xlink:href="#DejaVuSans-30"/>
       <use x="63.623047" xlink:href="#DejaVuSans-2e"/>
       <use x="95.410156" xlink:href="#DejaVuSans-30"/>
       <use x="159.033203" xlink:href="#DejaVuSans-34"/>
      </g>
     </g>
    </g>
    <g id="xtick_3">
     <g id="line2d_3">
      <g>
       <use style="stroke:#000000;stroke-width:0.8;" x="131.03427" xlink:href="#m71221465ea" y="246.2"/>
      </g>
     </g>
     <g id="text_3">
      <!-- 0.05 -->
      <g transform="translate(119.901457 260.798437)scale(0.1 -0.1)">
       <defs>
        <path d="M 691 4666 
L 3169 4666 
L 3169 4134 
L 1269 4134 
L 1269 2991 
Q 1406 3038 1543 3061 
Q 1681 3084 1819 3084 
Q 2600 3084 3056 2656 
Q 3513 2228 3513 1497 
Q 3513 744 3044 326 
Q 2575 -91 1722 -91 
Q 1428 -91 1123 -41 
Q 819 9 494 109 
L 494 744 
Q 775 591 1075 516 
Q 1375 441 1709 441 
Q 2250 441 2565 725 
Q 2881 1009 2881 1497 
Q 2881 1984 2565 2268 
Q 2250 2553 1709 2553 
Q 1456 2553 1204 2497 
Q 953 2441 691 2322 
L 691 4666 
z
" id="DejaVuSans-35" transform="scale(0.015625)"/>
       </defs>
       <use xlink:href="#DejaVuSans-30"/>
       <use x="63.623047" xlink:href="#DejaVuSans-2e"/>
       <use x="95.410156" xlink:href="#DejaVuSans-30"/>
       <use x="159.033203" xlink:href="#DejaVuSans-35"/>
      </g>
     </g>
    </g>
    <g id="xtick_4">
     <g id="line2d_4">
      <g>
       <use style="stroke:#000000;stroke-width:0.8;" x="167.516731" xlink:href="#m71221465ea" y="246.2"/>
      </g>
     </g>
     <g id="text_4">
      <!-- 0.06 -->
      <g transform="translate(156.383918 260.798437)scale(0.1 -0.1)">
       <defs>
        <path d="M 2113 2584 
Q 1688 2584 1439 2293 
Q 1191 2003 1191 1497 
Q 1191 994 1439 701 
Q 1688 409 2113 409 
Q 2538 409 2786 701 
Q 3034 994 3034 1497 
Q 3034 2003 2786 2293 
Q 2538 2584 2113 2584 
z
M 3366 4563 
L 3366 3988 
Q 3128 4100 2886 4159 
Q 2644 4219 2406 4219 
Q 1781 4219 1451 3797 
Q 1122 3375 1075 2522 
Q 1259 2794 1537 2939 
Q 1816 3084 2150 3084 
Q 2853 3084 3261 2657 
Q 3669 2231 3669 1497 
Q 3669 778 3244 343 
Q 2819 -91 2113 -91 
Q 1303 -91 875 529 
Q 447 1150 447 2328 
Q 447 3434 972 4092 
Q 1497 4750 2381 4750 
Q 2619 4750 2861 4703 
Q 3103 4656 3366 4563 
z
" id="DejaVuSans-36" transform="scale(0.015625)"/>
       </defs>
       <use xlink:href="#DejaVuSans-30"/>
       <use x="63.623047" xlink:href="#DejaVuSans-2e"/>
       <use x="95.410156" xlink:href="#DejaVuSans-30"/>
       <use x="159.033203" xlink:href="#DejaVuSans-36"/>
      </g>
     </g>
    </g>
    <g id="xtick_5">
     <g id="line2d_5">
      <g>
       <use style="stroke:#000000;stroke-width:0.8;" x="203.999192" xlink:href="#m71221465ea" y="246.2"/>
      </g>
     </g>
     <g id="text_5">
      <!-- 0.07 -->
      <g transform="translate(192.866379 260.798437)scale(0.1 -0.1)">
       <defs>
        <path d="M 525 4666 
L 3525 4666 
L 3525 4397 
L 1831 0 
L 1172 0 
L 2766 4134 
L 525 4134 
L 525 4666 
z
" id="DejaVuSans-37" transform="scale(0.015625)"/>
       </defs>
       <use xlink:href="#DejaVuSans-30"/>
       <use x="63.623047" xlink:href="#DejaVuSans-2e"/>
       <use x="95.410156" xlink:href="#DejaVuSans-30"/>
       <use x="159.033203" xlink:href="#DejaVuSans-37"/>
      </g>
     </g>
    </g>
    <g id="xtick_6">
     <g id="line2d_6">
      <g>
       <use style="stroke:#000000;stroke-width:0.8;" x="240.481653" xlink:href="#m71221465ea" y="246.2"/>
      </g>
     </g>
     <g id="text_6">
      <!-- 0.08 -->
      <g transform="translate(229.34884 260.798437)scale(0.1 -0.1)">
       <defs>
        <path d="M 2034 2216 
Q 1584 2216 1326 1975 
Q 1069 1734 1069 1313 
Q 1069 891 1326 650 
Q 1584 409 2034 409 
Q 2484 409 2743 651 
Q 3003 894 3003 1313 
Q 3003 1734 2745 1975 
Q 2488 2216 2034 2216 
z
M 1403 2484 
Q 997 2584 770 2862 
Q 544 3141 544 3541 
Q 544 4100 942 4425 
Q 1341 4750 2034 4750 
Q 2731 4750 3128 4425 
Q 3525 4100 3525 3541 
Q 3525 3141 3298 2862 
Q 3072 2584 2669 2484 
Q 3125 2378 3379 2068 
Q 3634 1759 3634 1313 
Q 3634 634 3220 271 
Q 2806 -91 2034 -91 
Q 1263 -91 848 271 
Q 434 634 434 1313 
Q 434 1759 690 2068 
Q 947 2378 1403 2484 
z
M 1172 3481 
Q 1172 3119 1398 2916 
Q 1625 2713 2034 2713 
Q 2441 2713 2670 2916 
Q 2900 3119 2900 3481 
Q 2900 3844 2670 4047 
Q 2441 4250 2034 4250 
Q 1625 4250 1398 4047 
Q 1172 3844 1172 3481 
z
" id="DejaVuSans-38" transform="scale(0.015625)"/>
       </defs>
       <use xlink:href="#DejaVuSans-30"/>
       <use x="63.623047" xlink:href="#DejaVuSans-2e"/>
       <use x="95.410156" xlink:href="#DejaVuSans-30"/>
       <use x="159.033203" xlink:href="#DejaVuSans-38"/>
      </g>
     </g>
    </g>
    <g id="text_7">
     <!-- Cortical Activation (a.u.) -->
     <g transform="translate(103.079531 274.476562)scale(0.1 -0.1)">
      <defs>
       <path d="M 4122 4306 
L 4122 3641 
Q 3803 3938 3442 4084 
Q 3081 4231 2675 4231 
Q 1875 4231 1450 3742 
Q 1025 3253 1025 2328 
Q 1025 1406 1450 917 
Q 1875 428 2675 428 
Q 3081 428 3442 575 
Q 3803 722 4122 1019 
L 4122 359 
Q 3791 134 3420 21 
Q 3050 -91 2638 -91 
Q 1578 -91 968 557 
Q 359 1206 359 2328 
Q 359 3453 968 4101 
Q 1578 4750 2638 4750 
Q 3056 4750 3426 4639 
Q 3797 4528 4122 4306 
z
" id="DejaVuSans-43" transform="scale(0.015625)"/>
       <path d="M 1959 3097 
Q 1497 3097 1228 2736 
Q 959 2375 959 1747 
Q 959 1119 1226 758 
Q 1494 397 1959 397 
Q 2419 397 2687 759 
Q 2956 1122 2956 1747 
Q 2956 2369 2687 2733 
Q 2419 3097 1959 3097 
z
M 1959 3584 
Q 2709 3584 3137 3096 
Q 3566 2609 3566 1747 
Q 3566 888 3137 398 
Q 2709 -91 1959 -91 
Q 1206 -91 779 398 
Q 353 888 353 1747 
Q 353 2609 779 3096 
Q 1206 3584 1959 3584 
z
" id="DejaVuSans-6f" transform="scale(0.015625)"/>
       <path d="M 2631 2963 
Q 2534 3019 2420 3045 
Q 2306 3072 2169 3072 
Q 1681 3072 1420 2755 
Q 1159 2438 1159 1844 
L 1159 0 
L 581 0 
L 581 3500 
L 1159 3500 
L 1159 2956 
Q 1341 3275 1631 3429 
Q 1922 3584 2338 3584 
Q 2397 3584 2469 3576 
Q 2541 3569 2628 3553 
L 2631 2963 
z
" id="DejaVuSans-72" transform="scale(0.015625)"/>
       <path d="M 1172 4494 
L 1172 3500 
L 2356 3500 
L 2356 3053 
L 1172 3053 
L 1172 1153 
Q 1172 725 1289 603 
Q 1406 481 1766 481 
L 2356 481 
L 2356 0 
L 1766 0 
Q 1100 0 847 248 
Q 594 497 594 1153 
L 594 3053 
L 172 3053 
L 172 3500 
L 594 3500 
L 594 4494 
L 1172 4494 
z
" id="DejaVuSans-74" transform="scale(0.015625)"/>
       <path d="M 603 3500 
L 1178 3500 
L 1178 0 
L 603 0 
L 603 3500 
z
M 603 4863 
L 1178 4863 
L 1178 4134 
L 603 4134 
L 603 4863 
z
" id="DejaVuSans-69" transform="scale(0.015625)"/>
       <path d="M 3122 3366 
L 3122 2828 
Q 2878 2963 2633 3030 
Q 2388 3097 2138 3097 
Q 1578 3097 1268 2742 
Q 959 2388 959 1747 
Q 959 1106 1268 751 
Q 1578 397 2138 397 
Q 2388 397 2633 464 
Q 2878 531 3122 666 
L 3122 134 
Q 2881 22 2623 -34 
Q 2366 -91 2075 -91 
Q 1284 -91 818 406 
Q 353 903 353 1747 
Q 353 2603 823 3093 
Q 1294 3584 2113 3584 
Q 2378 3584 2631 3529 
Q 2884 3475 3122 3366 
z
" id="DejaVuSans-63" transform="scale(0.015625)"/>
       <path d="M 2194 1759 
Q 1497 1759 1228 1600 
Q 959 1441 959 1056 
Q 959 750 1161 570 
Q 1363 391 1709 391 
Q 2188 391 2477 730 
Q 2766 1069 2766 1631 
L 2766 1759 
L 2194 1759 
z
M 3341 1997 
L 3341 0 
L 2766 0 
L 2766 531 
Q 2569 213 2275 61 
Q 1981 -91 1556 -91 
Q 1019 -91 701 211 
Q 384 513 384 1019 
Q 384 1609 779 1909 
Q 1175 2209 1959 2209 
L 2766 2209 
L 2766 2266 
Q 2766 2663 2505 2880 
Q 2244 3097 1772 3097 
Q 1472 3097 1187 3025 
Q 903 2953 641 2809 
L 641 3341 
Q 956 3463 1253 3523 
Q 1550 3584 1831 3584 
Q 2591 3584 2966 3190 
Q 3341 2797 3341 1997 
z
" id="DejaVuSans-61" transform="scale(0.015625)"/>
       <path d="M 603 4863 
L 1178 4863 
L 1178 0 
L 603 0 
L 603 4863 
z
" id="DejaVuSans-6c" transform="scale(0.015625)"/>
       <path id="DejaVuSans-20" transform="scale(0.015625)"/>
       <path d="M 2188 4044 
L 1331 1722 
L 3047 1722 
L 2188 4044 
z
M 1831 4666 
L 2547 4666 
L 4325 0 
L 3669 0 
L 3244 1197 
L 1141 1197 
L 716 0 
L 50 0 
L 1831 4666 
z
" id="DejaVuSans-41" transform="scale(0.015625)"/>
       <path d="M 191 3500 
L 800 3500 
L 1894 563 
L 2988 3500 
L 3597 3500 
L 2284 0 
L 1503 0 
L 191 3500 
z
" id="DejaVuSans-76" transform="scale(0.015625)"/>
       <path d="M 3513 2113 
L 3513 0 
L 2938 0 
L 2938 2094 
Q 2938 2591 2744 2837 
Q 2550 3084 2163 3084 
Q 1697 3084 1428 2787 
Q 1159 2491 1159 1978 
L 1159 0 
L 581 0 
L 581 3500 
L 1159 3500 
L 1159 2956 
Q 1366 3272 1645 3428 
Q 1925 3584 2291 3584 
Q 2894 3584 3203 3211 
Q 3513 2838 3513 2113 
z
" id="DejaVuSans-6e" transform="scale(0.015625)"/>
       <path d="M 1984 4856 
Q 1566 4138 1362 3434 
Q 1159 2731 1159 2009 
Q 1159 1288 1364 580 
Q 1569 -128 1984 -844 
L 1484 -844 
Q 1016 -109 783 600 
Q 550 1309 550 2009 
Q 550 2706 781 3412 
Q 1013 4119 1484 4856 
L 1984 4856 
z
" id="DejaVuSans-28" transform="scale(0.015625)"/>
       <path d="M 544 1381 
L 544 3500 
L 1119 3500 
L 1119 1403 
Q 1119 906 1312 657 
Q 1506 409 1894 409 
Q 2359 409 2629 706 
Q 2900 1003 2900 1516 
L 2900 3500 
L 3475 3500 
L 3475 0 
L 2900 0 
L 2900 538 
Q 2691 219 2414 64 
Q 2138 -91 1772 -91 
Q 1169 -91 856 284 
Q 544 659 544 1381 
z
M 1991 3584 
L 1991 3584 
z
" id="DejaVuSans-75" transform="scale(0.015625)"/>
       <path d="M 513 4856 
L 1013 4856 
Q 1481 4119 1714 3412 
Q 1947 2706 1947 2009 
Q 1947 1309 1714 600 
Q 1481 -109 1013 -844 
L 513 -844 
Q 928 -128 1133 580 
Q 1338 1288 1338 2009 
Q 1338 2731 1133 3434 
Q 928 4138 513 4856 
z
" id="DejaVuSans-29" transform="scale(0.015625)"/>
      </defs>
      <use xlink:href="#DejaVuSans-43"/>
      <use x="69.824219" xlink:href="#DejaVuSans-6f"/>
      <use x="131.005859" xlink:href="#DejaVuSans-72"/>
      <use x="172.119141" xlink:href="#DejaVuSans-74"/>
      <use x="211.328125" xlink:href="#DejaVuSans-69"/>
      <use x="239.111328" xlink:href="#DejaVuSans-63"/>
      <use x="294.091797" xlink:href="#DejaVuSans-61"/>
      <use x="355.371094" xlink:href="#DejaVuSans-6c"/>
      <use x="383.154297" xlink:href="#DejaVuSans-20"/>
      <use x="414.941406" xlink:href="#DejaVuSans-41"/>
      <use x="481.599609" xlink:href="#DejaVuSans-63"/>
      <use x="536.580078" xlink:href="#DejaVuSans-74"/>
      <use x="575.789062" xlink:href="#DejaVuSans-69"/>
      <use x="603.572266" xlink:href="#DejaVuSans-76"/>
      <use x="662.751953" xlink:href="#DejaVuSans-61"/>
      <use x="724.03125" xlink:href="#DejaVuSans-74"/>
      <use x="763.240234" xlink:href="#DejaVuSans-69"/>
      <use x="791.023438" xlink:href="#DejaVuSans-6f"/>
      <use x="852.205078" xlink:href="#DejaVuSans-6e"/>
      <use x="915.583984" xlink:href="#DejaVuSans-20"/>
      <use x="947.371094" xlink:href="#DejaVuSans-28"/>
      <use x="986.384766" xlink:href="#DejaVuSans-61"/>
      <use x="1047.664062" xlink:href="#DejaVuSans-2e"/>
      <use x="1079.451172" xlink:href="#DejaVuSans-75"/>
      <use x="1142.830078" xlink:href="#DejaVuSans-2e"/>
      <use x="1174.617188" xlink:href="#DejaVuSans-29"/>
     </g>
    </g>
   </g>
   <g id="matplotlib.axis_2">
    <g id="ytick_1">
     <g id="line2d_7">
      <defs>
       <path d="M 0 0 
L -3.5 0 
" id="m5f09a0a0c5" style="stroke:#000000;stroke-width:0.8;"/>
      </defs>
      <g>
       <use style="stroke:#000000;stroke-width:0.8;" x="53.925" xlink:href="#m5f09a0a0c5" y="212.177445"/>
      </g>
     </g>
     <g id="text_8">
      <!-- 0.02 -->
      <g transform="translate(24.659375 215.976664)scale(0.1 -0.1)">
       <defs>
        <path d="M 1228 531 
L 3431 531 
L 3431 0 
L 469 0 
L 469 531 
Q 828 903 1448 1529 
Q 2069 2156 2228 2338 
Q 2531 2678 2651 2914 
Q 2772 3150 2772 3378 
Q 2772 3750 2511 3984 
Q 2250 4219 1831 4219 
Q 1534 4219 1204 4116 
Q 875 4013 500 3803 
L 500 4441 
Q 881 4594 1212 4672 
Q 1544 4750 1819 4750 
Q 2544 4750 2975 4387 
Q 3406 4025 3406 3419 
Q 3406 3131 3298 2873 
Q 3191 2616 2906 2266 
Q 2828 2175 2409 1742 
Q 1991 1309 1228 531 
z
" id="DejaVuSans-32" transform="scale(0.015625)"/>
       </defs>
       <use xlink:href="#DejaVuSans-30"/>
       <use x="63.623047" xlink:href="#DejaVuSans-2e"/>
       <use x="95.410156" xlink:href="#DejaVuSans-30"/>
       <use x="159.033203" xlink:href="#DejaVuSans-32"/>
      </g>
     </g>
    </g>
    <g id="ytick_2">
     <g id="line2d_8">
      <g>
       <use style="stroke:#000000;stroke-width:0.8;" x="53.925" xlink:href="#m5f09a0a0c5" y="165.742432"/>
      </g>
     </g>
     <g id="text_9">
      <!-- 0.04 -->
      <g transform="translate(24.659375 169.541651)scale(0.1 -0.1)">
       <use xlink:href="#DejaVuSans-30"/>
       <use x="63.623047" xlink:href="#DejaVuSans-2e"/>
       <use x="95.410156" xlink:href="#DejaVuSans-30"/>
       <use x="159.033203" xlink:href="#DejaVuSans-34"/>
      </g>
     </g>
    </g>
    <g id="ytick_3">
     <g id="line2d_9">
      <g>
       <use style="stroke:#000000;stroke-width:0.8;" x="53.925" xlink:href="#m5f09a0a0c5" y="119.30742"/>
      </g>
     </g>
     <g id="text_10">
      <!-- 0.06 -->
      <g transform="translate(24.659375 123.106638)scale(0.1 -0.1)">
       <use xlink:href="#DejaVuSans-30"/>
       <use x="63.623047" xlink:href="#DejaVuSans-2e"/>
       <use x="95.410156" xlink:href="#DejaVuSans-30"/>
       <use x="159.033203" xlink:href="#DejaVuSans-36"/>
      </g>
     </g>
    </g>
    <g id="ytick_4">
     <g id="line2d_10">
      <g>
       <use style="stroke:#000000;stroke-width:0.8;" x="53.925" xlink:href="#m5f09a0a0c5" y="72.872407"/>
      </g>
     </g>
     <g id="text_11">
      <!-- 0.08 -->
      <g transform="translate(24.659375 76.671625)scale(0.1 -0.1)">
       <use xlink:href="#DejaVuSans-30"/>
       <use x="63.623047" xlink:href="#DejaVuSans-2e"/>
       <use x="95.410156" xlink:href="#DejaVuSans-30"/>
       <use x="159.033203" xlink:href="#DejaVuSans-38"/>
      </g>
     </g>
    </g>
    <g id="ytick_5">
     <g id="line2d_11">
      <g>
       <use style="stroke:#000000;stroke-width:0.8;" x="53.925" xlink:href="#m5f09a0a0c5" y="26.437394"/>
      </g>
     </g>
     <g id="text_12">
      <!-- 0.10 -->
      <g transform="translate(24.659375 30.236613)scale(0.1 -0.1)">
       <defs>
        <path d="M 794 531 
L 1825 531 
L 1825 4091 
L 703 3866 
L 703 4441 
L 1819 4666 
L 2450 4666 
L 2450 531 
L 3481 531 
L 3481 0 
L 794 0 
L 794 531 
z
" id="DejaVuSans-31" transform="scale(0.015625)"/>
       </defs>
       <use xlink:href="#DejaVuSans-30"/>
       <use x="63.623047" xlink:href="#DejaVuSans-2e"/>
       <use x="95.410156" xlink:href="#DejaVuSans-31"/>
       <use x="159.033203" xlink:href="#DejaVuSans-30"/>
      </g>
     </g>
    </g>
    <g id="text_13">
     <!-- Cerebellar Activation (a.u.) -->
     <g transform="translate(18.579687 195.758594)rotate(-90)scale(0.1 -0.1)">
      <defs>
       <path d="M 3597 1894 
L 3597 1613 
L 953 1613 
Q 991 1019 1311 708 
Q 1631 397 2203 397 
Q 2534 397 2845 478 
Q 3156 559 3463 722 
L 3463 178 
Q 3153 47 2828 -22 
Q 2503 -91 2169 -91 
Q 1331 -91 842 396 
Q 353 884 353 1716 
Q 353 2575 817 3079 
Q 1281 3584 2069 3584 
Q 2775 3584 3186 3129 
Q 3597 2675 3597 1894 
z
M 3022 2063 
Q 3016 2534 2758 2815 
Q 2500 3097 2075 3097 
Q 1594 3097 1305 2825 
Q 1016 2553 972 2059 
L 3022 2063 
z
" id="DejaVuSans-65" transform="scale(0.015625)"/>
       <path d="M 3116 1747 
Q 3116 2381 2855 2742 
Q 2594 3103 2138 3103 
Q 1681 3103 1420 2742 
Q 1159 2381 1159 1747 
Q 1159 1113 1420 752 
Q 1681 391 2138 391 
Q 2594 391 2855 752 
Q 3116 1113 3116 1747 
z
M 1159 2969 
Q 1341 3281 1617 3432 
Q 1894 3584 2278 3584 
Q 2916 3584 3314 3078 
Q 3713 2572 3713 1747 
Q 3713 922 3314 415 
Q 2916 -91 2278 -91 
Q 1894 -91 1617 61 
Q 1341 213 1159 525 
L 1159 0 
L 581 0 
L 581 4863 
L 1159 4863 
L 1159 2969 
z
" id="DejaVuSans-62" transform="scale(0.015625)"/>
      </defs>
      <use xlink:href="#DejaVuSans-43"/>
      <use x="69.824219" xlink:href="#DejaVuSans-65"/>
      <use x="131.347656" xlink:href="#DejaVuSans-72"/>
      <use x="170.210938" xlink:href="#DejaVuSans-65"/>
      <use x="231.734375" xlink:href="#DejaVuSans-62"/>
      <use x="295.210938" xlink:href="#DejaVuSans-65"/>
      <use x="356.734375" xlink:href="#DejaVuSans-6c"/>
      <use x="384.517578" xlink:href="#DejaVuSans-6c"/>
      <use x="412.300781" xlink:href="#DejaVuSans-61"/>
      <use x="473.580078" xlink:href="#DejaVuSans-72"/>
      <use x="514.693359" xlink:href="#DejaVuSans-20"/>
      <use x="546.480469" xlink:href="#DejaVuSans-41"/>
      <use x="613.138672" xlink:href="#DejaVuSans-63"/>
      <use x="668.119141" xlink:href="#DejaVuSans-74"/>
      <use x="707.328125" xlink:href="#DejaVuSans-69"/>
      <use x="735.111328" xlink:href="#DejaVuSans-76"/>
      <use x="794.291016" xlink:href="#DejaVuSans-61"/>
      <use x="855.570312" xlink:href="#DejaVuSans-74"/>
      <use x="894.779297" xlink:href="#DejaVuSans-69"/>
      <use x="922.5625" xlink:href="#DejaVuSans-6f"/>
      <use x="983.744141" xlink:href="#DejaVuSans-6e"/>
      <use x="1047.123047" xlink:href="#DejaVuSans-20"/>
      <use x="1078.910156" xlink:href="#DejaVuSans-28"/>
      <use x="1117.923828" xlink:href="#DejaVuSans-61"/>
      <use x="1179.203125" xlink:href="#DejaVuSans-2e"/>
      <use x="1210.990234" xlink:href="#DejaVuSans-75"/>
      <use x="1274.369141" xlink:href="#DejaVuSans-2e"/>
      <use x="1306.15625" xlink:href="#DejaVuSans-29"/>
     </g>
    </g>
   </g>
   <g id="LineCollection_1">
    <path clip-path="url(#p923535608b)" d="M 63.91 230.220962 
L 63.91 167.477289 
" style="fill:none;stroke:#e6e6e6;"/>
    <path clip-path="url(#p923535608b)" d="M 256.962445 153.887711 
L 256.962445 92.434286 
" style="fill:none;stroke:#e6e6e6;"/>
    <path clip-path="url(#p923535608b)" d="M 84.873637 235.5 
L 84.873637 163.031765 
" style="fill:none;stroke:#e6e6e6;"/>
    <path clip-path="url(#p923535608b)" d="M 247.925962 163.673954 
L 247.925962 92.895701 
" style="fill:none;stroke:#e6e6e6;"/>
    <path clip-path="url(#p923535608b)" d="M 143.12892 167.828257 
L 143.12892 119.460705 
" style="fill:none;stroke:#e6e6e6;"/>
    <path clip-path="url(#p923535608b)" d="M 263.61 137.007671 
L 263.61 53.518327 
" style="fill:none;stroke:#e6e6e6;"/>
    <path clip-path="url(#p923535608b)" d="M 80.269222 219.578893 
L 80.269222 177.006426 
" style="fill:none;stroke:#e6e6e6;"/>
    <path clip-path="url(#p923535608b)" d="M 255.291205 140.249842 
L 255.291205 88.511267 
" style="fill:none;stroke:#e6e6e6;"/>
    <path clip-path="url(#p923535608b)" d="M 230.270619 106.484437 
L 230.270619 21.5 
" style="fill:none;stroke:#e6e6e6;"/>
    <path clip-path="url(#p923535608b)" d="M 200.019076 121.11098 
L 200.019076 54.462673 
" style="fill:none;stroke:#e6e6e6;"/>
    <path clip-path="url(#p923535608b)" d="M 162.502413 167.285891 
L 162.502413 63.292066 
" style="fill:none;stroke:#e6e6e6;"/>
    <path clip-path="url(#p923535608b)" d="M 203.947966 143.275597 
L 203.947966 78.188151 
" style="fill:none;stroke:#e6e6e6;"/>
   </g>
   <g id="line2d_12">
    <path clip-path="url(#p923535608b)" d="M 63.91 192.286314 
L 65.927172 191.25566 
L 67.944343 190.225005 
L 69.961515 189.194351 
L 71.978687 188.163697 
L 73.995859 187.133042 
L 76.01303 186.102388 
L 78.030202 185.071734 
L 80.047374 184.041079 
L 82.064545 183.010425 
L 84.081717 181.979771 
L 86.098889 180.949116 
L 88.116061 179.918462 
L 90.133232 178.887807 
L 92.150404 177.857153 
L 94.167576 176.826499 
L 96.184747 175.795844 
L 98.201919 174.76519 
L 100.219091 173.734536 
L 102.236263 172.703881 
L 104.253434 171.673227 
L 106.270606 170.642573 
L 108.287778 169.611918 
L 110.304949 168.581264 
L 112.322121 167.550609 
L 114.339293 166.519955 
L 116.356465 165.489301 
L 118.373636 164.458646 
L 120.390808 163.427992 
L 122.40798 162.397338 
L 124.425152 161.366683 
L 126.442323 160.336029 
L 128.459495 159.305375 
L 130.476667 158.27472 
L 132.493838 157.244066 
L 134.51101 156.213412 
L 136.528182 155.182757 
L 138.545354 154.152103 
L 140.562525 153.121448 
L 142.579697 152.090794 
L 144.596869 151.06014 
L 146.61404 150.029485 
L 148.631212 148.998831 
L 150.648384 147.968177 
L 152.665556 146.937522 
L 154.682727 145.906868 
L 156.699899 144.876214 
L 158.717071 143.845559 
L 160.734242 142.814905 
L 162.751414 141.784251 
L 164.768586 140.753596 
L 166.785758 139.722942 
L 168.802929 138.692287 
L 170.820101 137.661633 
L 172.837273 136.630979 
L 174.854444 135.600324 
L 176.871616 134.56967 
L 178.888788 133.539016 
L 180.90596 132.508361 
L 182.923131 131.477707 
L 184.940303 130.447053 
L 186.957475 129.416398 
L 188.974646 128.385744 
L 190.991818 127.35509 
L 193.00899 126.324435 
L 195.026162 125.293781 
L 197.043333 124.263126 
L 199.060505 123.232472 
L 201.077677 122.201818 
L 203.094848 121.171163 
L 205.11202 120.140509 
L 207.129192 119.109855 
L 209.146364 118.0792 
L 211.163535 117.048546 
L 213.180707 116.017892 
L 215.197879 114.987237 
L 217.215051 113.956583 
L 219.232222 112.925929 
L 221.249394 111.895274 
L 223.266566 110.86462 
L 225.283737 109.833965 
L 227.300909 108.803311 
L 229.318081 107.772657 
L 231.335253 106.742002 
L 233.352424 105.711348 
L 235.369596 104.680694 
L 237.386768 103.650039 
L 239.403939 102.619385 
L 241.421111 101.588731 
L 243.438283 100.558076 
L 245.455455 99.527422 
L 247.472626 98.496768 
L 249.489798 97.466113 
L 251.50697 96.435459 
L 253.524141 95.404804 
L 255.541313 94.37415 
L 257.558485 93.343496 
L 259.575657 92.312841 
L 261.592828 91.282187 
L 263.61 90.251533 
" style="fill:none;stroke:#808080;stroke-linecap:square;stroke-width:2.25;"/>
   </g>
   <g id="patch_3">
    <path d="M 53.925 246.2 
L 53.925 10.8 
" style="fill:none;stroke:#000000;stroke-linecap:square;stroke-linejoin:miter;stroke-width:0.8;"/>
   </g>
   <g id="patch_4">
    <path d="M 53.925 246.2 
L 273.595 246.2 
" style="fill:none;stroke:#000000;stroke-linecap:square;stroke-linejoin:miter;stroke-width:0.8;"/>
   </g>
   <g id="text_14">
    <!-- load2 -->
    <g transform="translate(56.006228 196.216746)scale(0.0833 -0.0833)">
     <defs>
      <path d="M 2906 2969 
L 2906 4863 
L 3481 4863 
L 3481 0 
L 2906 0 
L 2906 525 
Q 2725 213 2448 61 
Q 2172 -91 1784 -91 
Q 1150 -91 751 415 
Q 353 922 353 1747 
Q 353 2572 751 3078 
Q 1150 3584 1784 3584 
Q 2172 3584 2448 3432 
Q 2725 3281 2906 2969 
z
M 947 1747 
Q 947 1113 1208 752 
Q 1469 391 1925 391 
Q 2381 391 2643 752 
Q 2906 1113 2906 1747 
Q 2906 2381 2643 2742 
Q 2381 3103 1925 3103 
Q 1469 3103 1208 2742 
Q 947 2381 947 1747 
z
" id="DejaVuSans-64" transform="scale(0.015625)"/>
     </defs>
     <use xlink:href="#DejaVuSans-6c"/>
     <use x="27.783203" xlink:href="#DejaVuSans-6f"/>
     <use x="88.964844" xlink:href="#DejaVuSans-61"/>
     <use x="150.244141" xlink:href="#DejaVuSans-64"/>
     <use x="213.720703" xlink:href="#DejaVuSans-32"/>
    </g>
   </g>
   <g id="text_15">
    <!-- load2 -->
    <g transform="translate(235.843333 122.049369)scale(0.0833 -0.0833)">
     <use xlink:href="#DejaVuSans-6c"/>
     <use x="27.783203" xlink:href="#DejaVuSans-6f"/>
     <use x="88.964844" xlink:href="#DejaVuSans-61"/>
     <use x="150.244141" xlink:href="#DejaVuSans-64"/>
     <use x="213.720703" xlink:href="#DejaVuSans-32"/>
    </g>
   </g>
   <g id="text_16">
    <!-- load2 -->
    <g transform="translate(90.618941 206.252075)scale(0.0833 -0.0833)">
     <use xlink:href="#DejaVuSans-6c"/>
     <use x="27.783203" xlink:href="#DejaVuSans-6f"/>
     <use x="88.964844" xlink:href="#DejaVuSans-61"/>
     <use x="150.244141" xlink:href="#DejaVuSans-64"/>
     <use x="213.720703" xlink:href="#DejaVuSans-32"/>
    </g>
   </g>
   <g id="text_17">
    <!-- load2 -->
    <g transform="translate(227.888928 135.514326)scale(0.0833 -0.0833)">
     <use xlink:href="#DejaVuSans-6c"/>
     <use x="27.783203" xlink:href="#DejaVuSans-6f"/>
     <use x="88.964844" xlink:href="#DejaVuSans-61"/>
     <use x="150.244141" xlink:href="#DejaVuSans-64"/>
     <use x="213.720703" xlink:href="#DejaVuSans-32"/>
    </g>
   </g>
   <g id="text_18">
    <!-- load4 -->
    <g transform="translate(147.358396 141.012101)scale(0.0833 -0.0833)">
     <use xlink:href="#DejaVuSans-6c"/>
     <use x="27.783203" xlink:href="#DejaVuSans-6f"/>
     <use x="88.964844" xlink:href="#DejaVuSans-61"/>
     <use x="150.244141" xlink:href="#DejaVuSans-64"/>
     <use x="213.720703" xlink:href="#DejaVuSans-34"/>
    </g>
   </g>
   <g id="text_19">
    <!-- load4 -->
    <g transform="translate(243.572964 92.630619)scale(0.0833 -0.0833)">
     <use xlink:href="#DejaVuSans-6c"/>
     <use x="27.783203" xlink:href="#DejaVuSans-6f"/>
     <use x="88.964844" xlink:href="#DejaVuSans-61"/>
     <use x="150.244141" xlink:href="#DejaVuSans-64"/>
     <use x="213.720703" xlink:href="#DejaVuSans-34"/>
    </g>
   </g>
   <g id="text_20">
    <!-- load4 -->
    <g transform="translate(84.49865 195.660279)scale(0.0833 -0.0833)">
     <use xlink:href="#DejaVuSans-6c"/>
     <use x="27.783203" xlink:href="#DejaVuSans-6f"/>
     <use x="88.964844" xlink:href="#DejaVuSans-61"/>
     <use x="150.244141" xlink:href="#DejaVuSans-64"/>
     <use x="213.720703" xlink:href="#DejaVuSans-34"/>
    </g>
   </g>
   <g id="text_21">
    <!-- load4 -->
    <g transform="translate(215.863517 110.845578)scale(0.0833 -0.0833)">
     <use xlink:href="#DejaVuSans-6c"/>
     <use x="27.783203" xlink:href="#DejaVuSans-6f"/>
     <use x="88.964844" xlink:href="#DejaVuSans-61"/>
     <use x="150.244141" xlink:href="#DejaVuSans-64"/>
     <use x="213.720703" xlink:href="#DejaVuSans-34"/>
    </g>
   </g>
   <g id="text_22">
    <!-- load6 -->
    <g transform="translate(234.503214 61.359839)scale(0.0833 -0.0833)">
     <use xlink:href="#DejaVuSans-6c"/>
     <use x="27.783203" xlink:href="#DejaVuSans-6f"/>
     <use x="88.964844" xlink:href="#DejaVuSans-61"/>
     <use x="150.244141" xlink:href="#DejaVuSans-64"/>
     <use x="213.720703" xlink:href="#DejaVuSans-36"/>
    </g>
   </g>
   <g id="text_23">
    <!-- load6 -->
    <g transform="translate(204.251694 85.154447)scale(0.0833 -0.0833)">
     <use xlink:href="#DejaVuSans-6c"/>
     <use x="27.783203" xlink:href="#DejaVuSans-6f"/>
     <use x="88.964844" xlink:href="#DejaVuSans-61"/>
     <use x="150.244141" xlink:href="#DejaVuSans-64"/>
     <use x="213.720703" xlink:href="#DejaVuSans-36"/>
    </g>
   </g>
   <g id="text_24">
    <!-- load6 -->
    <g transform="translate(166.735014 112.656599)scale(0.0833 -0.0833)">
     <use xlink:href="#DejaVuSans-6c"/>
     <use x="27.783203" xlink:href="#DejaVuSans-6f"/>
     <use x="88.964844" xlink:href="#DejaVuSans-61"/>
     <use x="150.244141" xlink:href="#DejaVuSans-64"/>
     <use x="213.720703" xlink:href="#DejaVuSans-36"/>
    </g>
   </g>
   <g id="text_25">
    <!-- load6 -->
    <g transform="translate(191.881602 100.048147)scale(0.0833 -0.0833)">
     <use xlink:href="#DejaVuSans-6c"/>
     <use x="27.783203" xlink:href="#DejaVuSans-6f"/>
     <use x="88.964844" xlink:href="#DejaVuSans-61"/>
     <use x="150.244141" xlink:href="#DejaVuSans-64"/>
     <use x="213.720703" xlink:href="#DejaVuSans-36"/>
    </g>
   </g>
  </g>
  <g id="legend_1">
   <g id="text_26">
    <!-- phase -->
    <g transform="translate(314.890625 110.064063)scale(0.1 -0.1)">
     <defs>
      <path d="M 1159 525 
L 1159 -1331 
L 581 -1331 
L 581 3500 
L 1159 3500 
L 1159 2969 
Q 1341 3281 1617 3432 
Q 1894 3584 2278 3584 
Q 2916 3584 3314 3078 
Q 3713 2572 3713 1747 
Q 3713 922 3314 415 
Q 2916 -91 2278 -91 
Q 1894 -91 1617 61 
Q 1341 213 1159 525 
z
M 3116 1747 
Q 3116 2381 2855 2742 
Q 2594 3103 2138 3103 
Q 1681 3103 1420 2742 
Q 1159 2381 1159 1747 
Q 1159 1113 1420 752 
Q 1681 391 2138 391 
Q 2594 391 2855 752 
Q 3116 1113 3116 1747 
z
" id="DejaVuSans-70" transform="scale(0.015625)"/>
      <path d="M 3513 2113 
L 3513 0 
L 2938 0 
L 2938 2094 
Q 2938 2591 2744 2837 
Q 2550 3084 2163 3084 
Q 1697 3084 1428 2787 
Q 1159 2491 1159 1978 
L 1159 0 
L 581 0 
L 581 4863 
L 1159 4863 
L 1159 2956 
Q 1366 3272 1645 3428 
Q 1925 3584 2291 3584 
Q 2894 3584 3203 3211 
Q 3513 2838 3513 2113 
z
" id="DejaVuSans-68" transform="scale(0.015625)"/>
      <path d="M 2834 3397 
L 2834 2853 
Q 2591 2978 2328 3040 
Q 2066 3103 1784 3103 
Q 1356 3103 1142 2972 
Q 928 2841 928 2578 
Q 928 2378 1081 2264 
Q 1234 2150 1697 2047 
L 1894 2003 
Q 2506 1872 2764 1633 
Q 3022 1394 3022 966 
Q 3022 478 2636 193 
Q 2250 -91 1575 -91 
Q 1294 -91 989 -36 
Q 684 19 347 128 
L 347 722 
Q 666 556 975 473 
Q 1284 391 1588 391 
Q 1994 391 2212 530 
Q 2431 669 2431 922 
Q 2431 1156 2273 1281 
Q 2116 1406 1581 1522 
L 1381 1569 
Q 847 1681 609 1914 
Q 372 2147 372 2553 
Q 372 3047 722 3315 
Q 1072 3584 1716 3584 
Q 2034 3584 2315 3537 
Q 2597 3491 2834 3397 
z
" id="DejaVuSans-73" transform="scale(0.015625)"/>
     </defs>
     <use xlink:href="#DejaVuSans-70"/>
     <use x="63.476562" xlink:href="#DejaVuSans-68"/>
     <use x="126.855469" xlink:href="#DejaVuSans-61"/>
     <use x="188.134766" xlink:href="#DejaVuSans-73"/>
     <use x="240.234375" xlink:href="#DejaVuSans-65"/>
    </g>
   </g>
   <g id="PathCollection_7">
    <defs>
     <path d="M 0 3 
C 0.795609 3 1.55874 2.683901 2.12132 2.12132 
C 2.683901 1.55874 3 0.795609 3 0 
C 3 -0.795609 2.683901 -1.55874 2.12132 -2.12132 
C 1.55874 -2.683901 0.795609 -3 0 -3 
C -0.795609 -3 -1.55874 -2.683901 -2.12132 -2.12132 
C -2.683901 -1.55874 -3 -0.795609 -3 0 
C -3 0.795609 -2.683901 1.55874 -2.12132 2.12132 
C -1.55874 2.683901 -0.795609 3 0 3 
z
" id="mcd2b63007f" style="stroke:#1f77b4;"/>
    </defs>
    <g>
     <use style="fill:#1f77b4;stroke:#1f77b4;" x="296.890625" xlink:href="#mcd2b63007f" y="122.117188"/>
    </g>
   </g>
   <g id="text_27">
    <!-- encode -->
    <g transform="translate(314.890625 124.742188)scale(0.1 -0.1)">
     <use xlink:href="#DejaVuSans-65"/>
     <use x="61.523438" xlink:href="#DejaVuSans-6e"/>
     <use x="124.902344" xlink:href="#DejaVuSans-63"/>
     <use x="179.882812" xlink:href="#DejaVuSans-6f"/>
     <use x="241.064453" xlink:href="#DejaVuSans-64"/>
     <use x="304.541016" xlink:href="#DejaVuSans-65"/>
    </g>
   </g>
   <g id="PathCollection_8">
    <defs>
     <path d="M 0 3 
C 0.795609 3 1.55874 2.683901 2.12132 2.12132 
C 2.683901 1.55874 3 0.795609 3 0 
C 3 -0.795609 2.683901 -1.55874 2.12132 -2.12132 
C 1.55874 -2.683901 0.795609 -3 0 -3 
C -0.795609 -3 -1.55874 -2.683901 -2.12132 -2.12132 
C -2.683901 -1.55874 -3 -0.795609 -3 0 
C -3 0.795609 -2.683901 1.55874 -2.12132 2.12132 
C -1.55874 2.683901 -0.795609 3 0 3 
z
" id="m05f4820229" style="stroke:#ff7f0e;"/>
    </defs>
    <g>
     <use style="fill:#ff7f0e;stroke:#ff7f0e;" x="296.890625" xlink:href="#m05f4820229" y="136.795313"/>
    </g>
   </g>
   <g id="text_28">
    <!-- retriev -->
    <g transform="translate(314.890625 139.420313)scale(0.1 -0.1)">
     <use xlink:href="#DejaVuSans-72"/>
     <use x="38.863281" xlink:href="#DejaVuSans-65"/>
     <use x="100.386719" xlink:href="#DejaVuSans-74"/>
     <use x="139.595703" xlink:href="#DejaVuSans-72"/>
     <use x="180.708984" xlink:href="#DejaVuSans-69"/>
     <use x="208.492188" xlink:href="#DejaVuSans-65"/>
     <use x="270.015625" xlink:href="#DejaVuSans-76"/>
    </g>
   </g>
   <g id="text_29">
    <!-- recall -->
    <g transform="translate(314.890625 154.098438)scale(0.1 -0.1)">
     <use xlink:href="#DejaVuSans-72"/>
     <use x="38.863281" xlink:href="#DejaVuSans-65"/>
     <use x="100.386719" xlink:href="#DejaVuSans-63"/>
     <use x="155.367188" xlink:href="#DejaVuSans-61"/>
     <use x="216.646484" xlink:href="#DejaVuSans-6c"/>
     <use x="244.429688" xlink:href="#DejaVuSans-6c"/>
    </g>
   </g>
   <g id="PathCollection_9">
    <defs>
     <path d="M 0 3 
C 0.795609 3 1.55874 2.683901 2.12132 2.12132 
C 2.683901 1.55874 3 0.795609 3 0 
C 3 -0.795609 2.683901 -1.55874 2.12132 -2.12132 
C 1.55874 -2.683901 0.795609 -3 0 -3 
C -0.795609 -3 -1.55874 -2.683901 -2.12132 -2.12132 
C -2.683901 -1.55874 -3 -0.795609 -3 0 
C -3 0.795609 -2.683901 1.55874 -2.12132 2.12132 
C -1.55874 2.683901 -0.795609 3 0 3 
z
" id="m2e235c52aa" style="stroke:#333333;"/>
    </defs>
    <g>
     <use style="fill:#333333;stroke:#333333;" x="296.890625" xlink:href="#m2e235c52aa" y="166.151563"/>
    </g>
   </g>
   <g id="text_30">
    <!-- bw -->
    <g transform="translate(314.890625 168.776563)scale(0.1 -0.1)">
     <defs>
      <path d="M 269 3500 
L 844 3500 
L 1563 769 
L 2278 3500 
L 2956 3500 
L 3675 769 
L 4391 3500 
L 4966 3500 
L 4050 0 
L 3372 0 
L 2619 2869 
L 1863 0 
L 1184 0 
L 269 3500 
z
" id="DejaVuSans-77" transform="scale(0.015625)"/>
     </defs>
     <use xlink:href="#DejaVuSans-62"/>
     <use x="63.476562" xlink:href="#DejaVuSans-77"/>
    </g>
   </g>
   <g id="PathCollection_10">
    <defs>
     <path d="M -1.5 3 
L 0 1.5 
L 1.5 3 
L 3 1.5 
L 1.5 0 
L 3 -1.5 
L 1.5 -3 
L 0 -1.5 
L -1.5 -3 
L -3 -1.5 
L -1.5 0 
L -3 1.5 
z
" id="meff32a4867" style="stroke:#333333;"/>
    </defs>
    <g>
     <use style="fill:#333333;stroke:#333333;" x="296.890625" xlink:href="#meff32a4867" y="180.829688"/>
    </g>
   </g>
   <g id="text_31">
    <!-- fw -->
    <g transform="translate(314.890625 183.454688)scale(0.1 -0.1)">
     <defs>
      <path d="M 2375 4863 
L 2375 4384 
L 1825 4384 
Q 1516 4384 1395 4259 
Q 1275 4134 1275 3809 
L 1275 3500 
L 2222 3500 
L 2222 3053 
L 1275 3053 
L 1275 0 
L 697 0 
L 697 3053 
L 147 3053 
L 147 3500 
L 697 3500 
L 697 3744 
Q 697 4328 969 4595 
Q 1241 4863 1831 4863 
L 2375 4863 
z
" id="DejaVuSans-66" transform="scale(0.015625)"/>
     </defs>
     <use xlink:href="#DejaVuSans-66"/>
     <use x="33.455078" xlink:href="#DejaVuSans-77"/>
    </g>
   </g>
  </g>
 </g>
 <defs>
  <clipPath id="p923535608b">
   <rect height="235.4" width="219.67" x="53.925" y="10.8"/>
  </clipPath>
 </defs>
</svg>
