<?xml version="1.0" encoding="utf-8" standalone="no"?>
<!DOCTYPE svg PUBLIC "-//W3C//DTD SVG 1.1//EN"
  "http://www.w3.org/Graphics/SVG/1.1/DTD/svg11.dtd">
<svg xmlns:xlink="http://www.w3.org/1999/xlink" width="360.54pt" height="288pt" viewBox="0 0 360.54 288" xmlns="http://www.w3.org/2000/svg" version="1.1">
 <metadata>
  <rdf:RDF xmlns:dc="http://purl.org/dc/elements/1.1/" xmlns:cc="http://creativecommons.org/ns#" xmlns:rdf="http://www.w3.org/1999/02/22-rdf-syntax-ns#">
   <cc:Work>
    <dc:type rdf:resource="http://purl.org/dc/dcmitype/StillImage"/>
    <dc:date>2023-02-02T00:49:55.966368</dc:date>
    <dc:format>image/svg+xml</dc:format>
    <dc:creator>
     <cc:Agent>
      <dc:title>Matplotlib v3.6.2, https://matplotlib.org/</dc:title>
     </cc:Agent>
    </dc:creator>
   </cc:Work>
  </rdf:RDF>
 </metadata>
 <defs>
  <style type="text/css">*{stroke-linejoin: round; stroke-linecap: butt}</style>
 </defs>
 <g id="figure_1">
  <g id="patch_1">
   <path d="M 0 288 
L 360.54 288 
L 360.54 0 
L 0 0 
z
" style="fill: #ffffff"/>
  </g>
  <g id="axes_1">
   <g id="patch_2">
    <path d="M 54.11 246.04 
L 273.5946 246.04 
L 273.5946 11.970116 
L 54.11 11.970116 
z
" style="fill: #ffffff"/>
   </g>
   <g id="PathCollection_1">
    <path d="M 120.021995 199.975795 
C 121.34801 199.975795 122.619894 199.448963 123.557529 198.511329 
C 124.495163 197.573694 125.021995 196.30181 125.021995 194.975795 
C 125.021995 193.649779 124.495163 192.377896 123.557529 191.440261 
C 122.619894 190.502626 121.34801 189.975795 120.021995 189.975795 
C 118.695979 189.975795 117.424095 190.502626 116.486461 191.440261 
C 115.548826 192.377896 115.021995 193.649779 115.021995 194.975795 
C 115.021995 196.30181 115.548826 197.573694 116.486461 198.511329 
C 117.424095 199.448963 118.695979 199.975795 120.021995 199.975795 
z
" clip-path="url(#pefcb46ec2c)" style="fill: #1f77b4; stroke: #ffffff; stroke-width: 0.8"/>
    <path d="M 191.654155 165.300862 
C 192.980171 165.300862 194.252055 164.774031 195.189689 163.836396 
C 196.127324 162.898762 196.654155 161.626878 196.654155 160.300862 
C 196.654155 158.974847 196.127324 157.702963 195.189689 156.765328 
C 194.252055 155.827694 192.980171 155.300862 191.654155 155.300862 
C 190.32814 155.300862 189.056256 155.827694 188.118621 156.765328 
C 187.180987 157.702963 186.654155 158.974847 186.654155 160.300862 
C 186.654155 161.626878 187.180987 162.898762 188.118621 163.836396 
C 189.056256 164.774031 190.32814 165.300862 191.654155 165.300862 
z
" clip-path="url(#pefcb46ec2c)" style="fill: #ff7f0e; stroke: #ffffff; stroke-width: 0.8"/>
    <path d="M 61.586573 216.453033 
L 64.086573 213.953033 
L 66.586573 216.453033 
L 69.086573 213.953033 
L 66.586573 211.453033 
L 69.086573 208.953033 
L 66.586573 206.453033 
L 64.086573 208.953033 
L 61.586573 206.453033 
L 59.086573 208.953033 
L 61.586573 211.453033 
L 59.086573 213.953033 
z
" clip-path="url(#pefcb46ec2c)" style="fill: #1f77b4; stroke: #ffffff; stroke-width: 0.8"/>
    <path d="M 99.469117 200.282452 
L 101.969117 197.782452 
L 104.469117 200.282452 
L 106.969117 197.782452 
L 104.469117 195.282452 
L 106.969117 192.782452 
L 104.469117 190.282452 
L 101.969117 192.782452 
L 99.469117 190.282452 
L 96.969117 192.782452 
L 99.469117 195.282452 
L 96.969117 197.782452 
z
" clip-path="url(#pefcb46ec2c)" style="fill: #ff7f0e; stroke: #ffffff; stroke-width: 0.8"/>
    <path d="M 187.28966 157.461248 
C 188.615676 157.461248 189.88756 156.934417 190.825194 155.996782 
C 191.762829 155.059148 192.28966 153.787264 192.28966 152.461248 
C 192.28966 151.135233 191.762829 149.863349 190.825194 148.925714 
C 189.88756 147.98808 188.615676 147.461248 187.28966 147.461248 
C 185.963645 147.461248 184.691761 147.98808 183.754127 148.925714 
C 182.816492 149.863349 182.28966 151.135233 182.28966 152.461248 
C 182.28966 153.787264 182.816492 155.059148 183.754127 155.996782 
C 184.691761 156.934417 185.963645 157.461248 187.28966 157.461248 
z
" clip-path="url(#pefcb46ec2c)" style="fill: #1f77b4; stroke: #ffffff; stroke-width: 0.8"/>
    <path d="M 258.053836 130.893759 
C 259.379851 130.893759 260.651735 130.366928 261.58937 129.429293 
C 262.527004 128.491659 263.053836 127.219775 263.053836 125.893759 
C 263.053836 124.567744 262.527004 123.29586 261.58937 122.358226 
C 260.651735 121.420591 259.379851 120.893759 258.053836 120.893759 
C 256.72782 120.893759 255.455936 121.420591 254.518302 122.358226 
C 253.580667 123.29586 253.053836 124.567744 253.053836 125.893759 
C 253.053836 127.219775 253.580667 128.491659 254.518302 129.429293 
C 255.455936 130.366928 256.72782 130.893759 258.053836 130.893759 
z
" clip-path="url(#pefcb46ec2c)" style="fill: #ff7f0e; stroke: #ffffff; stroke-width: 0.8"/>
    <path d="M 69.967972 215.366929 
L 72.467972 212.866929 
L 74.967972 215.366929 
L 77.467972 212.866929 
L 74.967972 210.366929 
L 77.467972 207.866929 
L 74.967972 205.366929 
L 72.467972 207.866929 
L 69.967972 205.366929 
L 67.467972 207.866929 
L 69.967972 210.366929 
L 67.467972 212.866929 
z
" clip-path="url(#pefcb46ec2c)" style="fill: #1f77b4; stroke: #ffffff; stroke-width: 0.8"/>
    <path d="M 161.772748 174.095532 
L 164.272748 171.595532 
L 166.772748 174.095532 
L 169.272748 171.595532 
L 166.772748 169.095532 
L 169.272748 166.595532 
L 166.772748 164.095532 
L 164.272748 166.595532 
L 161.772748 164.095532 
L 159.272748 166.595532 
L 161.772748 169.095532 
L 159.272748 171.595532 
z
" clip-path="url(#pefcb46ec2c)" style="fill: #ff7f0e; stroke: #ffffff; stroke-width: 0.8"/>
    <path d="M 263.618027 75.257422 
C 264.944043 75.257422 266.215927 74.73059 267.153561 73.792956 
C 268.091196 72.855321 268.618027 71.583437 268.618027 70.257422 
C 268.618027 68.931406 268.091196 67.659522 267.153561 66.721888 
C 266.215927 65.784253 264.944043 65.257422 263.618027 65.257422 
C 262.292012 65.257422 261.020128 65.784253 260.082493 66.721888 
C 259.144859 67.659522 258.618027 68.931406 258.618027 70.257422 
C 258.618027 71.583437 259.144859 72.855321 260.082493 73.792956 
C 261.020128 74.73059 262.292012 75.257422 263.618027 75.257422 
z
" clip-path="url(#pefcb46ec2c)" style="fill: #1f77b4; stroke: #ffffff; stroke-width: 0.8"/>
    <path d="M 240.678223 106.740528 
C 242.004238 106.740528 243.276122 106.213696 244.213756 105.276062 
C 245.151391 104.338427 245.678223 103.066543 245.678223 101.740528 
C 245.678223 100.414512 245.151391 99.142629 244.213756 98.204994 
C 243.276122 97.267359 242.004238 96.740528 240.678223 96.740528 
C 239.352207 96.740528 238.080323 97.267359 237.142689 98.204994 
C 236.205054 99.142629 235.678223 100.414512 235.678223 101.740528 
C 235.678223 103.066543 236.205054 104.338427 237.142689 105.276062 
C 238.080323 106.213696 239.352207 106.740528 240.678223 106.740528 
z
" clip-path="url(#pefcb46ec2c)" style="fill: #ff7f0e; stroke: #ffffff; stroke-width: 0.8"/>
    <path d="M 165.694887 123.374686 
L 168.194887 120.874686 
L 170.694887 123.374686 
L 173.194887 120.874686 
L 170.694887 118.374686 
L 173.194887 115.874686 
L 170.694887 113.374686 
L 168.194887 115.874686 
L 165.694887 113.374686 
L 163.194887 115.874686 
L 165.694887 118.374686 
L 163.194887 120.874686 
z
" clip-path="url(#pefcb46ec2c)" style="fill: #1f77b4; stroke: #ffffff; stroke-width: 0.8"/>
    <path d="M 160.213796 147.946472 
L 162.713796 145.446472 
L 165.213796 147.946472 
L 167.713796 145.446472 
L 165.213796 142.946472 
L 167.713796 140.446472 
L 165.213796 137.946472 
L 162.713796 140.446472 
L 160.213796 137.946472 
L 157.713796 140.446472 
L 160.213796 142.946472 
L 157.713796 145.446472 
z
" clip-path="url(#pefcb46ec2c)" style="fill: #ff7f0e; stroke: #ffffff; stroke-width: 0.8"/>
   </g>
   <g id="PathCollection_2"/>
   <g id="PathCollection_3"/>
   <g id="PathCollection_4"/>
   <g id="PathCollection_5"/>
   <g id="PathCollection_6">
    <defs>
     <path id="mefba919189" d="M 0 0 
C 0 0 0 0 0 0 
C 0 0 0 0 0 0 
C 0 0 0 0 0 0 
C 0 0 0 0 0 0 
C 0 0 0 0 0 0 
C 0 0 0 0 0 0 
C 0 0 0 0 0 0 
C 0 0 0 0 0 0 
z
" style="stroke: #1f77b4; stroke-opacity: 0.8"/>
    </defs>
    <g clip-path="url(#pefcb46ec2c)">
     <use xlink:href="#mefba919189" x="120.021995" y="194.975795" style="fill: #1f77b4; fill-opacity: 0.8; stroke: #1f77b4; stroke-opacity: 0.8"/>
     <use xlink:href="#mefba919189" x="191.654155" y="160.300862" style="fill: #1f77b4; fill-opacity: 0.8; stroke: #1f77b4; stroke-opacity: 0.8"/>
     <use xlink:href="#mefba919189" x="64.086573" y="211.453033" style="fill: #1f77b4; fill-opacity: 0.8; stroke: #1f77b4; stroke-opacity: 0.8"/>
     <use xlink:href="#mefba919189" x="101.969117" y="195.282452" style="fill: #1f77b4; fill-opacity: 0.8; stroke: #1f77b4; stroke-opacity: 0.8"/>
     <use xlink:href="#mefba919189" x="187.28966" y="152.461248" style="fill: #1f77b4; fill-opacity: 0.8; stroke: #1f77b4; stroke-opacity: 0.8"/>
     <use xlink:href="#mefba919189" x="258.053836" y="125.893759" style="fill: #1f77b4; fill-opacity: 0.8; stroke: #1f77b4; stroke-opacity: 0.8"/>
     <use xlink:href="#mefba919189" x="72.467972" y="210.366929" style="fill: #1f77b4; fill-opacity: 0.8; stroke: #1f77b4; stroke-opacity: 0.8"/>
     <use xlink:href="#mefba919189" x="164.272748" y="169.095532" style="fill: #1f77b4; fill-opacity: 0.8; stroke: #1f77b4; stroke-opacity: 0.8"/>
     <use xlink:href="#mefba919189" x="263.618027" y="70.257422" style="fill: #1f77b4; fill-opacity: 0.8; stroke: #1f77b4; stroke-opacity: 0.8"/>
     <use xlink:href="#mefba919189" x="240.678223" y="101.740528" style="fill: #1f77b4; fill-opacity: 0.8; stroke: #1f77b4; stroke-opacity: 0.8"/>
     <use xlink:href="#mefba919189" x="168.194887" y="118.374686" style="fill: #1f77b4; fill-opacity: 0.8; stroke: #1f77b4; stroke-opacity: 0.8"/>
     <use xlink:href="#mefba919189" x="162.713796" y="142.946472" style="fill: #1f77b4; fill-opacity: 0.8; stroke: #1f77b4; stroke-opacity: 0.8"/>
    </g>
   </g>
   <g id="PolyCollection_1">
    <path d="M 64.086573 203.310879 
L 64.086573 231.643856 
L 66.102042 230.364633 
L 68.117511 229.08541 
L 70.13298 227.645283 
L 72.14845 226.134377 
L 74.163919 224.62347 
L 76.179388 223.205492 
L 78.194857 221.800848 
L 80.210327 220.396204 
L 82.225796 218.991559 
L 84.241265 217.586915 
L 86.256734 216.182271 
L 88.272204 214.709887 
L 90.287673 213.242175 
L 92.303142 211.849634 
L 94.318611 210.457094 
L 96.334081 209.064554 
L 98.34955 207.672014 
L 100.365019 206.203673 
L 102.380488 204.833995 
L 104.395957 203.457623 
L 106.411427 201.911744 
L 108.426896 200.363694 
L 110.442365 198.885169 
L 112.457834 197.533923 
L 114.473304 196.150537 
L 116.488773 194.757643 
L 118.504242 193.410739 
L 120.519711 192.056849 
L 122.535181 190.692999 
L 124.55065 189.328506 
L 126.566119 187.903043 
L 128.581588 186.528855 
L 130.597058 185.30423 
L 132.612527 183.948817 
L 134.627996 182.644782 
L 136.643465 181.445141 
L 138.658935 180.284356 
L 140.674404 179.148606 
L 142.689873 177.890634 
L 144.705342 176.797753 
L 146.720811 175.699066 
L 148.736281 174.279035 
L 150.75175 173.105287 
L 152.767219 171.852424 
L 154.782688 170.658718 
L 156.798158 169.519539 
L 158.813627 168.410338 
L 160.829096 167.395788 
L 162.844565 166.293225 
L 164.860035 165.249504 
L 166.875504 164.273753 
L 168.890973 163.335095 
L 170.906442 162.253569 
L 172.921912 161.252739 
L 174.937381 160.297703 
L 176.95285 159.327022 
L 178.968319 158.366983 
L 180.983789 157.406943 
L 182.999258 156.48241 
L 185.014727 155.486865 
L 187.030196 154.526826 
L 189.045665 153.566787 
L 191.061135 152.606748 
L 193.076604 151.685167 
L 195.092073 150.768699 
L 197.107542 149.817409 
L 199.123012 148.879505 
L 201.138481 147.918812 
L 203.15395 146.950739 
L 205.169419 146.007809 
L 207.184889 145.056322 
L 209.200358 144.103548 
L 211.215827 143.153303 
L 213.231296 142.241824 
L 215.246766 141.344669 
L 217.262235 140.412541 
L 219.277704 139.431321 
L 221.293173 138.474825 
L 223.308643 137.576262 
L 225.324112 136.693374 
L 227.339581 135.809634 
L 229.35505 134.925895 
L 231.370519 133.99393 
L 233.385989 133.044689 
L 235.401458 132.078236 
L 237.416927 131.085766 
L 239.432396 130.136804 
L 241.447866 129.219022 
L 243.463335 128.302467 
L 245.478804 127.385016 
L 247.494273 126.467612 
L 249.509743 125.553089 
L 251.525212 124.696994 
L 253.540681 123.954169 
L 255.55615 123.056727 
L 257.57162 122.106552 
L 259.587089 121.15612 
L 261.602558 120.205688 
L 263.618027 119.255255 
L 263.618027 75.363171 
L 263.618027 75.363171 
L 261.602558 76.771703 
L 259.587089 78.180235 
L 257.57162 79.588767 
L 255.55615 80.998347 
L 253.540681 82.409246 
L 251.525212 83.820145 
L 249.509743 85.231904 
L 247.494273 86.644296 
L 245.478804 88.069295 
L 243.463335 89.570731 
L 241.447866 91.072167 
L 239.432396 92.545023 
L 237.416927 93.963504 
L 235.401458 95.382728 
L 233.385989 96.80206 
L 231.370519 98.221392 
L 229.35505 99.640724 
L 227.339581 101.060056 
L 225.324112 102.479388 
L 223.308643 103.89872 
L 221.293173 105.318052 
L 219.277704 106.737385 
L 217.262235 108.202285 
L 215.246766 109.577225 
L 213.231296 111.020684 
L 211.215827 112.464536 
L 209.200358 113.931779 
L 207.184889 115.38448 
L 205.169419 116.822447 
L 203.15395 118.347402 
L 201.138481 119.787432 
L 199.123012 121.191069 
L 197.107542 122.594707 
L 195.092073 124.017686 
L 193.076604 125.460743 
L 191.061135 126.914306 
L 189.045665 128.486672 
L 187.030196 129.841159 
L 185.014727 131.234033 
L 182.999258 132.676307 
L 180.983789 134.121356 
L 178.968319 135.566404 
L 176.95285 137.011452 
L 174.937381 138.414925 
L 172.921912 139.834399 
L 170.906442 141.314061 
L 168.890973 142.734569 
L 166.875504 144.076578 
L 164.860035 145.487583 
L 162.844565 146.780087 
L 160.829096 148.152745 
L 158.813627 149.424034 
L 156.798158 150.717055 
L 154.782688 152.0153 
L 152.767219 153.347231 
L 150.75175 154.709655 
L 148.736281 156.040436 
L 146.720811 157.292944 
L 144.705342 158.608908 
L 142.689873 159.931292 
L 140.674404 161.274436 
L 138.658935 162.60979 
L 136.643465 163.773693 
L 134.627996 164.982293 
L 132.612527 166.087091 
L 130.597058 167.288938 
L 128.581588 168.492351 
L 126.566119 169.699985 
L 124.55065 170.986579 
L 122.535181 172.067992 
L 120.519711 173.259107 
L 118.504242 174.43901 
L 116.488773 175.657494 
L 114.473304 176.814492 
L 112.457834 177.879279 
L 110.442365 178.980396 
L 108.426896 180.331806 
L 106.411427 181.382288 
L 104.395957 182.425984 
L 102.380488 183.598253 
L 100.365019 184.708594 
L 98.34955 185.897267 
L 96.334081 187.082504 
L 94.318611 188.036417 
L 92.303142 188.978069 
L 90.287673 190.015193 
L 88.272204 191.070199 
L 86.256734 192.130552 
L 84.241265 193.18816 
L 82.225796 194.245905 
L 80.210327 195.224123 
L 78.194857 196.23847 
L 76.179388 197.254854 
L 74.163919 198.272661 
L 72.14845 199.290467 
L 70.13298 200.308274 
L 68.117511 201.327836 
L 66.102042 202.340336 
L 64.086573 203.310879 
z
" clip-path="url(#pefcb46ec2c)" style="fill: #808080; fill-opacity: 0.15"/>
   </g>
   <g id="matplotlib.axis_1">
    <g id="xtick_1">
     <g id="line2d_1">
      <defs>
       <path id="m968b7b84d5" d="M 0 0 
L 0 3.5 
" style="stroke: #000000; stroke-width: 0.8"/>
      </defs>
      <g>
       <use xlink:href="#m968b7b84d5" x="81.472594" y="246.04" style="stroke: #000000; stroke-width: 0.8"/>
      </g>
     </g>
     <g id="text_1">
      <!-- 0.20 -->
      <g transform="translate(70.339782 260.638438) scale(0.1 -0.1)">
       <defs>
        <path id="DejaVuSans-30" d="M 2034 4250 
Q 1547 4250 1301 3770 
Q 1056 3291 1056 2328 
Q 1056 1369 1301 889 
Q 1547 409 2034 409 
Q 2525 409 2770 889 
Q 3016 1369 3016 2328 
Q 3016 3291 2770 3770 
Q 2525 4250 2034 4250 
z
M 2034 4750 
Q 2819 4750 3233 4129 
Q 3647 3509 3647 2328 
Q 3647 1150 3233 529 
Q 2819 -91 2034 -91 
Q 1250 -91 836 529 
Q 422 1150 422 2328 
Q 422 3509 836 4129 
Q 1250 4750 2034 4750 
z
" transform="scale(0.015625)"/>
        <path id="DejaVuSans-2e" d="M 684 794 
L 1344 794 
L 1344 0 
L 684 0 
L 684 794 
z
" transform="scale(0.015625)"/>
        <path id="DejaVuSans-32" d="M 1228 531 
L 3431 531 
L 3431 0 
L 469 0 
L 469 531 
Q 828 903 1448 1529 
Q 2069 2156 2228 2338 
Q 2531 2678 2651 2914 
Q 2772 3150 2772 3378 
Q 2772 3750 2511 3984 
Q 2250 4219 1831 4219 
Q 1534 4219 1204 4116 
Q 875 4013 500 3803 
L 500 4441 
Q 881 4594 1212 4672 
Q 1544 4750 1819 4750 
Q 2544 4750 2975 4387 
Q 3406 4025 3406 3419 
Q 3406 3131 3298 2873 
Q 3191 2616 2906 2266 
Q 2828 2175 2409 1742 
Q 1991 1309 1228 531 
z
" transform="scale(0.015625)"/>
       </defs>
       <use xlink:href="#DejaVuSans-30"/>
       <use xlink:href="#DejaVuSans-2e" x="63.623047"/>
       <use xlink:href="#DejaVuSans-32" x="95.410156"/>
       <use xlink:href="#DejaVuSans-30" x="159.033203"/>
      </g>
     </g>
    </g>
    <g id="xtick_2">
     <g id="line2d_2">
      <g>
       <use xlink:href="#m968b7b84d5" x="114.478708" y="246.04" style="stroke: #000000; stroke-width: 0.8"/>
      </g>
     </g>
     <g id="text_2">
      <!-- 0.22 -->
      <g transform="translate(103.345895 260.638438) scale(0.1 -0.1)">
       <use xlink:href="#DejaVuSans-30"/>
       <use xlink:href="#DejaVuSans-2e" x="63.623047"/>
       <use xlink:href="#DejaVuSans-32" x="95.410156"/>
       <use xlink:href="#DejaVuSans-32" x="159.033203"/>
      </g>
     </g>
    </g>
    <g id="xtick_3">
     <g id="line2d_3">
      <g>
       <use xlink:href="#m968b7b84d5" x="147.484822" y="246.04" style="stroke: #000000; stroke-width: 0.8"/>
      </g>
     </g>
     <g id="text_3">
      <!-- 0.24 -->
      <g transform="translate(136.352009 260.638438) scale(0.1 -0.1)">
       <defs>
        <path id="DejaVuSans-34" d="M 2419 4116 
L 825 1625 
L 2419 1625 
L 2419 4116 
z
M 2253 4666 
L 3047 4666 
L 3047 1625 
L 3713 1625 
L 3713 1100 
L 3047 1100 
L 3047 0 
L 2419 0 
L 2419 1100 
L 313 1100 
L 313 1709 
L 2253 4666 
z
" transform="scale(0.015625)"/>
       </defs>
       <use xlink:href="#DejaVuSans-30"/>
       <use xlink:href="#DejaVuSans-2e" x="63.623047"/>
       <use xlink:href="#DejaVuSans-32" x="95.410156"/>
       <use xlink:href="#DejaVuSans-34" x="159.033203"/>
      </g>
     </g>
    </g>
    <g id="xtick_4">
     <g id="line2d_4">
      <g>
       <use xlink:href="#m968b7b84d5" x="180.490936" y="246.04" style="stroke: #000000; stroke-width: 0.8"/>
      </g>
     </g>
     <g id="text_4">
      <!-- 0.26 -->
      <g transform="translate(169.358123 260.638438) scale(0.1 -0.1)">
       <defs>
        <path id="DejaVuSans-36" d="M 2113 2584 
Q 1688 2584 1439 2293 
Q 1191 2003 1191 1497 
Q 1191 994 1439 701 
Q 1688 409 2113 409 
Q 2538 409 2786 701 
Q 3034 994 3034 1497 
Q 3034 2003 2786 2293 
Q 2538 2584 2113 2584 
z
M 3366 4563 
L 3366 3988 
Q 3128 4100 2886 4159 
Q 2644 4219 2406 4219 
Q 1781 4219 1451 3797 
Q 1122 3375 1075 2522 
Q 1259 2794 1537 2939 
Q 1816 3084 2150 3084 
Q 2853 3084 3261 2657 
Q 3669 2231 3669 1497 
Q 3669 778 3244 343 
Q 2819 -91 2113 -91 
Q 1303 -91 875 529 
Q 447 1150 447 2328 
Q 447 3434 972 4092 
Q 1497 4750 2381 4750 
Q 2619 4750 2861 4703 
Q 3103 4656 3366 4563 
z
" transform="scale(0.015625)"/>
       </defs>
       <use xlink:href="#DejaVuSans-30"/>
       <use xlink:href="#DejaVuSans-2e" x="63.623047"/>
       <use xlink:href="#DejaVuSans-32" x="95.410156"/>
       <use xlink:href="#DejaVuSans-36" x="159.033203"/>
      </g>
     </g>
    </g>
    <g id="xtick_5">
     <g id="line2d_5">
      <g>
       <use xlink:href="#m968b7b84d5" x="213.49705" y="246.04" style="stroke: #000000; stroke-width: 0.8"/>
      </g>
     </g>
     <g id="text_5">
      <!-- 0.28 -->
      <g transform="translate(202.364237 260.638438) scale(0.1 -0.1)">
       <defs>
        <path id="DejaVuSans-38" d="M 2034 2216 
Q 1584 2216 1326 1975 
Q 1069 1734 1069 1313 
Q 1069 891 1326 650 
Q 1584 409 2034 409 
Q 2484 409 2743 651 
Q 3003 894 3003 1313 
Q 3003 1734 2745 1975 
Q 2488 2216 2034 2216 
z
M 1403 2484 
Q 997 2584 770 2862 
Q 544 3141 544 3541 
Q 544 4100 942 4425 
Q 1341 4750 2034 4750 
Q 2731 4750 3128 4425 
Q 3525 4100 3525 3541 
Q 3525 3141 3298 2862 
Q 3072 2584 2669 2484 
Q 3125 2378 3379 2068 
Q 3634 1759 3634 1313 
Q 3634 634 3220 271 
Q 2806 -91 2034 -91 
Q 1263 -91 848 271 
Q 434 634 434 1313 
Q 434 1759 690 2068 
Q 947 2378 1403 2484 
z
M 1172 3481 
Q 1172 3119 1398 2916 
Q 1625 2713 2034 2713 
Q 2441 2713 2670 2916 
Q 2900 3119 2900 3481 
Q 2900 3844 2670 4047 
Q 2441 4250 2034 4250 
Q 1625 4250 1398 4047 
Q 1172 3844 1172 3481 
z
" transform="scale(0.015625)"/>
       </defs>
       <use xlink:href="#DejaVuSans-30"/>
       <use xlink:href="#DejaVuSans-2e" x="63.623047"/>
       <use xlink:href="#DejaVuSans-32" x="95.410156"/>
       <use xlink:href="#DejaVuSans-38" x="159.033203"/>
      </g>
     </g>
    </g>
    <g id="xtick_6">
     <g id="line2d_6">
      <g>
       <use xlink:href="#m968b7b84d5" x="246.503164" y="246.04" style="stroke: #000000; stroke-width: 0.8"/>
      </g>
     </g>
     <g id="text_6">
      <!-- 0.30 -->
      <g transform="translate(235.370351 260.638438) scale(0.1 -0.1)">
       <defs>
        <path id="DejaVuSans-33" d="M 2597 2516 
Q 3050 2419 3304 2112 
Q 3559 1806 3559 1356 
Q 3559 666 3084 287 
Q 2609 -91 1734 -91 
Q 1441 -91 1130 -33 
Q 819 25 488 141 
L 488 750 
Q 750 597 1062 519 
Q 1375 441 1716 441 
Q 2309 441 2620 675 
Q 2931 909 2931 1356 
Q 2931 1769 2642 2001 
Q 2353 2234 1838 2234 
L 1294 2234 
L 1294 2753 
L 1863 2753 
Q 2328 2753 2575 2939 
Q 2822 3125 2822 3475 
Q 2822 3834 2567 4026 
Q 2313 4219 1838 4219 
Q 1578 4219 1281 4162 
Q 984 4106 628 3988 
L 628 4550 
Q 988 4650 1302 4700 
Q 1616 4750 1894 4750 
Q 2613 4750 3031 4423 
Q 3450 4097 3450 3541 
Q 3450 3153 3228 2886 
Q 3006 2619 2597 2516 
z
" transform="scale(0.015625)"/>
       </defs>
       <use xlink:href="#DejaVuSans-30"/>
       <use xlink:href="#DejaVuSans-2e" x="63.623047"/>
       <use xlink:href="#DejaVuSans-33" x="95.410156"/>
       <use xlink:href="#DejaVuSans-30" x="159.033203"/>
      </g>
     </g>
    </g>
    <g id="text_7">
     <!-- Cortical Activation (a.u.) -->
     <g transform="translate(103.171831 274.316562) scale(0.1 -0.1)">
      <defs>
       <path id="DejaVuSans-43" d="M 4122 4306 
L 4122 3641 
Q 3803 3938 3442 4084 
Q 3081 4231 2675 4231 
Q 1875 4231 1450 3742 
Q 1025 3253 1025 2328 
Q 1025 1406 1450 917 
Q 1875 428 2675 428 
Q 3081 428 3442 575 
Q 3803 722 4122 1019 
L 4122 359 
Q 3791 134 3420 21 
Q 3050 -91 2638 -91 
Q 1578 -91 968 557 
Q 359 1206 359 2328 
Q 359 3453 968 4101 
Q 1578 4750 2638 4750 
Q 3056 4750 3426 4639 
Q 3797 4528 4122 4306 
z
" transform="scale(0.015625)"/>
       <path id="DejaVuSans-6f" d="M 1959 3097 
Q 1497 3097 1228 2736 
Q 959 2375 959 1747 
Q 959 1119 1226 758 
Q 1494 397 1959 397 
Q 2419 397 2687 759 
Q 2956 1122 2956 1747 
Q 2956 2369 2687 2733 
Q 2419 3097 1959 3097 
z
M 1959 3584 
Q 2709 3584 3137 3096 
Q 3566 2609 3566 1747 
Q 3566 888 3137 398 
Q 2709 -91 1959 -91 
Q 1206 -91 779 398 
Q 353 888 353 1747 
Q 353 2609 779 3096 
Q 1206 3584 1959 3584 
z
" transform="scale(0.015625)"/>
       <path id="DejaVuSans-72" d="M 2631 2963 
Q 2534 3019 2420 3045 
Q 2306 3072 2169 3072 
Q 1681 3072 1420 2755 
Q 1159 2438 1159 1844 
L 1159 0 
L 581 0 
L 581 3500 
L 1159 3500 
L 1159 2956 
Q 1341 3275 1631 3429 
Q 1922 3584 2338 3584 
Q 2397 3584 2469 3576 
Q 2541 3569 2628 3553 
L 2631 2963 
z
" transform="scale(0.015625)"/>
       <path id="DejaVuSans-74" d="M 1172 4494 
L 1172 3500 
L 2356 3500 
L 2356 3053 
L 1172 3053 
L 1172 1153 
Q 1172 725 1289 603 
Q 1406 481 1766 481 
L 2356 481 
L 2356 0 
L 1766 0 
Q 1100 0 847 248 
Q 594 497 594 1153 
L 594 3053 
L 172 3053 
L 172 3500 
L 594 3500 
L 594 4494 
L 1172 4494 
z
" transform="scale(0.015625)"/>
       <path id="DejaVuSans-69" d="M 603 3500 
L 1178 3500 
L 1178 0 
L 603 0 
L 603 3500 
z
M 603 4863 
L 1178 4863 
L 1178 4134 
L 603 4134 
L 603 4863 
z
" transform="scale(0.015625)"/>
       <path id="DejaVuSans-63" d="M 3122 3366 
L 3122 2828 
Q 2878 2963 2633 3030 
Q 2388 3097 2138 3097 
Q 1578 3097 1268 2742 
Q 959 2388 959 1747 
Q 959 1106 1268 751 
Q 1578 397 2138 397 
Q 2388 397 2633 464 
Q 2878 531 3122 666 
L 3122 134 
Q 2881 22 2623 -34 
Q 2366 -91 2075 -91 
Q 1284 -91 818 406 
Q 353 903 353 1747 
Q 353 2603 823 3093 
Q 1294 3584 2113 3584 
Q 2378 3584 2631 3529 
Q 2884 3475 3122 3366 
z
" transform="scale(0.015625)"/>
       <path id="DejaVuSans-61" d="M 2194 1759 
Q 1497 1759 1228 1600 
Q 959 1441 959 1056 
Q 959 750 1161 570 
Q 1363 391 1709 391 
Q 2188 391 2477 730 
Q 2766 1069 2766 1631 
L 2766 1759 
L 2194 1759 
z
M 3341 1997 
L 3341 0 
L 2766 0 
L 2766 531 
Q 2569 213 2275 61 
Q 1981 -91 1556 -91 
Q 1019 -91 701 211 
Q 384 513 384 1019 
Q 384 1609 779 1909 
Q 1175 2209 1959 2209 
L 2766 2209 
L 2766 2266 
Q 2766 2663 2505 2880 
Q 2244 3097 1772 3097 
Q 1472 3097 1187 3025 
Q 903 2953 641 2809 
L 641 3341 
Q 956 3463 1253 3523 
Q 1550 3584 1831 3584 
Q 2591 3584 2966 3190 
Q 3341 2797 3341 1997 
z
" transform="scale(0.015625)"/>
       <path id="DejaVuSans-6c" d="M 603 4863 
L 1178 4863 
L 1178 0 
L 603 0 
L 603 4863 
z
" transform="scale(0.015625)"/>
       <path id="DejaVuSans-20" transform="scale(0.015625)"/>
       <path id="DejaVuSans-41" d="M 2188 4044 
L 1331 1722 
L 3047 1722 
L 2188 4044 
z
M 1831 4666 
L 2547 4666 
L 4325 0 
L 3669 0 
L 3244 1197 
L 1141 1197 
L 716 0 
L 50 0 
L 1831 4666 
z
" transform="scale(0.015625)"/>
       <path id="DejaVuSans-76" d="M 191 3500 
L 800 3500 
L 1894 563 
L 2988 3500 
L 3597 3500 
L 2284 0 
L 1503 0 
L 191 3500 
z
" transform="scale(0.015625)"/>
       <path id="DejaVuSans-6e" d="M 3513 2113 
L 3513 0 
L 2938 0 
L 2938 2094 
Q 2938 2591 2744 2837 
Q 2550 3084 2163 3084 
Q 1697 3084 1428 2787 
Q 1159 2491 1159 1978 
L 1159 0 
L 581 0 
L 581 3500 
L 1159 3500 
L 1159 2956 
Q 1366 3272 1645 3428 
Q 1925 3584 2291 3584 
Q 2894 3584 3203 3211 
Q 3513 2838 3513 2113 
z
" transform="scale(0.015625)"/>
       <path id="DejaVuSans-28" d="M 1984 4856 
Q 1566 4138 1362 3434 
Q 1159 2731 1159 2009 
Q 1159 1288 1364 580 
Q 1569 -128 1984 -844 
L 1484 -844 
Q 1016 -109 783 600 
Q 550 1309 550 2009 
Q 550 2706 781 3412 
Q 1013 4119 1484 4856 
L 1984 4856 
z
" transform="scale(0.015625)"/>
       <path id="DejaVuSans-75" d="M 544 1381 
L 544 3500 
L 1119 3500 
L 1119 1403 
Q 1119 906 1312 657 
Q 1506 409 1894 409 
Q 2359 409 2629 706 
Q 2900 1003 2900 1516 
L 2900 3500 
L 3475 3500 
L 3475 0 
L 2900 0 
L 2900 538 
Q 2691 219 2414 64 
Q 2138 -91 1772 -91 
Q 1169 -91 856 284 
Q 544 659 544 1381 
z
M 1991 3584 
L 1991 3584 
z
" transform="scale(0.015625)"/>
       <path id="DejaVuSans-29" d="M 513 4856 
L 1013 4856 
Q 1481 4119 1714 3412 
Q 1947 2706 1947 2009 
Q 1947 1309 1714 600 
Q 1481 -109 1013 -844 
L 513 -844 
Q 928 -128 1133 580 
Q 1338 1288 1338 2009 
Q 1338 2731 1133 3434 
Q 928 4138 513 4856 
z
" transform="scale(0.015625)"/>
      </defs>
      <use xlink:href="#DejaVuSans-43"/>
      <use xlink:href="#DejaVuSans-6f" x="69.824219"/>
      <use xlink:href="#DejaVuSans-72" x="131.005859"/>
      <use xlink:href="#DejaVuSans-74" x="172.119141"/>
      <use xlink:href="#DejaVuSans-69" x="211.328125"/>
      <use xlink:href="#DejaVuSans-63" x="239.111328"/>
      <use xlink:href="#DejaVuSans-61" x="294.091797"/>
      <use xlink:href="#DejaVuSans-6c" x="355.371094"/>
      <use xlink:href="#DejaVuSans-20" x="383.154297"/>
      <use xlink:href="#DejaVuSans-41" x="414.941406"/>
      <use xlink:href="#DejaVuSans-63" x="481.599609"/>
      <use xlink:href="#DejaVuSans-74" x="536.580078"/>
      <use xlink:href="#DejaVuSans-69" x="575.789062"/>
      <use xlink:href="#DejaVuSans-76" x="603.572266"/>
      <use xlink:href="#DejaVuSans-61" x="662.751953"/>
      <use xlink:href="#DejaVuSans-74" x="724.03125"/>
      <use xlink:href="#DejaVuSans-69" x="763.240234"/>
      <use xlink:href="#DejaVuSans-6f" x="791.023438"/>
      <use xlink:href="#DejaVuSans-6e" x="852.205078"/>
      <use xlink:href="#DejaVuSans-20" x="915.583984"/>
      <use xlink:href="#DejaVuSans-28" x="947.371094"/>
      <use xlink:href="#DejaVuSans-61" x="986.384766"/>
      <use xlink:href="#DejaVuSans-2e" x="1047.664062"/>
      <use xlink:href="#DejaVuSans-75" x="1079.451172"/>
      <use xlink:href="#DejaVuSans-2e" x="1142.830078"/>
      <use xlink:href="#DejaVuSans-29" x="1174.617188"/>
     </g>
    </g>
   </g>
   <g id="matplotlib.axis_2">
    <g id="ytick_1">
     <g id="line2d_7">
      <defs>
       <path id="m13692c22ba" d="M 0 0 
L -3.5 0 
" style="stroke: #000000; stroke-width: 0.8"/>
      </defs>
      <g>
       <use xlink:href="#m13692c22ba" x="54.11" y="215.340392" style="stroke: #000000; stroke-width: 0.8"/>
      </g>
     </g>
     <g id="text_8">
      <!-- 0.04 -->
      <g transform="translate(24.844375 219.139611) scale(0.1 -0.1)">
       <use xlink:href="#DejaVuSans-30"/>
       <use xlink:href="#DejaVuSans-2e" x="63.623047"/>
       <use xlink:href="#DejaVuSans-30" x="95.410156"/>
       <use xlink:href="#DejaVuSans-34" x="159.033203"/>
      </g>
     </g>
    </g>
    <g id="ytick_2">
     <g id="line2d_8">
      <g>
       <use xlink:href="#m13692c22ba" x="54.11" y="181.908014" style="stroke: #000000; stroke-width: 0.8"/>
      </g>
     </g>
     <g id="text_9">
      <!-- 0.06 -->
      <g transform="translate(24.844375 185.707233) scale(0.1 -0.1)">
       <use xlink:href="#DejaVuSans-30"/>
       <use xlink:href="#DejaVuSans-2e" x="63.623047"/>
       <use xlink:href="#DejaVuSans-30" x="95.410156"/>
       <use xlink:href="#DejaVuSans-36" x="159.033203"/>
      </g>
     </g>
    </g>
    <g id="ytick_3">
     <g id="line2d_9">
      <g>
       <use xlink:href="#m13692c22ba" x="54.11" y="148.475636" style="stroke: #000000; stroke-width: 0.8"/>
      </g>
     </g>
     <g id="text_10">
      <!-- 0.08 -->
      <g transform="translate(24.844375 152.274855) scale(0.1 -0.1)">
       <use xlink:href="#DejaVuSans-30"/>
       <use xlink:href="#DejaVuSans-2e" x="63.623047"/>
       <use xlink:href="#DejaVuSans-30" x="95.410156"/>
       <use xlink:href="#DejaVuSans-38" x="159.033203"/>
      </g>
     </g>
    </g>
    <g id="ytick_4">
     <g id="line2d_10">
      <g>
       <use xlink:href="#m13692c22ba" x="54.11" y="115.043258" style="stroke: #000000; stroke-width: 0.8"/>
      </g>
     </g>
     <g id="text_11">
      <!-- 0.10 -->
      <g transform="translate(24.844375 118.842476) scale(0.1 -0.1)">
       <defs>
        <path id="DejaVuSans-31" d="M 794 531 
L 1825 531 
L 1825 4091 
L 703 3866 
L 703 4441 
L 1819 4666 
L 2450 4666 
L 2450 531 
L 3481 531 
L 3481 0 
L 794 0 
L 794 531 
z
" transform="scale(0.015625)"/>
       </defs>
       <use xlink:href="#DejaVuSans-30"/>
       <use xlink:href="#DejaVuSans-2e" x="63.623047"/>
       <use xlink:href="#DejaVuSans-31" x="95.410156"/>
       <use xlink:href="#DejaVuSans-30" x="159.033203"/>
      </g>
     </g>
    </g>
    <g id="ytick_5">
     <g id="line2d_11">
      <g>
       <use xlink:href="#m13692c22ba" x="54.11" y="81.610879" style="stroke: #000000; stroke-width: 0.8"/>
      </g>
     </g>
     <g id="text_12">
      <!-- 0.12 -->
      <g transform="translate(24.844375 85.410098) scale(0.1 -0.1)">
       <use xlink:href="#DejaVuSans-30"/>
       <use xlink:href="#DejaVuSans-2e" x="63.623047"/>
       <use xlink:href="#DejaVuSans-31" x="95.410156"/>
       <use xlink:href="#DejaVuSans-32" x="159.033203"/>
      </g>
     </g>
    </g>
    <g id="ytick_6">
     <g id="line2d_12">
      <g>
       <use xlink:href="#m13692c22ba" x="54.11" y="48.178501" style="stroke: #000000; stroke-width: 0.8"/>
      </g>
     </g>
     <g id="text_13">
      <!-- 0.14 -->
      <g transform="translate(24.844375 51.97772) scale(0.1 -0.1)">
       <use xlink:href="#DejaVuSans-30"/>
       <use xlink:href="#DejaVuSans-2e" x="63.623047"/>
       <use xlink:href="#DejaVuSans-31" x="95.410156"/>
       <use xlink:href="#DejaVuSans-34" x="159.033203"/>
      </g>
     </g>
    </g>
    <g id="ytick_7">
     <g id="line2d_13">
      <g>
       <use xlink:href="#m13692c22ba" x="54.11" y="14.746123" style="stroke: #000000; stroke-width: 0.8"/>
      </g>
     </g>
     <g id="text_14">
      <!-- 0.16 -->
      <g transform="translate(24.844375 18.545341) scale(0.1 -0.1)">
       <use xlink:href="#DejaVuSans-30"/>
       <use xlink:href="#DejaVuSans-2e" x="63.623047"/>
       <use xlink:href="#DejaVuSans-31" x="95.410156"/>
       <use xlink:href="#DejaVuSans-36" x="159.033203"/>
      </g>
     </g>
    </g>
    <g id="text_15">
     <!-- Cerebellar Activation (a.u.) -->
     <g transform="translate(18.764688 196.263652) rotate(-90) scale(0.1 -0.1)">
      <defs>
       <path id="DejaVuSans-65" d="M 3597 1894 
L 3597 1613 
L 953 1613 
Q 991 1019 1311 708 
Q 1631 397 2203 397 
Q 2534 397 2845 478 
Q 3156 559 3463 722 
L 3463 178 
Q 3153 47 2828 -22 
Q 2503 -91 2169 -91 
Q 1331 -91 842 396 
Q 353 884 353 1716 
Q 353 2575 817 3079 
Q 1281 3584 2069 3584 
Q 2775 3584 3186 3129 
Q 3597 2675 3597 1894 
z
M 3022 2063 
Q 3016 2534 2758 2815 
Q 2500 3097 2075 3097 
Q 1594 3097 1305 2825 
Q 1016 2553 972 2059 
L 3022 2063 
z
" transform="scale(0.015625)"/>
       <path id="DejaVuSans-62" d="M 3116 1747 
Q 3116 2381 2855 2742 
Q 2594 3103 2138 3103 
Q 1681 3103 1420 2742 
Q 1159 2381 1159 1747 
Q 1159 1113 1420 752 
Q 1681 391 2138 391 
Q 2594 391 2855 752 
Q 3116 1113 3116 1747 
z
M 1159 2969 
Q 1341 3281 1617 3432 
Q 1894 3584 2278 3584 
Q 2916 3584 3314 3078 
Q 3713 2572 3713 1747 
Q 3713 922 3314 415 
Q 2916 -91 2278 -91 
Q 1894 -91 1617 61 
Q 1341 213 1159 525 
L 1159 0 
L 581 0 
L 581 4863 
L 1159 4863 
L 1159 2969 
z
" transform="scale(0.015625)"/>
      </defs>
      <use xlink:href="#DejaVuSans-43"/>
      <use xlink:href="#DejaVuSans-65" x="69.824219"/>
      <use xlink:href="#DejaVuSans-72" x="131.347656"/>
      <use xlink:href="#DejaVuSans-65" x="170.210938"/>
      <use xlink:href="#DejaVuSans-62" x="231.734375"/>
      <use xlink:href="#DejaVuSans-65" x="295.210938"/>
      <use xlink:href="#DejaVuSans-6c" x="356.734375"/>
      <use xlink:href="#DejaVuSans-6c" x="384.517578"/>
      <use xlink:href="#DejaVuSans-61" x="412.300781"/>
      <use xlink:href="#DejaVuSans-72" x="473.580078"/>
      <use xlink:href="#DejaVuSans-20" x="514.693359"/>
      <use xlink:href="#DejaVuSans-41" x="546.480469"/>
      <use xlink:href="#DejaVuSans-63" x="613.138672"/>
      <use xlink:href="#DejaVuSans-74" x="668.119141"/>
      <use xlink:href="#DejaVuSans-69" x="707.328125"/>
      <use xlink:href="#DejaVuSans-76" x="735.111328"/>
      <use xlink:href="#DejaVuSans-61" x="794.291016"/>
      <use xlink:href="#DejaVuSans-74" x="855.570312"/>
      <use xlink:href="#DejaVuSans-69" x="894.779297"/>
      <use xlink:href="#DejaVuSans-6f" x="922.5625"/>
      <use xlink:href="#DejaVuSans-6e" x="983.744141"/>
      <use xlink:href="#DejaVuSans-20" x="1047.123047"/>
      <use xlink:href="#DejaVuSans-28" x="1078.910156"/>
      <use xlink:href="#DejaVuSans-61" x="1117.923828"/>
      <use xlink:href="#DejaVuSans-2e" x="1179.203125"/>
      <use xlink:href="#DejaVuSans-75" x="1210.990234"/>
      <use xlink:href="#DejaVuSans-2e" x="1274.369141"/>
      <use xlink:href="#DejaVuSans-29" x="1306.15625"/>
     </g>
    </g>
   </g>
   <g id="line2d_14">
    <path d="M 64.086573 216.187578 
L 66.102042 214.969234 
L 68.117511 213.750889 
L 70.13298 212.532544 
L 72.14845 211.3142 
L 74.163919 210.095855 
L 76.179388 208.87751 
L 78.194857 207.659166 
L 80.210327 206.440821 
L 82.225796 205.222477 
L 84.241265 204.004132 
L 86.256734 202.785787 
L 88.272204 201.567443 
L 90.287673 200.349098 
L 92.303142 199.130753 
L 94.318611 197.912409 
L 96.334081 196.694064 
L 98.34955 195.47572 
L 100.365019 194.257375 
L 102.380488 193.03903 
L 104.395957 191.820686 
L 106.411427 190.602341 
L 108.426896 189.383996 
L 110.442365 188.165652 
L 112.457834 186.947307 
L 114.473304 185.728963 
L 116.488773 184.510618 
L 118.504242 183.292273 
L 120.519711 182.073929 
L 122.535181 180.855584 
L 124.55065 179.637239 
L 126.566119 178.418895 
L 128.581588 177.20055 
L 130.597058 175.982205 
L 132.612527 174.763861 
L 134.627996 173.545516 
L 136.643465 172.327172 
L 138.658935 171.108827 
L 140.674404 169.890482 
L 142.689873 168.672138 
L 144.705342 167.453793 
L 146.720811 166.235448 
L 148.736281 165.017104 
L 150.75175 163.798759 
L 152.767219 162.580415 
L 154.782688 161.36207 
L 156.798158 160.143725 
L 158.813627 158.925381 
L 160.829096 157.707036 
L 162.844565 156.488691 
L 164.860035 155.270347 
L 166.875504 154.052002 
L 168.890973 152.833657 
L 170.906442 151.615313 
L 172.921912 150.396968 
L 174.937381 149.178624 
L 176.95285 147.960279 
L 178.968319 146.741934 
L 180.983789 145.52359 
L 182.999258 144.305245 
L 185.014727 143.0869 
L 187.030196 141.868556 
L 189.045665 140.650211 
L 191.061135 139.431867 
L 193.076604 138.213522 
L 195.092073 136.995177 
L 197.107542 135.776833 
L 199.123012 134.558488 
L 201.138481 133.340143 
L 203.15395 132.121799 
L 205.169419 130.903454 
L 207.184889 129.685109 
L 209.200358 128.466765 
L 211.215827 127.24842 
L 213.231296 126.030076 
L 215.246766 124.811731 
L 217.262235 123.593386 
L 219.277704 122.375042 
L 221.293173 121.156697 
L 223.308643 119.938352 
L 225.324112 118.720008 
L 227.339581 117.501663 
L 229.35505 116.283319 
L 231.370519 115.064974 
L 233.385989 113.846629 
L 235.401458 112.628285 
L 237.416927 111.40994 
L 239.432396 110.191595 
L 241.447866 108.973251 
L 243.463335 107.754906 
L 245.478804 106.536562 
L 247.494273 105.318217 
L 249.509743 104.099872 
L 251.525212 102.881528 
L 253.540681 101.663183 
L 255.55615 100.444838 
L 257.57162 99.226494 
L 259.587089 98.008149 
L 261.602558 96.789804 
L 263.618027 95.57146 
" clip-path="url(#pefcb46ec2c)" style="fill: none; stroke: #808080; stroke-width: 2.25; stroke-linecap: square"/>
   </g>
   <g id="LineCollection_1">
    <path d="M 120.021995 228.649408 
L 120.021995 161.302182 
" clip-path="url(#pefcb46ec2c)" style="fill: none; stroke: #e6e6e6"/>
    <path d="M 191.654155 199.147687 
L 191.654155 121.454038 
" clip-path="url(#pefcb46ec2c)" style="fill: none; stroke: #e6e6e6"/>
    <path d="M 64.086573 235.40046 
L 64.086573 187.505606 
" clip-path="url(#pefcb46ec2c)" style="fill: none; stroke: #e6e6e6"/>
    <path d="M 101.969117 226.092805 
L 101.969117 164.4721 
" clip-path="url(#pefcb46ec2c)" style="fill: none; stroke: #e6e6e6"/>
    <path d="M 187.28966 188.045834 
L 187.28966 116.876662 
" clip-path="url(#pefcb46ec2c)" style="fill: none; stroke: #e6e6e6"/>
    <path d="M 258.053836 174.075385 
L 258.053836 77.712134 
" clip-path="url(#pefcb46ec2c)" style="fill: none; stroke: #e6e6e6"/>
    <path d="M 72.467972 232.946829 
L 72.467972 187.787028 
" clip-path="url(#pefcb46ec2c)" style="fill: none; stroke: #e6e6e6"/>
    <path d="M 164.272748 201.621073 
L 164.272748 136.569991 
" clip-path="url(#pefcb46ec2c)" style="fill: none; stroke: #e6e6e6"/>
    <path d="M 263.618027 117.905187 
L 263.618027 22.609656 
" clip-path="url(#pefcb46ec2c)" style="fill: none; stroke: #e6e6e6"/>
    <path d="M 240.678223 135.927279 
L 240.678223 67.553777 
" clip-path="url(#pefcb46ec2c)" style="fill: none; stroke: #e6e6e6"/>
    <path d="M 168.194887 153.385524 
L 168.194887 83.363847 
" clip-path="url(#pefcb46ec2c)" style="fill: none; stroke: #e6e6e6"/>
    <path d="M 162.713796 176.929343 
L 162.713796 108.963601 
" clip-path="url(#pefcb46ec2c)" style="fill: none; stroke: #e6e6e6"/>
   </g>
   <g id="patch_3">
    <path d="M 54.11 246.04 
L 54.11 11.970116 
" style="fill: none; stroke: #000000; stroke-width: 0.8; stroke-linejoin: miter; stroke-linecap: square"/>
   </g>
   <g id="patch_4">
    <path d="M 54.11 246.04 
L 273.5946 246.04 
" style="fill: none; stroke: #000000; stroke-width: 0.8; stroke-linejoin: miter; stroke-linecap: square"/>
   </g>
   <g id="text_16">
    <!-- load2 -->
    <g transform="translate(122.102286 192.32204) scale(0.0833 -0.0833)">
     <defs>
      <path id="DejaVuSans-64" d="M 2906 2969 
L 2906 4863 
L 3481 4863 
L 3481 0 
L 2906 0 
L 2906 525 
Q 2725 213 2448 61 
Q 2172 -91 1784 -91 
Q 1150 -91 751 415 
Q 353 922 353 1747 
Q 353 2572 751 3078 
Q 1150 3584 1784 3584 
Q 2172 3584 2448 3432 
Q 2725 3281 2906 2969 
z
M 947 1747 
Q 947 1113 1208 752 
Q 1469 391 1925 391 
Q 2381 391 2643 752 
Q 2906 1113 2906 1747 
Q 2906 2381 2643 2742 
Q 2381 3103 1925 3103 
Q 1469 3103 1208 2742 
Q 947 2381 947 1747 
z
" transform="scale(0.015625)"/>
     </defs>
     <use xlink:href="#DejaVuSans-6c"/>
     <use xlink:href="#DejaVuSans-6f" x="27.783203"/>
     <use xlink:href="#DejaVuSans-61" x="88.964844"/>
     <use xlink:href="#DejaVuSans-64" x="150.244141"/>
     <use xlink:href="#DejaVuSans-32" x="213.720703"/>
    </g>
   </g>
   <g id="text_17">
    <!-- load2 -->
    <g transform="translate(193.734447 167.551736) scale(0.0833 -0.0833)">
     <use xlink:href="#DejaVuSans-6c"/>
     <use xlink:href="#DejaVuSans-6f" x="27.783203"/>
     <use xlink:href="#DejaVuSans-61" x="88.964844"/>
     <use xlink:href="#DejaVuSans-64" x="150.244141"/>
     <use xlink:href="#DejaVuSans-32" x="213.720703"/>
    </g>
   </g>
   <g id="text_18">
    <!-- load2 -->
    <g transform="translate(65.639493 218.710046) scale(0.0833 -0.0833)">
     <use xlink:href="#DejaVuSans-6c"/>
     <use xlink:href="#DejaVuSans-6f" x="27.783203"/>
     <use xlink:href="#DejaVuSans-61" x="88.964844"/>
     <use xlink:href="#DejaVuSans-64" x="150.244141"/>
     <use xlink:href="#DejaVuSans-32" x="213.720703"/>
    </g>
   </g>
   <g id="text_19">
    <!-- load2 -->
    <g transform="translate(80.085401 192.628698) scale(0.0833 -0.0833)">
     <use xlink:href="#DejaVuSans-6c"/>
     <use xlink:href="#DejaVuSans-6f" x="27.783203"/>
     <use xlink:href="#DejaVuSans-61" x="88.964844"/>
     <use xlink:href="#DejaVuSans-64" x="150.244141"/>
     <use xlink:href="#DejaVuSans-32" x="213.720703"/>
    </g>
   </g>
   <g id="text_20">
    <!-- load4 -->
    <g transform="translate(189.369952 149.807494) scale(0.0833 -0.0833)">
     <use xlink:href="#DejaVuSans-6c"/>
     <use xlink:href="#DejaVuSans-6f" x="27.783203"/>
     <use xlink:href="#DejaVuSans-61" x="88.964844"/>
     <use xlink:href="#DejaVuSans-64" x="150.244141"/>
     <use xlink:href="#DejaVuSans-34" x="213.720703"/>
    </g>
   </g>
   <g id="text_21">
    <!-- load4 -->
    <g transform="translate(236.17012 123.240005) scale(0.0833 -0.0833)">
     <use xlink:href="#DejaVuSans-6c"/>
     <use xlink:href="#DejaVuSans-6f" x="27.783203"/>
     <use xlink:href="#DejaVuSans-61" x="88.964844"/>
     <use xlink:href="#DejaVuSans-64" x="150.244141"/>
     <use xlink:href="#DejaVuSans-34" x="213.720703"/>
    </g>
   </g>
   <g id="text_22">
    <!-- load4 -->
    <g transform="translate(75.844238 207.970075) scale(0.0833 -0.0833)">
     <use xlink:href="#DejaVuSans-6c"/>
     <use xlink:href="#DejaVuSans-6f" x="27.783203"/>
     <use xlink:href="#DejaVuSans-61" x="88.964844"/>
     <use xlink:href="#DejaVuSans-64" x="150.244141"/>
     <use xlink:href="#DejaVuSans-34" x="213.720703"/>
    </g>
   </g>
   <g id="text_23">
    <!-- load4 -->
    <g transform="translate(166.353039 166.441777) scale(0.0833 -0.0833)">
     <use xlink:href="#DejaVuSans-6c"/>
     <use xlink:href="#DejaVuSans-6f" x="27.783203"/>
     <use xlink:href="#DejaVuSans-61" x="88.964844"/>
     <use xlink:href="#DejaVuSans-64" x="150.244141"/>
     <use xlink:href="#DejaVuSans-34" x="213.720703"/>
    </g>
   </g>
   <g id="text_24">
    <!-- load6 -->
    <g transform="translate(241.734311 67.603667) scale(0.0833 -0.0833)">
     <use xlink:href="#DejaVuSans-6c"/>
     <use xlink:href="#DejaVuSans-6f" x="27.783203"/>
     <use xlink:href="#DejaVuSans-61" x="88.964844"/>
     <use xlink:href="#DejaVuSans-64" x="150.244141"/>
     <use xlink:href="#DejaVuSans-36" x="213.720703"/>
    </g>
   </g>
   <g id="text_25">
    <!-- load6 -->
    <g transform="translate(242.758514 99.086773) scale(0.0833 -0.0833)">
     <use xlink:href="#DejaVuSans-6c"/>
     <use xlink:href="#DejaVuSans-6f" x="27.783203"/>
     <use xlink:href="#DejaVuSans-61" x="88.964844"/>
     <use xlink:href="#DejaVuSans-64" x="150.244141"/>
     <use xlink:href="#DejaVuSans-36" x="213.720703"/>
    </g>
   </g>
   <g id="text_26">
    <!-- load6 -->
    <g transform="translate(170.275178 115.720931) scale(0.0833 -0.0833)">
     <use xlink:href="#DejaVuSans-6c"/>
     <use xlink:href="#DejaVuSans-6f" x="27.783203"/>
     <use xlink:href="#DejaVuSans-61" x="88.964844"/>
     <use xlink:href="#DejaVuSans-64" x="150.244141"/>
     <use xlink:href="#DejaVuSans-36" x="213.720703"/>
    </g>
   </g>
   <g id="text_27">
    <!-- load6 -->
    <g transform="translate(164.794087 140.292717) scale(0.0833 -0.0833)">
     <use xlink:href="#DejaVuSans-6c"/>
     <use xlink:href="#DejaVuSans-6f" x="27.783203"/>
     <use xlink:href="#DejaVuSans-61" x="88.964844"/>
     <use xlink:href="#DejaVuSans-64" x="150.244141"/>
     <use xlink:href="#DejaVuSans-36" x="213.720703"/>
    </g>
   </g>
  </g>
  <g id="legend_1">
   <g id="text_28">
    <!-- phase -->
    <g transform="translate(314.930625 110.064063) scale(0.1 -0.1)">
     <defs>
      <path id="DejaVuSans-70" d="M 1159 525 
L 1159 -1331 
L 581 -1331 
L 581 3500 
L 1159 3500 
L 1159 2969 
Q 1341 3281 1617 3432 
Q 1894 3584 2278 3584 
Q 2916 3584 3314 3078 
Q 3713 2572 3713 1747 
Q 3713 922 3314 415 
Q 2916 -91 2278 -91 
Q 1894 -91 1617 61 
Q 1341 213 1159 525 
z
M 3116 1747 
Q 3116 2381 2855 2742 
Q 2594 3103 2138 3103 
Q 1681 3103 1420 2742 
Q 1159 2381 1159 1747 
Q 1159 1113 1420 752 
Q 1681 391 2138 391 
Q 2594 391 2855 752 
Q 3116 1113 3116 1747 
z
" transform="scale(0.015625)"/>
      <path id="DejaVuSans-68" d="M 3513 2113 
L 3513 0 
L 2938 0 
L 2938 2094 
Q 2938 2591 2744 2837 
Q 2550 3084 2163 3084 
Q 1697 3084 1428 2787 
Q 1159 2491 1159 1978 
L 1159 0 
L 581 0 
L 581 4863 
L 1159 4863 
L 1159 2956 
Q 1366 3272 1645 3428 
Q 1925 3584 2291 3584 
Q 2894 3584 3203 3211 
Q 3513 2838 3513 2113 
z
" transform="scale(0.015625)"/>
      <path id="DejaVuSans-73" d="M 2834 3397 
L 2834 2853 
Q 2591 2978 2328 3040 
Q 2066 3103 1784 3103 
Q 1356 3103 1142 2972 
Q 928 2841 928 2578 
Q 928 2378 1081 2264 
Q 1234 2150 1697 2047 
L 1894 2003 
Q 2506 1872 2764 1633 
Q 3022 1394 3022 966 
Q 3022 478 2636 193 
Q 2250 -91 1575 -91 
Q 1294 -91 989 -36 
Q 684 19 347 128 
L 347 722 
Q 666 556 975 473 
Q 1284 391 1588 391 
Q 1994 391 2212 530 
Q 2431 669 2431 922 
Q 2431 1156 2273 1281 
Q 2116 1406 1581 1522 
L 1381 1569 
Q 847 1681 609 1914 
Q 372 2147 372 2553 
Q 372 3047 722 3315 
Q 1072 3584 1716 3584 
Q 2034 3584 2315 3537 
Q 2597 3491 2834 3397 
z
" transform="scale(0.015625)"/>
     </defs>
     <use xlink:href="#DejaVuSans-70"/>
     <use xlink:href="#DejaVuSans-68" x="63.476562"/>
     <use xlink:href="#DejaVuSans-61" x="126.855469"/>
     <use xlink:href="#DejaVuSans-73" x="188.134766"/>
     <use xlink:href="#DejaVuSans-65" x="240.234375"/>
    </g>
   </g>
   <g id="PathCollection_7">
    <defs>
     <path id="m71c92f4402" d="M 0 3 
C 0.795609 3 1.55874 2.683901 2.12132 2.12132 
C 2.683901 1.55874 3 0.795609 3 0 
C 3 -0.795609 2.683901 -1.55874 2.12132 -2.12132 
C 1.55874 -2.683901 0.795609 -3 0 -3 
C -0.795609 -3 -1.55874 -2.683901 -2.12132 -2.12132 
C -2.683901 -1.55874 -3 -0.795609 -3 0 
C -3 0.795609 -2.683901 1.55874 -2.12132 2.12132 
C -1.55874 2.683901 -0.795609 3 0 3 
z
" style="stroke: #1f77b4"/>
    </defs>
    <g>
     <use xlink:href="#m71c92f4402" x="296.930625" y="122.117188" style="fill: #1f77b4; stroke: #1f77b4"/>
    </g>
   </g>
   <g id="text_29">
    <!-- encode -->
    <g transform="translate(314.930625 124.742188) scale(0.1 -0.1)">
     <use xlink:href="#DejaVuSans-65"/>
     <use xlink:href="#DejaVuSans-6e" x="61.523438"/>
     <use xlink:href="#DejaVuSans-63" x="124.902344"/>
     <use xlink:href="#DejaVuSans-6f" x="179.882812"/>
     <use xlink:href="#DejaVuSans-64" x="241.064453"/>
     <use xlink:href="#DejaVuSans-65" x="304.541016"/>
    </g>
   </g>
   <g id="PathCollection_8">
    <defs>
     <path id="m0647a8d425" d="M 0 3 
C 0.795609 3 1.55874 2.683901 2.12132 2.12132 
C 2.683901 1.55874 3 0.795609 3 0 
C 3 -0.795609 2.683901 -1.55874 2.12132 -2.12132 
C 1.55874 -2.683901 0.795609 -3 0 -3 
C -0.795609 -3 -1.55874 -2.683901 -2.12132 -2.12132 
C -2.683901 -1.55874 -3 -0.795609 -3 0 
C -3 0.795609 -2.683901 1.55874 -2.12132 2.12132 
C -1.55874 2.683901 -0.795609 3 0 3 
z
" style="stroke: #ff7f0e"/>
    </defs>
    <g>
     <use xlink:href="#m0647a8d425" x="296.930625" y="136.795313" style="fill: #ff7f0e; stroke: #ff7f0e"/>
    </g>
   </g>
   <g id="text_30">
    <!-- retriev -->
    <g transform="translate(314.930625 139.420313) scale(0.1 -0.1)">
     <use xlink:href="#DejaVuSans-72"/>
     <use xlink:href="#DejaVuSans-65" x="38.863281"/>
     <use xlink:href="#DejaVuSans-74" x="100.386719"/>
     <use xlink:href="#DejaVuSans-72" x="139.595703"/>
     <use xlink:href="#DejaVuSans-69" x="180.708984"/>
     <use xlink:href="#DejaVuSans-65" x="208.492188"/>
     <use xlink:href="#DejaVuSans-76" x="270.015625"/>
    </g>
   </g>
   <g id="text_31">
    <!-- recall -->
    <g transform="translate(314.930625 154.098438) scale(0.1 -0.1)">
     <use xlink:href="#DejaVuSans-72"/>
     <use xlink:href="#DejaVuSans-65" x="38.863281"/>
     <use xlink:href="#DejaVuSans-63" x="100.386719"/>
     <use xlink:href="#DejaVuSans-61" x="155.367188"/>
     <use xlink:href="#DejaVuSans-6c" x="216.646484"/>
     <use xlink:href="#DejaVuSans-6c" x="244.429688"/>
    </g>
   </g>
   <g id="PathCollection_9">
    <defs>
     <path id="m8b4a3c3241" d="M 0 3 
C 0.795609 3 1.55874 2.683901 2.12132 2.12132 
C 2.683901 1.55874 3 0.795609 3 0 
C 3 -0.795609 2.683901 -1.55874 2.12132 -2.12132 
C 1.55874 -2.683901 0.795609 -3 0 -3 
C -0.795609 -3 -1.55874 -2.683901 -2.12132 -2.12132 
C -2.683901 -1.55874 -3 -0.795609 -3 0 
C -3 0.795609 -2.683901 1.55874 -2.12132 2.12132 
C -1.55874 2.683901 -0.795609 3 0 3 
z
" style="stroke: #333333"/>
    </defs>
    <g>
     <use xlink:href="#m8b4a3c3241" x="296.930625" y="166.151563" style="fill: #333333; stroke: #333333"/>
    </g>
   </g>
   <g id="text_32">
    <!-- bw -->
    <g transform="translate(314.930625 168.776563) scale(0.1 -0.1)">
     <defs>
      <path id="DejaVuSans-77" d="M 269 3500 
L 844 3500 
L 1563 769 
L 2278 3500 
L 2956 3500 
L 3675 769 
L 4391 3500 
L 4966 3500 
L 4050 0 
L 3372 0 
L 2619 2869 
L 1863 0 
L 1184 0 
L 269 3500 
z
" transform="scale(0.015625)"/>
     </defs>
     <use xlink:href="#DejaVuSans-62"/>
     <use xlink:href="#DejaVuSans-77" x="63.476562"/>
    </g>
   </g>
   <g id="PathCollection_10">
    <defs>
     <path id="m9a5aa58f40" d="M -1.5 3 
L 0 1.5 
L 1.5 3 
L 3 1.5 
L 1.5 0 
L 3 -1.5 
L 1.5 -3 
L 0 -1.5 
L -1.5 -3 
L -3 -1.5 
L -1.5 0 
L -3 1.5 
z
" style="stroke: #333333"/>
    </defs>
    <g>
     <use xlink:href="#m9a5aa58f40" x="296.930625" y="180.829688" style="fill: #333333; stroke: #333333"/>
    </g>
   </g>
   <g id="text_33">
    <!-- fw -->
    <g transform="translate(314.930625 183.454688) scale(0.1 -0.1)">
     <defs>
      <path id="DejaVuSans-66" d="M 2375 4863 
L 2375 4384 
L 1825 4384 
Q 1516 4384 1395 4259 
Q 1275 4134 1275 3809 
L 1275 3500 
L 2222 3500 
L 2222 3053 
L 1275 3053 
L 1275 0 
L 697 0 
L 697 3053 
L 147 3053 
L 147 3500 
L 697 3500 
L 697 3744 
Q 697 4328 969 4595 
Q 1241 4863 1831 4863 
L 2375 4863 
z
" transform="scale(0.015625)"/>
     </defs>
     <use xlink:href="#DejaVuSans-66"/>
     <use xlink:href="#DejaVuSans-77" x="33.455078"/>
    </g>
   </g>
  </g>
 </g>
 <defs>
  <clipPath id="pefcb46ec2c">
   <rect x="54.11" y="11.970116" width="219.4846" height="234.069884"/>
  </clipPath>
 </defs>
</svg>
