<?xml version="1.0" encoding="utf-8" standalone="no"?>
<!DOCTYPE svg PUBLIC "-//W3C//DTD SVG 1.1//EN"
  "http://www.w3.org/Graphics/SVG/1.1/DTD/svg11.dtd">
<svg xmlns:xlink="http://www.w3.org/1999/xlink" width="360.54pt" height="288pt" viewBox="0 0 360.54 288" xmlns="http://www.w3.org/2000/svg" version="1.1">
 <metadata>
  <rdf:RDF xmlns:dc="http://purl.org/dc/elements/1.1/" xmlns:cc="http://creativecommons.org/ns#" xmlns:rdf="http://www.w3.org/1999/02/22-rdf-syntax-ns#">
   <cc:Work>
    <dc:type rdf:resource="http://purl.org/dc/dcmitype/StillImage"/>
    <dc:date>2023-02-02T00:49:54.657906</dc:date>
    <dc:format>image/svg+xml</dc:format>
    <dc:creator>
     <cc:Agent>
      <dc:title>Matplotlib v3.6.2, https://matplotlib.org/</dc:title>
     </cc:Agent>
    </dc:creator>
   </cc:Work>
  </rdf:RDF>
 </metadata>
 <defs>
  <style type="text/css">*{stroke-linejoin: round; stroke-linecap: butt}</style>
 </defs>
 <g id="figure_1">
  <g id="patch_1">
   <path d="M 0 288 
L 360.54 288 
L 360.54 0 
L 0 0 
z
" style="fill: #ffffff"/>
  </g>
  <g id="axes_1">
   <g id="patch_2">
    <path d="M 54.02 246.04 
L 273.5946 246.04 
L 273.5946 10.8 
L 54.02 10.8 
z
" style="fill: #ffffff"/>
   </g>
   <g id="PathCollection_1">
    <path d="M 64.000664 203.72131 
C 65.326679 203.72131 66.598563 203.194478 67.536198 202.256844 
C 68.473832 201.319209 69.000664 200.047325 69.000664 198.72131 
C 69.000664 197.395294 68.473832 196.12341 67.536198 195.185776 
C 66.598563 194.248141 65.326679 193.72131 64.000664 193.72131 
C 62.674648 193.72131 61.402764 194.248141 60.46513 195.185776 
C 59.527495 196.12341 59.000664 197.395294 59.000664 198.72131 
C 59.000664 200.047325 59.527495 201.319209 60.46513 202.256844 
C 61.402764 203.194478 62.674648 203.72131 64.000664 203.72131 
z
" clip-path="url(#p163f847aa8)" style="fill: #1f77b4; stroke: #ffffff; stroke-width: 0.8"/>
    <path d="M 256.969269 128.084627 
C 258.295284 128.084627 259.567168 127.557796 260.504803 126.620161 
C 261.442437 125.682527 261.969269 124.410643 261.969269 123.084627 
C 261.969269 121.758612 261.442437 120.486728 260.504803 119.549093 
C 259.567168 118.611459 258.295284 118.084627 256.969269 118.084627 
C 255.643253 118.084627 254.371369 118.611459 253.433735 119.549093 
C 252.4961 120.486728 251.969269 121.758612 251.969269 123.084627 
C 251.969269 124.410643 252.4961 125.682527 253.433735 126.620161 
C 254.371369 127.557796 255.643253 128.084627 256.969269 128.084627 
z
" clip-path="url(#p163f847aa8)" style="fill: #ff7f0e; stroke: #ffffff; stroke-width: 0.8"/>
    <path d="M 82.455196 204.137784 
L 84.955196 201.637784 
L 87.455196 204.137784 
L 89.955196 201.637784 
L 87.455196 199.137784 
L 89.955196 196.637784 
L 87.455196 194.137784 
L 84.955196 196.637784 
L 82.455196 194.137784 
L 79.955196 196.637784 
L 82.455196 199.137784 
L 79.955196 201.637784 
z
" clip-path="url(#p163f847aa8)" style="fill: #1f77b4; stroke: #ffffff; stroke-width: 0.8"/>
    <path d="M 245.436709 133.204974 
L 247.936709 130.704974 
L 250.436709 133.204974 
L 252.936709 130.704974 
L 250.436709 128.204974 
L 252.936709 125.704974 
L 250.436709 123.204974 
L 247.936709 125.704974 
L 245.436709 123.204974 
L 242.936709 125.704974 
L 245.436709 128.204974 
L 242.936709 130.704974 
z
" clip-path="url(#p163f847aa8)" style="fill: #ff7f0e; stroke: #ffffff; stroke-width: 0.8"/>
    <path d="M 143.18518 148.554187 
C 144.511195 148.554187 145.783079 148.027356 146.720714 147.089721 
C 147.658348 146.152087 148.18518 144.880203 148.18518 143.554187 
C 148.18518 142.228172 147.658348 140.956288 146.720714 140.018653 
C 145.783079 139.081019 144.511195 138.554187 143.18518 138.554187 
C 141.859164 138.554187 140.587281 139.081019 139.649646 140.018653 
C 138.712011 140.956288 138.18518 142.228172 138.18518 143.554187 
C 138.18518 144.880203 138.712011 146.152087 139.649646 147.089721 
C 140.587281 148.027356 141.859164 148.554187 143.18518 148.554187 
z
" clip-path="url(#p163f847aa8)" style="fill: #1f77b4; stroke: #ffffff; stroke-width: 0.8"/>
    <path d="M 263.613936 100.20559 
C 264.939952 100.20559 266.211836 99.678759 267.14947 98.741124 
C 268.087105 97.803489 268.613936 96.531606 268.613936 95.20559 
C 268.613936 93.879575 268.087105 92.607691 267.14947 91.670056 
C 266.211836 90.732422 264.939952 90.20559 263.613936 90.20559 
C 262.287921 90.20559 261.016037 90.732422 260.078402 91.670056 
C 259.140768 92.607691 258.613936 93.879575 258.613936 95.20559 
C 258.613936 96.531606 259.140768 97.803489 260.078402 98.741124 
C 261.016037 99.678759 262.287921 100.20559 263.613936 100.20559 
z
" clip-path="url(#p163f847aa8)" style="fill: #ff7f0e; stroke: #ffffff; stroke-width: 0.8"/>
    <path d="M 77.852781 203.165222 
L 80.352781 200.665222 
L 82.852781 203.165222 
L 85.352781 200.665222 
L 82.852781 198.165222 
L 85.352781 195.665222 
L 82.852781 193.165222 
L 80.352781 195.665222 
L 77.852781 193.165222 
L 75.352781 195.665222 
L 77.852781 198.165222 
L 75.352781 200.665222 
z
" clip-path="url(#p163f847aa8)" style="fill: #1f77b4; stroke: #ffffff; stroke-width: 0.8"/>
    <path d="M 252.798754 119.310151 
L 255.298754 116.810151 
L 257.798754 119.310151 
L 260.298754 116.810151 
L 257.798754 114.310151 
L 260.298754 111.810151 
L 257.798754 109.310151 
L 255.298754 111.810151 
L 252.798754 109.310151 
L 250.298754 111.810151 
L 252.798754 114.310151 
L 250.298754 116.810151 
z
" clip-path="url(#p163f847aa8)" style="fill: #ff7f0e; stroke: #ffffff; stroke-width: 0.8"/>
    <path d="M 230.289034 68.956064 
C 231.615049 68.956064 232.886933 68.429233 233.824568 67.491598 
C 234.762202 66.553964 235.289034 65.28208 235.289034 63.956064 
C 235.289034 62.630049 234.762202 61.358165 233.824568 60.42053 
C 232.886933 59.482896 231.615049 58.956064 230.289034 58.956064 
C 228.963018 58.956064 227.691135 59.482896 226.7535 60.42053 
C 225.815865 61.358165 225.289034 62.630049 225.289034 63.956064 
C 225.289034 65.28208 225.815865 66.553964 226.7535 67.491598 
C 227.691135 68.429233 228.963018 68.956064 230.289034 68.956064 
z
" clip-path="url(#p163f847aa8)" style="fill: #1f77b4; stroke: #ffffff; stroke-width: 0.8"/>
    <path d="M 200.050629 92.734499 
C 201.376644 92.734499 202.648528 92.207668 203.586163 91.270033 
C 204.523797 90.332399 205.050629 89.060515 205.050629 87.734499 
C 205.050629 86.408484 204.523797 85.1366 203.586163 84.198965 
C 202.648528 83.261331 201.376644 82.734499 200.050629 82.734499 
C 198.724613 82.734499 197.45273 83.261331 196.515095 84.198965 
C 195.577461 85.1366 195.050629 86.408484 195.050629 87.734499 
C 195.050629 89.060515 195.577461 90.332399 196.515095 91.270033 
C 197.45273 92.207668 198.724613 92.734499 200.050629 92.734499 
z
" clip-path="url(#p163f847aa8)" style="fill: #ff7f0e; stroke: #ffffff; stroke-width: 0.8"/>
    <path d="M 160.05026 120.217958 
L 162.55026 117.717958 
L 165.05026 120.217958 
L 167.55026 117.717958 
L 165.05026 115.217958 
L 167.55026 112.717958 
L 165.05026 110.217958 
L 162.55026 112.717958 
L 160.05026 110.217958 
L 157.55026 112.717958 
L 160.05026 115.217958 
L 157.55026 117.717958 
z
" clip-path="url(#p163f847aa8)" style="fill: #1f77b4; stroke: #ffffff; stroke-width: 0.8"/>
    <path d="M 201.477813 115.663951 
L 203.977813 113.163951 
L 206.477813 115.663951 
L 208.977813 113.163951 
L 206.477813 110.663951 
L 208.977813 108.163951 
L 206.477813 105.663951 
L 203.977813 108.163951 
L 201.477813 105.663951 
L 198.977813 108.163951 
L 201.477813 110.663951 
L 198.977813 113.163951 
z
" clip-path="url(#p163f847aa8)" style="fill: #ff7f0e; stroke: #ffffff; stroke-width: 0.8"/>
   </g>
   <g id="PathCollection_2"/>
   <g id="PathCollection_3"/>
   <g id="PathCollection_4"/>
   <g id="PathCollection_5"/>
   <g id="PathCollection_6">
    <defs>
     <path id="me94e08bbe2" d="M 0 0 
C 0 0 0 0 0 0 
C 0 0 0 0 0 0 
C 0 0 0 0 0 0 
C 0 0 0 0 0 0 
C 0 0 0 0 0 0 
C 0 0 0 0 0 0 
C 0 0 0 0 0 0 
C 0 0 0 0 0 0 
z
" style="stroke: #1f77b4; stroke-opacity: 0.8"/>
    </defs>
    <g clip-path="url(#p163f847aa8)">
     <use xlink:href="#me94e08bbe2" x="64.000664" y="198.72131" style="fill: #1f77b4; fill-opacity: 0.8; stroke: #1f77b4; stroke-opacity: 0.8"/>
     <use xlink:href="#me94e08bbe2" x="256.969269" y="123.084627" style="fill: #1f77b4; fill-opacity: 0.8; stroke: #1f77b4; stroke-opacity: 0.8"/>
     <use xlink:href="#me94e08bbe2" x="84.955196" y="199.137784" style="fill: #1f77b4; fill-opacity: 0.8; stroke: #1f77b4; stroke-opacity: 0.8"/>
     <use xlink:href="#me94e08bbe2" x="247.936709" y="128.204974" style="fill: #1f77b4; fill-opacity: 0.8; stroke: #1f77b4; stroke-opacity: 0.8"/>
     <use xlink:href="#me94e08bbe2" x="143.18518" y="143.554187" style="fill: #1f77b4; fill-opacity: 0.8; stroke: #1f77b4; stroke-opacity: 0.8"/>
     <use xlink:href="#me94e08bbe2" x="263.613936" y="95.20559" style="fill: #1f77b4; fill-opacity: 0.8; stroke: #1f77b4; stroke-opacity: 0.8"/>
     <use xlink:href="#me94e08bbe2" x="80.352781" y="198.165222" style="fill: #1f77b4; fill-opacity: 0.8; stroke: #1f77b4; stroke-opacity: 0.8"/>
     <use xlink:href="#me94e08bbe2" x="255.298754" y="114.310151" style="fill: #1f77b4; fill-opacity: 0.8; stroke: #1f77b4; stroke-opacity: 0.8"/>
     <use xlink:href="#me94e08bbe2" x="230.289034" y="63.956064" style="fill: #1f77b4; fill-opacity: 0.8; stroke: #1f77b4; stroke-opacity: 0.8"/>
     <use xlink:href="#me94e08bbe2" x="200.050629" y="87.734499" style="fill: #1f77b4; fill-opacity: 0.8; stroke: #1f77b4; stroke-opacity: 0.8"/>
     <use xlink:href="#me94e08bbe2" x="162.55026" y="115.217958" style="fill: #1f77b4; fill-opacity: 0.8; stroke: #1f77b4; stroke-opacity: 0.8"/>
     <use xlink:href="#me94e08bbe2" x="203.977813" y="110.663951" style="fill: #1f77b4; fill-opacity: 0.8; stroke: #1f77b4; stroke-opacity: 0.8"/>
    </g>
   </g>
   <g id="PolyCollection_1">
    <path d="M 64.000664 147.78563 
L 64.000664 205.249429 
L 66.016959 203.975281 
L 68.033255 202.677638 
L 70.049551 201.412714 
L 72.065846 200.147789 
L 74.082142 198.885479 
L 76.098438 197.620779 
L 78.114733 196.361248 
L 80.131029 195.227091 
L 82.147325 194.029855 
L 84.16362 192.750342 
L 86.179916 191.459999 
L 88.196212 190.298323 
L 90.212508 189.253901 
L 92.228803 188.066382 
L 94.245099 186.826271 
L 96.261395 185.773363 
L 98.27769 184.721024 
L 100.293986 183.694431 
L 102.310282 182.648935 
L 104.326577 181.569686 
L 106.342873 180.554689 
L 108.359169 179.616413 
L 110.375464 178.510887 
L 112.39176 177.541029 
L 114.408056 176.529293 
L 116.424351 175.577831 
L 118.440647 174.703578 
L 120.456943 173.749682 
L 122.473238 172.834202 
L 124.489534 171.789685 
L 126.50583 170.807249 
L 128.522126 169.82567 
L 130.538421 168.830493 
L 132.554717 167.778743 
L 134.571013 166.843616 
L 136.587308 165.863373 
L 138.603604 164.918437 
L 140.6199 164.009837 
L 142.636195 163.101658 
L 144.652491 162.191864 
L 146.668787 161.253506 
L 148.685082 160.338443 
L 150.701378 159.389757 
L 152.717674 158.440117 
L 154.733969 157.489332 
L 156.750265 156.529945 
L 158.766561 155.589228 
L 160.782856 154.642386 
L 162.799152 153.696945 
L 164.815448 152.834998 
L 166.831744 151.971457 
L 168.848039 151.107665 
L 170.864335 150.243873 
L 172.880631 149.380081 
L 174.896926 148.516151 
L 176.913222 147.632443 
L 178.929518 146.735178 
L 180.945813 145.826863 
L 182.962109 144.916769 
L 184.978405 143.97602 
L 186.9947 143.05498 
L 189.010996 142.139487 
L 191.027292 141.223995 
L 193.043587 140.37262 
L 195.059883 139.466753 
L 197.076179 138.557149 
L 199.092474 137.71825 
L 201.10877 136.734453 
L 203.125066 135.82694 
L 205.141362 134.915885 
L 207.157657 133.935962 
L 209.173953 132.984562 
L 211.190249 132.069069 
L 213.206544 131.153576 
L 215.22284 130.238084 
L 217.239136 129.322591 
L 219.255431 128.407099 
L 221.271727 127.491606 
L 223.288023 126.576113 
L 225.304318 125.770983 
L 227.320614 124.950185 
L 229.33691 124.095213 
L 231.353205 123.167281 
L 233.369501 122.236348 
L 235.385797 121.305415 
L 237.402092 120.379933 
L 239.418388 119.527942 
L 241.434684 118.675411 
L 243.45098 117.744137 
L 245.467275 116.770381 
L 247.483571 115.825745 
L 249.499867 115.052636 
L 251.516162 114.224697 
L 253.532458 113.514932 
L 255.548754 112.725214 
L 257.565049 112.162743 
L 259.581345 111.571363 
L 261.597641 111.077075 
L 263.613936 110.477979 
L 263.613936 60.306372 
L 263.613936 60.306372 
L 261.597641 61.723645 
L 259.581345 63.140918 
L 257.565049 64.558192 
L 255.548754 65.975465 
L 253.532458 67.392739 
L 251.516162 68.810012 
L 249.499867 70.23612 
L 247.483571 71.661322 
L 245.467275 73.067914 
L 243.45098 74.477262 
L 241.434684 75.924576 
L 239.418388 77.37189 
L 237.402092 78.819205 
L 235.385797 80.266519 
L 233.369501 81.683231 
L 231.353205 82.975482 
L 229.33691 84.391209 
L 227.320614 85.807553 
L 225.304318 87.223898 
L 223.288023 88.526385 
L 221.271727 89.930013 
L 219.255431 91.337062 
L 217.239136 92.744111 
L 215.22284 93.960394 
L 213.206544 95.130034 
L 211.190249 96.413277 
L 209.173953 97.504353 
L 207.157657 98.877379 
L 205.141362 100.355595 
L 203.125066 101.834137 
L 201.10877 103.312679 
L 199.092474 104.230411 
L 197.076179 105.52015 
L 195.059883 106.805326 
L 193.043587 108.121234 
L 191.027292 109.109464 
L 189.010996 110.3297 
L 186.9947 111.218403 
L 184.978405 111.749137 
L 182.962109 112.9542 
L 180.945813 114.319462 
L 178.929518 114.915526 
L 176.913222 116.059776 
L 174.896926 117.492721 
L 172.880631 118.445241 
L 170.864335 119.393331 
L 168.848039 120.431997 
L 166.831744 121.843755 
L 164.815448 123.022618 
L 162.799152 123.952737 
L 160.782856 124.956614 
L 158.766561 125.856164 
L 156.750265 126.198006 
L 154.733969 126.969479 
L 152.717674 127.904031 
L 150.701378 128.835924 
L 148.685082 129.767817 
L 146.668787 130.69971 
L 144.652491 131.631603 
L 142.636195 132.563496 
L 140.6199 133.429362 
L 138.603604 133.888662 
L 136.587308 134.347963 
L 134.571013 134.735782 
L 132.554717 135.106646 
L 130.538421 135.479047 
L 128.522126 135.851448 
L 126.50583 136.223849 
L 124.489534 136.59625 
L 122.473238 136.96865 
L 120.456943 137.341051 
L 118.440647 137.713452 
L 116.424351 138.085853 
L 114.408056 138.458254 
L 112.39176 138.830655 
L 110.375464 139.203056 
L 108.359169 139.575457 
L 106.342873 139.947858 
L 104.326577 140.320259 
L 102.310282 140.69266 
L 100.293986 141.065061 
L 98.27769 141.437462 
L 96.261395 141.809863 
L 94.245099 142.182263 
L 92.228803 142.554664 
L 90.212508 142.927065 
L 88.196212 143.299466 
L 86.179916 143.671867 
L 84.16362 144.044268 
L 82.147325 144.416669 
L 80.131029 144.78907 
L 78.114733 145.161471 
L 76.098438 145.533872 
L 74.082142 145.907064 
L 72.065846 146.282777 
L 70.049551 146.658491 
L 68.033255 147.034204 
L 66.016959 147.409917 
L 64.000664 147.78563 
z
" clip-path="url(#p163f847aa8)" style="fill: #808080; fill-opacity: 0.15"/>
   </g>
   <g id="matplotlib.axis_1">
    <g id="xtick_1">
     <g id="line2d_1">
      <defs>
       <path id="m4c71e47852" d="M 0 0 
L 0 3.5 
" style="stroke: #000000; stroke-width: 0.8"/>
      </defs>
      <g>
       <use xlink:href="#m4c71e47852" x="58.162548" y="246.04" style="stroke: #000000; stroke-width: 0.8"/>
      </g>
     </g>
     <g id="text_1">
      <!-- 0.03 -->
      <g transform="translate(47.029735 260.638438) scale(0.1 -0.1)">
       <defs>
        <path id="DejaVuSans-30" d="M 2034 4250 
Q 1547 4250 1301 3770 
Q 1056 3291 1056 2328 
Q 1056 1369 1301 889 
Q 1547 409 2034 409 
Q 2525 409 2770 889 
Q 3016 1369 3016 2328 
Q 3016 3291 2770 3770 
Q 2525 4250 2034 4250 
z
M 2034 4750 
Q 2819 4750 3233 4129 
Q 3647 3509 3647 2328 
Q 3647 1150 3233 529 
Q 2819 -91 2034 -91 
Q 1250 -91 836 529 
Q 422 1150 422 2328 
Q 422 3509 836 4129 
Q 1250 4750 2034 4750 
z
" transform="scale(0.015625)"/>
        <path id="DejaVuSans-2e" d="M 684 794 
L 1344 794 
L 1344 0 
L 684 0 
L 684 794 
z
" transform="scale(0.015625)"/>
        <path id="DejaVuSans-33" d="M 2597 2516 
Q 3050 2419 3304 2112 
Q 3559 1806 3559 1356 
Q 3559 666 3084 287 
Q 2609 -91 1734 -91 
Q 1441 -91 1130 -33 
Q 819 25 488 141 
L 488 750 
Q 750 597 1062 519 
Q 1375 441 1716 441 
Q 2309 441 2620 675 
Q 2931 909 2931 1356 
Q 2931 1769 2642 2001 
Q 2353 2234 1838 2234 
L 1294 2234 
L 1294 2753 
L 1863 2753 
Q 2328 2753 2575 2939 
Q 2822 3125 2822 3475 
Q 2822 3834 2567 4026 
Q 2313 4219 1838 4219 
Q 1578 4219 1281 4162 
Q 984 4106 628 3988 
L 628 4550 
Q 988 4650 1302 4700 
Q 1616 4750 1894 4750 
Q 2613 4750 3031 4423 
Q 3450 4097 3450 3541 
Q 3450 3153 3228 2886 
Q 3006 2619 2597 2516 
z
" transform="scale(0.015625)"/>
       </defs>
       <use xlink:href="#DejaVuSans-30"/>
       <use xlink:href="#DejaVuSans-2e" x="63.623047"/>
       <use xlink:href="#DejaVuSans-30" x="95.410156"/>
       <use xlink:href="#DejaVuSans-33" x="159.033203"/>
      </g>
     </g>
    </g>
    <g id="xtick_2">
     <g id="line2d_2">
      <g>
       <use xlink:href="#m4c71e47852" x="94.629165" y="246.04" style="stroke: #000000; stroke-width: 0.8"/>
      </g>
     </g>
     <g id="text_2">
      <!-- 0.04 -->
      <g transform="translate(83.496353 260.638438) scale(0.1 -0.1)">
       <defs>
        <path id="DejaVuSans-34" d="M 2419 4116 
L 825 1625 
L 2419 1625 
L 2419 4116 
z
M 2253 4666 
L 3047 4666 
L 3047 1625 
L 3713 1625 
L 3713 1100 
L 3047 1100 
L 3047 0 
L 2419 0 
L 2419 1100 
L 313 1100 
L 313 1709 
L 2253 4666 
z
" transform="scale(0.015625)"/>
       </defs>
       <use xlink:href="#DejaVuSans-30"/>
       <use xlink:href="#DejaVuSans-2e" x="63.623047"/>
       <use xlink:href="#DejaVuSans-30" x="95.410156"/>
       <use xlink:href="#DejaVuSans-34" x="159.033203"/>
      </g>
     </g>
    </g>
    <g id="xtick_3">
     <g id="line2d_3">
      <g>
       <use xlink:href="#m4c71e47852" x="131.095782" y="246.04" style="stroke: #000000; stroke-width: 0.8"/>
      </g>
     </g>
     <g id="text_3">
      <!-- 0.05 -->
      <g transform="translate(119.96297 260.638438) scale(0.1 -0.1)">
       <defs>
        <path id="DejaVuSans-35" d="M 691 4666 
L 3169 4666 
L 3169 4134 
L 1269 4134 
L 1269 2991 
Q 1406 3038 1543 3061 
Q 1681 3084 1819 3084 
Q 2600 3084 3056 2656 
Q 3513 2228 3513 1497 
Q 3513 744 3044 326 
Q 2575 -91 1722 -91 
Q 1428 -91 1123 -41 
Q 819 9 494 109 
L 494 744 
Q 775 591 1075 516 
Q 1375 441 1709 441 
Q 2250 441 2565 725 
Q 2881 1009 2881 1497 
Q 2881 1984 2565 2268 
Q 2250 2553 1709 2553 
Q 1456 2553 1204 2497 
Q 953 2441 691 2322 
L 691 4666 
z
" transform="scale(0.015625)"/>
       </defs>
       <use xlink:href="#DejaVuSans-30"/>
       <use xlink:href="#DejaVuSans-2e" x="63.623047"/>
       <use xlink:href="#DejaVuSans-30" x="95.410156"/>
       <use xlink:href="#DejaVuSans-35" x="159.033203"/>
      </g>
     </g>
    </g>
    <g id="xtick_4">
     <g id="line2d_4">
      <g>
       <use xlink:href="#m4c71e47852" x="167.562399" y="246.04" style="stroke: #000000; stroke-width: 0.8"/>
      </g>
     </g>
     <g id="text_4">
      <!-- 0.06 -->
      <g transform="translate(156.429587 260.638438) scale(0.1 -0.1)">
       <defs>
        <path id="DejaVuSans-36" d="M 2113 2584 
Q 1688 2584 1439 2293 
Q 1191 2003 1191 1497 
Q 1191 994 1439 701 
Q 1688 409 2113 409 
Q 2538 409 2786 701 
Q 3034 994 3034 1497 
Q 3034 2003 2786 2293 
Q 2538 2584 2113 2584 
z
M 3366 4563 
L 3366 3988 
Q 3128 4100 2886 4159 
Q 2644 4219 2406 4219 
Q 1781 4219 1451 3797 
Q 1122 3375 1075 2522 
Q 1259 2794 1537 2939 
Q 1816 3084 2150 3084 
Q 2853 3084 3261 2657 
Q 3669 2231 3669 1497 
Q 3669 778 3244 343 
Q 2819 -91 2113 -91 
Q 1303 -91 875 529 
Q 447 1150 447 2328 
Q 447 3434 972 4092 
Q 1497 4750 2381 4750 
Q 2619 4750 2861 4703 
Q 3103 4656 3366 4563 
z
" transform="scale(0.015625)"/>
       </defs>
       <use xlink:href="#DejaVuSans-30"/>
       <use xlink:href="#DejaVuSans-2e" x="63.623047"/>
       <use xlink:href="#DejaVuSans-30" x="95.410156"/>
       <use xlink:href="#DejaVuSans-36" x="159.033203"/>
      </g>
     </g>
    </g>
    <g id="xtick_5">
     <g id="line2d_5">
      <g>
       <use xlink:href="#m4c71e47852" x="204.029016" y="246.04" style="stroke: #000000; stroke-width: 0.8"/>
      </g>
     </g>
     <g id="text_5">
      <!-- 0.07 -->
      <g transform="translate(192.896204 260.638438) scale(0.1 -0.1)">
       <defs>
        <path id="DejaVuSans-37" d="M 525 4666 
L 3525 4666 
L 3525 4397 
L 1831 0 
L 1172 0 
L 2766 4134 
L 525 4134 
L 525 4666 
z
" transform="scale(0.015625)"/>
       </defs>
       <use xlink:href="#DejaVuSans-30"/>
       <use xlink:href="#DejaVuSans-2e" x="63.623047"/>
       <use xlink:href="#DejaVuSans-30" x="95.410156"/>
       <use xlink:href="#DejaVuSans-37" x="159.033203"/>
      </g>
     </g>
    </g>
    <g id="xtick_6">
     <g id="line2d_6">
      <g>
       <use xlink:href="#m4c71e47852" x="240.495634" y="246.04" style="stroke: #000000; stroke-width: 0.8"/>
      </g>
     </g>
     <g id="text_6">
      <!-- 0.08 -->
      <g transform="translate(229.362821 260.638438) scale(0.1 -0.1)">
       <defs>
        <path id="DejaVuSans-38" d="M 2034 2216 
Q 1584 2216 1326 1975 
Q 1069 1734 1069 1313 
Q 1069 891 1326 650 
Q 1584 409 2034 409 
Q 2484 409 2743 651 
Q 3003 894 3003 1313 
Q 3003 1734 2745 1975 
Q 2488 2216 2034 2216 
z
M 1403 2484 
Q 997 2584 770 2862 
Q 544 3141 544 3541 
Q 544 4100 942 4425 
Q 1341 4750 2034 4750 
Q 2731 4750 3128 4425 
Q 3525 4100 3525 3541 
Q 3525 3141 3298 2862 
Q 3072 2584 2669 2484 
Q 3125 2378 3379 2068 
Q 3634 1759 3634 1313 
Q 3634 634 3220 271 
Q 2806 -91 2034 -91 
Q 1263 -91 848 271 
Q 434 634 434 1313 
Q 434 1759 690 2068 
Q 947 2378 1403 2484 
z
M 1172 3481 
Q 1172 3119 1398 2916 
Q 1625 2713 2034 2713 
Q 2441 2713 2670 2916 
Q 2900 3119 2900 3481 
Q 2900 3844 2670 4047 
Q 2441 4250 2034 4250 
Q 1625 4250 1398 4047 
Q 1172 3844 1172 3481 
z
" transform="scale(0.015625)"/>
       </defs>
       <use xlink:href="#DejaVuSans-30"/>
       <use xlink:href="#DejaVuSans-2e" x="63.623047"/>
       <use xlink:href="#DejaVuSans-30" x="95.410156"/>
       <use xlink:href="#DejaVuSans-38" x="159.033203"/>
      </g>
     </g>
    </g>
    <g id="text_7">
     <!-- Cortical Activation (a.u.) -->
     <g transform="translate(103.126831 274.316562) scale(0.1 -0.1)">
      <defs>
       <path id="DejaVuSans-43" d="M 4122 4306 
L 4122 3641 
Q 3803 3938 3442 4084 
Q 3081 4231 2675 4231 
Q 1875 4231 1450 3742 
Q 1025 3253 1025 2328 
Q 1025 1406 1450 917 
Q 1875 428 2675 428 
Q 3081 428 3442 575 
Q 3803 722 4122 1019 
L 4122 359 
Q 3791 134 3420 21 
Q 3050 -91 2638 -91 
Q 1578 -91 968 557 
Q 359 1206 359 2328 
Q 359 3453 968 4101 
Q 1578 4750 2638 4750 
Q 3056 4750 3426 4639 
Q 3797 4528 4122 4306 
z
" transform="scale(0.015625)"/>
       <path id="DejaVuSans-6f" d="M 1959 3097 
Q 1497 3097 1228 2736 
Q 959 2375 959 1747 
Q 959 1119 1226 758 
Q 1494 397 1959 397 
Q 2419 397 2687 759 
Q 2956 1122 2956 1747 
Q 2956 2369 2687 2733 
Q 2419 3097 1959 3097 
z
M 1959 3584 
Q 2709 3584 3137 3096 
Q 3566 2609 3566 1747 
Q 3566 888 3137 398 
Q 2709 -91 1959 -91 
Q 1206 -91 779 398 
Q 353 888 353 1747 
Q 353 2609 779 3096 
Q 1206 3584 1959 3584 
z
" transform="scale(0.015625)"/>
       <path id="DejaVuSans-72" d="M 2631 2963 
Q 2534 3019 2420 3045 
Q 2306 3072 2169 3072 
Q 1681 3072 1420 2755 
Q 1159 2438 1159 1844 
L 1159 0 
L 581 0 
L 581 3500 
L 1159 3500 
L 1159 2956 
Q 1341 3275 1631 3429 
Q 1922 3584 2338 3584 
Q 2397 3584 2469 3576 
Q 2541 3569 2628 3553 
L 2631 2963 
z
" transform="scale(0.015625)"/>
       <path id="DejaVuSans-74" d="M 1172 4494 
L 1172 3500 
L 2356 3500 
L 2356 3053 
L 1172 3053 
L 1172 1153 
Q 1172 725 1289 603 
Q 1406 481 1766 481 
L 2356 481 
L 2356 0 
L 1766 0 
Q 1100 0 847 248 
Q 594 497 594 1153 
L 594 3053 
L 172 3053 
L 172 3500 
L 594 3500 
L 594 4494 
L 1172 4494 
z
" transform="scale(0.015625)"/>
       <path id="DejaVuSans-69" d="M 603 3500 
L 1178 3500 
L 1178 0 
L 603 0 
L 603 3500 
z
M 603 4863 
L 1178 4863 
L 1178 4134 
L 603 4134 
L 603 4863 
z
" transform="scale(0.015625)"/>
       <path id="DejaVuSans-63" d="M 3122 3366 
L 3122 2828 
Q 2878 2963 2633 3030 
Q 2388 3097 2138 3097 
Q 1578 3097 1268 2742 
Q 959 2388 959 1747 
Q 959 1106 1268 751 
Q 1578 397 2138 397 
Q 2388 397 2633 464 
Q 2878 531 3122 666 
L 3122 134 
Q 2881 22 2623 -34 
Q 2366 -91 2075 -91 
Q 1284 -91 818 406 
Q 353 903 353 1747 
Q 353 2603 823 3093 
Q 1294 3584 2113 3584 
Q 2378 3584 2631 3529 
Q 2884 3475 3122 3366 
z
" transform="scale(0.015625)"/>
       <path id="DejaVuSans-61" d="M 2194 1759 
Q 1497 1759 1228 1600 
Q 959 1441 959 1056 
Q 959 750 1161 570 
Q 1363 391 1709 391 
Q 2188 391 2477 730 
Q 2766 1069 2766 1631 
L 2766 1759 
L 2194 1759 
z
M 3341 1997 
L 3341 0 
L 2766 0 
L 2766 531 
Q 2569 213 2275 61 
Q 1981 -91 1556 -91 
Q 1019 -91 701 211 
Q 384 513 384 1019 
Q 384 1609 779 1909 
Q 1175 2209 1959 2209 
L 2766 2209 
L 2766 2266 
Q 2766 2663 2505 2880 
Q 2244 3097 1772 3097 
Q 1472 3097 1187 3025 
Q 903 2953 641 2809 
L 641 3341 
Q 956 3463 1253 3523 
Q 1550 3584 1831 3584 
Q 2591 3584 2966 3190 
Q 3341 2797 3341 1997 
z
" transform="scale(0.015625)"/>
       <path id="DejaVuSans-6c" d="M 603 4863 
L 1178 4863 
L 1178 0 
L 603 0 
L 603 4863 
z
" transform="scale(0.015625)"/>
       <path id="DejaVuSans-20" transform="scale(0.015625)"/>
       <path id="DejaVuSans-41" d="M 2188 4044 
L 1331 1722 
L 3047 1722 
L 2188 4044 
z
M 1831 4666 
L 2547 4666 
L 4325 0 
L 3669 0 
L 3244 1197 
L 1141 1197 
L 716 0 
L 50 0 
L 1831 4666 
z
" transform="scale(0.015625)"/>
       <path id="DejaVuSans-76" d="M 191 3500 
L 800 3500 
L 1894 563 
L 2988 3500 
L 3597 3500 
L 2284 0 
L 1503 0 
L 191 3500 
z
" transform="scale(0.015625)"/>
       <path id="DejaVuSans-6e" d="M 3513 2113 
L 3513 0 
L 2938 0 
L 2938 2094 
Q 2938 2591 2744 2837 
Q 2550 3084 2163 3084 
Q 1697 3084 1428 2787 
Q 1159 2491 1159 1978 
L 1159 0 
L 581 0 
L 581 3500 
L 1159 3500 
L 1159 2956 
Q 1366 3272 1645 3428 
Q 1925 3584 2291 3584 
Q 2894 3584 3203 3211 
Q 3513 2838 3513 2113 
z
" transform="scale(0.015625)"/>
       <path id="DejaVuSans-28" d="M 1984 4856 
Q 1566 4138 1362 3434 
Q 1159 2731 1159 2009 
Q 1159 1288 1364 580 
Q 1569 -128 1984 -844 
L 1484 -844 
Q 1016 -109 783 600 
Q 550 1309 550 2009 
Q 550 2706 781 3412 
Q 1013 4119 1484 4856 
L 1984 4856 
z
" transform="scale(0.015625)"/>
       <path id="DejaVuSans-75" d="M 544 1381 
L 544 3500 
L 1119 3500 
L 1119 1403 
Q 1119 906 1312 657 
Q 1506 409 1894 409 
Q 2359 409 2629 706 
Q 2900 1003 2900 1516 
L 2900 3500 
L 3475 3500 
L 3475 0 
L 2900 0 
L 2900 538 
Q 2691 219 2414 64 
Q 2138 -91 1772 -91 
Q 1169 -91 856 284 
Q 544 659 544 1381 
z
M 1991 3584 
L 1991 3584 
z
" transform="scale(0.015625)"/>
       <path id="DejaVuSans-29" d="M 513 4856 
L 1013 4856 
Q 1481 4119 1714 3412 
Q 1947 2706 1947 2009 
Q 1947 1309 1714 600 
Q 1481 -109 1013 -844 
L 513 -844 
Q 928 -128 1133 580 
Q 1338 1288 1338 2009 
Q 1338 2731 1133 3434 
Q 928 4138 513 4856 
z
" transform="scale(0.015625)"/>
      </defs>
      <use xlink:href="#DejaVuSans-43"/>
      <use xlink:href="#DejaVuSans-6f" x="69.824219"/>
      <use xlink:href="#DejaVuSans-72" x="131.005859"/>
      <use xlink:href="#DejaVuSans-74" x="172.119141"/>
      <use xlink:href="#DejaVuSans-69" x="211.328125"/>
      <use xlink:href="#DejaVuSans-63" x="239.111328"/>
      <use xlink:href="#DejaVuSans-61" x="294.091797"/>
      <use xlink:href="#DejaVuSans-6c" x="355.371094"/>
      <use xlink:href="#DejaVuSans-20" x="383.154297"/>
      <use xlink:href="#DejaVuSans-41" x="414.941406"/>
      <use xlink:href="#DejaVuSans-63" x="481.599609"/>
      <use xlink:href="#DejaVuSans-74" x="536.580078"/>
      <use xlink:href="#DejaVuSans-69" x="575.789062"/>
      <use xlink:href="#DejaVuSans-76" x="603.572266"/>
      <use xlink:href="#DejaVuSans-61" x="662.751953"/>
      <use xlink:href="#DejaVuSans-74" x="724.03125"/>
      <use xlink:href="#DejaVuSans-69" x="763.240234"/>
      <use xlink:href="#DejaVuSans-6f" x="791.023438"/>
      <use xlink:href="#DejaVuSans-6e" x="852.205078"/>
      <use xlink:href="#DejaVuSans-20" x="915.583984"/>
      <use xlink:href="#DejaVuSans-28" x="947.371094"/>
      <use xlink:href="#DejaVuSans-61" x="986.384766"/>
      <use xlink:href="#DejaVuSans-2e" x="1047.664062"/>
      <use xlink:href="#DejaVuSans-75" x="1079.451172"/>
      <use xlink:href="#DejaVuSans-2e" x="1142.830078"/>
      <use xlink:href="#DejaVuSans-29" x="1174.617188"/>
     </g>
    </g>
   </g>
   <g id="matplotlib.axis_2">
    <g id="ytick_1">
     <g id="line2d_7">
      <defs>
       <path id="m073d86879f" d="M 0 0 
L -3.5 0 
" style="stroke: #000000; stroke-width: 0.8"/>
      </defs>
      <g>
       <use xlink:href="#m073d86879f" x="54.02" y="212.04057" style="stroke: #000000; stroke-width: 0.8"/>
      </g>
     </g>
     <g id="text_8">
      <!-- 0.02 -->
      <g transform="translate(24.754375 215.839789) scale(0.1 -0.1)">
       <defs>
        <path id="DejaVuSans-32" d="M 1228 531 
L 3431 531 
L 3431 0 
L 469 0 
L 469 531 
Q 828 903 1448 1529 
Q 2069 2156 2228 2338 
Q 2531 2678 2651 2914 
Q 2772 3150 2772 3378 
Q 2772 3750 2511 3984 
Q 2250 4219 1831 4219 
Q 1534 4219 1204 4116 
Q 875 4013 500 3803 
L 500 4441 
Q 881 4594 1212 4672 
Q 1544 4750 1819 4750 
Q 2544 4750 2975 4387 
Q 3406 4025 3406 3419 
Q 3406 3131 3298 2873 
Q 3191 2616 2906 2266 
Q 2828 2175 2409 1742 
Q 1991 1309 1228 531 
z
" transform="scale(0.015625)"/>
       </defs>
       <use xlink:href="#DejaVuSans-30"/>
       <use xlink:href="#DejaVuSans-2e" x="63.623047"/>
       <use xlink:href="#DejaVuSans-30" x="95.410156"/>
       <use xlink:href="#DejaVuSans-32" x="159.033203"/>
      </g>
     </g>
    </g>
    <g id="ytick_2">
     <g id="line2d_8">
      <g>
       <use xlink:href="#m073d86879f" x="54.02" y="165.637119" style="stroke: #000000; stroke-width: 0.8"/>
      </g>
     </g>
     <g id="text_9">
      <!-- 0.04 -->
      <g transform="translate(24.754375 169.436338) scale(0.1 -0.1)">
       <use xlink:href="#DejaVuSans-30"/>
       <use xlink:href="#DejaVuSans-2e" x="63.623047"/>
       <use xlink:href="#DejaVuSans-30" x="95.410156"/>
       <use xlink:href="#DejaVuSans-34" x="159.033203"/>
      </g>
     </g>
    </g>
    <g id="ytick_3">
     <g id="line2d_9">
      <g>
       <use xlink:href="#m073d86879f" x="54.02" y="119.233668" style="stroke: #000000; stroke-width: 0.8"/>
      </g>
     </g>
     <g id="text_10">
      <!-- 0.06 -->
      <g transform="translate(24.754375 123.032886) scale(0.1 -0.1)">
       <use xlink:href="#DejaVuSans-30"/>
       <use xlink:href="#DejaVuSans-2e" x="63.623047"/>
       <use xlink:href="#DejaVuSans-30" x="95.410156"/>
       <use xlink:href="#DejaVuSans-36" x="159.033203"/>
      </g>
     </g>
    </g>
    <g id="ytick_4">
     <g id="line2d_10">
      <g>
       <use xlink:href="#m073d86879f" x="54.02" y="72.830216" style="stroke: #000000; stroke-width: 0.8"/>
      </g>
     </g>
     <g id="text_11">
      <!-- 0.08 -->
      <g transform="translate(24.754375 76.629435) scale(0.1 -0.1)">
       <use xlink:href="#DejaVuSans-30"/>
       <use xlink:href="#DejaVuSans-2e" x="63.623047"/>
       <use xlink:href="#DejaVuSans-30" x="95.410156"/>
       <use xlink:href="#DejaVuSans-38" x="159.033203"/>
      </g>
     </g>
    </g>
    <g id="ytick_5">
     <g id="line2d_11">
      <g>
       <use xlink:href="#m073d86879f" x="54.02" y="26.426765" style="stroke: #000000; stroke-width: 0.8"/>
      </g>
     </g>
     <g id="text_12">
      <!-- 0.10 -->
      <g transform="translate(24.754375 30.225984) scale(0.1 -0.1)">
       <defs>
        <path id="DejaVuSans-31" d="M 794 531 
L 1825 531 
L 1825 4091 
L 703 3866 
L 703 4441 
L 1819 4666 
L 2450 4666 
L 2450 531 
L 3481 531 
L 3481 0 
L 794 0 
L 794 531 
z
" transform="scale(0.015625)"/>
       </defs>
       <use xlink:href="#DejaVuSans-30"/>
       <use xlink:href="#DejaVuSans-2e" x="63.623047"/>
       <use xlink:href="#DejaVuSans-31" x="95.410156"/>
       <use xlink:href="#DejaVuSans-30" x="159.033203"/>
      </g>
     </g>
    </g>
    <g id="text_13">
     <!-- Cerebellar Activation (a.u.) -->
     <g transform="translate(18.674687 195.678594) rotate(-90) scale(0.1 -0.1)">
      <defs>
       <path id="DejaVuSans-65" d="M 3597 1894 
L 3597 1613 
L 953 1613 
Q 991 1019 1311 708 
Q 1631 397 2203 397 
Q 2534 397 2845 478 
Q 3156 559 3463 722 
L 3463 178 
Q 3153 47 2828 -22 
Q 2503 -91 2169 -91 
Q 1331 -91 842 396 
Q 353 884 353 1716 
Q 353 2575 817 3079 
Q 1281 3584 2069 3584 
Q 2775 3584 3186 3129 
Q 3597 2675 3597 1894 
z
M 3022 2063 
Q 3016 2534 2758 2815 
Q 2500 3097 2075 3097 
Q 1594 3097 1305 2825 
Q 1016 2553 972 2059 
L 3022 2063 
z
" transform="scale(0.015625)"/>
       <path id="DejaVuSans-62" d="M 3116 1747 
Q 3116 2381 2855 2742 
Q 2594 3103 2138 3103 
Q 1681 3103 1420 2742 
Q 1159 2381 1159 1747 
Q 1159 1113 1420 752 
Q 1681 391 2138 391 
Q 2594 391 2855 752 
Q 3116 1113 3116 1747 
z
M 1159 2969 
Q 1341 3281 1617 3432 
Q 1894 3584 2278 3584 
Q 2916 3584 3314 3078 
Q 3713 2572 3713 1747 
Q 3713 922 3314 415 
Q 2916 -91 2278 -91 
Q 1894 -91 1617 61 
Q 1341 213 1159 525 
L 1159 0 
L 581 0 
L 581 4863 
L 1159 4863 
L 1159 2969 
z
" transform="scale(0.015625)"/>
      </defs>
      <use xlink:href="#DejaVuSans-43"/>
      <use xlink:href="#DejaVuSans-65" x="69.824219"/>
      <use xlink:href="#DejaVuSans-72" x="131.347656"/>
      <use xlink:href="#DejaVuSans-65" x="170.210938"/>
      <use xlink:href="#DejaVuSans-62" x="231.734375"/>
      <use xlink:href="#DejaVuSans-65" x="295.210938"/>
      <use xlink:href="#DejaVuSans-6c" x="356.734375"/>
      <use xlink:href="#DejaVuSans-6c" x="384.517578"/>
      <use xlink:href="#DejaVuSans-61" x="412.300781"/>
      <use xlink:href="#DejaVuSans-72" x="473.580078"/>
      <use xlink:href="#DejaVuSans-20" x="514.693359"/>
      <use xlink:href="#DejaVuSans-41" x="546.480469"/>
      <use xlink:href="#DejaVuSans-63" x="613.138672"/>
      <use xlink:href="#DejaVuSans-74" x="668.119141"/>
      <use xlink:href="#DejaVuSans-69" x="707.328125"/>
      <use xlink:href="#DejaVuSans-76" x="735.111328"/>
      <use xlink:href="#DejaVuSans-61" x="794.291016"/>
      <use xlink:href="#DejaVuSans-74" x="855.570312"/>
      <use xlink:href="#DejaVuSans-69" x="894.779297"/>
      <use xlink:href="#DejaVuSans-6f" x="922.5625"/>
      <use xlink:href="#DejaVuSans-6e" x="983.744141"/>
      <use xlink:href="#DejaVuSans-20" x="1047.123047"/>
      <use xlink:href="#DejaVuSans-28" x="1078.910156"/>
      <use xlink:href="#DejaVuSans-61" x="1117.923828"/>
      <use xlink:href="#DejaVuSans-2e" x="1179.203125"/>
      <use xlink:href="#DejaVuSans-75" x="1210.990234"/>
      <use xlink:href="#DejaVuSans-2e" x="1274.369141"/>
      <use xlink:href="#DejaVuSans-29" x="1306.15625"/>
     </g>
    </g>
   </g>
   <g id="line2d_12">
    <path d="M 64.000664 192.162959 
L 66.016959 191.133005 
L 68.033255 190.103051 
L 70.049551 189.073097 
L 72.065846 188.043144 
L 74.082142 187.01319 
L 76.098438 185.983236 
L 78.114733 184.953282 
L 80.131029 183.923328 
L 82.147325 182.893374 
L 84.16362 181.863421 
L 86.179916 180.833467 
L 88.196212 179.803513 
L 90.212508 178.773559 
L 92.228803 177.743605 
L 94.245099 176.713651 
L 96.261395 175.683698 
L 98.27769 174.653744 
L 100.293986 173.62379 
L 102.310282 172.593836 
L 104.326577 171.563882 
L 106.342873 170.533929 
L 108.359169 169.503975 
L 110.375464 168.474021 
L 112.39176 167.444067 
L 114.408056 166.414113 
L 116.424351 165.384159 
L 118.440647 164.354206 
L 120.456943 163.324252 
L 122.473238 162.294298 
L 124.489534 161.264344 
L 126.50583 160.23439 
L 128.522126 159.204436 
L 130.538421 158.174483 
L 132.554717 157.144529 
L 134.571013 156.114575 
L 136.587308 155.084621 
L 138.603604 154.054667 
L 140.6199 153.024713 
L 142.636195 151.99476 
L 144.652491 150.964806 
L 146.668787 149.934852 
L 148.685082 148.904898 
L 150.701378 147.874944 
L 152.717674 146.84499 
L 154.733969 145.815037 
L 156.750265 144.785083 
L 158.766561 143.755129 
L 160.782856 142.725175 
L 162.799152 141.695221 
L 164.815448 140.665267 
L 166.831744 139.635314 
L 168.848039 138.60536 
L 170.864335 137.575406 
L 172.880631 136.545452 
L 174.896926 135.515498 
L 176.913222 134.485545 
L 178.929518 133.455591 
L 180.945813 132.425637 
L 182.962109 131.395683 
L 184.978405 130.365729 
L 186.9947 129.335775 
L 189.010996 128.305822 
L 191.027292 127.275868 
L 193.043587 126.245914 
L 195.059883 125.21596 
L 197.076179 124.186006 
L 199.092474 123.156052 
L 201.10877 122.126099 
L 203.125066 121.096145 
L 205.141362 120.066191 
L 207.157657 119.036237 
L 209.173953 118.006283 
L 211.190249 116.976329 
L 213.206544 115.946376 
L 215.22284 114.916422 
L 217.239136 113.886468 
L 219.255431 112.856514 
L 221.271727 111.82656 
L 223.288023 110.796606 
L 225.304318 109.766653 
L 227.320614 108.736699 
L 229.33691 107.706745 
L 231.353205 106.676791 
L 233.369501 105.646837 
L 235.385797 104.616884 
L 237.402092 103.58693 
L 239.418388 102.556976 
L 241.434684 101.527022 
L 243.45098 100.497068 
L 245.467275 99.467114 
L 247.483571 98.437161 
L 249.499867 97.407207 
L 251.516162 96.377253 
L 253.532458 95.347299 
L 255.548754 94.317345 
L 257.565049 93.287391 
L 259.581345 92.257438 
L 261.597641 91.227484 
L 263.613936 90.19753 
" clip-path="url(#p163f847aa8)" style="fill: none; stroke: #808080; stroke-width: 2.25; stroke-linecap: square"/>
   </g>
   <g id="LineCollection_1">
    <path d="M 64.000664 230.071823 
L 64.000664 167.370797 
" clip-path="url(#p163f847aa8)" style="fill: none; stroke: #e6e6e6"/>
    <path d="M 256.969269 153.790455 
L 256.969269 92.378799 
" clip-path="url(#p163f847aa8)" style="fill: none; stroke: #e6e6e6"/>
    <path d="M 84.955196 235.347273 
L 84.955196 162.928294 
" clip-path="url(#p163f847aa8)" style="fill: none; stroke: #e6e6e6"/>
    <path d="M 247.936709 163.570047 
L 247.936709 92.839901 
" clip-path="url(#p163f847aa8)" style="fill: none; stroke: #e6e6e6"/>
    <path d="M 143.18518 167.721525 
L 143.18518 119.386849 
" clip-path="url(#p163f847aa8)" style="fill: none; stroke: #e6e6e6"/>
    <path d="M 263.613936 136.921888 
L 263.613936 53.489292 
" clip-path="url(#p163f847aa8)" style="fill: none; stroke: #e6e6e6"/>
    <path d="M 80.352781 219.436987 
L 80.352781 176.893456 
" clip-path="url(#p163f847aa8)" style="fill: none; stroke: #e6e6e6"/>
    <path d="M 255.298754 140.161855 
L 255.298754 88.458447 
" clip-path="url(#p163f847aa8)" style="fill: none; stroke: #e6e6e6"/>
    <path d="M 230.289034 106.419401 
L 230.289034 21.492727 
" clip-path="url(#p163f847aa8)" style="fill: none; stroke: #e6e6e6"/>
    <path d="M 200.050629 121.036003 
L 200.050629 54.432996 
" clip-path="url(#p163f847aa8)" style="fill: none; stroke: #e6e6e6"/>
    <path d="M 162.55026 167.179528 
L 162.55026 63.256388 
" clip-path="url(#p163f847aa8)" style="fill: none; stroke: #e6e6e6"/>
    <path d="M 203.977813 143.185554 
L 203.977813 78.142348 
" clip-path="url(#p163f847aa8)" style="fill: none; stroke: #e6e6e6"/>
   </g>
   <g id="patch_3">
    <path d="M 54.02 246.04 
L 54.02 10.8 
" style="fill: none; stroke: #000000; stroke-width: 0.8; stroke-linejoin: miter; stroke-linecap: square"/>
   </g>
   <g id="patch_4">
    <path d="M 54.02 246.04 
L 273.5946 246.04 
" style="fill: none; stroke: #000000; stroke-width: 0.8; stroke-linejoin: miter; stroke-linecap: square"/>
   </g>
   <g id="text_14">
    <!-- load2 -->
    <g transform="translate(56.095307 196.05293) scale(0.0833 -0.0833)">
     <defs>
      <path id="DejaVuSans-64" d="M 2906 2969 
L 2906 4863 
L 3481 4863 
L 3481 0 
L 2906 0 
L 2906 525 
Q 2725 213 2448 61 
Q 2172 -91 1784 -91 
Q 1150 -91 751 415 
Q 353 922 353 1747 
Q 353 2572 751 3078 
Q 1150 3584 1784 3584 
Q 2172 3584 2448 3432 
Q 2725 3281 2906 2969 
z
M 947 1747 
Q 947 1113 1208 752 
Q 1469 391 1925 391 
Q 2381 391 2643 752 
Q 2906 1113 2906 1747 
Q 2906 2381 2643 2742 
Q 2381 3103 1925 3103 
Q 1469 3103 1208 2742 
Q 947 2381 947 1747 
z
" transform="scale(0.015625)"/>
     </defs>
     <use xlink:href="#DejaVuSans-6c"/>
     <use xlink:href="#DejaVuSans-6f" x="27.783203"/>
     <use xlink:href="#DejaVuSans-61" x="88.964844"/>
     <use xlink:href="#DejaVuSans-64" x="150.244141"/>
     <use xlink:href="#DejaVuSans-32" x="213.720703"/>
    </g>
   </g>
   <g id="text_15">
    <!-- load2 -->
    <g transform="translate(250.083745 120.995949) scale(0.0833 -0.0833)">
     <use xlink:href="#DejaVuSans-6c"/>
     <use xlink:href="#DejaVuSans-6f" x="27.783203"/>
     <use xlink:href="#DejaVuSans-61" x="88.964844"/>
     <use xlink:href="#DejaVuSans-64" x="150.244141"/>
     <use xlink:href="#DejaVuSans-32" x="213.720703"/>
    </g>
   </g>
   <g id="text_16">
    <!-- load2 -->
    <g transform="translate(90.705716 206.160141) scale(0.0833 -0.0833)">
     <use xlink:href="#DejaVuSans-6c"/>
     <use xlink:href="#DejaVuSans-6f" x="27.783203"/>
     <use xlink:href="#DejaVuSans-61" x="88.964844"/>
     <use xlink:href="#DejaVuSans-64" x="150.244141"/>
     <use xlink:href="#DejaVuSans-32" x="213.720703"/>
    </g>
   </g>
   <g id="text_17">
    <!-- load2 -->
    <g transform="translate(227.896591 135.470472) scale(0.0833 -0.0833)">
     <use xlink:href="#DejaVuSans-6c"/>
     <use xlink:href="#DejaVuSans-6f" x="27.783203"/>
     <use xlink:href="#DejaVuSans-61" x="88.964844"/>
     <use xlink:href="#DejaVuSans-64" x="150.244141"/>
     <use xlink:href="#DejaVuSans-32" x="213.720703"/>
    </g>
   </g>
   <g id="text_18">
    <!-- load4 -->
    <g transform="translate(147.414592 140.885808) scale(0.0833 -0.0833)">
     <use xlink:href="#DejaVuSans-6c"/>
     <use xlink:href="#DejaVuSans-6f" x="27.783203"/>
     <use xlink:href="#DejaVuSans-61" x="88.964844"/>
     <use xlink:href="#DejaVuSans-64" x="150.244141"/>
     <use xlink:href="#DejaVuSans-34" x="213.720703"/>
    </g>
   </g>
   <g id="text_19">
    <!-- load4 -->
    <g transform="translate(243.573838 92.53721) scale(0.0833 -0.0833)">
     <use xlink:href="#DejaVuSans-6c"/>
     <use xlink:href="#DejaVuSans-6f" x="27.783203"/>
     <use xlink:href="#DejaVuSans-61" x="88.964844"/>
     <use xlink:href="#DejaVuSans-64" x="150.244141"/>
     <use xlink:href="#DejaVuSans-34" x="213.720703"/>
    </g>
   </g>
   <g id="text_20">
    <!-- load4 -->
    <g transform="translate(84.582193 195.496842) scale(0.0833 -0.0833)">
     <use xlink:href="#DejaVuSans-6c"/>
     <use xlink:href="#DejaVuSans-6f" x="27.783203"/>
     <use xlink:href="#DejaVuSans-61" x="88.964844"/>
     <use xlink:href="#DejaVuSans-64" x="150.244141"/>
     <use xlink:href="#DejaVuSans-34" x="213.720703"/>
    </g>
   </g>
   <g id="text_21">
    <!-- load4 -->
    <g transform="translate(225.711227 110.413009) scale(0.0833 -0.0833)">
     <use xlink:href="#DejaVuSans-6c"/>
     <use xlink:href="#DejaVuSans-6f" x="27.783203"/>
     <use xlink:href="#DejaVuSans-61" x="88.964844"/>
     <use xlink:href="#DejaVuSans-64" x="150.244141"/>
     <use xlink:href="#DejaVuSans-34" x="213.720703"/>
    </g>
   </g>
   <g id="text_22">
    <!-- load6 -->
    <g transform="translate(234.518414 61.287684) scale(0.0833 -0.0833)">
     <use xlink:href="#DejaVuSans-6c"/>
     <use xlink:href="#DejaVuSans-6f" x="27.783203"/>
     <use xlink:href="#DejaVuSans-61" x="88.964844"/>
     <use xlink:href="#DejaVuSans-64" x="150.244141"/>
     <use xlink:href="#DejaVuSans-36" x="213.720703"/>
    </g>
   </g>
   <g id="text_23">
    <!-- load6 -->
    <g transform="translate(204.280041 85.06612) scale(0.0833 -0.0833)">
     <use xlink:href="#DejaVuSans-6c"/>
     <use xlink:href="#DejaVuSans-6f" x="27.783203"/>
     <use xlink:href="#DejaVuSans-61" x="88.964844"/>
     <use xlink:href="#DejaVuSans-64" x="150.244141"/>
     <use xlink:href="#DejaVuSans-36" x="213.720703"/>
    </g>
   </g>
   <g id="text_24">
    <!-- load6 -->
    <g transform="translate(166.779655 112.549578) scale(0.0833 -0.0833)">
     <use xlink:href="#DejaVuSans-6c"/>
     <use xlink:href="#DejaVuSans-6f" x="27.783203"/>
     <use xlink:href="#DejaVuSans-61" x="88.964844"/>
     <use xlink:href="#DejaVuSans-64" x="150.244141"/>
     <use xlink:href="#DejaVuSans-36" x="213.720703"/>
    </g>
   </g>
   <g id="text_25">
    <!-- load6 -->
    <g transform="translate(201.029763 99.181009) scale(0.0833 -0.0833)">
     <use xlink:href="#DejaVuSans-6c"/>
     <use xlink:href="#DejaVuSans-6f" x="27.783203"/>
     <use xlink:href="#DejaVuSans-61" x="88.964844"/>
     <use xlink:href="#DejaVuSans-64" x="150.244141"/>
     <use xlink:href="#DejaVuSans-36" x="213.720703"/>
    </g>
   </g>
  </g>
  <g id="legend_1">
   <g id="text_26">
    <!-- phase -->
    <g transform="translate(314.930625 110.064063) scale(0.1 -0.1)">
     <defs>
      <path id="DejaVuSans-70" d="M 1159 525 
L 1159 -1331 
L 581 -1331 
L 581 3500 
L 1159 3500 
L 1159 2969 
Q 1341 3281 1617 3432 
Q 1894 3584 2278 3584 
Q 2916 3584 3314 3078 
Q 3713 2572 3713 1747 
Q 3713 922 3314 415 
Q 2916 -91 2278 -91 
Q 1894 -91 1617 61 
Q 1341 213 1159 525 
z
M 3116 1747 
Q 3116 2381 2855 2742 
Q 2594 3103 2138 3103 
Q 1681 3103 1420 2742 
Q 1159 2381 1159 1747 
Q 1159 1113 1420 752 
Q 1681 391 2138 391 
Q 2594 391 2855 752 
Q 3116 1113 3116 1747 
z
" transform="scale(0.015625)"/>
      <path id="DejaVuSans-68" d="M 3513 2113 
L 3513 0 
L 2938 0 
L 2938 2094 
Q 2938 2591 2744 2837 
Q 2550 3084 2163 3084 
Q 1697 3084 1428 2787 
Q 1159 2491 1159 1978 
L 1159 0 
L 581 0 
L 581 4863 
L 1159 4863 
L 1159 2956 
Q 1366 3272 1645 3428 
Q 1925 3584 2291 3584 
Q 2894 3584 3203 3211 
Q 3513 2838 3513 2113 
z
" transform="scale(0.015625)"/>
      <path id="DejaVuSans-73" d="M 2834 3397 
L 2834 2853 
Q 2591 2978 2328 3040 
Q 2066 3103 1784 3103 
Q 1356 3103 1142 2972 
Q 928 2841 928 2578 
Q 928 2378 1081 2264 
Q 1234 2150 1697 2047 
L 1894 2003 
Q 2506 1872 2764 1633 
Q 3022 1394 3022 966 
Q 3022 478 2636 193 
Q 2250 -91 1575 -91 
Q 1294 -91 989 -36 
Q 684 19 347 128 
L 347 722 
Q 666 556 975 473 
Q 1284 391 1588 391 
Q 1994 391 2212 530 
Q 2431 669 2431 922 
Q 2431 1156 2273 1281 
Q 2116 1406 1581 1522 
L 1381 1569 
Q 847 1681 609 1914 
Q 372 2147 372 2553 
Q 372 3047 722 3315 
Q 1072 3584 1716 3584 
Q 2034 3584 2315 3537 
Q 2597 3491 2834 3397 
z
" transform="scale(0.015625)"/>
     </defs>
     <use xlink:href="#DejaVuSans-70"/>
     <use xlink:href="#DejaVuSans-68" x="63.476562"/>
     <use xlink:href="#DejaVuSans-61" x="126.855469"/>
     <use xlink:href="#DejaVuSans-73" x="188.134766"/>
     <use xlink:href="#DejaVuSans-65" x="240.234375"/>
    </g>
   </g>
   <g id="PathCollection_7">
    <defs>
     <path id="m980867534b" d="M 0 3 
C 0.795609 3 1.55874 2.683901 2.12132 2.12132 
C 2.683901 1.55874 3 0.795609 3 0 
C 3 -0.795609 2.683901 -1.55874 2.12132 -2.12132 
C 1.55874 -2.683901 0.795609 -3 0 -3 
C -0.795609 -3 -1.55874 -2.683901 -2.12132 -2.12132 
C -2.683901 -1.55874 -3 -0.795609 -3 0 
C -3 0.795609 -2.683901 1.55874 -2.12132 2.12132 
C -1.55874 2.683901 -0.795609 3 0 3 
z
" style="stroke: #1f77b4"/>
    </defs>
    <g>
     <use xlink:href="#m980867534b" x="296.930625" y="122.117188" style="fill: #1f77b4; stroke: #1f77b4"/>
    </g>
   </g>
   <g id="text_27">
    <!-- encode -->
    <g transform="translate(314.930625 124.742188) scale(0.1 -0.1)">
     <use xlink:href="#DejaVuSans-65"/>
     <use xlink:href="#DejaVuSans-6e" x="61.523438"/>
     <use xlink:href="#DejaVuSans-63" x="124.902344"/>
     <use xlink:href="#DejaVuSans-6f" x="179.882812"/>
     <use xlink:href="#DejaVuSans-64" x="241.064453"/>
     <use xlink:href="#DejaVuSans-65" x="304.541016"/>
    </g>
   </g>
   <g id="PathCollection_8">
    <defs>
     <path id="mc534c9e4de" d="M 0 3 
C 0.795609 3 1.55874 2.683901 2.12132 2.12132 
C 2.683901 1.55874 3 0.795609 3 0 
C 3 -0.795609 2.683901 -1.55874 2.12132 -2.12132 
C 1.55874 -2.683901 0.795609 -3 0 -3 
C -0.795609 -3 -1.55874 -2.683901 -2.12132 -2.12132 
C -2.683901 -1.55874 -3 -0.795609 -3 0 
C -3 0.795609 -2.683901 1.55874 -2.12132 2.12132 
C -1.55874 2.683901 -0.795609 3 0 3 
z
" style="stroke: #ff7f0e"/>
    </defs>
    <g>
     <use xlink:href="#mc534c9e4de" x="296.930625" y="136.795313" style="fill: #ff7f0e; stroke: #ff7f0e"/>
    </g>
   </g>
   <g id="text_28">
    <!-- retriev -->
    <g transform="translate(314.930625 139.420313) scale(0.1 -0.1)">
     <use xlink:href="#DejaVuSans-72"/>
     <use xlink:href="#DejaVuSans-65" x="38.863281"/>
     <use xlink:href="#DejaVuSans-74" x="100.386719"/>
     <use xlink:href="#DejaVuSans-72" x="139.595703"/>
     <use xlink:href="#DejaVuSans-69" x="180.708984"/>
     <use xlink:href="#DejaVuSans-65" x="208.492188"/>
     <use xlink:href="#DejaVuSans-76" x="270.015625"/>
    </g>
   </g>
   <g id="text_29">
    <!-- recall -->
    <g transform="translate(314.930625 154.098438) scale(0.1 -0.1)">
     <use xlink:href="#DejaVuSans-72"/>
     <use xlink:href="#DejaVuSans-65" x="38.863281"/>
     <use xlink:href="#DejaVuSans-63" x="100.386719"/>
     <use xlink:href="#DejaVuSans-61" x="155.367188"/>
     <use xlink:href="#DejaVuSans-6c" x="216.646484"/>
     <use xlink:href="#DejaVuSans-6c" x="244.429688"/>
    </g>
   </g>
   <g id="PathCollection_9">
    <defs>
     <path id="mf6a63f8cba" d="M 0 3 
C 0.795609 3 1.55874 2.683901 2.12132 2.12132 
C 2.683901 1.55874 3 0.795609 3 0 
C 3 -0.795609 2.683901 -1.55874 2.12132 -2.12132 
C 1.55874 -2.683901 0.795609 -3 0 -3 
C -0.795609 -3 -1.55874 -2.683901 -2.12132 -2.12132 
C -2.683901 -1.55874 -3 -0.795609 -3 0 
C -3 0.795609 -2.683901 1.55874 -2.12132 2.12132 
C -1.55874 2.683901 -0.795609 3 0 3 
z
" style="stroke: #333333"/>
    </defs>
    <g>
     <use xlink:href="#mf6a63f8cba" x="296.930625" y="166.151563" style="fill: #333333; stroke: #333333"/>
    </g>
   </g>
   <g id="text_30">
    <!-- bw -->
    <g transform="translate(314.930625 168.776563) scale(0.1 -0.1)">
     <defs>
      <path id="DejaVuSans-77" d="M 269 3500 
L 844 3500 
L 1563 769 
L 2278 3500 
L 2956 3500 
L 3675 769 
L 4391 3500 
L 4966 3500 
L 4050 0 
L 3372 0 
L 2619 2869 
L 1863 0 
L 1184 0 
L 269 3500 
z
" transform="scale(0.015625)"/>
     </defs>
     <use xlink:href="#DejaVuSans-62"/>
     <use xlink:href="#DejaVuSans-77" x="63.476562"/>
    </g>
   </g>
   <g id="PathCollection_10">
    <defs>
     <path id="m6af93e703b" d="M -1.5 3 
L 0 1.5 
L 1.5 3 
L 3 1.5 
L 1.5 0 
L 3 -1.5 
L 1.5 -3 
L 0 -1.5 
L -1.5 -3 
L -3 -1.5 
L -1.5 0 
L -3 1.5 
z
" style="stroke: #333333"/>
    </defs>
    <g>
     <use xlink:href="#m6af93e703b" x="296.930625" y="180.829688" style="fill: #333333; stroke: #333333"/>
    </g>
   </g>
   <g id="text_31">
    <!-- fw -->
    <g transform="translate(314.930625 183.454688) scale(0.1 -0.1)">
     <defs>
      <path id="DejaVuSans-66" d="M 2375 4863 
L 2375 4384 
L 1825 4384 
Q 1516 4384 1395 4259 
Q 1275 4134 1275 3809 
L 1275 3500 
L 2222 3500 
L 2222 3053 
L 1275 3053 
L 1275 0 
L 697 0 
L 697 3053 
L 147 3053 
L 147 3500 
L 697 3500 
L 697 3744 
Q 697 4328 969 4595 
Q 1241 4863 1831 4863 
L 2375 4863 
z
" transform="scale(0.015625)"/>
     </defs>
     <use xlink:href="#DejaVuSans-66"/>
     <use xlink:href="#DejaVuSans-77" x="33.455078"/>
    </g>
   </g>
  </g>
 </g>
 <defs>
  <clipPath id="p163f847aa8">
   <rect x="54.02" y="10.8" width="219.5746" height="235.24"/>
  </clipPath>
 </defs>
</svg>
