<?xml version="1.0" encoding="utf-8" standalone="no"?>
<!DOCTYPE svg PUBLIC "-//W3C//DTD SVG 1.1//EN"
  "http://www.w3.org/Graphics/SVG/1.1/DTD/svg11.dtd">
<svg xmlns:xlink="http://www.w3.org/1999/xlink" width="360.54pt" height="288pt" viewBox="0 0 360.54 288" xmlns="http://www.w3.org/2000/svg" version="1.1">
 <metadata>
  <rdf:RDF xmlns:dc="http://purl.org/dc/elements/1.1/" xmlns:cc="http://creativecommons.org/ns#" xmlns:rdf="http://www.w3.org/1999/02/22-rdf-syntax-ns#">
   <cc:Work>
    <dc:type rdf:resource="http://purl.org/dc/dcmitype/StillImage"/>
    <dc:date>2023-02-02T00:49:57.208908</dc:date>
    <dc:format>image/svg+xml</dc:format>
    <dc:creator>
     <cc:Agent>
      <dc:title>Matplotlib v3.6.2, https://matplotlib.org/</dc:title>
     </cc:Agent>
    </dc:creator>
   </cc:Work>
  </rdf:RDF>
 </metadata>
 <defs>
  <style type="text/css">*{stroke-linejoin: round; stroke-linecap: butt}</style>
 </defs>
 <g id="figure_1">
  <g id="patch_1">
   <path d="M 0 288 
L 360.54 288 
L 360.54 0 
L 0 0 
z
" style="fill: #ffffff"/>
  </g>
  <g id="axes_1">
   <g id="patch_2">
    <path d="M 60.32 246.04 
L 273.5946 246.04 
L 273.5946 10.8 
L 60.32 10.8 
z
" style="fill: #ffffff"/>
   </g>
   <g id="PathCollection_1">
    <path d="M 157.926218 183.62198 
C 159.252234 183.62198 160.524117 183.095148 161.461752 182.157514 
C 162.399386 181.219879 162.926218 179.947995 162.926218 178.62198 
C 162.926218 177.295964 162.399386 176.02408 161.461752 175.086446 
C 160.524117 174.148811 159.252234 173.62198 157.926218 173.62198 
C 156.600203 173.62198 155.328319 174.148811 154.390684 175.086446 
C 153.45305 176.02408 152.926218 177.295964 152.926218 178.62198 
C 152.926218 179.947995 153.45305 181.219879 154.390684 182.157514 
C 155.328319 183.095148 156.600203 183.62198 157.926218 183.62198 
z
" clip-path="url(#p876774a5d6)" style="fill: #1f77b4; stroke: #ffffff; stroke-width: 0.8"/>
    <path d="M 158.777849 158.832545 
C 160.103865 158.832545 161.375749 158.305713 162.313383 157.368079 
C 163.251018 156.430444 163.777849 155.15856 163.777849 153.832545 
C 163.777849 152.506529 163.251018 151.234645 162.313383 150.297011 
C 161.375749 149.359376 160.103865 148.832545 158.777849 148.832545 
C 157.451834 148.832545 156.17995 149.359376 155.242315 150.297011 
C 154.304681 151.234645 153.777849 152.506529 153.777849 153.832545 
C 153.777849 155.15856 154.304681 156.430444 155.242315 157.368079 
C 156.17995 158.305713 157.451834 158.832545 158.777849 158.832545 
z
" clip-path="url(#p876774a5d6)" style="fill: #ff7f0e; stroke: #ffffff; stroke-width: 0.8"/>
    <path d="M 97.113745 195.401712 
L 99.613745 192.901712 
L 102.113745 195.401712 
L 104.613745 192.901712 
L 102.113745 190.401712 
L 104.613745 187.901712 
L 102.113745 185.401712 
L 99.613745 187.901712 
L 97.113745 185.401712 
L 94.613745 187.901712 
L 97.113745 190.401712 
L 94.613745 192.901712 
z
" clip-path="url(#p876774a5d6)" style="fill: #1f77b4; stroke: #ffffff; stroke-width: 0.8"/>
    <path d="M 67.5143 183.841212 
L 70.0143 181.341212 
L 72.5143 183.841212 
L 75.0143 181.341212 
L 72.5143 178.841212 
L 75.0143 176.341212 
L 72.5143 173.841212 
L 70.0143 176.341212 
L 67.5143 173.841212 
L 65.0143 176.341212 
L 67.5143 178.841212 
L 65.0143 181.341212 
z
" clip-path="url(#p876774a5d6)" style="fill: #ff7f0e; stroke: #ffffff; stroke-width: 0.8"/>
    <path d="M 190.822704 153.227931 
C 192.14872 153.227931 193.420604 152.701099 194.358238 151.763465 
C 195.295873 150.82583 195.822704 149.553946 195.822704 148.227931 
C 195.822704 146.901915 195.295873 145.630032 194.358238 144.692397 
C 193.420604 143.754762 192.14872 143.227931 190.822704 143.227931 
C 189.496689 143.227931 188.224805 143.754762 187.28717 144.692397 
C 186.349536 145.630032 185.822704 146.901915 185.822704 148.227931 
C 185.822704 149.553946 186.349536 150.82583 187.28717 151.763465 
C 188.224805 152.701099 189.496689 153.227931 190.822704 153.227931 
z
" clip-path="url(#p876774a5d6)" style="fill: #1f77b4; stroke: #ffffff; stroke-width: 0.8"/>
    <path d="M 227.220951 134.234584 
C 228.546966 134.234584 229.81885 133.707752 230.756485 132.770118 
C 231.694119 131.832483 232.220951 130.560599 232.220951 129.234584 
C 232.220951 127.908568 231.694119 126.636684 230.756485 125.69905 
C 229.81885 124.761415 228.546966 124.234584 227.220951 124.234584 
C 225.894935 124.234584 224.623051 124.761415 223.685417 125.69905 
C 222.747782 126.636684 222.220951 127.908568 222.220951 129.234584 
C 222.220951 130.560599 222.747782 131.832483 223.685417 132.770118 
C 224.623051 133.707752 225.894935 134.234584 227.220951 134.234584 
z
" clip-path="url(#p876774a5d6)" style="fill: #ff7f0e; stroke: #ffffff; stroke-width: 0.8"/>
    <path d="M 123.574496 194.625246 
L 126.074496 192.125246 
L 128.574496 194.625246 
L 131.074496 192.125246 
L 128.574496 189.625246 
L 131.074496 187.125246 
L 128.574496 184.625246 
L 126.074496 187.125246 
L 123.574496 184.625246 
L 121.074496 187.125246 
L 123.574496 189.625246 
L 121.074496 192.125246 
z
" clip-path="url(#p876774a5d6)" style="fill: #1f77b4; stroke: #ffffff; stroke-width: 0.8"/>
    <path d="M 135.132721 165.119936 
L 137.632721 162.619936 
L 140.132721 165.119936 
L 142.632721 162.619936 
L 140.132721 160.119936 
L 142.632721 157.619936 
L 140.132721 155.119936 
L 137.632721 157.619936 
L 135.132721 155.119936 
L 132.632721 157.619936 
L 135.132721 160.119936 
L 132.632721 162.619936 
z
" clip-path="url(#p876774a5d6)" style="fill: #ff7f0e; stroke: #ffffff; stroke-width: 0.8"/>
    <path d="M 242.387275 94.459643 
C 243.713291 94.459643 244.985175 93.932812 245.922809 92.995177 
C 246.860444 92.057543 247.387275 90.785659 247.387275 89.459643 
C 247.387275 88.133628 246.860444 86.861744 245.922809 85.924109 
C 244.985175 84.986475 243.713291 84.459643 242.387275 84.459643 
C 241.06126 84.459643 239.789376 84.986475 238.851741 85.924109 
C 237.914107 86.861744 237.387275 88.133628 237.387275 89.459643 
C 237.387275 90.785659 237.914107 92.057543 238.851741 92.995177 
C 239.789376 93.932812 241.06126 94.459643 242.387275 94.459643 
z
" clip-path="url(#p876774a5d6)" style="fill: #1f77b4; stroke: #ffffff; stroke-width: 0.8"/>
    <path d="M 263.9003 116.967212 
C 265.226315 116.967212 266.498199 116.44038 267.435834 115.502745 
C 268.373468 114.565111 268.9003 113.293227 268.9003 111.967212 
C 268.9003 110.641196 268.373468 109.369312 267.435834 108.431678 
C 266.498199 107.494043 265.226315 106.967212 263.9003 106.967212 
C 262.574285 106.967212 261.302401 107.494043 260.364766 108.431678 
C 259.427132 109.369312 258.9003 110.641196 258.9003 111.967212 
C 258.9003 113.293227 259.427132 114.565111 260.364766 115.502745 
C 261.302401 116.44038 262.574285 116.967212 263.9003 116.967212 
z
" clip-path="url(#p876774a5d6)" style="fill: #ff7f0e; stroke: #ffffff; stroke-width: 0.8"/>
    <path d="M 189.146655 128.859127 
L 191.646655 126.359127 
L 194.146655 128.859127 
L 196.646655 126.359127 
L 194.146655 123.859127 
L 196.646655 121.359127 
L 194.146655 118.859127 
L 191.646655 121.359127 
L 189.146655 118.859127 
L 186.646655 121.359127 
L 189.146655 123.859127 
L 186.646655 126.359127 
z
" clip-path="url(#p876774a5d6)" style="fill: #1f77b4; stroke: #ffffff; stroke-width: 0.8"/>
    <path d="M 172.029832 146.425728 
L 174.529832 143.925728 
L 177.029832 146.425728 
L 179.529832 143.925728 
L 177.029832 141.425728 
L 179.529832 138.925728 
L 177.029832 136.425728 
L 174.529832 138.925728 
L 172.029832 136.425728 
L 169.529832 138.925728 
L 172.029832 141.425728 
L 169.529832 143.925728 
z
" clip-path="url(#p876774a5d6)" style="fill: #ff7f0e; stroke: #ffffff; stroke-width: 0.8"/>
   </g>
   <g id="PathCollection_2"/>
   <g id="PathCollection_3"/>
   <g id="PathCollection_4"/>
   <g id="PathCollection_5"/>
   <g id="PathCollection_6">
    <defs>
     <path id="mcb699c5107" d="M 0 0 
C 0 0 0 0 0 0 
C 0 0 0 0 0 0 
C 0 0 0 0 0 0 
C 0 0 0 0 0 0 
C 0 0 0 0 0 0 
C 0 0 0 0 0 0 
C 0 0 0 0 0 0 
C 0 0 0 0 0 0 
z
" style="stroke: #1f77b4; stroke-opacity: 0.8"/>
    </defs>
    <g clip-path="url(#p876774a5d6)">
     <use xlink:href="#mcb699c5107" x="157.926218" y="178.62198" style="fill: #1f77b4; fill-opacity: 0.8; stroke: #1f77b4; stroke-opacity: 0.8"/>
     <use xlink:href="#mcb699c5107" x="158.777849" y="153.832545" style="fill: #1f77b4; fill-opacity: 0.8; stroke: #1f77b4; stroke-opacity: 0.8"/>
     <use xlink:href="#mcb699c5107" x="99.613745" y="190.401712" style="fill: #1f77b4; fill-opacity: 0.8; stroke: #1f77b4; stroke-opacity: 0.8"/>
     <use xlink:href="#mcb699c5107" x="70.0143" y="178.841212" style="fill: #1f77b4; fill-opacity: 0.8; stroke: #1f77b4; stroke-opacity: 0.8"/>
     <use xlink:href="#mcb699c5107" x="190.822704" y="148.227931" style="fill: #1f77b4; fill-opacity: 0.8; stroke: #1f77b4; stroke-opacity: 0.8"/>
     <use xlink:href="#mcb699c5107" x="227.220951" y="129.234584" style="fill: #1f77b4; fill-opacity: 0.8; stroke: #1f77b4; stroke-opacity: 0.8"/>
     <use xlink:href="#mcb699c5107" x="126.074496" y="189.625246" style="fill: #1f77b4; fill-opacity: 0.8; stroke: #1f77b4; stroke-opacity: 0.8"/>
     <use xlink:href="#mcb699c5107" x="137.632721" y="160.119936" style="fill: #1f77b4; fill-opacity: 0.8; stroke: #1f77b4; stroke-opacity: 0.8"/>
     <use xlink:href="#mcb699c5107" x="242.387275" y="89.459643" style="fill: #1f77b4; fill-opacity: 0.8; stroke: #1f77b4; stroke-opacity: 0.8"/>
     <use xlink:href="#mcb699c5107" x="263.9003" y="111.967212" style="fill: #1f77b4; fill-opacity: 0.8; stroke: #1f77b4; stroke-opacity: 0.8"/>
     <use xlink:href="#mcb699c5107" x="191.646655" y="123.859127" style="fill: #1f77b4; fill-opacity: 0.8; stroke: #1f77b4; stroke-opacity: 0.8"/>
     <use xlink:href="#mcb699c5107" x="174.529832" y="141.425728" style="fill: #1f77b4; fill-opacity: 0.8; stroke: #1f77b4; stroke-opacity: 0.8"/>
    </g>
   </g>
   <g id="PolyCollection_1">
    <path d="M 70.0143 183.68877 
L 70.0143 224.424334 
L 71.972744 223.030196 
L 73.931189 221.77928 
L 75.889633 220.526639 
L 77.848078 219.090167 
L 79.806522 217.650966 
L 81.764967 216.215101 
L 83.723411 214.779001 
L 85.681856 213.338516 
L 87.6403 211.898961 
L 89.598744 210.462809 
L 91.557189 209.023464 
L 93.515633 207.598705 
L 95.474078 206.150581 
L 97.432522 204.715887 
L 99.390967 203.279804 
L 101.349411 201.840667 
L 103.307856 200.40088 
L 105.2663 198.978471 
L 107.224744 197.592126 
L 109.183189 196.175814 
L 111.141633 194.820965 
L 113.100078 193.483712 
L 115.058522 192.1471 
L 117.016967 190.806689 
L 118.975411 189.466278 
L 120.933856 188.107873 
L 122.8923 186.551409 
L 124.850744 185.223666 
L 126.809189 184.077231 
L 128.767633 182.668382 
L 130.726078 181.339534 
L 132.684522 180.081638 
L 134.642967 178.870535 
L 136.601411 177.627454 
L 138.559856 176.24581 
L 140.5183 175.122216 
L 142.476744 173.895554 
L 144.435189 172.584465 
L 146.393633 171.280008 
L 148.352078 170.033585 
L 150.310522 168.918923 
L 152.268967 167.755737 
L 154.227411 166.549886 
L 156.185856 165.267442 
L 158.1443 164.160184 
L 160.102744 162.973688 
L 162.061189 161.978503 
L 164.019633 160.930426 
L 165.978078 159.945892 
L 167.936522 158.832544 
L 169.894967 157.809497 
L 171.853411 156.923269 
L 173.811856 155.92992 
L 175.7703 154.9836 
L 177.728744 154.137038 
L 179.687189 153.370624 
L 181.645633 152.574546 
L 183.604078 151.7375 
L 185.562522 150.841521 
L 187.520967 149.972262 
L 189.479411 149.105032 
L 191.437856 148.233835 
L 193.3963 147.463699 
L 195.354744 146.510179 
L 197.313189 145.632053 
L 199.271633 144.781174 
L 201.230078 143.893076 
L 203.188522 143.027319 
L 205.146967 142.167947 
L 207.105411 141.4584 
L 209.063856 140.688593 
L 211.0223 139.909557 
L 212.980744 139.158206 
L 214.939189 138.407668 
L 216.897633 137.67934 
L 218.856078 136.94643 
L 220.814522 136.122435 
L 222.772967 135.259632 
L 224.731411 134.504436 
L 226.689856 133.803817 
L 228.6483 133.101939 
L 230.606744 132.342431 
L 232.565189 131.602883 
L 234.523633 130.908298 
L 236.482078 130.213714 
L 238.440522 129.51913 
L 240.398967 128.823239 
L 242.357411 128.02897 
L 244.315856 127.225728 
L 246.2743 126.467622 
L 248.232744 125.608094 
L 250.191189 124.748567 
L 252.149633 123.893167 
L 254.108078 123.152207 
L 256.066522 122.447018 
L 258.024967 121.741829 
L 259.983411 121.03664 
L 261.941856 120.33145 
L 263.9003 119.631484 
L 263.9003 82.084237 
L 263.9003 82.084237 
L 261.941856 83.545034 
L 259.983411 85.005831 
L 258.024967 86.466628 
L 256.066522 87.927425 
L 254.108078 89.356889 
L 252.149633 90.646187 
L 250.191189 91.927363 
L 248.232744 93.216702 
L 246.2743 94.482921 
L 244.315856 95.733828 
L 242.357411 96.996699 
L 240.398967 98.33745 
L 238.440522 99.666438 
L 236.482078 100.815034 
L 234.523633 102.07562 
L 232.565189 103.452083 
L 230.606744 104.769299 
L 228.6483 105.840572 
L 226.689856 107.04199 
L 224.731411 108.188964 
L 222.772967 109.434477 
L 220.814522 110.836574 
L 218.856078 112.324893 
L 216.897633 113.76444 
L 214.939189 115.154202 
L 212.980744 116.525943 
L 211.0223 117.889708 
L 209.063856 119.188423 
L 207.105411 120.326859 
L 205.146967 121.602732 
L 203.188522 122.65893 
L 201.230078 123.917182 
L 199.271633 125.179701 
L 197.313189 126.455552 
L 195.354744 127.655858 
L 193.3963 128.8054 
L 191.437856 129.903035 
L 189.479411 131.001151 
L 187.520967 132.09902 
L 185.562522 133.142323 
L 183.604078 134.285266 
L 181.645633 135.22241 
L 179.687189 136.459012 
L 177.728744 137.305291 
L 175.7703 138.227323 
L 173.811856 139.303288 
L 171.853411 140.485475 
L 169.894967 141.752937 
L 167.936522 142.57502 
L 165.978078 143.59205 
L 164.019633 144.578981 
L 162.061189 145.498976 
L 160.102744 146.526387 
L 158.1443 147.612368 
L 156.185856 148.706746 
L 154.227411 149.645473 
L 152.268967 150.492701 
L 150.310522 151.36149 
L 148.352078 152.274884 
L 146.393633 153.117257 
L 144.435189 153.936376 
L 142.476744 154.783907 
L 140.5183 155.501172 
L 138.559856 156.281865 
L 136.601411 157.03236 
L 134.642967 157.722597 
L 132.684522 158.590739 
L 130.726078 159.4132 
L 128.767633 160.198795 
L 126.809189 161.014914 
L 124.850744 161.868645 
L 122.8923 162.553086 
L 120.933856 163.306395 
L 118.975411 164.089302 
L 117.016967 164.813413 
L 115.058522 165.693748 
L 113.100078 166.571762 
L 111.141633 167.451606 
L 109.183189 168.328942 
L 107.224744 169.121892 
L 105.2663 169.850255 
L 103.307856 170.579749 
L 101.349411 171.45398 
L 99.390967 172.220446 
L 97.432522 172.937752 
L 95.474078 173.753164 
L 93.515633 174.519559 
L 91.557189 175.285954 
L 89.598744 176.052348 
L 87.6403 176.829722 
L 85.681856 177.616487 
L 83.723411 178.394988 
L 81.764967 179.122251 
L 79.806522 179.85032 
L 77.848078 180.628564 
L 75.889633 181.411768 
L 73.931189 182.178055 
L 71.972744 182.944899 
L 70.0143 183.68877 
z
" clip-path="url(#p876774a5d6)" style="fill: #808080; fill-opacity: 0.15"/>
   </g>
   <g id="matplotlib.axis_1">
    <g id="xtick_1">
     <g id="line2d_1">
      <defs>
       <path id="m0f066ee50c" d="M 0 0 
L 0 3.5 
" style="stroke: #000000; stroke-width: 0.8"/>
      </defs>
      <g>
       <use xlink:href="#m0f066ee50c" x="82.360567" y="246.04" style="stroke: #000000; stroke-width: 0.8"/>
      </g>
     </g>
     <g id="text_1">
      <!-- 0.025 -->
      <g transform="translate(68.046504 260.638438) scale(0.1 -0.1)">
       <defs>
        <path id="DejaVuSans-30" d="M 2034 4250 
Q 1547 4250 1301 3770 
Q 1056 3291 1056 2328 
Q 1056 1369 1301 889 
Q 1547 409 2034 409 
Q 2525 409 2770 889 
Q 3016 1369 3016 2328 
Q 3016 3291 2770 3770 
Q 2525 4250 2034 4250 
z
M 2034 4750 
Q 2819 4750 3233 4129 
Q 3647 3509 3647 2328 
Q 3647 1150 3233 529 
Q 2819 -91 2034 -91 
Q 1250 -91 836 529 
Q 422 1150 422 2328 
Q 422 3509 836 4129 
Q 1250 4750 2034 4750 
z
" transform="scale(0.015625)"/>
        <path id="DejaVuSans-2e" d="M 684 794 
L 1344 794 
L 1344 0 
L 684 0 
L 684 794 
z
" transform="scale(0.015625)"/>
        <path id="DejaVuSans-32" d="M 1228 531 
L 3431 531 
L 3431 0 
L 469 0 
L 469 531 
Q 828 903 1448 1529 
Q 2069 2156 2228 2338 
Q 2531 2678 2651 2914 
Q 2772 3150 2772 3378 
Q 2772 3750 2511 3984 
Q 2250 4219 1831 4219 
Q 1534 4219 1204 4116 
Q 875 4013 500 3803 
L 500 4441 
Q 881 4594 1212 4672 
Q 1544 4750 1819 4750 
Q 2544 4750 2975 4387 
Q 3406 4025 3406 3419 
Q 3406 3131 3298 2873 
Q 3191 2616 2906 2266 
Q 2828 2175 2409 1742 
Q 1991 1309 1228 531 
z
" transform="scale(0.015625)"/>
        <path id="DejaVuSans-35" d="M 691 4666 
L 3169 4666 
L 3169 4134 
L 1269 4134 
L 1269 2991 
Q 1406 3038 1543 3061 
Q 1681 3084 1819 3084 
Q 2600 3084 3056 2656 
Q 3513 2228 3513 1497 
Q 3513 744 3044 326 
Q 2575 -91 1722 -91 
Q 1428 -91 1123 -41 
Q 819 9 494 109 
L 494 744 
Q 775 591 1075 516 
Q 1375 441 1709 441 
Q 2250 441 2565 725 
Q 2881 1009 2881 1497 
Q 2881 1984 2565 2268 
Q 2250 2553 1709 2553 
Q 1456 2553 1204 2497 
Q 953 2441 691 2322 
L 691 4666 
z
" transform="scale(0.015625)"/>
       </defs>
       <use xlink:href="#DejaVuSans-30"/>
       <use xlink:href="#DejaVuSans-2e" x="63.623047"/>
       <use xlink:href="#DejaVuSans-30" x="95.410156"/>
       <use xlink:href="#DejaVuSans-32" x="159.033203"/>
       <use xlink:href="#DejaVuSans-35" x="222.65625"/>
      </g>
     </g>
    </g>
    <g id="xtick_2">
     <g id="line2d_2">
      <g>
       <use xlink:href="#m0f066ee50c" x="115.042213" y="246.04" style="stroke: #000000; stroke-width: 0.8"/>
      </g>
     </g>
     <g id="text_2">
      <!-- 0.030 -->
      <g transform="translate(100.72815 260.638438) scale(0.1 -0.1)">
       <defs>
        <path id="DejaVuSans-33" d="M 2597 2516 
Q 3050 2419 3304 2112 
Q 3559 1806 3559 1356 
Q 3559 666 3084 287 
Q 2609 -91 1734 -91 
Q 1441 -91 1130 -33 
Q 819 25 488 141 
L 488 750 
Q 750 597 1062 519 
Q 1375 441 1716 441 
Q 2309 441 2620 675 
Q 2931 909 2931 1356 
Q 2931 1769 2642 2001 
Q 2353 2234 1838 2234 
L 1294 2234 
L 1294 2753 
L 1863 2753 
Q 2328 2753 2575 2939 
Q 2822 3125 2822 3475 
Q 2822 3834 2567 4026 
Q 2313 4219 1838 4219 
Q 1578 4219 1281 4162 
Q 984 4106 628 3988 
L 628 4550 
Q 988 4650 1302 4700 
Q 1616 4750 1894 4750 
Q 2613 4750 3031 4423 
Q 3450 4097 3450 3541 
Q 3450 3153 3228 2886 
Q 3006 2619 2597 2516 
z
" transform="scale(0.015625)"/>
       </defs>
       <use xlink:href="#DejaVuSans-30"/>
       <use xlink:href="#DejaVuSans-2e" x="63.623047"/>
       <use xlink:href="#DejaVuSans-30" x="95.410156"/>
       <use xlink:href="#DejaVuSans-33" x="159.033203"/>
       <use xlink:href="#DejaVuSans-30" x="222.65625"/>
      </g>
     </g>
    </g>
    <g id="xtick_3">
     <g id="line2d_3">
      <g>
       <use xlink:href="#m0f066ee50c" x="147.723858" y="246.04" style="stroke: #000000; stroke-width: 0.8"/>
      </g>
     </g>
     <g id="text_3">
      <!-- 0.035 -->
      <g transform="translate(133.409796 260.638438) scale(0.1 -0.1)">
       <use xlink:href="#DejaVuSans-30"/>
       <use xlink:href="#DejaVuSans-2e" x="63.623047"/>
       <use xlink:href="#DejaVuSans-30" x="95.410156"/>
       <use xlink:href="#DejaVuSans-33" x="159.033203"/>
       <use xlink:href="#DejaVuSans-35" x="222.65625"/>
      </g>
     </g>
    </g>
    <g id="xtick_4">
     <g id="line2d_4">
      <g>
       <use xlink:href="#m0f066ee50c" x="180.405504" y="246.04" style="stroke: #000000; stroke-width: 0.8"/>
      </g>
     </g>
     <g id="text_4">
      <!-- 0.040 -->
      <g transform="translate(166.091441 260.638438) scale(0.1 -0.1)">
       <defs>
        <path id="DejaVuSans-34" d="M 2419 4116 
L 825 1625 
L 2419 1625 
L 2419 4116 
z
M 2253 4666 
L 3047 4666 
L 3047 1625 
L 3713 1625 
L 3713 1100 
L 3047 1100 
L 3047 0 
L 2419 0 
L 2419 1100 
L 313 1100 
L 313 1709 
L 2253 4666 
z
" transform="scale(0.015625)"/>
       </defs>
       <use xlink:href="#DejaVuSans-30"/>
       <use xlink:href="#DejaVuSans-2e" x="63.623047"/>
       <use xlink:href="#DejaVuSans-30" x="95.410156"/>
       <use xlink:href="#DejaVuSans-34" x="159.033203"/>
       <use xlink:href="#DejaVuSans-30" x="222.65625"/>
      </g>
     </g>
    </g>
    <g id="xtick_5">
     <g id="line2d_5">
      <g>
       <use xlink:href="#m0f066ee50c" x="213.087149" y="246.04" style="stroke: #000000; stroke-width: 0.8"/>
      </g>
     </g>
     <g id="text_5">
      <!-- 0.045 -->
      <g transform="translate(198.773087 260.638438) scale(0.1 -0.1)">
       <use xlink:href="#DejaVuSans-30"/>
       <use xlink:href="#DejaVuSans-2e" x="63.623047"/>
       <use xlink:href="#DejaVuSans-30" x="95.410156"/>
       <use xlink:href="#DejaVuSans-34" x="159.033203"/>
       <use xlink:href="#DejaVuSans-35" x="222.65625"/>
      </g>
     </g>
    </g>
    <g id="xtick_6">
     <g id="line2d_6">
      <g>
       <use xlink:href="#m0f066ee50c" x="245.768795" y="246.04" style="stroke: #000000; stroke-width: 0.8"/>
      </g>
     </g>
     <g id="text_6">
      <!-- 0.050 -->
      <g transform="translate(231.454732 260.638438) scale(0.1 -0.1)">
       <use xlink:href="#DejaVuSans-30"/>
       <use xlink:href="#DejaVuSans-2e" x="63.623047"/>
       <use xlink:href="#DejaVuSans-30" x="95.410156"/>
       <use xlink:href="#DejaVuSans-35" x="159.033203"/>
       <use xlink:href="#DejaVuSans-30" x="222.65625"/>
      </g>
     </g>
    </g>
    <g id="text_7">
     <!-- Predicted Activation (a.u.) -->
     <g transform="translate(101.964331 274.316562) scale(0.1 -0.1)">
      <defs>
       <path id="DejaVuSans-50" d="M 1259 4147 
L 1259 2394 
L 2053 2394 
Q 2494 2394 2734 2622 
Q 2975 2850 2975 3272 
Q 2975 3691 2734 3919 
Q 2494 4147 2053 4147 
L 1259 4147 
z
M 628 4666 
L 2053 4666 
Q 2838 4666 3239 4311 
Q 3641 3956 3641 3272 
Q 3641 2581 3239 2228 
Q 2838 1875 2053 1875 
L 1259 1875 
L 1259 0 
L 628 0 
L 628 4666 
z
" transform="scale(0.015625)"/>
       <path id="DejaVuSans-72" d="M 2631 2963 
Q 2534 3019 2420 3045 
Q 2306 3072 2169 3072 
Q 1681 3072 1420 2755 
Q 1159 2438 1159 1844 
L 1159 0 
L 581 0 
L 581 3500 
L 1159 3500 
L 1159 2956 
Q 1341 3275 1631 3429 
Q 1922 3584 2338 3584 
Q 2397 3584 2469 3576 
Q 2541 3569 2628 3553 
L 2631 2963 
z
" transform="scale(0.015625)"/>
       <path id="DejaVuSans-65" d="M 3597 1894 
L 3597 1613 
L 953 1613 
Q 991 1019 1311 708 
Q 1631 397 2203 397 
Q 2534 397 2845 478 
Q 3156 559 3463 722 
L 3463 178 
Q 3153 47 2828 -22 
Q 2503 -91 2169 -91 
Q 1331 -91 842 396 
Q 353 884 353 1716 
Q 353 2575 817 3079 
Q 1281 3584 2069 3584 
Q 2775 3584 3186 3129 
Q 3597 2675 3597 1894 
z
M 3022 2063 
Q 3016 2534 2758 2815 
Q 2500 3097 2075 3097 
Q 1594 3097 1305 2825 
Q 1016 2553 972 2059 
L 3022 2063 
z
" transform="scale(0.015625)"/>
       <path id="DejaVuSans-64" d="M 2906 2969 
L 2906 4863 
L 3481 4863 
L 3481 0 
L 2906 0 
L 2906 525 
Q 2725 213 2448 61 
Q 2172 -91 1784 -91 
Q 1150 -91 751 415 
Q 353 922 353 1747 
Q 353 2572 751 3078 
Q 1150 3584 1784 3584 
Q 2172 3584 2448 3432 
Q 2725 3281 2906 2969 
z
M 947 1747 
Q 947 1113 1208 752 
Q 1469 391 1925 391 
Q 2381 391 2643 752 
Q 2906 1113 2906 1747 
Q 2906 2381 2643 2742 
Q 2381 3103 1925 3103 
Q 1469 3103 1208 2742 
Q 947 2381 947 1747 
z
" transform="scale(0.015625)"/>
       <path id="DejaVuSans-69" d="M 603 3500 
L 1178 3500 
L 1178 0 
L 603 0 
L 603 3500 
z
M 603 4863 
L 1178 4863 
L 1178 4134 
L 603 4134 
L 603 4863 
z
" transform="scale(0.015625)"/>
       <path id="DejaVuSans-63" d="M 3122 3366 
L 3122 2828 
Q 2878 2963 2633 3030 
Q 2388 3097 2138 3097 
Q 1578 3097 1268 2742 
Q 959 2388 959 1747 
Q 959 1106 1268 751 
Q 1578 397 2138 397 
Q 2388 397 2633 464 
Q 2878 531 3122 666 
L 3122 134 
Q 2881 22 2623 -34 
Q 2366 -91 2075 -91 
Q 1284 -91 818 406 
Q 353 903 353 1747 
Q 353 2603 823 3093 
Q 1294 3584 2113 3584 
Q 2378 3584 2631 3529 
Q 2884 3475 3122 3366 
z
" transform="scale(0.015625)"/>
       <path id="DejaVuSans-74" d="M 1172 4494 
L 1172 3500 
L 2356 3500 
L 2356 3053 
L 1172 3053 
L 1172 1153 
Q 1172 725 1289 603 
Q 1406 481 1766 481 
L 2356 481 
L 2356 0 
L 1766 0 
Q 1100 0 847 248 
Q 594 497 594 1153 
L 594 3053 
L 172 3053 
L 172 3500 
L 594 3500 
L 594 4494 
L 1172 4494 
z
" transform="scale(0.015625)"/>
       <path id="DejaVuSans-20" transform="scale(0.015625)"/>
       <path id="DejaVuSans-41" d="M 2188 4044 
L 1331 1722 
L 3047 1722 
L 2188 4044 
z
M 1831 4666 
L 2547 4666 
L 4325 0 
L 3669 0 
L 3244 1197 
L 1141 1197 
L 716 0 
L 50 0 
L 1831 4666 
z
" transform="scale(0.015625)"/>
       <path id="DejaVuSans-76" d="M 191 3500 
L 800 3500 
L 1894 563 
L 2988 3500 
L 3597 3500 
L 2284 0 
L 1503 0 
L 191 3500 
z
" transform="scale(0.015625)"/>
       <path id="DejaVuSans-61" d="M 2194 1759 
Q 1497 1759 1228 1600 
Q 959 1441 959 1056 
Q 959 750 1161 570 
Q 1363 391 1709 391 
Q 2188 391 2477 730 
Q 2766 1069 2766 1631 
L 2766 1759 
L 2194 1759 
z
M 3341 1997 
L 3341 0 
L 2766 0 
L 2766 531 
Q 2569 213 2275 61 
Q 1981 -91 1556 -91 
Q 1019 -91 701 211 
Q 384 513 384 1019 
Q 384 1609 779 1909 
Q 1175 2209 1959 2209 
L 2766 2209 
L 2766 2266 
Q 2766 2663 2505 2880 
Q 2244 3097 1772 3097 
Q 1472 3097 1187 3025 
Q 903 2953 641 2809 
L 641 3341 
Q 956 3463 1253 3523 
Q 1550 3584 1831 3584 
Q 2591 3584 2966 3190 
Q 3341 2797 3341 1997 
z
" transform="scale(0.015625)"/>
       <path id="DejaVuSans-6f" d="M 1959 3097 
Q 1497 3097 1228 2736 
Q 959 2375 959 1747 
Q 959 1119 1226 758 
Q 1494 397 1959 397 
Q 2419 397 2687 759 
Q 2956 1122 2956 1747 
Q 2956 2369 2687 2733 
Q 2419 3097 1959 3097 
z
M 1959 3584 
Q 2709 3584 3137 3096 
Q 3566 2609 3566 1747 
Q 3566 888 3137 398 
Q 2709 -91 1959 -91 
Q 1206 -91 779 398 
Q 353 888 353 1747 
Q 353 2609 779 3096 
Q 1206 3584 1959 3584 
z
" transform="scale(0.015625)"/>
       <path id="DejaVuSans-6e" d="M 3513 2113 
L 3513 0 
L 2938 0 
L 2938 2094 
Q 2938 2591 2744 2837 
Q 2550 3084 2163 3084 
Q 1697 3084 1428 2787 
Q 1159 2491 1159 1978 
L 1159 0 
L 581 0 
L 581 3500 
L 1159 3500 
L 1159 2956 
Q 1366 3272 1645 3428 
Q 1925 3584 2291 3584 
Q 2894 3584 3203 3211 
Q 3513 2838 3513 2113 
z
" transform="scale(0.015625)"/>
       <path id="DejaVuSans-28" d="M 1984 4856 
Q 1566 4138 1362 3434 
Q 1159 2731 1159 2009 
Q 1159 1288 1364 580 
Q 1569 -128 1984 -844 
L 1484 -844 
Q 1016 -109 783 600 
Q 550 1309 550 2009 
Q 550 2706 781 3412 
Q 1013 4119 1484 4856 
L 1984 4856 
z
" transform="scale(0.015625)"/>
       <path id="DejaVuSans-75" d="M 544 1381 
L 544 3500 
L 1119 3500 
L 1119 1403 
Q 1119 906 1312 657 
Q 1506 409 1894 409 
Q 2359 409 2629 706 
Q 2900 1003 2900 1516 
L 2900 3500 
L 3475 3500 
L 3475 0 
L 2900 0 
L 2900 538 
Q 2691 219 2414 64 
Q 2138 -91 1772 -91 
Q 1169 -91 856 284 
Q 544 659 544 1381 
z
M 1991 3584 
L 1991 3584 
z
" transform="scale(0.015625)"/>
       <path id="DejaVuSans-29" d="M 513 4856 
L 1013 4856 
Q 1481 4119 1714 3412 
Q 1947 2706 1947 2009 
Q 1947 1309 1714 600 
Q 1481 -109 1013 -844 
L 513 -844 
Q 928 -128 1133 580 
Q 1338 1288 1338 2009 
Q 1338 2731 1133 3434 
Q 928 4138 513 4856 
z
" transform="scale(0.015625)"/>
      </defs>
      <use xlink:href="#DejaVuSans-50"/>
      <use xlink:href="#DejaVuSans-72" x="58.552734"/>
      <use xlink:href="#DejaVuSans-65" x="97.416016"/>
      <use xlink:href="#DejaVuSans-64" x="158.939453"/>
      <use xlink:href="#DejaVuSans-69" x="222.416016"/>
      <use xlink:href="#DejaVuSans-63" x="250.199219"/>
      <use xlink:href="#DejaVuSans-74" x="305.179688"/>
      <use xlink:href="#DejaVuSans-65" x="344.388672"/>
      <use xlink:href="#DejaVuSans-64" x="405.912109"/>
      <use xlink:href="#DejaVuSans-20" x="469.388672"/>
      <use xlink:href="#DejaVuSans-41" x="501.175781"/>
      <use xlink:href="#DejaVuSans-63" x="567.833984"/>
      <use xlink:href="#DejaVuSans-74" x="622.814453"/>
      <use xlink:href="#DejaVuSans-69" x="662.023438"/>
      <use xlink:href="#DejaVuSans-76" x="689.806641"/>
      <use xlink:href="#DejaVuSans-61" x="748.986328"/>
      <use xlink:href="#DejaVuSans-74" x="810.265625"/>
      <use xlink:href="#DejaVuSans-69" x="849.474609"/>
      <use xlink:href="#DejaVuSans-6f" x="877.257812"/>
      <use xlink:href="#DejaVuSans-6e" x="938.439453"/>
      <use xlink:href="#DejaVuSans-20" x="1001.818359"/>
      <use xlink:href="#DejaVuSans-28" x="1033.605469"/>
      <use xlink:href="#DejaVuSans-61" x="1072.619141"/>
      <use xlink:href="#DejaVuSans-2e" x="1133.898438"/>
      <use xlink:href="#DejaVuSans-75" x="1165.685547"/>
      <use xlink:href="#DejaVuSans-2e" x="1229.064453"/>
      <use xlink:href="#DejaVuSans-29" x="1260.851562"/>
     </g>
    </g>
   </g>
   <g id="matplotlib.axis_2">
    <g id="ytick_1">
     <g id="line2d_7">
      <defs>
       <path id="m9ed590169e" d="M 0 0 
L -3.5 0 
" style="stroke: #000000; stroke-width: 0.8"/>
      </defs>
      <g>
       <use xlink:href="#m9ed590169e" x="60.32" y="240.983064" style="stroke: #000000; stroke-width: 0.8"/>
      </g>
     </g>
     <g id="text_8">
      <!-- 0.000 -->
      <g transform="translate(24.691875 244.782283) scale(0.1 -0.1)">
       <use xlink:href="#DejaVuSans-30"/>
       <use xlink:href="#DejaVuSans-2e" x="63.623047"/>
       <use xlink:href="#DejaVuSans-30" x="95.410156"/>
       <use xlink:href="#DejaVuSans-30" x="159.033203"/>
       <use xlink:href="#DejaVuSans-30" x="222.65625"/>
      </g>
     </g>
    </g>
    <g id="ytick_2">
     <g id="line2d_8">
      <g>
       <use xlink:href="#m9ed590169e" x="60.32" y="211.106663" style="stroke: #000000; stroke-width: 0.8"/>
      </g>
     </g>
     <g id="text_9">
      <!-- 0.025 -->
      <g transform="translate(24.691875 214.905881) scale(0.1 -0.1)">
       <use xlink:href="#DejaVuSans-30"/>
       <use xlink:href="#DejaVuSans-2e" x="63.623047"/>
       <use xlink:href="#DejaVuSans-30" x="95.410156"/>
       <use xlink:href="#DejaVuSans-32" x="159.033203"/>
       <use xlink:href="#DejaVuSans-35" x="222.65625"/>
      </g>
     </g>
    </g>
    <g id="ytick_3">
     <g id="line2d_9">
      <g>
       <use xlink:href="#m9ed590169e" x="60.32" y="181.230261" style="stroke: #000000; stroke-width: 0.8"/>
      </g>
     </g>
     <g id="text_10">
      <!-- 0.050 -->
      <g transform="translate(24.691875 185.02948) scale(0.1 -0.1)">
       <use xlink:href="#DejaVuSans-30"/>
       <use xlink:href="#DejaVuSans-2e" x="63.623047"/>
       <use xlink:href="#DejaVuSans-30" x="95.410156"/>
       <use xlink:href="#DejaVuSans-35" x="159.033203"/>
       <use xlink:href="#DejaVuSans-30" x="222.65625"/>
      </g>
     </g>
    </g>
    <g id="ytick_4">
     <g id="line2d_10">
      <g>
       <use xlink:href="#m9ed590169e" x="60.32" y="151.35386" style="stroke: #000000; stroke-width: 0.8"/>
      </g>
     </g>
     <g id="text_11">
      <!-- 0.075 -->
      <g transform="translate(24.691875 155.153078) scale(0.1 -0.1)">
       <defs>
        <path id="DejaVuSans-37" d="M 525 4666 
L 3525 4666 
L 3525 4397 
L 1831 0 
L 1172 0 
L 2766 4134 
L 525 4134 
L 525 4666 
z
" transform="scale(0.015625)"/>
       </defs>
       <use xlink:href="#DejaVuSans-30"/>
       <use xlink:href="#DejaVuSans-2e" x="63.623047"/>
       <use xlink:href="#DejaVuSans-30" x="95.410156"/>
       <use xlink:href="#DejaVuSans-37" x="159.033203"/>
       <use xlink:href="#DejaVuSans-35" x="222.65625"/>
      </g>
     </g>
    </g>
    <g id="ytick_5">
     <g id="line2d_11">
      <g>
       <use xlink:href="#m9ed590169e" x="60.32" y="121.477458" style="stroke: #000000; stroke-width: 0.8"/>
      </g>
     </g>
     <g id="text_12">
      <!-- 0.100 -->
      <g transform="translate(24.691875 125.276677) scale(0.1 -0.1)">
       <defs>
        <path id="DejaVuSans-31" d="M 794 531 
L 1825 531 
L 1825 4091 
L 703 3866 
L 703 4441 
L 1819 4666 
L 2450 4666 
L 2450 531 
L 3481 531 
L 3481 0 
L 794 0 
L 794 531 
z
" transform="scale(0.015625)"/>
       </defs>
       <use xlink:href="#DejaVuSans-30"/>
       <use xlink:href="#DejaVuSans-2e" x="63.623047"/>
       <use xlink:href="#DejaVuSans-31" x="95.410156"/>
       <use xlink:href="#DejaVuSans-30" x="159.033203"/>
       <use xlink:href="#DejaVuSans-30" x="222.65625"/>
      </g>
     </g>
    </g>
    <g id="ytick_6">
     <g id="line2d_12">
      <g>
       <use xlink:href="#m9ed590169e" x="60.32" y="91.601056" style="stroke: #000000; stroke-width: 0.8"/>
      </g>
     </g>
     <g id="text_13">
      <!-- 0.125 -->
      <g transform="translate(24.691875 95.400275) scale(0.1 -0.1)">
       <use xlink:href="#DejaVuSans-30"/>
       <use xlink:href="#DejaVuSans-2e" x="63.623047"/>
       <use xlink:href="#DejaVuSans-31" x="95.410156"/>
       <use xlink:href="#DejaVuSans-32" x="159.033203"/>
       <use xlink:href="#DejaVuSans-35" x="222.65625"/>
      </g>
     </g>
    </g>
    <g id="ytick_7">
     <g id="line2d_13">
      <g>
       <use xlink:href="#m9ed590169e" x="60.32" y="61.724655" style="stroke: #000000; stroke-width: 0.8"/>
      </g>
     </g>
     <g id="text_14">
      <!-- 0.150 -->
      <g transform="translate(24.691875 65.523874) scale(0.1 -0.1)">
       <use xlink:href="#DejaVuSans-30"/>
       <use xlink:href="#DejaVuSans-2e" x="63.623047"/>
       <use xlink:href="#DejaVuSans-31" x="95.410156"/>
       <use xlink:href="#DejaVuSans-35" x="159.033203"/>
       <use xlink:href="#DejaVuSans-30" x="222.65625"/>
      </g>
     </g>
    </g>
    <g id="ytick_8">
     <g id="line2d_14">
      <g>
       <use xlink:href="#m9ed590169e" x="60.32" y="31.848253" style="stroke: #000000; stroke-width: 0.8"/>
      </g>
     </g>
     <g id="text_15">
      <!-- 0.175 -->
      <g transform="translate(24.691875 35.647472) scale(0.1 -0.1)">
       <use xlink:href="#DejaVuSans-30"/>
       <use xlink:href="#DejaVuSans-2e" x="63.623047"/>
       <use xlink:href="#DejaVuSans-31" x="95.410156"/>
       <use xlink:href="#DejaVuSans-37" x="159.033203"/>
       <use xlink:href="#DejaVuSans-35" x="222.65625"/>
      </g>
     </g>
    </g>
    <g id="text_16">
     <!-- Cerebellar Activation (a.u.) -->
     <g transform="translate(18.612187 195.678594) rotate(-90) scale(0.1 -0.1)">
      <defs>
       <path id="DejaVuSans-43" d="M 4122 4306 
L 4122 3641 
Q 3803 3938 3442 4084 
Q 3081 4231 2675 4231 
Q 1875 4231 1450 3742 
Q 1025 3253 1025 2328 
Q 1025 1406 1450 917 
Q 1875 428 2675 428 
Q 3081 428 3442 575 
Q 3803 722 4122 1019 
L 4122 359 
Q 3791 134 3420 21 
Q 3050 -91 2638 -91 
Q 1578 -91 968 557 
Q 359 1206 359 2328 
Q 359 3453 968 4101 
Q 1578 4750 2638 4750 
Q 3056 4750 3426 4639 
Q 3797 4528 4122 4306 
z
" transform="scale(0.015625)"/>
       <path id="DejaVuSans-62" d="M 3116 1747 
Q 3116 2381 2855 2742 
Q 2594 3103 2138 3103 
Q 1681 3103 1420 2742 
Q 1159 2381 1159 1747 
Q 1159 1113 1420 752 
Q 1681 391 2138 391 
Q 2594 391 2855 752 
Q 3116 1113 3116 1747 
z
M 1159 2969 
Q 1341 3281 1617 3432 
Q 1894 3584 2278 3584 
Q 2916 3584 3314 3078 
Q 3713 2572 3713 1747 
Q 3713 922 3314 415 
Q 2916 -91 2278 -91 
Q 1894 -91 1617 61 
Q 1341 213 1159 525 
L 1159 0 
L 581 0 
L 581 4863 
L 1159 4863 
L 1159 2969 
z
" transform="scale(0.015625)"/>
       <path id="DejaVuSans-6c" d="M 603 4863 
L 1178 4863 
L 1178 0 
L 603 0 
L 603 4863 
z
" transform="scale(0.015625)"/>
      </defs>
      <use xlink:href="#DejaVuSans-43"/>
      <use xlink:href="#DejaVuSans-65" x="69.824219"/>
      <use xlink:href="#DejaVuSans-72" x="131.347656"/>
      <use xlink:href="#DejaVuSans-65" x="170.210938"/>
      <use xlink:href="#DejaVuSans-62" x="231.734375"/>
      <use xlink:href="#DejaVuSans-65" x="295.210938"/>
      <use xlink:href="#DejaVuSans-6c" x="356.734375"/>
      <use xlink:href="#DejaVuSans-6c" x="384.517578"/>
      <use xlink:href="#DejaVuSans-61" x="412.300781"/>
      <use xlink:href="#DejaVuSans-72" x="473.580078"/>
      <use xlink:href="#DejaVuSans-20" x="514.693359"/>
      <use xlink:href="#DejaVuSans-41" x="546.480469"/>
      <use xlink:href="#DejaVuSans-63" x="613.138672"/>
      <use xlink:href="#DejaVuSans-74" x="668.119141"/>
      <use xlink:href="#DejaVuSans-69" x="707.328125"/>
      <use xlink:href="#DejaVuSans-76" x="735.111328"/>
      <use xlink:href="#DejaVuSans-61" x="794.291016"/>
      <use xlink:href="#DejaVuSans-74" x="855.570312"/>
      <use xlink:href="#DejaVuSans-69" x="894.779297"/>
      <use xlink:href="#DejaVuSans-6f" x="922.5625"/>
      <use xlink:href="#DejaVuSans-6e" x="983.744141"/>
      <use xlink:href="#DejaVuSans-20" x="1047.123047"/>
      <use xlink:href="#DejaVuSans-28" x="1078.910156"/>
      <use xlink:href="#DejaVuSans-61" x="1117.923828"/>
      <use xlink:href="#DejaVuSans-2e" x="1179.203125"/>
      <use xlink:href="#DejaVuSans-75" x="1210.990234"/>
      <use xlink:href="#DejaVuSans-2e" x="1274.369141"/>
      <use xlink:href="#DejaVuSans-29" x="1306.15625"/>
     </g>
    </g>
   </g>
   <g id="line2d_15">
    <path d="M 70.0143 198.937676 
L 71.972744 197.972407 
L 73.931189 197.007138 
L 75.889633 196.04187 
L 77.848078 195.076601 
L 79.806522 194.111332 
L 81.764967 193.146064 
L 83.723411 192.180795 
L 85.681856 191.215527 
L 87.6403 190.250258 
L 89.598744 189.284989 
L 91.557189 188.319721 
L 93.515633 187.354452 
L 95.474078 186.389183 
L 97.432522 185.423915 
L 99.390967 184.458646 
L 101.349411 183.493377 
L 103.307856 182.528109 
L 105.2663 181.56284 
L 107.224744 180.597572 
L 109.183189 179.632303 
L 111.141633 178.667034 
L 113.100078 177.701766 
L 115.058522 176.736497 
L 117.016967 175.771228 
L 118.975411 174.80596 
L 120.933856 173.840691 
L 122.8923 172.875422 
L 124.850744 171.910154 
L 126.809189 170.944885 
L 128.767633 169.979616 
L 130.726078 169.014348 
L 132.684522 168.049079 
L 134.642967 167.083811 
L 136.601411 166.118542 
L 138.559856 165.153273 
L 140.5183 164.188005 
L 142.476744 163.222736 
L 144.435189 162.257467 
L 146.393633 161.292199 
L 148.352078 160.32693 
L 150.310522 159.361661 
L 152.268967 158.396393 
L 154.227411 157.431124 
L 156.185856 156.465856 
L 158.1443 155.500587 
L 160.102744 154.535318 
L 162.061189 153.57005 
L 164.019633 152.604781 
L 165.978078 151.639512 
L 167.936522 150.674244 
L 169.894967 149.708975 
L 171.853411 148.743706 
L 173.811856 147.778438 
L 175.7703 146.813169 
L 177.728744 145.847901 
L 179.687189 144.882632 
L 181.645633 143.917363 
L 183.604078 142.952095 
L 185.562522 141.986826 
L 187.520967 141.021557 
L 189.479411 140.056289 
L 191.437856 139.09102 
L 193.3963 138.125751 
L 195.354744 137.160483 
L 197.313189 136.195214 
L 199.271633 135.229946 
L 201.230078 134.264677 
L 203.188522 133.299408 
L 205.146967 132.33414 
L 207.105411 131.368871 
L 209.063856 130.403602 
L 211.0223 129.438334 
L 212.980744 128.473065 
L 214.939189 127.507796 
L 216.897633 126.542528 
L 218.856078 125.577259 
L 220.814522 124.611991 
L 222.772967 123.646722 
L 224.731411 122.681453 
L 226.689856 121.716185 
L 228.6483 120.750916 
L 230.606744 119.785647 
L 232.565189 118.820379 
L 234.523633 117.85511 
L 236.482078 116.889841 
L 238.440522 115.924573 
L 240.398967 114.959304 
L 242.357411 113.994036 
L 244.315856 113.028767 
L 246.2743 112.063498 
L 248.232744 111.09823 
L 250.191189 110.132961 
L 252.149633 109.167692 
L 254.108078 108.202424 
L 256.066522 107.237155 
L 258.024967 106.271886 
L 259.983411 105.306618 
L 261.941856 104.341349 
L 263.9003 103.376081 
" clip-path="url(#p876774a5d6)" style="fill: none; stroke: #808080; stroke-width: 2.25; stroke-linecap: square"/>
   </g>
   <g id="LineCollection_1">
    <path d="M 157.926218 235.347273 
L 157.926218 121.896687 
" clip-path="url(#p876774a5d6)" style="fill: none; stroke: #e6e6e6"/>
    <path d="M 158.777849 193.07892 
L 158.777849 114.58617 
" clip-path="url(#p876774a5d6)" style="fill: none; stroke: #e6e6e6"/>
    <path d="M 99.613745 224.05718 
L 99.613745 156.746244 
" clip-path="url(#p876774a5d6)" style="fill: none; stroke: #e6e6e6"/>
    <path d="M 70.0143 215.307391 
L 70.0143 142.375033 
" clip-path="url(#p876774a5d6)" style="fill: none; stroke: #e6e6e6"/>
    <path d="M 190.822704 193.754679 
L 190.822704 102.701183 
" clip-path="url(#p876774a5d6)" style="fill: none; stroke: #e6e6e6"/>
    <path d="M 227.220951 184.612326 
L 227.220951 73.856842 
" clip-path="url(#p876774a5d6)" style="fill: none; stroke: #e6e6e6"/>
    <path d="M 126.074496 217.70359 
L 126.074496 161.546902 
" clip-path="url(#p876774a5d6)" style="fill: none; stroke: #e6e6e6"/>
    <path d="M 137.632721 201.143665 
L 137.632721 119.096207 
" clip-path="url(#p876774a5d6)" style="fill: none; stroke: #e6e6e6"/>
    <path d="M 242.387275 157.426559 
L 242.387275 21.492727 
" clip-path="url(#p876774a5d6)" style="fill: none; stroke: #e6e6e6"/>
    <path d="M 263.9003 171.856931 
L 263.9003 52.077493 
" clip-path="url(#p876774a5d6)" style="fill: none; stroke: #e6e6e6"/>
    <path d="M 191.646655 162.321528 
L 191.646655 85.396727 
" clip-path="url(#p876774a5d6)" style="fill: none; stroke: #e6e6e6"/>
    <path d="M 174.529832 180.616625 
L 174.529832 102.234831 
" clip-path="url(#p876774a5d6)" style="fill: none; stroke: #e6e6e6"/>
   </g>
   <g id="patch_3">
    <path d="M 60.32 246.04 
L 60.32 10.8 
" style="fill: none; stroke: #000000; stroke-width: 0.8; stroke-linejoin: miter; stroke-linecap: square"/>
   </g>
   <g id="patch_4">
    <path d="M 60.32 246.04 
L 273.5946 246.04 
" style="fill: none; stroke: #000000; stroke-width: 0.8; stroke-linejoin: miter; stroke-linecap: square"/>
   </g>
   <g id="text_17">
    <!-- load2 -->
    <g transform="translate(164.892533 175.968225) scale(0.0833 -0.0833)">
     <use xlink:href="#DejaVuSans-6c"/>
     <use xlink:href="#DejaVuSans-6f" x="27.783203"/>
     <use xlink:href="#DejaVuSans-61" x="88.964844"/>
     <use xlink:href="#DejaVuSans-64" x="150.244141"/>
     <use xlink:href="#DejaVuSans-32" x="213.720703"/>
    </g>
   </g>
   <g id="text_18">
    <!-- load2 -->
    <g transform="translate(165.744164 151.17879) scale(0.0833 -0.0833)">
     <use xlink:href="#DejaVuSans-6c"/>
     <use xlink:href="#DejaVuSans-6f" x="27.783203"/>
     <use xlink:href="#DejaVuSans-61" x="88.964844"/>
     <use xlink:href="#DejaVuSans-64" x="150.244141"/>
     <use xlink:href="#DejaVuSans-32" x="213.720703"/>
    </g>
   </g>
   <g id="text_19">
    <!-- load2 -->
    <g transform="translate(106.58006 187.747957) scale(0.0833 -0.0833)">
     <use xlink:href="#DejaVuSans-6c"/>
     <use xlink:href="#DejaVuSans-6f" x="27.783203"/>
     <use xlink:href="#DejaVuSans-61" x="88.964844"/>
     <use xlink:href="#DejaVuSans-64" x="150.244141"/>
     <use xlink:href="#DejaVuSans-32" x="213.720703"/>
    </g>
   </g>
   <g id="text_20">
    <!-- load2 -->
    <g transform="translate(76.980615 176.187457) scale(0.0833 -0.0833)">
     <use xlink:href="#DejaVuSans-6c"/>
     <use xlink:href="#DejaVuSans-6f" x="27.783203"/>
     <use xlink:href="#DejaVuSans-61" x="88.964844"/>
     <use xlink:href="#DejaVuSans-64" x="150.244141"/>
     <use xlink:href="#DejaVuSans-32" x="213.720703"/>
    </g>
   </g>
   <g id="text_21">
    <!-- load4 -->
    <g transform="translate(197.789019 145.574176) scale(0.0833 -0.0833)">
     <use xlink:href="#DejaVuSans-6c"/>
     <use xlink:href="#DejaVuSans-6f" x="27.783203"/>
     <use xlink:href="#DejaVuSans-61" x="88.964844"/>
     <use xlink:href="#DejaVuSans-64" x="150.244141"/>
     <use xlink:href="#DejaVuSans-34" x="213.720703"/>
    </g>
   </g>
   <g id="text_22">
    <!-- load4 -->
    <g transform="translate(234.187265 126.580829) scale(0.0833 -0.0833)">
     <use xlink:href="#DejaVuSans-6c"/>
     <use xlink:href="#DejaVuSans-6f" x="27.783203"/>
     <use xlink:href="#DejaVuSans-61" x="88.964844"/>
     <use xlink:href="#DejaVuSans-64" x="150.244141"/>
     <use xlink:href="#DejaVuSans-34" x="213.720703"/>
    </g>
   </g>
   <g id="text_23">
    <!-- load4 -->
    <g transform="translate(133.040811 186.971491) scale(0.0833 -0.0833)">
     <use xlink:href="#DejaVuSans-6c"/>
     <use xlink:href="#DejaVuSans-6f" x="27.783203"/>
     <use xlink:href="#DejaVuSans-61" x="88.964844"/>
     <use xlink:href="#DejaVuSans-64" x="150.244141"/>
     <use xlink:href="#DejaVuSans-34" x="213.720703"/>
    </g>
   </g>
   <g id="text_24">
    <!-- load4 -->
    <g transform="translate(120.635029 157.466182) scale(0.0833 -0.0833)">
     <use xlink:href="#DejaVuSans-6c"/>
     <use xlink:href="#DejaVuSans-6f" x="27.783203"/>
     <use xlink:href="#DejaVuSans-61" x="88.964844"/>
     <use xlink:href="#DejaVuSans-64" x="150.244141"/>
     <use xlink:href="#DejaVuSans-34" x="213.720703"/>
    </g>
   </g>
   <g id="text_25">
    <!-- load6 -->
    <g transform="translate(249.35359 86.805889) scale(0.0833 -0.0833)">
     <defs>
      <path id="DejaVuSans-36" d="M 2113 2584 
Q 1688 2584 1439 2293 
Q 1191 2003 1191 1497 
Q 1191 994 1439 701 
Q 1688 409 2113 409 
Q 2538 409 2786 701 
Q 3034 994 3034 1497 
Q 3034 2003 2786 2293 
Q 2538 2584 2113 2584 
z
M 3366 4563 
L 3366 3988 
Q 3128 4100 2886 4159 
Q 2644 4219 2406 4219 
Q 1781 4219 1451 3797 
Q 1122 3375 1075 2522 
Q 1259 2794 1537 2939 
Q 1816 3084 2150 3084 
Q 2853 3084 3261 2657 
Q 3669 2231 3669 1497 
Q 3669 778 3244 343 
Q 2819 -91 2113 -91 
Q 1303 -91 875 529 
Q 447 1150 447 2328 
Q 447 3434 972 4092 
Q 1497 4750 2381 4750 
Q 2619 4750 2861 4703 
Q 3103 4656 3366 4563 
z
" transform="scale(0.015625)"/>
     </defs>
     <use xlink:href="#DejaVuSans-6c"/>
     <use xlink:href="#DejaVuSans-6f" x="27.783203"/>
     <use xlink:href="#DejaVuSans-61" x="88.964844"/>
     <use xlink:href="#DejaVuSans-64" x="150.244141"/>
     <use xlink:href="#DejaVuSans-36" x="213.720703"/>
    </g>
   </g>
   <g id="text_26">
    <!-- load6 -->
    <g transform="translate(246.902608 109.313457) scale(0.0833 -0.0833)">
     <use xlink:href="#DejaVuSans-6c"/>
     <use xlink:href="#DejaVuSans-6f" x="27.783203"/>
     <use xlink:href="#DejaVuSans-61" x="88.964844"/>
     <use xlink:href="#DejaVuSans-64" x="150.244141"/>
     <use xlink:href="#DejaVuSans-36" x="213.720703"/>
    </g>
   </g>
   <g id="text_27">
    <!-- load6 -->
    <g transform="translate(198.61297 121.205372) scale(0.0833 -0.0833)">
     <use xlink:href="#DejaVuSans-6c"/>
     <use xlink:href="#DejaVuSans-6f" x="27.783203"/>
     <use xlink:href="#DejaVuSans-61" x="88.964844"/>
     <use xlink:href="#DejaVuSans-64" x="150.244141"/>
     <use xlink:href="#DejaVuSans-36" x="213.720703"/>
    </g>
   </g>
   <g id="text_28">
    <!-- load6 -->
    <g transform="translate(157.53214 138.771974) scale(0.0833 -0.0833)">
     <use xlink:href="#DejaVuSans-6c"/>
     <use xlink:href="#DejaVuSans-6f" x="27.783203"/>
     <use xlink:href="#DejaVuSans-61" x="88.964844"/>
     <use xlink:href="#DejaVuSans-64" x="150.244141"/>
     <use xlink:href="#DejaVuSans-36" x="213.720703"/>
    </g>
   </g>
  </g>
  <g id="legend_1">
   <g id="text_29">
    <!-- phase -->
    <g transform="translate(314.930625 110.064063) scale(0.1 -0.1)">
     <defs>
      <path id="DejaVuSans-70" d="M 1159 525 
L 1159 -1331 
L 581 -1331 
L 581 3500 
L 1159 3500 
L 1159 2969 
Q 1341 3281 1617 3432 
Q 1894 3584 2278 3584 
Q 2916 3584 3314 3078 
Q 3713 2572 3713 1747 
Q 3713 922 3314 415 
Q 2916 -91 2278 -91 
Q 1894 -91 1617 61 
Q 1341 213 1159 525 
z
M 3116 1747 
Q 3116 2381 2855 2742 
Q 2594 3103 2138 3103 
Q 1681 3103 1420 2742 
Q 1159 2381 1159 1747 
Q 1159 1113 1420 752 
Q 1681 391 2138 391 
Q 2594 391 2855 752 
Q 3116 1113 3116 1747 
z
" transform="scale(0.015625)"/>
      <path id="DejaVuSans-68" d="M 3513 2113 
L 3513 0 
L 2938 0 
L 2938 2094 
Q 2938 2591 2744 2837 
Q 2550 3084 2163 3084 
Q 1697 3084 1428 2787 
Q 1159 2491 1159 1978 
L 1159 0 
L 581 0 
L 581 4863 
L 1159 4863 
L 1159 2956 
Q 1366 3272 1645 3428 
Q 1925 3584 2291 3584 
Q 2894 3584 3203 3211 
Q 3513 2838 3513 2113 
z
" transform="scale(0.015625)"/>
      <path id="DejaVuSans-73" d="M 2834 3397 
L 2834 2853 
Q 2591 2978 2328 3040 
Q 2066 3103 1784 3103 
Q 1356 3103 1142 2972 
Q 928 2841 928 2578 
Q 928 2378 1081 2264 
Q 1234 2150 1697 2047 
L 1894 2003 
Q 2506 1872 2764 1633 
Q 3022 1394 3022 966 
Q 3022 478 2636 193 
Q 2250 -91 1575 -91 
Q 1294 -91 989 -36 
Q 684 19 347 128 
L 347 722 
Q 666 556 975 473 
Q 1284 391 1588 391 
Q 1994 391 2212 530 
Q 2431 669 2431 922 
Q 2431 1156 2273 1281 
Q 2116 1406 1581 1522 
L 1381 1569 
Q 847 1681 609 1914 
Q 372 2147 372 2553 
Q 372 3047 722 3315 
Q 1072 3584 1716 3584 
Q 2034 3584 2315 3537 
Q 2597 3491 2834 3397 
z
" transform="scale(0.015625)"/>
     </defs>
     <use xlink:href="#DejaVuSans-70"/>
     <use xlink:href="#DejaVuSans-68" x="63.476562"/>
     <use xlink:href="#DejaVuSans-61" x="126.855469"/>
     <use xlink:href="#DejaVuSans-73" x="188.134766"/>
     <use xlink:href="#DejaVuSans-65" x="240.234375"/>
    </g>
   </g>
   <g id="PathCollection_7">
    <defs>
     <path id="m278f44301e" d="M 0 3 
C 0.795609 3 1.55874 2.683901 2.12132 2.12132 
C 2.683901 1.55874 3 0.795609 3 0 
C 3 -0.795609 2.683901 -1.55874 2.12132 -2.12132 
C 1.55874 -2.683901 0.795609 -3 0 -3 
C -0.795609 -3 -1.55874 -2.683901 -2.12132 -2.12132 
C -2.683901 -1.55874 -3 -0.795609 -3 0 
C -3 0.795609 -2.683901 1.55874 -2.12132 2.12132 
C -1.55874 2.683901 -0.795609 3 0 3 
z
" style="stroke: #1f77b4"/>
    </defs>
    <g>
     <use xlink:href="#m278f44301e" x="296.930625" y="122.117188" style="fill: #1f77b4; stroke: #1f77b4"/>
    </g>
   </g>
   <g id="text_30">
    <!-- encode -->
    <g transform="translate(314.930625 124.742188) scale(0.1 -0.1)">
     <use xlink:href="#DejaVuSans-65"/>
     <use xlink:href="#DejaVuSans-6e" x="61.523438"/>
     <use xlink:href="#DejaVuSans-63" x="124.902344"/>
     <use xlink:href="#DejaVuSans-6f" x="179.882812"/>
     <use xlink:href="#DejaVuSans-64" x="241.064453"/>
     <use xlink:href="#DejaVuSans-65" x="304.541016"/>
    </g>
   </g>
   <g id="PathCollection_8">
    <defs>
     <path id="m91debd7188" d="M 0 3 
C 0.795609 3 1.55874 2.683901 2.12132 2.12132 
C 2.683901 1.55874 3 0.795609 3 0 
C 3 -0.795609 2.683901 -1.55874 2.12132 -2.12132 
C 1.55874 -2.683901 0.795609 -3 0 -3 
C -0.795609 -3 -1.55874 -2.683901 -2.12132 -2.12132 
C -2.683901 -1.55874 -3 -0.795609 -3 0 
C -3 0.795609 -2.683901 1.55874 -2.12132 2.12132 
C -1.55874 2.683901 -0.795609 3 0 3 
z
" style="stroke: #ff7f0e"/>
    </defs>
    <g>
     <use xlink:href="#m91debd7188" x="296.930625" y="136.795313" style="fill: #ff7f0e; stroke: #ff7f0e"/>
    </g>
   </g>
   <g id="text_31">
    <!-- retriev -->
    <g transform="translate(314.930625 139.420313) scale(0.1 -0.1)">
     <use xlink:href="#DejaVuSans-72"/>
     <use xlink:href="#DejaVuSans-65" x="38.863281"/>
     <use xlink:href="#DejaVuSans-74" x="100.386719"/>
     <use xlink:href="#DejaVuSans-72" x="139.595703"/>
     <use xlink:href="#DejaVuSans-69" x="180.708984"/>
     <use xlink:href="#DejaVuSans-65" x="208.492188"/>
     <use xlink:href="#DejaVuSans-76" x="270.015625"/>
    </g>
   </g>
   <g id="text_32">
    <!-- recall -->
    <g transform="translate(314.930625 154.098438) scale(0.1 -0.1)">
     <use xlink:href="#DejaVuSans-72"/>
     <use xlink:href="#DejaVuSans-65" x="38.863281"/>
     <use xlink:href="#DejaVuSans-63" x="100.386719"/>
     <use xlink:href="#DejaVuSans-61" x="155.367188"/>
     <use xlink:href="#DejaVuSans-6c" x="216.646484"/>
     <use xlink:href="#DejaVuSans-6c" x="244.429688"/>
    </g>
   </g>
   <g id="PathCollection_9">
    <defs>
     <path id="me82020c7ee" d="M 0 3 
C 0.795609 3 1.55874 2.683901 2.12132 2.12132 
C 2.683901 1.55874 3 0.795609 3 0 
C 3 -0.795609 2.683901 -1.55874 2.12132 -2.12132 
C 1.55874 -2.683901 0.795609 -3 0 -3 
C -0.795609 -3 -1.55874 -2.683901 -2.12132 -2.12132 
C -2.683901 -1.55874 -3 -0.795609 -3 0 
C -3 0.795609 -2.683901 1.55874 -2.12132 2.12132 
C -1.55874 2.683901 -0.795609 3 0 3 
z
" style="stroke: #333333"/>
    </defs>
    <g>
     <use xlink:href="#me82020c7ee" x="296.930625" y="166.151563" style="fill: #333333; stroke: #333333"/>
    </g>
   </g>
   <g id="text_33">
    <!-- bw -->
    <g transform="translate(314.930625 168.776563) scale(0.1 -0.1)">
     <defs>
      <path id="DejaVuSans-77" d="M 269 3500 
L 844 3500 
L 1563 769 
L 2278 3500 
L 2956 3500 
L 3675 769 
L 4391 3500 
L 4966 3500 
L 4050 0 
L 3372 0 
L 2619 2869 
L 1863 0 
L 1184 0 
L 269 3500 
z
" transform="scale(0.015625)"/>
     </defs>
     <use xlink:href="#DejaVuSans-62"/>
     <use xlink:href="#DejaVuSans-77" x="63.476562"/>
    </g>
   </g>
   <g id="PathCollection_10">
    <defs>
     <path id="m71a20075b2" d="M -1.5 3 
L 0 1.5 
L 1.5 3 
L 3 1.5 
L 1.5 0 
L 3 -1.5 
L 1.5 -3 
L 0 -1.5 
L -1.5 -3 
L -3 -1.5 
L -1.5 0 
L -3 1.5 
z
" style="stroke: #333333"/>
    </defs>
    <g>
     <use xlink:href="#m71a20075b2" x="296.930625" y="180.829688" style="fill: #333333; stroke: #333333"/>
    </g>
   </g>
   <g id="text_34">
    <!-- fw -->
    <g transform="translate(314.930625 183.454688) scale(0.1 -0.1)">
     <defs>
      <path id="DejaVuSans-66" d="M 2375 4863 
L 2375 4384 
L 1825 4384 
Q 1516 4384 1395 4259 
Q 1275 4134 1275 3809 
L 1275 3500 
L 2222 3500 
L 2222 3053 
L 1275 3053 
L 1275 0 
L 697 0 
L 697 3053 
L 147 3053 
L 147 3500 
L 697 3500 
L 697 3744 
Q 697 4328 969 4595 
Q 1241 4863 1831 4863 
L 2375 4863 
z
" transform="scale(0.015625)"/>
     </defs>
     <use xlink:href="#DejaVuSans-66"/>
     <use xlink:href="#DejaVuSans-77" x="33.455078"/>
    </g>
   </g>
  </g>
 </g>
 <defs>
  <clipPath id="p876774a5d6">
   <rect x="60.32" y="10.8" width="213.2746" height="235.24"/>
  </clipPath>
 </defs>
</svg>
